<svg width="172" height="166" viewBox="0 0 172 166" fill="none" xmlns="http://www.w3.org/2000/svg">
<path fill-rule="evenodd" clip-rule="evenodd" d="M86 51C93.462 51 99.8635 55.5406 102.592 62.0096C112.259 62.322 120 70.257 120 80C120 85.4767 117.554 90.3821 113.695 93.6835C113.895 94.7584 114 95.867 114 97C114 106.941 105.941 115 96 115C92.2997 115 88.8602 113.883 86 111.969C83.1398 113.883 79.7003 115 76 115C66.0589 115 58 106.941 58 97C58 95.867 58.1047 94.7584 58.3049 93.6835C54.4459 90.3821 52 85.4767 52 80C52 70.257 59.7408 62.322 69.4078 62.0096C72.1365 55.5406 78.538 51 86 51Z" fill="white"/>
<path d="M102.592 62.0096L102.132 62.2039L102.256 62.499L102.576 62.5093L102.592 62.0096ZM113.695 93.6835L113.37 93.3035L113.151 93.4912L113.204 93.775L113.695 93.6835ZM86 111.969L86.2781 111.553L86 111.367L85.7219 111.553L86 111.969ZM58.3049 93.6835L58.7965 93.775L58.8493 93.4912L58.6299 93.3035L58.3049 93.6835ZM69.4078 62.0096L69.4239 62.5093L69.744 62.499L69.8685 62.2039L69.4078 62.0096ZM103.053 61.8152C100.249 55.1676 93.67 50.5 86 50.5V51.5C93.2539 51.5 99.4782 55.9136 102.132 62.2039L103.053 61.8152ZM120.5 80C120.5 69.9863 112.544 61.831 102.608 61.5098L102.576 62.5093C111.974 62.8131 119.5 70.5278 119.5 80H120.5ZM114.02 94.0634C117.985 90.6711 120.5 85.6289 120.5 80H119.5C119.5 85.3244 117.123 90.0931 113.37 93.3035L114.02 94.0634ZM113.204 93.775C113.398 94.8199 113.5 95.8978 113.5 97H114.5C114.5 95.8361 114.392 94.6969 114.187 93.5919L113.204 93.775ZM113.5 97C113.5 106.665 105.665 114.5 96 114.5V115.5C106.217 115.5 114.5 107.217 114.5 97H113.5ZM96 114.5C92.4018 114.5 89.0586 113.415 86.2781 111.553L85.7219 112.384C88.6618 114.352 92.1976 115.5 96 115.5V114.5ZM76 115.5C79.8024 115.5 83.3382 114.352 86.2781 112.384L85.7219 111.553C82.9414 113.415 79.5982 114.5 76 114.5V115.5ZM57.5 97C57.5 107.217 65.7827 115.5 76 115.5V114.5C66.335 114.5 58.5 106.665 58.5 97H57.5ZM57.8134 93.5919C57.6075 94.6969 57.5 95.8361 57.5 97H58.5C58.5 95.8978 58.6018 94.8199 58.7965 93.775L57.8134 93.5919ZM51.5 80C51.5 85.6289 54.0145 90.6711 57.9799 94.0634L58.6299 93.3035C54.8772 90.0931 52.5 85.3244 52.5 80H51.5ZM69.3916 61.5098C59.4558 61.831 51.5 69.9863 51.5 80H52.5C52.5 70.5278 60.0258 62.8131 69.4239 62.5093L69.3916 61.5098ZM86 50.5C78.33 50.5 71.7512 55.1676 68.9471 61.8152L69.8685 62.2039C72.5218 55.9136 78.7461 51.5 86 51.5V50.5Z" fill="white"/>
<path d="M75.4546 81H73.5376V73.624H73.4868L71.3857 74.957V73.2559L73.6582 71.8086H75.4546V81ZM81.1611 81.127C80.3952 81.127 79.735 80.9429 79.1807 80.5747C78.6305 80.2065 78.2074 79.6691 77.9111 78.9624C77.6191 78.2515 77.4731 77.3988 77.4731 76.4043C77.4731 75.4098 77.6191 74.5592 77.9111 73.8525C78.2074 73.1458 78.6326 72.6084 79.187 72.2402C79.7414 71.8678 80.3994 71.6816 81.1611 71.6816C81.9229 71.6816 82.5809 71.8678 83.1353 72.2402C83.6896 72.6084 84.1149 73.1479 84.4111 73.8589C84.7074 74.5656 84.8555 75.4141 84.8555 76.4043C84.8555 77.403 84.7074 78.2557 84.4111 78.9624C84.1191 79.6691 83.696 80.2065 83.1416 80.5747C82.5872 80.9429 81.9271 81.127 81.1611 81.127ZM81.1611 79.5527C81.5166 79.5527 81.8255 79.4364 82.0879 79.2036C82.3545 78.9709 82.5576 78.6196 82.6973 78.1499C82.8369 77.6759 82.9046 77.0941 82.9004 76.4043C82.9004 75.7188 82.8306 75.1411 82.6909 74.6714C82.5513 74.1974 82.3503 73.842 82.0879 73.605C81.8255 73.368 81.5166 73.2495 81.1611 73.2495C80.8057 73.2495 80.4967 73.368 80.2344 73.605C79.9762 73.842 79.7752 74.1974 79.6313 74.6714C79.4875 75.1411 79.4155 75.7188 79.4155 76.4043C79.4155 77.0941 79.4854 77.6759 79.625 78.1499C79.7689 78.6196 79.972 78.9709 80.2344 79.2036C80.4967 79.4364 80.8057 79.5527 81.1611 79.5527ZM87.1914 82.3838H85.5791L88.5371 71.377H90.1621L87.1914 82.3838ZM91 79.6226L94.3071 76.582C94.633 76.2689 94.8869 76.0107 95.0688 75.8076C95.2508 75.6003 95.3883 75.3929 95.4814 75.1855C95.5788 74.974 95.6274 74.7497 95.6274 74.5127C95.6274 74.2503 95.564 74.0197 95.437 73.8208C95.3101 73.6177 95.1366 73.4632 94.9165 73.3574C94.6965 73.2516 94.4468 73.1987 94.1675 73.1987C93.884 73.1987 93.6322 73.2559 93.4121 73.3701C93.1963 73.4844 93.0291 73.6515 92.9106 73.8716C92.7964 74.0874 92.7393 74.3392 92.7393 74.627H90.9238C90.9238 74.0387 91.0592 73.5225 91.3301 73.0781C91.6051 72.6296 91.9881 72.2847 92.479 72.0435C92.9741 71.8022 93.5433 71.6816 94.1865 71.6816C94.834 71.6816 95.4053 71.7959 95.9004 72.0244C96.3955 72.2529 96.7785 72.5724 97.0493 72.9829C97.3244 73.3934 97.4619 73.8631 97.4619 74.3921C97.4619 74.7518 97.3921 75.0988 97.2524 75.4331C97.117 75.7674 96.8758 76.1377 96.5288 76.5439C96.186 76.9502 95.6973 77.4411 95.0625 78.0166L93.6597 79.3687V79.4321H97.5952V81H91.0063L91 79.6226Z" fill="#0C2557"/>
<path d="M85.9911 90.27C85.9911 91.0806 85.752 91.8276 85.2734 92.5112C84.7949 93.1948 84.1454 93.7637 83.3251 94.2178C82.5097 94.667 81.6113 94.9697 80.6299 95.126L80.0732 94.0054C80.9228 93.8931 81.7065 93.6514 82.4242 93.2803C83.142 92.9092 83.7109 92.46 84.1309 91.9326C84.5557 91.4053 84.7681 90.8511 84.7681 90.27V89.5596H85.9911V90.27ZM86.2109 90.27C86.2109 90.8462 86.4234 91.4004 86.8482 91.9326C87.2778 92.46 87.854 92.9092 88.5767 93.2803C89.3042 93.6514 90.0879 93.8931 90.9277 94.0054L90.3783 95.126C89.392 94.9697 88.4912 94.6646 87.6758 94.2104C86.8604 93.7563 86.2108 93.1875 85.7275 92.5039C85.2441 91.8203 85.0024 91.0757 85.0024 90.27V89.5596H86.2109V90.27ZM86.145 102.238H84.7754V97.2939H86.145V102.238ZM91.4697 97.5796H79.502V96.4224H91.4697V97.5796Z" fill="#0C2557"/>
</svg>
