<svg width="172" height="166" viewBox="0 0 172 166" fill="none" xmlns="http://www.w3.org/2000/svg">
<path fill-rule="evenodd" clip-rule="evenodd" d="M86 51C93.462 51 99.8635 55.5406 102.592 62.0096C112.259 62.322 120 70.257 120 80C120 85.4767 117.554 90.3821 113.695 93.6835C113.895 94.7584 114 95.867 114 97C114 106.941 105.941 115 96 115C92.2997 115 88.8602 113.883 86 111.969C83.1398 113.883 79.7003 115 76 115C66.0589 115 58 106.941 58 97C58 95.867 58.1047 94.7584 58.3049 93.6835C54.4459 90.3821 52 85.4767 52 80C52 70.257 59.7408 62.322 69.4078 62.0096C72.1365 55.5406 78.538 51 86 51Z" fill="white"/>
<path d="M102.592 62.0096L102.132 62.2039L102.256 62.499L102.576 62.5093L102.592 62.0096ZM113.695 93.6835L113.37 93.3035L113.151 93.4912L113.204 93.775L113.695 93.6835ZM86 111.969L86.2781 111.553L86 111.367L85.7219 111.553L86 111.969ZM58.3049 93.6835L58.7965 93.775L58.8493 93.4912L58.6299 93.3035L58.3049 93.6835ZM69.4078 62.0096L69.4239 62.5093L69.744 62.499L69.8685 62.2039L69.4078 62.0096ZM103.053 61.8152C100.249 55.1676 93.67 50.5 86 50.5V51.5C93.2539 51.5 99.4782 55.9136 102.132 62.2039L103.053 61.8152ZM120.5 80C120.5 69.9863 112.544 61.831 102.608 61.5098L102.576 62.5093C111.974 62.8131 119.5 70.5278 119.5 80H120.5ZM114.02 94.0634C117.985 90.6711 120.5 85.6289 120.5 80H119.5C119.5 85.3244 117.123 90.0931 113.37 93.3035L114.02 94.0634ZM113.204 93.775C113.398 94.8199 113.5 95.8978 113.5 97H114.5C114.5 95.8361 114.392 94.6969 114.187 93.5919L113.204 93.775ZM113.5 97C113.5 106.665 105.665 114.5 96 114.5V115.5C106.217 115.5 114.5 107.217 114.5 97H113.5ZM96 114.5C92.4018 114.5 89.0586 113.415 86.2781 111.553L85.7219 112.384C88.6618 114.352 92.1976 115.5 96 115.5V114.5ZM76 115.5C79.8024 115.5 83.3382 114.352 86.2781 112.384L85.7219 111.553C82.9414 113.415 79.5982 114.5 76 114.5V115.5ZM57.5 97C57.5 107.217 65.7827 115.5 76 115.5V114.5C66.335 114.5 58.5 106.665 58.5 97H57.5ZM57.8134 93.5919C57.6075 94.6969 57.5 95.8361 57.5 97H58.5C58.5 95.8978 58.6018 94.8199 58.7965 93.775L57.8134 93.5919ZM51.5 80C51.5 85.6289 54.0145 90.6711 57.9799 94.0634L58.6299 93.3035C54.8772 90.0931 52.5 85.3244 52.5 80H51.5ZM69.3916 61.5098C59.4558 61.831 51.5 69.9863 51.5 80H52.5C52.5 70.5278 60.0258 62.8131 69.4239 62.5093L69.3916 61.5098ZM86 50.5C78.33 50.5 71.7512 55.1676 68.9471 61.8152L69.8685 62.2039C72.5218 55.9136 78.7461 51.5 86 51.5V50.5Z" fill="white"/>
<path d="M75.3754 81H73.4584V73.624H73.4076L71.3066 74.957V73.2559L73.579 71.8086H75.3754V81ZM81.0819 81.127C80.316 81.127 79.6558 80.9429 79.1015 80.5747C78.5513 80.2065 78.1282 79.6691 77.8319 78.9624C77.54 78.2515 77.394 77.3988 77.394 76.4043C77.394 75.4098 77.54 74.5592 77.8319 73.8525C78.1282 73.1458 78.5535 72.6084 79.1078 72.2402C79.6622 71.8678 80.3202 71.6816 81.0819 71.6816C81.8437 71.6816 82.5017 71.8678 83.0561 72.2402C83.6104 72.6084 84.0357 73.1479 84.3319 73.8589C84.6282 74.5656 84.7763 75.4141 84.7763 76.4043C84.7763 77.403 84.6282 78.2557 84.3319 78.9624C84.04 79.6691 83.6168 80.2065 83.0624 80.5747C82.508 80.9429 81.8479 81.127 81.0819 81.127ZM81.0819 79.5527C81.4374 79.5527 81.7463 79.4364 82.0087 79.2036C82.2753 78.9709 82.4784 78.6196 82.6181 78.1499C82.7577 77.6759 82.8254 77.0941 82.8212 76.4043C82.8212 75.7188 82.7514 75.1411 82.6117 74.6714C82.4721 74.1974 82.2711 73.842 82.0087 73.605C81.7463 73.368 81.4374 73.2495 81.0819 73.2495C80.7265 73.2495 80.4176 73.368 80.1552 73.605C79.897 73.842 79.696 74.1974 79.5522 74.6714C79.4083 75.1411 79.3363 75.7188 79.3363 76.4043C79.3363 77.0941 79.4062 77.6759 79.5458 78.1499C79.6897 78.6196 79.8928 78.9709 80.1552 79.2036C80.4176 79.4364 80.7265 79.5527 81.0819 79.5527ZM87.1122 82.3838H85.4999L88.4579 71.377H90.0829L87.1122 82.3838ZM94.8881 81H92.9711V73.624H92.9203L90.8192 74.957V73.2559L93.0917 71.8086H94.8881V81Z" fill="#0C2557"/>
<path d="M83.3208 99.0664H81.6875V96.9058H83.3208V99.0664ZM88.9312 102.289H87.2905V89.0615H88.9312V102.289ZM90.7915 95.8804H88.3892V94.5327H90.7915V95.8804ZM78.3037 98.627C79.9297 98.6318 81.4165 98.6099 82.7642 98.561C84.1118 98.5122 85.3862 98.4048 86.5874 98.2388L86.6973 99.4399C85.8184 99.5962 84.9053 99.7134 83.958 99.7915C83.0156 99.8647 82.127 99.9136 81.292 99.938C80.457 99.9624 79.5366 99.9746 78.5308 99.9746L78.3037 98.627ZM86.4336 91.874H78.5454V90.585H86.4336V91.874ZM82.5225 92.4819C83.1426 92.4819 83.6943 92.5869 84.1777 92.7969C84.666 93.002 85.0469 93.2925 85.3203 93.6685C85.5938 94.0396 85.7305 94.4692 85.7305 94.9575C85.7305 95.4409 85.5938 95.8682 85.3203 96.2393C85.0469 96.6104 84.666 96.9009 84.1777 97.1108C83.6943 97.3159 83.1426 97.4185 82.5225 97.4185C81.8926 97.4185 81.3335 97.3159 80.8452 97.1108C80.3569 96.9009 79.9785 96.6128 79.71 96.2466C79.4414 95.8755 79.3071 95.4458 79.3071 94.9575C79.3071 94.4692 79.4414 94.0396 79.71 93.6685C79.9785 93.2925 80.3569 93.002 80.8452 92.7969C81.3335 92.5869 81.8926 92.4819 82.5225 92.4819ZM82.5225 93.7271C82.1904 93.7271 81.8975 93.7759 81.6436 93.8735C81.3896 93.9712 81.1919 94.1128 81.0503 94.2983C80.9136 94.4839 80.8452 94.7036 80.8452 94.9575C80.8452 95.2065 80.9136 95.4238 81.0503 95.6094C81.187 95.7949 81.3823 95.9341 81.6362 96.0269C81.895 96.1196 82.1904 96.166 82.5225 96.166C82.8496 96.166 83.1377 96.1196 83.3867 96.0269C83.6406 95.9341 83.8359 95.7949 83.9727 95.6094C84.1094 95.4238 84.1777 95.2065 84.1777 94.9575C84.1777 94.7036 84.1094 94.4839 83.9727 94.2983C83.8359 94.1128 83.6406 93.9712 83.3867 93.8735C83.1377 93.7759 82.8496 93.7271 82.5225 93.7271ZM83.3208 91.5078H81.6875V89.1201H83.3208V91.5078Z" fill="#0C2557"/>
</svg>
