<svg width="209" height="126" viewBox="0 0 209 126" fill="none" xmlns="http://www.w3.org/2000/svg">
<path fill-rule="evenodd" clip-rule="evenodd" d="M202.437 57.9221C208.517 54.7201 213.104 48.8401 214.388 41.5481C216.591 29.0361 208.234 17.1071 195.722 14.9031C189.492 13.8061 183.406 15.327 178.593 18.676C166.316 9.77805 150.646 5.56106 134.489 8.13106C122.838 9.98506 112.524 15.1151 104.337 22.4321C99.2822 11.8141 89.3392 3.71706 76.8752 1.52206C56.4112 -2.08094 36.9012 11.586 33.2972 32.05C32.6052 35.981 32.5502 39.8761 33.0582 43.6311C17.4812 45.9481 4.42919 57.9661 1.54819 74.3291C-2.05581 94.7921 11.6122 114.303 32.0762 117.907C52.5392 121.51 72.0502 107.843 75.6542 87.3791C76.3462 83.4481 76.4012 79.5521 75.8932 75.7981C79.0132 75.3341 82.0322 74.4801 84.8882 73.2811C84.9902 74.1831 85.1132 75.0871 85.2572 75.9931C90.4022 108.328 120.785 130.37 153.119 125.225C185.267 120.11 207.241 90.0471 202.437 57.9221Z" fill="url(#paint0_linear_1025_7987)"/>
<defs>
<linearGradient id="paint0_linear_1025_7987" x1="102.713" y1="-3.37695" x2="109.593" y2="70.8731" gradientUnits="userSpaceOnUse">
<stop stop-color="#BF9BF5" stop-opacity="0.33"/>
<stop offset="0.47624" stop-color="#43A5EF" stop-opacity="0.16"/>
<stop offset="0.904514" stop-color="#43A5EF" stop-opacity="0"/>
</linearGradient>
</defs>
</svg>
