<svg width="141" height="141" viewBox="0 0 141 141" fill="none" xmlns="http://www.w3.org/2000/svg">
<g opacity="0.65">
<circle cx="85.4229" cy="52.9649" r="29.0809" transform="rotate(45 85.4229 52.9649)" fill="#F6D1B1" fill-opacity="0.45"/>
<circle cx="70.8574" cy="78.6691" r="22.4165" transform="rotate(45 70.8574 78.6691)" fill="#F6D1B1" fill-opacity="0.25"/>
<circle cx="77.7119" cy="101.803" r="12.117" transform="rotate(45 77.7119 101.803)" fill="#F6D1B1" fill-opacity="0.45"/>
<circle cx="33.1582" cy="101.803" r="7.27022" transform="rotate(45 33.1582 101.803)" fill="#F6D1B1" fill-opacity="0.45"/>
<circle cx="95.7051" cy="88.9508" r="3.63511" transform="rotate(45 95.7051 88.9508)" fill="#F6D1B1" fill-opacity="0.45"/>
<circle cx="128.264" cy="70.9579" r="1.81756" transform="rotate(45 128.264 70.9579)" fill="#F6D1B1" fill-opacity="0.75"/>
<circle cx="50.6647" cy="60.0568" r="1.81756" transform="rotate(11.8926 50.6647 60.0568)" fill="#F6D1B1" fill-opacity="0.75"/>
<circle cx="52.0078" cy="30.6881" r="1.81756" transform="rotate(45 52.0078 30.6881)" fill="#F6D1B1" fill-opacity="0.75"/>
<circle cx="87.9941" cy="11.8384" r="1.81756" transform="rotate(45 87.9941 11.8384)" fill="#F6D1B1" fill-opacity="0.75"/>
<circle cx="45.3304" cy="47.1695" r="3.63511" transform="rotate(11.8926 45.3304 47.1695)" fill="#F6D1B1" fill-opacity="0.45"/>
</g>
</svg>
