<svg width="366" height="404" viewBox="0 0 366 404" fill="none" xmlns="http://www.w3.org/2000/svg">
<g clip-path="url(#clip0_541_2348)">
<path fill-rule="evenodd" clip-rule="evenodd" d="M352.418 179.109C359.907 170.576 363.509 158.792 361.181 146.783C357.185 126.174 337.24 112.706 316.631 116.702C306.37 118.691 297.878 124.635 292.432 132.647C268.229 126.174 241.558 128.928 218.147 142.445C201.267 152.19 188.385 166.202 180.076 182.331C166.001 168.935 145.874 162.319 125.345 166.299C91.6396 172.834 69.6135 205.454 76.1479 239.159C77.4031 245.633 79.6208 251.677 82.6237 257.17C59.9584 269.952 46.923 296.209 52.1479 323.159C58.6823 356.864 91.3029 378.89 125.008 372.356C158.713 365.821 180.739 333.201 174.205 299.496C172.949 293.022 170.732 286.978 167.729 281.485C172.269 278.925 176.423 275.824 180.121 272.285C180.811 273.617 181.535 274.94 182.293 276.252C209.343 323.103 269.25 339.155 316.101 312.106C362.682 285.213 378.818 225.838 352.418 179.109Z" fill="url(#paint0_linear_541_2348)"/>
<path d="M84.5 0L85.0629 41.3991L106.25 5.8279L86.038 41.962L122.172 21.75L86.6009 42.9371L128 43.5L86.6009 44.0629L122.172 65.25L86.038 45.038L106.25 81.1721L85.0629 45.6009L84.5 87L83.9371 45.6009L62.75 81.1721L82.962 45.038L46.8279 65.25L82.3991 44.0629L41 43.5L82.3991 42.9371L46.8279 21.75L82.962 41.962L62.75 5.8279L83.9371 41.3991L84.5 0Z" fill="url(#paint1_radial_541_2348)"/>
<path d="M292.5 263L293.063 304.399L314.25 268.828L294.038 304.962L330.172 284.75L294.601 305.937L336 306.5L294.601 307.063L330.172 328.25L294.038 308.038L314.25 344.172L293.063 308.601L292.5 350L291.937 308.601L270.75 344.172L290.962 308.038L254.828 328.25L290.399 307.063L249 306.5L290.399 305.937L254.828 284.75L290.962 304.962L270.75 268.828L291.937 304.399L292.5 263Z" fill="url(#paint2_radial_541_2348)"/>
<path d="M201.5 87L202.419 92.5808L208 93.5L202.419 94.4192L201.5 100L200.581 94.4192L195 93.5L200.581 92.5808L201.5 87Z" fill="#D0D9C1"/>
<path d="M25.5 391L26.4192 396.581L32 397.5L26.4192 398.419L25.5 404L24.5808 398.419L19 397.5L24.5808 396.581L25.5 391Z" fill="#D0D9C1"/>
<path d="M275.5 20L276.419 25.5808L282 26.5L276.419 27.4192L275.5 33L274.581 27.4192L269 26.5L274.581 25.5808L275.5 20Z" fill="#D0D9C1"/>
<path d="M6.5 139L7.41924 144.581L13 145.5L7.41924 146.419L6.5 152L5.58076 146.419L0 145.5L5.58076 144.581L6.5 139Z" fill="#D0D9C1"/>
<path d="M53.5 216L54.4192 221.581L60 222.5L54.4192 223.419L53.5 229L52.5808 223.419L47 222.5L52.5808 221.581L53.5 216Z" fill="#D0D9C1"/>
</g>
<defs>
<linearGradient id="paint0_linear_541_2348" x1="162.316" y1="143.468" x2="216.816" y2="253.968" gradientUnits="userSpaceOnUse">
<stop stop-color="#BF9BF5" stop-opacity="0.33"/>
<stop offset="0.47624" stop-color="#43A5EF" stop-opacity="0.16"/>
<stop offset="0.904514" stop-color="#43A5EF" stop-opacity="0"/>
</linearGradient>
<radialGradient id="paint1_radial_541_2348" cx="0" cy="0" r="1" gradientUnits="userSpaceOnUse" gradientTransform="translate(84.5 43.5) rotate(90) scale(43.5)">
<stop stop-color="#D0D9C1"/>
<stop offset="1" stop-color="#D0D9C1" stop-opacity="0"/>
</radialGradient>
<radialGradient id="paint2_radial_541_2348" cx="0" cy="0" r="1" gradientUnits="userSpaceOnUse" gradientTransform="translate(292.5 306.5) rotate(90) scale(43.5)">
<stop stop-color="#D0D9C1"/>
<stop offset="1" stop-color="#D0D9C1" stop-opacity="0"/>
</radialGradient>
<clipPath id="clip0_541_2348">
<rect width="366" height="404" fill="white"/>
</clipPath>
</defs>
</svg>
