<svg width="477" height="2378" viewBox="0 0 477 2378" fill="none" xmlns="http://www.w3.org/2000/svg">
<path fill-rule="evenodd" clip-rule="evenodd" d="M330.945 1611.41C338.491 1602.81 342.121 1590.94 339.775 1578.83C335.748 1558.07 315.65 1544.5 294.883 1548.52C284.542 1550.53 275.985 1556.52 270.497 1564.59C246.108 1558.07 219.232 1560.84 195.641 1574.46C178.631 1584.28 165.649 1598.4 157.277 1614.66C143.093 1601.16 122.812 1594.49 102.125 1598.5C68.1602 1605.09 45.9647 1637.96 52.5494 1671.92C53.8142 1678.45 56.0489 1684.54 59.075 1690.07C36.2353 1702.95 23.0997 1729.41 28.3648 1756.57C34.9494 1790.53 67.8209 1812.73 101.785 1806.14C135.749 1799.56 157.945 1766.69 151.36 1732.72C150.096 1726.2 147.861 1720.11 144.835 1714.57C149.41 1711.99 153.596 1708.87 157.322 1705.3C158.018 1706.64 158.748 1707.98 159.511 1709.3C186.769 1756.51 247.137 1772.69 294.348 1745.43C341.288 1718.33 357.548 1658.5 330.945 1611.41Z" fill="url(#paint0_linear_645_7918)"/>
<path fill-rule="evenodd" clip-rule="evenodd" d="M378.347 1253.21C391.872 1255.77 406.327 1253.91 419.42 1246.93C449.952 1230.66 461.514 1192.72 445.245 1162.19C428.975 1131.66 391.034 1120.09 360.502 1136.36C357.905 1137.75 355.444 1139.29 353.127 1140.97C338.052 1127.52 319.939 1119.53 301.257 1116.91C299.793 1111.94 297.805 1107.04 295.273 1102.29C279.57 1072.82 247.549 1057.64 216.293 1061.94L216.208 1061.78C199.938 1031.25 161.998 1019.69 131.465 1035.96C100.933 1052.23 89.3705 1090.17 105.64 1120.7C115.172 1138.59 132.142 1149.96 150.702 1153.05C152.122 1160.59 154.694 1168.04 158.493 1175.17C165.76 1188.81 176.521 1199.39 189.085 1206.39C186.656 1235.54 197.15 1265.48 220.232 1286.94C260.153 1324.06 322.611 1321.79 359.734 1281.87C367.785 1273.22 373.984 1263.5 378.347 1253.21Z" fill="url(#paint1_linear_645_7918)"/>
<path d="M364.281 1014.75L364.692 1045.91L380.152 1019.13L365.403 1046.34L391.771 1031.12L365.814 1047.07L396.023 1047.5L365.814 1047.92L391.771 1063.87L365.403 1048.65L380.152 1075.86L364.692 1049.08L364.281 1080.25L363.87 1049.08L348.41 1075.86L363.159 1048.65L336.791 1063.87L362.748 1047.92L332.539 1047.5L362.748 1047.07L336.791 1031.12L363.159 1046.34L348.41 1019.13L363.87 1045.91L364.281 1014.75Z" fill="url(#paint2_radial_645_7918)"/>
<path d="M337.073 647.946L338 653.57L343.623 654.496L338 655.422L337.073 661.046L336.147 655.422L330.523 654.496L336.147 653.57L337.073 647.946Z" fill="#D9C1D3"/>
<path d="M90.1887 1095.36L91.115 1100.99L96.7387 1101.91L91.115 1102.84L90.1887 1108.46L89.2624 1102.84L83.6387 1101.91L89.2624 1100.99L90.1887 1095.36Z" fill="#D9C1D3"/>
<path d="M160.727 1370.46L161.654 1376.09L167.277 1377.01L161.654 1377.94L160.727 1383.56L159.801 1377.94L154.177 1377.01L159.801 1376.09L160.727 1370.46Z" fill="#D9C1D3"/>
<g opacity="0.65">
<circle cx="313.345" cy="1633.54" r="18.1756" transform="rotate(-35.6871 313.345 1633.54)" fill="#D9C1D3" fill-opacity="0.45"/>
<circle cx="335.896" cy="1638.98" r="22.4165" transform="rotate(-35.6871 335.896 1638.98)" fill="#D9C1D3" fill-opacity="0.25"/>
<circle cx="309.365" cy="1673.7" r="3.63511" transform="rotate(-35.6871 309.365 1673.7)" fill="#D9C1D3" fill-opacity="0.45"/>
<circle cx="329.703" cy="1586.73" r="1.81756" transform="rotate(-35.6871 329.703 1586.73)" fill="#D9C1D3" fill-opacity="0.75"/>
<circle cx="383.55" cy="1655.47" r="1.81756" transform="rotate(-35.6871 383.55 1655.47)" fill="#D9C1D3" fill-opacity="0.75"/>
<circle cx="326.982" cy="1677.45" r="3.63511" transform="rotate(-35.6871 326.982 1677.45)" fill="#D9C1D3" fill-opacity="0.45"/>
<circle cx="327.346" cy="1601.11" r="3.63511" transform="rotate(-35.6871 327.346 1601.11)" fill="#D9C1D3" fill-opacity="0.45"/>
<circle cx="370.437" cy="1650.72" r="3.63511" transform="rotate(-35.6871 370.437 1650.72)" fill="#D9C1D3" fill-opacity="0.45"/>
</g>
<g opacity="0.65">
<circle cx="71.4986" cy="2086" r="18.1756" transform="rotate(-35.6871 71.4986 2086)" fill="#D9C1D3" fill-opacity="0.45"/>
<circle cx="94.05" cy="2091.43" r="22.4165" transform="rotate(-35.6871 94.05 2091.43)" fill="#D9C1D3" fill-opacity="0.25"/>
<circle cx="67.5184" cy="2126.15" r="3.63511" transform="rotate(-35.6871 67.5184 2126.15)" fill="#D9C1D3" fill-opacity="0.45"/>
<circle cx="87.8568" cy="2039.19" r="1.81756" transform="rotate(-35.6871 87.8568 2039.19)" fill="#D9C1D3" fill-opacity="0.75"/>
<circle cx="141.704" cy="2107.93" r="1.81756" transform="rotate(-35.6871 141.704 2107.93)" fill="#D9C1D3" fill-opacity="0.75"/>
<circle cx="85.1356" cy="2129.91" r="3.63511" transform="rotate(-35.6871 85.1356 2129.91)" fill="#D9C1D3" fill-opacity="0.45"/>
<circle cx="85.4998" cy="2053.56" r="3.63511" transform="rotate(-35.6871 85.4998 2053.56)" fill="#D9C1D3" fill-opacity="0.45"/>
<circle cx="128.591" cy="2103.17" r="3.63511" transform="rotate(-35.6871 128.591 2103.17)" fill="#D9C1D3" fill-opacity="0.45"/>
</g>
<path d="M347.15 1972.05L348.932 1982.87L359.747 1984.65L348.932 1986.43L347.15 1997.25L345.369 1986.43L334.554 1984.65L345.369 1982.87L347.15 1972.05Z" fill="#D9C1D3"/>
<path fill-rule="evenodd" clip-rule="evenodd" d="M434.737 2181.76C442.283 2173.16 445.913 2161.29 443.567 2149.19C439.54 2128.42 419.442 2114.85 398.675 2118.88C388.334 2120.88 379.777 2126.87 374.289 2134.94C349.9 2128.42 323.024 2131.2 299.433 2144.82C282.423 2154.64 269.441 2168.76 261.069 2185.01C246.885 2171.51 226.604 2164.84 205.917 2168.86C171.952 2175.44 149.757 2208.31 156.341 2242.28C157.606 2248.8 159.841 2254.89 162.867 2260.42C140.027 2273.31 126.892 2299.76 132.157 2326.92C138.741 2360.89 171.613 2383.08 205.577 2376.5C239.541 2369.91 261.737 2337.04 255.152 2303.08C253.888 2296.55 251.653 2290.46 248.627 2284.93C253.202 2282.35 257.388 2279.22 261.114 2275.66C261.81 2277 262.54 2278.33 263.303 2279.65C290.561 2326.87 350.929 2343.04 398.14 2315.78C445.08 2288.68 461.34 2228.85 434.737 2181.76Z" fill="url(#paint3_linear_645_7918)"/>
<path fill-rule="evenodd" clip-rule="evenodd" d="M362.224 526.66C375.749 529.221 390.204 527.362 403.297 520.385C433.829 504.115 445.391 466.175 429.122 435.642C412.852 405.11 374.911 393.548 344.379 409.817C341.781 411.201 339.321 412.742 337.004 414.422C321.929 400.975 303.816 392.986 285.134 390.364C283.669 385.392 281.682 380.495 279.15 375.742C263.447 346.274 231.426 331.09 200.17 335.397L200.085 335.237C183.815 304.704 145.874 293.142 115.342 309.412C84.8096 325.681 73.2474 363.622 89.5171 394.155C99.0489 412.042 116.019 423.419 134.579 426.502C135.999 434.043 138.571 441.498 142.37 448.628C149.637 462.265 160.398 472.843 172.962 479.846C170.533 508.996 181.027 538.929 204.109 560.393C244.03 597.517 306.487 595.249 343.611 555.327C351.662 546.669 357.861 536.951 362.224 526.66Z" fill="url(#paint4_linear_645_7918)"/>
<g opacity="0.65">
<ellipse cx="36.5008" cy="21.6456" rx="13.4359" ry="12.9874" fill="#F6D1B1" fill-opacity="0.45"/>
<ellipse cx="47.6979" cy="34.2" rx="16.5709" ry="16.0178" fill="#F6D1B1" fill-opacity="0.25"/>
<ellipse cx="16.7951" cy="43.2912" rx="2.68718" ry="2.59748" fill="#F6D1B1" fill-opacity="0.45"/>
<ellipse cx="66.5081" cy="1.29874" rx="1.34359" ry="1.29874" fill="#F6D1B1" fill-opacity="0.75"/>
<ellipse cx="69.1952" cy="63.6382" rx="1.34359" ry="1.29874" fill="#F6D1B1" fill-opacity="0.75"/>
<ellipse cx="25.7521" cy="52.8154" rx="2.68718" ry="2.59748" fill="#F6D1B1" fill-opacity="0.45"/>
<ellipse cx="58.8942" cy="8.65827" rx="2.68718" ry="2.59748" fill="#F6D1B1" fill-opacity="0.45"/>
<ellipse cx="63.3727" cy="55.4128" rx="2.68718" ry="2.59748" fill="#F6D1B1" fill-opacity="0.45"/>
</g>
<g opacity="0.65">
<ellipse cx="367.481" cy="33.0115" rx="16.5451" ry="15.8581" transform="rotate(-108.047 367.481 33.0115)" fill="#F6D1B1" fill-opacity="0.25"/>
<ellipse cx="382.445" cy="38.3368" rx="11.4104" ry="10.9366" transform="rotate(-108.047 382.445 38.3368)" fill="#F6D1B1" fill-opacity="0.45"/>
<ellipse cx="390.942" cy="6.16618" rx="1.71156" ry="1.64049" transform="rotate(-108.047 390.942 6.16618)" fill="#F6D1B1" fill-opacity="0.75"/>
<ellipse cx="355.439" cy="52.5362" rx="1.71156" ry="1.64049" transform="rotate(-108.047 355.439 52.5362)" fill="#F6D1B1" fill-opacity="0.75"/>
<ellipse cx="338.074" cy="52.1941" rx="1.71156" ry="1.64049" transform="rotate(-108.047 338.074 52.1941)" fill="#F6D1B1" fill-opacity="0.75"/>
<ellipse cx="361.211" cy="29.6541" rx="3.42311" ry="3.28098" transform="rotate(-108.047 361.211 29.6541)" fill="#F6D1B1" fill-opacity="0.45"/>
<ellipse cx="383.007" cy="15.352" rx="3.42311" ry="3.28098" transform="rotate(-108.047 383.007 15.352)" fill="#F6D1B1" fill-opacity="0.45"/>
</g>
<g opacity="0.65">
<circle cx="388.139" cy="398.911" r="29.0809" transform="rotate(45 388.139 398.911)" fill="#F6D1B1" fill-opacity="0.45"/>
<circle cx="373.574" cy="424.615" r="22.4165" transform="rotate(45 373.574 424.615)" fill="#F6D1B1" fill-opacity="0.25"/>
<circle cx="380.428" cy="447.749" r="12.117" transform="rotate(45 380.428 447.749)" fill="#F6D1B1" fill-opacity="0.45"/>
<circle cx="335.874" cy="447.749" r="7.27022" transform="rotate(45 335.874 447.749)" fill="#F6D1B1" fill-opacity="0.45"/>
<circle cx="398.421" cy="434.897" r="3.63511" transform="rotate(45 398.421 434.897)" fill="#F6D1B1" fill-opacity="0.45"/>
<circle cx="430.979" cy="416.904" r="1.81756" transform="rotate(45 430.979 416.904)" fill="#F6D1B1" fill-opacity="0.75"/>
<circle cx="353.381" cy="406.003" r="1.81756" transform="rotate(11.8926 353.381 406.003)" fill="#F6D1B1" fill-opacity="0.75"/>
<circle cx="354.724" cy="376.634" r="1.81756" transform="rotate(45 354.724 376.634)" fill="#F6D1B1" fill-opacity="0.75"/>
<circle cx="390.709" cy="357.785" r="1.81756" transform="rotate(45 390.709 357.785)" fill="#F6D1B1" fill-opacity="0.75"/>
<circle cx="348.046" cy="393.116" r="3.63511" transform="rotate(11.8926 348.046 393.116)" fill="#F6D1B1" fill-opacity="0.45"/>
</g>
<g opacity="0.65">
<circle cx="49.4392" cy="509.954" r="18.1756" fill="#F6D1B1" fill-opacity="0.45"/>
<circle cx="64.5855" cy="527.524" r="22.4165" fill="#F6D1B1" fill-opacity="0.25"/>
<circle cx="22.7816" cy="540.247" r="3.63511" fill="#F6D1B1" fill-opacity="0.45"/>
<circle cx="90.0314" cy="481.479" r="1.81756" fill="#F6D1B1" fill-opacity="0.75"/>
<circle cx="93.6662" cy="568.722" r="1.81756" fill="#F6D1B1" fill-opacity="0.75"/>
<circle cx="34.8988" cy="553.576" r="3.63511" fill="#F6D1B1" fill-opacity="0.45"/>
<circle cx="79.7318" cy="491.779" r="3.63511" fill="#F6D1B1" fill-opacity="0.45"/>
<circle cx="85.7904" cy="557.211" r="3.63511" fill="#F6D1B1" fill-opacity="0.45"/>
</g>
<path d="M321.958 69.5308L322.186 86.3137L330.775 71.8934L322.581 86.5419L337.23 78.3481L322.81 86.9372L339.592 87.1654L322.81 87.3936L337.23 95.9827L322.581 87.7889L330.775 102.437L322.186 88.0171L321.958 104.8L321.73 88.0171L313.141 102.437L321.334 87.7889L306.686 95.9827L321.106 87.3936L304.323 87.1654L321.106 86.9372L306.686 78.3481L321.334 86.5419L313.141 71.8934L321.73 86.3137L321.958 69.5308Z" fill="url(#paint5_radial_645_7918)"/>
<path d="M71.0424 110.846L71.6837 115.605L75.577 116.388L71.6837 117.172L71.0424 121.931L70.4011 117.172L66.5078 116.388L70.4011 115.605L71.0424 110.846Z" fill="#F6D1B1"/>
<path d="M85.1503 89.6846L86.3617 97.4712L93.7157 98.7538L86.3617 100.036L85.1503 107.823L83.939 100.036L76.585 98.7538L83.939 97.4712L85.1503 89.6846Z" fill="#F6D1B1"/>
<path d="M56.4312 603.608L56.9529 633.337L76.5851 607.793L57.8563 633.742L91.3387 619.227L58.3779 634.442L96.7389 634.846L58.3779 635.25L91.3387 650.465L57.8563 635.951L76.5851 661.899L56.9529 636.355L56.4312 666.085L55.9096 636.355L36.2774 661.899L55.0061 635.951L21.5237 650.465L54.4845 635.25L16.1235 634.846L54.4845 634.442L21.5237 619.227L55.0061 633.742L36.2774 607.793L55.9096 633.337L56.4312 603.608Z" fill="url(#paint6_radial_645_7918)"/>
<g opacity="0.65">
<circle cx="341.488" cy="804.087" r="22.0769" transform="rotate(-108.047 341.488 804.087)" fill="#F6D1B1" fill-opacity="0.25"/>
<circle cx="362.145" cy="810.968" r="15.2255" transform="rotate(-108.047 362.145 810.968)" fill="#F6D1B1" fill-opacity="0.45"/>
<circle cx="374.475" cy="767.717" r="2.28382" transform="rotate(-108.047 374.475 767.717)" fill="#F6D1B1" fill-opacity="0.75"/>
<circle cx="324.457" cy="830.453" r="2.28382" transform="rotate(-108.047 324.457 830.453)" fill="#F6D1B1" fill-opacity="0.75"/>
<circle cx="300.384" cy="830.291" r="2.28382" transform="rotate(-108.047 300.384 830.291)" fill="#F6D1B1" fill-opacity="0.75"/>
<circle cx="332.851" cy="799.695" r="4.56764" transform="rotate(-108.047 332.851 799.695)" fill="#F6D1B1" fill-opacity="0.45"/>
<circle cx="363.316" cy="780.161" r="4.56764" transform="rotate(-108.047 363.316 780.161)" fill="#F6D1B1" fill-opacity="0.45"/>
</g>
<g opacity="0.65">
<circle cx="64.5545" cy="1136.74" r="18.1756" fill="#F6D1B1" fill-opacity="0.45"/>
<circle cx="79.7007" cy="1154.31" r="22.4165" fill="#F6D1B1" fill-opacity="0.25"/>
<circle cx="37.8968" cy="1167.03" r="3.63511" fill="#F6D1B1" fill-opacity="0.45"/>
<circle cx="105.147" cy="1108.26" r="1.81756" fill="#F6D1B1" fill-opacity="0.75"/>
<circle cx="108.781" cy="1195.51" r="1.81756" fill="#F6D1B1" fill-opacity="0.75"/>
<circle cx="50.014" cy="1180.36" r="3.63511" fill="#F6D1B1" fill-opacity="0.45"/>
<circle cx="94.847" cy="1118.56" r="3.63511" fill="#F6D1B1" fill-opacity="0.45"/>
<circle cx="100.906" cy="1184" r="3.63511" fill="#F6D1B1" fill-opacity="0.45"/>
</g>
<path d="M376.373 1314.03L376.94 1355.75L398.29 1319.9L377.923 1356.32L414.335 1335.95L378.49 1357.3L420.208 1357.87L378.49 1358.43L414.335 1379.78L377.923 1359.42L398.29 1395.83L376.94 1359.98L376.373 1401.7L375.806 1359.98L354.456 1395.83L374.823 1359.42L338.411 1379.78L374.256 1358.43L332.539 1357.87L374.256 1357.3L338.411 1335.95L374.823 1356.32L354.456 1319.9L375.806 1355.75L376.373 1314.03Z" fill="url(#paint7_radial_645_7918)"/>
<path d="M320.95 1297.91L321.877 1303.53L327.5 1304.46L321.877 1305.38L320.95 1311.01L320.024 1305.38L314.4 1304.46L320.024 1303.53L320.95 1297.91Z" fill="#F6D1B1"/>
<path d="M74.0656 1650.6L75.562 1658.39L84.6464 1659.67L75.562 1660.95L74.0656 1668.74L72.5693 1660.95L63.4849 1659.67L72.5693 1658.39L74.0656 1650.6Z" fill="#F6D1B1"/>
<path d="M113.366 1553.86L113.959 1597.5L136.291 1560L114.987 1598.09L153.073 1576.79L115.58 1599.12L159.216 1599.71L115.58 1600.3L153.073 1622.64L114.987 1601.33L136.291 1639.42L113.959 1601.93L113.366 1645.56L112.772 1601.93L90.4406 1639.42L111.745 1601.33L73.6584 1622.64L111.151 1600.3L67.5156 1599.71L111.151 1599.12L73.6584 1576.79L111.745 1598.09L90.4406 1560L112.772 1597.5L113.366 1553.86Z" fill="url(#paint8_radial_645_7918)"/>
<g opacity="0.65">
<circle cx="55.3032" cy="1783.56" r="22.0769" transform="rotate(-108.047 55.3032 1783.56)" fill="#F6D1B1" fill-opacity="0.25"/>
<circle cx="75.9602" cy="1790.44" r="15.2255" transform="rotate(-108.047 75.9602 1790.44)" fill="#F6D1B1" fill-opacity="0.45"/>
<circle cx="88.2901" cy="1747.19" r="2.28382" transform="rotate(-108.047 88.2901 1747.19)" fill="#F6D1B1" fill-opacity="0.75"/>
<circle cx="38.2725" cy="1809.93" r="2.28382" transform="rotate(-108.047 38.2725 1809.93)" fill="#F6D1B1" fill-opacity="0.75"/>
<circle cx="14.1998" cy="1809.77" r="2.28382" transform="rotate(-108.047 14.1998 1809.77)" fill="#F6D1B1" fill-opacity="0.75"/>
<circle cx="46.6661" cy="1779.17" r="4.56764" transform="rotate(-108.047 46.6661 1779.17)" fill="#F6D1B1" fill-opacity="0.45"/>
<circle cx="77.1315" cy="1759.64" r="4.56764" transform="rotate(-108.047 77.1315 1759.64)" fill="#F6D1B1" fill-opacity="0.45"/>
</g>
<path d="M144.1 1860.2L145.24 1867.12L152.162 1868.26L145.24 1869.4L144.1 1876.32L142.96 1869.4L136.039 1868.26L142.96 1867.12L144.1 1860.2Z" fill="#F6D1B1"/>
<g opacity="0.65">
<circle cx="355.778" cy="1885.45" r="18.1756" fill="#F6D1B1" fill-opacity="0.45"/>
<circle cx="370.924" cy="1903.02" r="22.4165" fill="#F6D1B1" fill-opacity="0.25"/>
<circle cx="329.12" cy="1915.75" r="3.63511" fill="#F6D1B1" fill-opacity="0.45"/>
<circle cx="396.37" cy="1856.98" r="1.81756" fill="#F6D1B1" fill-opacity="0.75"/>
<circle cx="400.005" cy="1944.22" r="1.81756" fill="#F6D1B1" fill-opacity="0.75"/>
<circle cx="341.237" cy="1929.08" r="3.63511" fill="#F6D1B1" fill-opacity="0.45"/>
<circle cx="386.07" cy="1867.28" r="3.63511" fill="#F6D1B1" fill-opacity="0.45"/>
<circle cx="392.129" cy="1932.71" r="3.63511" fill="#F6D1B1" fill-opacity="0.45"/>
</g>
<path fill-rule="evenodd" clip-rule="evenodd" d="M332.96 697.433C340.507 688.834 344.136 676.959 341.79 664.858C337.764 644.091 317.665 630.52 296.898 634.546C286.557 636.551 278.001 642.54 272.512 650.614C248.123 644.091 221.247 646.866 197.656 660.486C180.646 670.307 167.665 684.426 159.292 700.68C145.109 687.18 124.827 680.514 104.14 684.525C70.1754 691.109 47.9798 723.981 54.5645 757.945C55.8293 764.469 58.0641 770.559 61.0901 776.094C38.2504 788.974 25.1148 815.433 30.3799 842.591C36.9646 876.555 69.836 898.751 103.8 892.166C137.765 885.582 159.96 852.71 153.376 818.746C152.111 812.222 149.876 806.132 146.85 800.597C151.425 798.017 155.611 794.892 159.337 791.325C160.033 792.668 160.763 794.001 161.526 795.324C188.784 842.535 249.152 858.71 296.364 831.453C343.303 804.353 359.563 744.522 332.96 697.433Z" fill="url(#paint9_linear_645_7918)"/>
<path d="M354.708 1729.2L355.216 1762.29L374.358 1733.86L356.097 1762.74L388.743 1746.58L356.606 1763.52L394.008 1763.97L356.606 1764.42L388.743 1781.35L356.097 1765.19L374.358 1794.07L355.216 1765.64L354.708 1798.73L354.199 1765.64L335.058 1794.07L353.318 1765.19L320.673 1781.35L352.81 1764.42L315.408 1763.97L352.81 1763.52L320.673 1746.58L353.318 1762.74L335.058 1733.86L354.199 1762.29L354.708 1729.2Z" fill="url(#paint10_radial_645_7918)"/>
<g opacity="0.65">
<ellipse cx="93.1396" cy="2289.19" rx="12.956" ry="12.5277" fill="#F6D1B1" fill-opacity="0.45"/>
<ellipse cx="103.937" cy="2301.3" rx="15.9791" ry="15.4508" fill="#F6D1B1" fill-opacity="0.25"/>
<ellipse cx="74.1376" cy="2310.07" rx="2.59121" ry="2.50553" fill="#F6D1B1" fill-opacity="0.45"/>
<ellipse cx="122.075" cy="2269.57" rx="1.2956" ry="1.25277" fill="#F6D1B1" fill-opacity="0.75"/>
<ellipse cx="124.666" cy="2329.7" rx="1.2956" ry="1.25277" fill="#F6D1B1" fill-opacity="0.75"/>
<ellipse cx="82.7748" cy="2319.26" rx="2.59121" ry="2.50553" fill="#F6D1B1" fill-opacity="0.45"/>
<ellipse cx="114.733" cy="2276.67" rx="2.59121" ry="2.50553" fill="#F6D1B1" fill-opacity="0.45"/>
<ellipse cx="119.052" cy="2321.77" rx="2.59121" ry="2.50553" fill="#F6D1B1" fill-opacity="0.45"/>
</g>
<g opacity="0.65">
<ellipse cx="307.765" cy="2304.24" rx="16.2292" ry="16.263" transform="rotate(-108.047 307.765 2304.24)" fill="#F6D1B1" fill-opacity="0.25"/>
<ellipse cx="322.976" cy="2309.29" rx="11.1925" ry="11.2159" transform="rotate(-108.047 322.976 2309.29)" fill="#F6D1B1" fill-opacity="0.45"/>
<ellipse cx="332.076" cy="2277.49" rx="1.67888" ry="1.68238" transform="rotate(-108.047 332.076 2277.49)" fill="#F6D1B1" fill-opacity="0.75"/>
<ellipse cx="295.21" cy="2323.64" rx="1.67888" ry="1.68238" transform="rotate(-108.047 295.21 2323.64)" fill="#F6D1B1" fill-opacity="0.75"/>
<ellipse cx="277.48" cy="2323.53" rx="1.67888" ry="1.68238" transform="rotate(-108.047 277.48 2323.53)" fill="#F6D1B1" fill-opacity="0.75"/>
<ellipse cx="301.406" cy="2301.02" rx="3.35776" ry="3.36476" transform="rotate(-108.047 301.406 2301.02)" fill="#F6D1B1" fill-opacity="0.45"/>
<ellipse cx="323.852" cy="2286.64" rx="3.35776" ry="3.36476" transform="rotate(-108.047 323.852 2286.64)" fill="#F6D1B1" fill-opacity="0.45"/>
</g>
<path d="M329.012 1066.14L329.938 1071.76L335.562 1072.69L329.938 1073.61L329.012 1079.24L328.086 1073.61L322.462 1072.69L328.086 1071.76L329.012 1066.14Z" fill="#F6D1B1"/>
<path d="M70.5385 2139.33L71.021 2173.38L89.1808 2144.12L71.8567 2173.84L102.828 2157.22L72.3392 2174.64L107.823 2175.1L72.3392 2175.57L102.828 2192.99L71.8567 2176.37L89.1808 2206.08L71.021 2176.83L70.5385 2210.88L70.056 2176.83L51.8962 2206.08L69.2203 2176.37L38.2491 2192.99L68.7378 2175.57L33.2539 2175.1L68.7378 2174.64L38.2491 2157.22L69.2203 2173.84L51.8962 2144.12L70.056 2173.38L70.5385 2139.33Z" fill="url(#paint11_radial_645_7918)"/>
<path d="M296.766 2220.95L298.832 2233.5L311.377 2235.57L298.832 2237.63L296.766 2250.18L294.699 2237.63L282.154 2235.57L294.699 2233.5L296.766 2220.95Z" fill="#F6D1B1"/>
<path d="M317.423 2204.83L318.563 2211.75L325.485 2212.89L318.563 2214.03L317.423 2220.95L316.283 2214.03L309.362 2212.89L316.283 2211.75L317.423 2204.83Z" fill="#F6D1B1"/>
<path d="M86.1579 665.077L87.0842 670.701L92.7079 671.627L87.0842 672.553L86.1579 678.177L85.2316 672.553L79.6079 671.627L85.2316 670.701L86.1579 665.077Z" fill="#F6D1B1"/>
<defs>
<linearGradient id="paint0_linear_645_7918" x1="139.381" y1="1575.49" x2="194.3" y2="1686.84" gradientUnits="userSpaceOnUse">
<stop stop-color="#BF9BF5" stop-opacity="0.33"/>
<stop offset="0.47624" stop-color="#43A5EF" stop-opacity="0.16"/>
<stop offset="0.904514" stop-color="#43A5EF" stop-opacity="0"/>
</linearGradient>
<linearGradient id="paint1_linear_645_7918" x1="401.766" y1="1079.59" x2="299.532" y2="1251.21" gradientUnits="userSpaceOnUse">
<stop stop-color="#BF9BF5" stop-opacity="0.33"/>
<stop offset="0.373264" stop-color="#43A5EF" stop-opacity="0.16"/>
<stop offset="0.904514" stop-color="#43A5EF" stop-opacity="0"/>
</linearGradient>
<radialGradient id="paint2_radial_645_7918" cx="0" cy="0" r="1" gradientUnits="userSpaceOnUse" gradientTransform="translate(364.281 1047.5) rotate(90) scale(32.75 31.7423)">
<stop stop-color="#F6D1B1"/>
<stop offset="1" stop-color="#99926F" stop-opacity="0"/>
</radialGradient>
<linearGradient id="paint3_linear_645_7918" x1="243.173" y1="2145.85" x2="298.092" y2="2257.2" gradientUnits="userSpaceOnUse">
<stop stop-color="#BF9BF5" stop-opacity="0.33"/>
<stop offset="0.47624" stop-color="#43A5EF" stop-opacity="0.16"/>
<stop offset="0.904514" stop-color="#43A5EF" stop-opacity="0"/>
</linearGradient>
<linearGradient id="paint4_linear_645_7918" x1="385.643" y1="353.04" x2="283.409" y2="524.659" gradientUnits="userSpaceOnUse">
<stop stop-color="#BF9BF5" stop-opacity="0.33"/>
<stop offset="0.373264" stop-color="#43A5EF" stop-opacity="0.16"/>
<stop offset="0.904514" stop-color="#43A5EF" stop-opacity="0"/>
</linearGradient>
<radialGradient id="paint5_radial_645_7918" cx="0" cy="0" r="1" gradientUnits="userSpaceOnUse" gradientTransform="translate(321.958 87.1654) rotate(90) scale(17.6346)">
<stop stop-color="#F6D1B1"/>
<stop offset="1" stop-color="#99926F" stop-opacity="0"/>
</radialGradient>
<radialGradient id="paint6_radial_645_7918" cx="0" cy="0" r="1" gradientUnits="userSpaceOnUse" gradientTransform="translate(56.4312 634.846) rotate(90) scale(31.2385 40.3077)">
<stop stop-color="#F6D1B1"/>
<stop offset="1" stop-color="#99926F" stop-opacity="0"/>
</radialGradient>
<radialGradient id="paint7_radial_645_7918" cx="0" cy="0" r="1" gradientUnits="userSpaceOnUse" gradientTransform="translate(376.373 1357.87) rotate(90) scale(43.8346)">
<stop stop-color="#F6D1B1"/>
<stop offset="1" stop-color="#99926F" stop-opacity="0"/>
</radialGradient>
<radialGradient id="paint8_radial_645_7918" cx="0" cy="0" r="1" gradientUnits="userSpaceOnUse" gradientTransform="translate(113.366 1599.71) rotate(90) scale(45.85)">
<stop stop-color="#F6D1B1"/>
<stop offset="1" stop-color="#99926F" stop-opacity="0"/>
</radialGradient>
<linearGradient id="paint9_linear_645_7918" x1="141.396" y1="661.517" x2="196.315" y2="772.867" gradientUnits="userSpaceOnUse">
<stop stop-color="#BF9BF5" stop-opacity="0.33"/>
<stop offset="0.47624" stop-color="#43A5EF" stop-opacity="0.16"/>
<stop offset="0.904514" stop-color="#43A5EF" stop-opacity="0"/>
</linearGradient>
<radialGradient id="paint10_radial_645_7918" cx="0" cy="0" r="1" gradientUnits="userSpaceOnUse" gradientTransform="translate(354.708 1763.97) rotate(90) scale(34.7654 39.3)">
<stop stop-color="#F6D1B1"/>
<stop offset="1" stop-color="#99926F" stop-opacity="0"/>
</radialGradient>
<radialGradient id="paint11_radial_645_7918" cx="0" cy="0" r="1" gradientUnits="userSpaceOnUse" gradientTransform="translate(70.5385 2175.1) rotate(90) scale(35.7731 37.2846)">
<stop stop-color="#F6D1B1"/>
<stop offset="1" stop-color="#99926F" stop-opacity="0"/>
</radialGradient>
</defs>
</svg>
