<svg xmlns="http://www.w3.org/2000/svg" width="14" height="17" viewBox="0 0 14 17" fill="none">
  <path d="M6.99646 0C8.85204 0 10.6316 0.737125 11.9437 2.04922C13.2558 3.36131 13.9929 5.14088 13.9929 6.99646C13.9929 9.95291 11.9155 13.1749 7.81451 16.6968C7.58648 16.8927 7.29574 17.0003 6.99512 17C6.6945 16.9997 6.40395 16.8916 6.17626 16.6954L5.90501 16.46C1.98556 13.0299 0 9.8869 0 6.99646C0 5.14088 0.737125 3.36131 2.04922 2.04922C3.36131 0.737125 5.14088 0 6.99646 0ZM6.99646 1.07638C5.42636 1.07638 3.92056 1.7001 2.81033 2.81033C1.7001 3.92056 1.07638 5.42636 1.07638 6.99646C1.07638 9.50945 2.90479 12.4049 6.61184 15.6484L6.87949 15.8802C6.91204 15.9082 6.95354 15.9235 6.99646 15.9235C7.03938 15.9235 7.08088 15.9082 7.11343 15.8802C10.9999 12.542 12.9165 9.56901 12.9165 6.99646C12.9165 6.21902 12.7634 5.4492 12.4659 4.73094C12.1684 4.01269 11.7323 3.36006 11.1826 2.81033C10.6329 2.2606 9.98024 1.82453 9.26198 1.52702C8.54372 1.22951 7.7739 1.07638 6.99646 1.07638ZM6.99646 4.30551C7.71014 4.30551 8.3946 4.58902 8.89925 5.09367C9.4039 5.59832 9.68741 6.28278 9.68741 6.99646C9.68741 7.71014 9.4039 8.3946 8.89925 8.89925C8.3946 9.4039 7.71014 9.68741 6.99646 9.68741C6.28278 9.68741 5.59832 9.4039 5.09367 8.89925C4.58902 8.3946 4.30551 7.71014 4.30551 6.99646C4.30551 6.28278 4.58902 5.59832 5.09367 5.09367C5.59832 4.58902 6.28278 4.30551 6.99646 4.30551ZM6.99646 5.38189C6.56825 5.38189 6.15758 5.552 5.85479 5.85479C5.552 6.15758 5.38189 6.56825 5.38189 6.99646C5.38189 7.42467 5.552 7.83534 5.85479 8.13813C6.15758 8.44092 6.56825 8.61103 6.99646 8.61103C7.42467 8.61103 7.83534 8.44092 8.13813 8.13813C8.44092 7.83534 8.61103 7.42467 8.61103 6.99646C8.61103 6.56825 8.44092 6.15758 8.13813 5.85479C7.83534 5.552 7.42467 5.38189 6.99646 5.38189Z" fill="#4E78B4"/>
</svg>