<svg width="30" height="30" viewBox="0 0 30 30" fill="none" xmlns="http://www.w3.org/2000/svg">
<path d="M29.4867 24.6908L23.9736 19.1777C25.301 17.4108 26.0175 15.26 26.015 13.05C26.015 7.40508 21.4225 2.8125 15.7775 2.8125C10.1326 2.8125 5.54004 7.40508 5.54004 13.05C5.54004 18.6949 10.1326 23.2875 15.7775 23.2875C17.9875 23.29 20.1383 22.5734 21.9053 21.2461L27.4184 26.7592C27.6974 27.0086 28.0614 27.1418 28.4356 27.1313C28.8098 27.1209 29.1657 26.9676 29.4304 26.7029C29.6951 26.4382 29.8484 26.0822 29.8589 25.708C29.8694 25.3339 29.7362 24.9699 29.4867 24.6908ZM8.46504 13.05C8.46504 11.6037 8.89391 10.1899 9.69742 8.98739C10.5009 7.78486 11.643 6.8476 12.9792 6.29413C14.3154 5.74067 15.7857 5.59585 17.2041 5.87801C18.6226 6.16016 19.9256 6.85661 20.9483 7.87928C21.9709 8.90195 22.6674 10.2049 22.9495 11.6234C23.2317 13.0419 23.0869 14.5122 22.5334 15.8484C21.9799 17.1846 21.0427 18.3266 19.8401 19.1301C18.6376 19.9336 17.2238 20.3625 15.7775 20.3625C13.8389 20.3602 11.9802 19.589 10.6094 18.2182C9.23853 16.8473 8.46737 14.9887 8.46504 13.05Z" fill="white"/>
</svg>
