<svg width="21" height="22" viewBox="0 0 21 22" fill="none" xmlns="http://www.w3.org/2000/svg">
<g clip-path="url(#clip0_716_7191)">
<path d="M20.5924 18.1066L16.7886 14.0637C17.7044 12.7679 18.1988 11.1906 18.1971 9.57C18.1971 5.43039 15.0284 2.0625 11.1337 2.0625C7.23898 2.0625 4.07031 5.43039 4.07031 9.57C4.07031 13.7096 7.23898 17.0775 11.1337 17.0775C12.6585 17.0793 14.1424 16.5539 15.3616 15.5805L19.1653 19.6234C19.3579 19.8063 19.609 19.904 19.8672 19.8963C20.1253 19.8886 20.3709 19.7762 20.5535 19.5821C20.7362 19.388 20.8419 19.127 20.8492 18.8526C20.8564 18.5782 20.7645 18.3113 20.5924 18.1066ZM6.08843 9.57C6.08843 8.5094 6.38433 7.47261 6.93871 6.59075C7.49309 5.7089 8.28106 5.02157 9.20296 4.6157C10.1249 4.20982 11.1393 4.10363 12.118 4.31054C13.0967 4.51745 13.9957 5.02818 14.7013 5.77814C15.4069 6.5281 15.8874 7.4836 16.082 8.52383C16.2767 9.56405 16.1768 10.6423 15.7949 11.6221C15.4131 12.602 14.7664 13.4395 13.9367 14.0288C13.107 14.618 12.1316 14.9325 11.1337 14.9325C9.79611 14.9308 8.51375 14.3653 7.56793 13.36C6.6221 12.3547 6.09003 10.9917 6.08843 9.57Z" fill="#0C2557"/>
</g>
<defs>
<clipPath id="clip0_716_7191">
<rect width="20.6986" height="22" fill="white" transform="translate(0.248047)"/>
</clipPath>
</defs>
</svg>
