<svg width="393" height="737" viewBox="0 0 393 737" fill="none" xmlns="http://www.w3.org/2000/svg">
<path d="M74.5609 680L74.8603 701.413L86.1306 683.014L75.379 701.705L94.6003 691.25L75.6784 702.209L97.7004 702.5L75.6784 702.791L94.6003 713.75L75.379 703.295L86.1306 721.986L74.8603 703.587L74.5609 725L74.2614 703.587L62.9911 721.986L73.7428 703.295L54.5215 713.75L73.4433 702.791L51.4214 702.5L73.4433 702.209L54.5215 691.25L73.7428 701.705L62.9911 683.014L74.2614 701.413L74.5609 680Z" fill="url(#paint0_radial_645_8491)"/>
<path d="M139.351 650L139.93 691.399L161.719 655.828L140.933 691.962L178.094 671.75L141.512 692.937L184.088 693.5L141.512 694.063L178.094 715.25L140.933 695.038L161.719 731.172L139.93 695.601L139.351 737L138.772 695.601L116.983 731.172L137.769 695.038L100.608 715.25L137.191 694.063L94.6147 693.5L137.191 692.937L100.608 671.75L137.769 691.962L116.983 655.828L138.772 691.399L139.351 650Z" fill="url(#paint1_radial_645_8491)"/>
<g opacity="0.65">
<ellipse cx="18.3766" cy="18.2129" rx="18.3766" ry="18.2129" transform="matrix(0.819855 -0.572572 0.594139 0.804363 292.875 654.944)" fill="#D9C1D3" fill-opacity="0.45"/>
<ellipse cx="22.6645" cy="22.4626" rx="22.6645" ry="22.4626" transform="matrix(0.819855 -0.572572 0.594139 0.804363 309.851 659.374)" fill="#D9C1D3" fill-opacity="0.25"/>
<ellipse cx="3.67532" cy="3.64258" rx="3.67532" ry="3.64258" transform="matrix(0.819855 -0.572572 0.594139 0.804363 309.523 698.095)" fill="#D9C1D3" fill-opacity="0.45"/>
<ellipse cx="1.83766" cy="1.82129" rx="1.83766" ry="1.82129" transform="matrix(0.819855 -0.572572 0.594139 0.804363 332.869 612.209)" fill="#D9C1D3" fill-opacity="0.75"/>
<ellipse cx="1.83766" cy="1.82129" rx="1.83766" ry="1.82129" transform="matrix(0.819855 -0.572572 0.594139 0.804363 387.823 680.423)" fill="#D9C1D3" fill-opacity="0.75"/>
<ellipse cx="3.67532" cy="3.64258" rx="3.67532" ry="3.64258" transform="matrix(0.819855 -0.572572 0.594139 0.804363 327.502 701.823)" fill="#D9C1D3" fill-opacity="0.45"/>
<ellipse cx="3.67532" cy="3.64258" rx="3.67532" ry="3.64258" transform="matrix(0.819855 -0.572572 0.594139 0.804363 327.874 626.06)" fill="#D9C1D3" fill-opacity="0.45"/>
<ellipse cx="3.67532" cy="3.64258" rx="3.67532" ry="3.64258" transform="matrix(0.819855 -0.572572 0.594139 0.804363 371.852 675.292)" fill="#D9C1D3" fill-opacity="0.45"/>
</g>
<path d="M228.824 528L229.403 569.399L251.192 533.828L230.405 569.962L267.567 549.75L230.984 570.937L273.56 571.5L230.984 572.063L267.567 593.25L230.405 573.038L251.192 609.172L229.403 573.601L228.824 615L228.245 573.601L206.456 609.172L227.242 573.038L190.081 593.25L226.663 572.063L184.087 571.5L226.663 570.937L190.081 549.75L227.242 569.962L206.456 533.828L228.245 569.399L228.824 528Z" fill="url(#paint2_radial_645_8491)"/>
<path d="M190.773 344L191.351 385.399L213.141 349.828L192.354 385.962L229.515 365.75L192.933 386.937L235.509 387.5L192.933 388.063L229.515 409.25L192.354 389.038L213.141 425.172L191.351 389.601L190.773 431L190.194 389.601L168.404 425.172L189.191 389.038L152.03 409.25L188.612 388.063L146.036 387.5L188.612 386.937L152.03 365.75L189.191 385.962L168.404 349.828L190.194 385.399L190.773 344Z" fill="url(#paint3_radial_645_8491)"/>
<path d="M227.796 396L228.741 401.581L234.48 402.5L228.741 403.419L227.796 409L226.85 403.419L221.111 402.5L226.85 401.581L227.796 396Z" fill="#D9C1D3"/>
<path d="M326.524 297L327.103 338.399L348.892 302.828L328.106 338.962L365.267 318.75L328.685 339.937L371.26 340.5L328.685 341.063L365.267 362.25L328.106 342.038L348.892 378.172L327.103 342.601L326.524 384L325.945 342.601L304.156 378.172L324.942 342.038L287.781 362.25L324.363 341.063L281.788 340.5L324.363 339.937L287.781 318.75L324.942 338.962L304.156 302.828L325.945 338.399L326.524 297Z" fill="url(#paint4_radial_645_8491)"/>
<path d="M346.064 371L347.01 376.581L352.749 377.5L347.01 378.419L346.064 384L345.119 378.419L339.379 377.5L345.119 376.581L346.064 371Z" fill="#D9C1D3"/>
<path d="M83.8169 190L84.3959 231.399L106.185 195.828L85.3986 231.962L122.56 211.75L85.9775 232.937L128.553 233.5L85.9775 234.063L122.56 255.25L85.3986 235.038L106.185 271.172L84.3959 235.601L83.8169 277L83.238 235.601L61.4488 271.172L82.2353 235.038L45.0741 255.25L81.6563 234.063L39.0806 233.5L81.6563 232.937L45.0741 211.75L82.2353 231.962L61.4488 195.828L83.238 231.399L83.8169 190Z" fill="url(#paint5_radial_645_8491)"/>
<path d="M119.811 264L120.757 269.581L126.496 270.5L120.757 271.419L119.811 277L118.866 271.419L113.126 270.5L118.866 269.581L119.811 264Z" fill="#D9C1D3"/>
<path d="M68.3903 344L69.3357 349.581L75.0751 350.5L69.3357 351.419L68.3903 357L67.4449 351.419L61.7056 350.5L67.4449 349.581L68.3903 344Z" fill="#D9C1D3"/>
<path d="M314.183 62L314.629 93.8821L331.409 66.4881L315.401 94.3156L344.02 78.75L315.847 95.0665L348.635 95.5L315.847 95.9335L344.02 112.25L315.401 96.6844L331.409 124.512L314.629 97.1179L314.183 129L313.737 97.1179L296.957 124.512L312.965 96.6844L284.347 112.25L312.519 95.9335L279.731 95.5L312.519 95.0665L284.347 78.75L312.965 94.3156L296.957 66.4881L313.737 93.8821L314.183 62Z" fill="url(#paint6_radial_645_8491)"/>
<g opacity="0.65">
<ellipse cx="18.3766" cy="18.2129" rx="18.3766" ry="18.2129" transform="matrix(0.819855 -0.572572 0.594139 0.804363 17.2583 398.944)" fill="#D9C1D3" fill-opacity="0.45"/>
<ellipse cx="22.6645" cy="22.4626" rx="22.6645" ry="22.4626" transform="matrix(0.819855 -0.572572 0.594139 0.804363 34.2334 403.373)" fill="#D9C1D3" fill-opacity="0.25"/>
<ellipse cx="3.67532" cy="3.64258" rx="3.67532" ry="3.64258" transform="matrix(0.819855 -0.572572 0.594139 0.804363 33.9058 442.094)" fill="#D9C1D3" fill-opacity="0.45"/>
<ellipse cx="1.83766" cy="1.82129" rx="1.83766" ry="1.82129" transform="matrix(0.819855 -0.572572 0.594139 0.804363 57.251 356.208)" fill="#D9C1D3" fill-opacity="0.75"/>
<ellipse cx="1.83766" cy="1.82129" rx="1.83766" ry="1.82129" transform="matrix(0.819855 -0.572572 0.594139 0.804363 112.206 424.423)" fill="#D9C1D3" fill-opacity="0.75"/>
<ellipse cx="3.67532" cy="3.64258" rx="3.67532" ry="3.64258" transform="matrix(0.819855 -0.572572 0.594139 0.804363 51.8853 445.823)" fill="#D9C1D3" fill-opacity="0.45"/>
<ellipse cx="3.67532" cy="3.64258" rx="3.67532" ry="3.64258" transform="matrix(0.819855 -0.572572 0.594139 0.804363 52.2573 370.059)" fill="#D9C1D3" fill-opacity="0.45"/>
<ellipse cx="3.67532" cy="3.64258" rx="3.67532" ry="3.64258" transform="matrix(0.819855 -0.572572 0.594139 0.804363 96.2344 419.291)" fill="#D9C1D3" fill-opacity="0.45"/>
</g>
<g opacity="0.65">
<ellipse cx="18.3766" cy="18.2129" rx="18.3766" ry="18.2129" transform="matrix(0.819855 -0.572572 0.594139 0.804363 78.9634 530.944)" fill="#D9C1D3" fill-opacity="0.45"/>
<ellipse cx="22.6645" cy="22.4626" rx="22.6645" ry="22.4626" transform="matrix(0.819855 -0.572572 0.594139 0.804363 95.9385 535.374)" fill="#D9C1D3" fill-opacity="0.25"/>
<ellipse cx="3.67532" cy="3.64258" rx="3.67532" ry="3.64258" transform="matrix(0.819855 -0.572572 0.594139 0.804363 95.6113 574.095)" fill="#D9C1D3" fill-opacity="0.45"/>
<ellipse cx="1.83766" cy="1.82129" rx="1.83766" ry="1.82129" transform="matrix(0.819855 -0.572572 0.594139 0.804363 118.957 488.209)" fill="#D9C1D3" fill-opacity="0.75"/>
<ellipse cx="1.83766" cy="1.82129" rx="1.83766" ry="1.82129" transform="matrix(0.819855 -0.572572 0.594139 0.804363 173.911 556.423)" fill="#D9C1D3" fill-opacity="0.75"/>
<ellipse cx="3.67532" cy="3.64258" rx="3.67532" ry="3.64258" transform="matrix(0.819855 -0.572572 0.594139 0.804363 113.591 577.823)" fill="#D9C1D3" fill-opacity="0.45"/>
<ellipse cx="3.67532" cy="3.64258" rx="3.67532" ry="3.64258" transform="matrix(0.819855 -0.572572 0.594139 0.804363 113.963 502.06)" fill="#D9C1D3" fill-opacity="0.45"/>
<ellipse cx="3.67532" cy="3.64258" rx="3.67532" ry="3.64258" transform="matrix(0.819855 -0.572572 0.594139 0.804363 157.94 551.292)" fill="#D9C1D3" fill-opacity="0.45"/>
</g>
<g opacity="0.65">
<ellipse cx="13.8928" cy="13.769" rx="13.8928" ry="13.769" transform="matrix(0.819855 -0.572572 0.594139 0.804363 53.1558 36.4899)" fill="#D9C1D3" fill-opacity="0.45"/>
<ellipse cx="17.1344" cy="16.9818" rx="17.1344" ry="16.9818" transform="matrix(0.819855 -0.572572 0.594139 0.804363 65.9893 39.8389)" fill="#D9C1D3" fill-opacity="0.25"/>
<ellipse cx="2.77856" cy="2.7538" rx="2.77856" ry="2.7538" transform="matrix(0.819855 -0.572572 0.594139 0.804363 65.7412 69.1119)" fill="#D9C1D3" fill-opacity="0.45"/>
<ellipse cx="1.38928" cy="1.3769" rx="1.38928" ry="1.3769" transform="matrix(0.819855 -0.572572 0.594139 0.804363 83.3906 4.18192)" fill="#D9C1D3" fill-opacity="0.75"/>
<ellipse cx="1.38928" cy="1.3769" rx="1.38928" ry="1.3769" transform="matrix(0.819855 -0.572572 0.594139 0.804363 124.936 55.7523)" fill="#D9C1D3" fill-opacity="0.75"/>
<ellipse cx="2.77856" cy="2.7538" rx="2.77856" ry="2.7538" transform="matrix(0.819855 -0.572572 0.594139 0.804363 79.3335 71.9308)" fill="#D9C1D3" fill-opacity="0.45"/>
<ellipse cx="2.77856" cy="2.7538" rx="2.77856" ry="2.7538" transform="matrix(0.819855 -0.572572 0.594139 0.804363 79.6152 14.6533)" fill="#D9C1D3" fill-opacity="0.45"/>
<ellipse cx="2.77856" cy="2.7538" rx="2.77856" ry="2.7538" transform="matrix(0.819855 -0.572572 0.594139 0.804363 112.862 51.8728)" fill="#D9C1D3" fill-opacity="0.45"/>
</g>
<g opacity="0.65">
<ellipse cx="14.5407" cy="14.4112" rx="14.5407" ry="14.4112" transform="matrix(0.819855 -0.572572 0.594139 0.804363 295.443 37.1451)" fill="#D9C1D3" fill-opacity="0.45"/>
<ellipse cx="17.9335" cy="17.7738" rx="17.9335" ry="17.7738" transform="matrix(0.819855 -0.572572 0.594139 0.804363 308.875 40.6503)" fill="#D9C1D3" fill-opacity="0.25"/>
<ellipse cx="2.90814" cy="2.88223" rx="2.90814" ry="2.88223" transform="matrix(0.819855 -0.572572 0.594139 0.804363 308.616 71.2885)" fill="#D9C1D3" fill-opacity="0.45"/>
<ellipse cx="1.45407" cy="1.44112" rx="1.45407" ry="1.44112" transform="matrix(0.819855 -0.572572 0.594139 0.804363 327.089 3.33029)" fill="#D9C1D3" fill-opacity="0.75"/>
<ellipse cx="1.45407" cy="1.44112" rx="1.45407" ry="1.44112" transform="matrix(0.819855 -0.572572 0.594139 0.804363 370.571 57.3058)" fill="#D9C1D3" fill-opacity="0.75"/>
<ellipse cx="2.90814" cy="2.88223" rx="2.90814" ry="2.88223" transform="matrix(0.819855 -0.572572 0.594139 0.804363 322.843 74.2388)" fill="#D9C1D3" fill-opacity="0.45"/>
<ellipse cx="2.90814" cy="2.88223" rx="2.90814" ry="2.88223" transform="matrix(0.819855 -0.572572 0.594139 0.804363 323.137 14.2901)" fill="#D9C1D3" fill-opacity="0.45"/>
<ellipse cx="2.90814" cy="2.88223" rx="2.90814" ry="2.88223" transform="matrix(0.819855 -0.572572 0.594139 0.804363 357.935 53.2455)" fill="#D9C1D3" fill-opacity="0.45"/>
</g>
<path fill-rule="evenodd" clip-rule="evenodd" d="M351.122 220.109C358.824 211.575 362.528 199.792 360.133 187.783C356.024 167.174 335.512 153.706 314.318 157.702C303.764 159.691 295.032 165.635 289.431 173.647C264.54 167.174 237.111 169.928 213.034 183.445C195.674 193.19 182.426 207.202 173.881 223.331C159.406 209.935 138.707 203.319 117.594 207.299C82.9313 213.833 60.2792 246.454 66.9993 280.159C68.2902 286.633 70.5709 292.677 73.6593 298.17C50.3501 310.952 36.9444 337.209 42.3177 364.159C49.0379 397.864 82.5856 419.89 117.249 413.356C151.912 406.821 174.564 374.201 167.844 340.496C166.553 334.021 164.272 327.978 161.184 322.485C165.853 319.925 170.124 316.824 173.928 313.285C174.638 314.617 175.382 315.94 176.162 317.252C203.98 364.103 265.59 380.155 313.773 353.106C361.677 326.213 378.272 266.838 351.122 220.109Z" fill="url(#paint7_linear_645_8491)"/>
<defs>
<radialGradient id="paint0_radial_645_8491" cx="0" cy="0" r="1" gradientUnits="userSpaceOnUse" gradientTransform="translate(74.5609 702.5) rotate(90) scale(22.5 23.1395)">
<stop stop-color="#D9C1D3"/>
<stop offset="1" stop-color="#D9C1D3" stop-opacity="0"/>
</radialGradient>
<radialGradient id="paint1_radial_645_8491" cx="0" cy="0" r="1" gradientUnits="userSpaceOnUse" gradientTransform="translate(139.351 693.5) rotate(90) scale(43.5 44.7364)">
<stop stop-color="#D9C1D3"/>
<stop offset="1" stop-color="#D9C1D3" stop-opacity="0"/>
</radialGradient>
<radialGradient id="paint2_radial_645_8491" cx="0" cy="0" r="1" gradientUnits="userSpaceOnUse" gradientTransform="translate(228.824 571.5) rotate(90) scale(43.5 44.7364)">
<stop stop-color="#D9C1D3"/>
<stop offset="1" stop-color="#D9C1D3" stop-opacity="0"/>
</radialGradient>
<radialGradient id="paint3_radial_645_8491" cx="0" cy="0" r="1" gradientUnits="userSpaceOnUse" gradientTransform="translate(190.773 387.5) rotate(90) scale(43.5 44.7364)">
<stop stop-color="#D9C1D3"/>
<stop offset="1" stop-color="#D9C1D3" stop-opacity="0"/>
</radialGradient>
<radialGradient id="paint4_radial_645_8491" cx="0" cy="0" r="1" gradientUnits="userSpaceOnUse" gradientTransform="translate(326.524 340.5) rotate(90) scale(43.5 44.7364)">
<stop stop-color="#D9C1D3"/>
<stop offset="1" stop-color="#D9C1D3" stop-opacity="0"/>
</radialGradient>
<radialGradient id="paint5_radial_645_8491" cx="0" cy="0" r="1" gradientUnits="userSpaceOnUse" gradientTransform="translate(83.8169 233.5) rotate(90) scale(43.5 44.7364)">
<stop stop-color="#D9C1D3"/>
<stop offset="1" stop-color="#D9C1D3" stop-opacity="0"/>
</radialGradient>
<radialGradient id="paint6_radial_645_8491" cx="0" cy="0" r="1" gradientUnits="userSpaceOnUse" gradientTransform="translate(314.183 95.5) rotate(90) scale(33.5 34.4521)">
<stop stop-color="#D9C1D3"/>
<stop offset="1" stop-color="#D9C1D3" stop-opacity="0"/>
</radialGradient>
<linearGradient id="paint7_linear_645_8491" x1="155.617" y1="184.467" x2="209.182" y2="296.159" gradientUnits="userSpaceOnUse">
<stop stop-color="#BF9BF5" stop-opacity="0.33"/>
<stop offset="0.47624" stop-color="#43A5EF" stop-opacity="0.16"/>
<stop offset="0.904514" stop-color="#43A5EF" stop-opacity="0"/>
</linearGradient>
</defs>
</svg>
