<svg width="70" height="66" viewBox="0 0 70 66" fill="none" xmlns="http://www.w3.org/2000/svg">
<g clip-path="url(#clip0_1188_7647)">
<path fill-rule="evenodd" clip-rule="evenodd" d="M35 1C42.462 1 48.8635 5.54059 51.5922 12.0096C61.2592 12.322 69 20.257 69 30C69 35.4767 66.5541 40.3821 62.6951 43.6835C62.8953 44.7584 63 45.867 63 47C63 56.9411 54.9411 65 45 65C41.2997 65 37.8602 63.8835 35 61.9689C32.1398 63.8835 28.7003 65 25 65C15.0589 65 7 56.9411 7 47C7 45.867 7.10468 44.7584 7.3049 43.6835C3.44588 40.3821 1 35.4767 1 30C1 20.257 8.74078 12.322 18.4078 12.0096C21.1365 5.54059 27.538 1 35 1Z" fill="white"/>
<path d="M51.5922 12.0096L51.1315 12.2039L51.256 12.499L51.5761 12.5093L51.5922 12.0096ZM62.6951 43.6835L62.3701 43.3035L62.1507 43.4912L62.2035 43.775L62.6951 43.6835ZM35 61.9689L35.2781 61.5534L35 61.3672L34.7219 61.5534L35 61.9689ZM7.3049 43.6835L7.79645 43.775L7.84931 43.4912L7.62994 43.3035L7.3049 43.6835ZM18.4078 12.0096L18.4239 12.5093L18.744 12.499L18.8685 12.2039L18.4078 12.0096ZM52.0529 11.8152C49.2488 5.16756 42.67 0.5 35 0.5V1.5C42.2539 1.5 48.4782 5.91362 51.1315 12.2039L52.0529 11.8152ZM69.5 30C69.5 19.9863 61.5442 11.831 51.6084 11.5098L51.5761 12.5093C60.9742 12.8131 68.5 20.5278 68.5 30H69.5ZM63.0201 44.0634C66.9855 40.6711 69.5 35.6289 69.5 30H68.5C68.5 35.3244 66.1228 40.0931 62.3701 43.3035L63.0201 44.0634ZM62.2035 43.775C62.3982 44.8199 62.5 45.8978 62.5 47H63.5C63.5 45.8361 63.3925 44.6969 63.1866 43.5919L62.2035 43.775ZM62.5 47C62.5 56.665 54.665 64.5 45 64.5V65.5C55.2173 65.5 63.5 57.2173 63.5 47H62.5ZM45 64.5C41.4018 64.5 38.0586 63.4146 35.2781 61.5534L34.7219 62.3844C37.6618 64.3523 41.1976 65.5 45 65.5V64.5ZM25 65.5C28.8024 65.5 32.3382 64.3523 35.2781 62.3844L34.7219 61.5534C31.9414 63.4146 28.5982 64.5 25 64.5V65.5ZM6.5 47C6.5 57.2173 14.7827 65.5 25 65.5V64.5C15.335 64.5 7.5 56.665 7.5 47H6.5ZM6.81336 43.5919C6.60754 44.6969 6.5 45.8361 6.5 47H7.5C7.5 45.8978 7.60183 44.8199 7.79645 43.775L6.81336 43.5919ZM0.5 30C0.5 35.6289 3.01455 40.6711 6.97987 44.0634L7.62994 43.3035C3.87722 40.0931 1.5 35.3244 1.5 30H0.5ZM18.3916 11.5098C8.45579 11.831 0.5 19.9863 0.5 30H1.5C1.5 20.5278 9.02577 12.8131 18.4239 12.5093L18.3916 11.5098ZM35 0.5C27.33 0.5 20.7512 5.16756 17.9471 11.8152L18.8685 12.2039C21.5218 5.91362 27.7461 1.5 35 1.5V0.5Z" fill="white"/>
<path d="M26.3754 31H24.4584V23.624H24.4076L22.3066 24.957V23.2559L24.579 21.8086H26.3754V31ZM32.0819 31.127C31.316 31.127 30.6558 30.9429 30.1015 30.5747C29.5513 30.2065 29.1282 29.6691 28.8319 28.9624C28.54 28.2515 28.394 27.3988 28.394 26.4043C28.394 25.4098 28.54 24.5592 28.8319 23.8525C29.1282 23.1458 29.5535 22.6084 30.1078 22.2402C30.6622 21.8678 31.3202 21.6816 32.0819 21.6816C32.8437 21.6816 33.5017 21.8678 34.0561 22.2402C34.6104 22.6084 35.0357 23.1479 35.3319 23.8589C35.6282 24.5656 35.7763 25.4141 35.7763 26.4043C35.7763 27.403 35.6282 28.2557 35.3319 28.9624C35.04 29.6691 34.6168 30.2065 34.0624 30.5747C33.508 30.9429 32.8479 31.127 32.0819 31.127ZM32.0819 29.5527C32.4374 29.5527 32.7463 29.4364 33.0087 29.2036C33.2753 28.9709 33.4784 28.6196 33.6181 28.1499C33.7577 27.6759 33.8254 27.0941 33.8212 26.4043C33.8212 25.7188 33.7514 25.1411 33.6117 24.6714C33.4721 24.1974 33.2711 23.842 33.0087 23.605C32.7463 23.368 32.4374 23.2495 32.0819 23.2495C31.7265 23.2495 31.4176 23.368 31.1552 23.605C30.897 23.842 30.696 24.1974 30.5522 24.6714C30.4083 25.1411 30.3363 25.7188 30.3363 26.4043C30.3363 27.0941 30.4062 27.6759 30.5458 28.1499C30.6897 28.6196 30.8928 28.9709 31.1552 29.2036C31.4176 29.4364 31.7265 29.5527 32.0819 29.5527ZM38.1122 32.3838H36.4999L39.4579 21.377H41.0829L38.1122 32.3838ZM45.8881 31H43.9711V23.624H43.9203L41.8192 24.957V23.2559L44.0917 21.8086H45.8881V31Z" fill="#0C2557"/>
<path d="M33.8853 49.0591H32.4864V46.9131H33.8853V49.0591ZM39.4517 52.2378H38.0528V39.1128H39.4517V52.2378ZM41.4219 45.7852H39.0049V44.6279H41.4219V45.7852ZM29 48.6709C30.6407 48.6709 32.1348 48.6489 33.4825 48.605C34.8301 48.5562 36.1045 48.4438 37.3057 48.2681L37.3936 49.3081C36.5196 49.4595 35.6089 49.5742 34.6617 49.6523C33.7144 49.7256 32.8184 49.7744 31.9737 49.7988C31.1289 49.8232 30.2085 49.8354 29.2124 49.8354L29 48.6709ZM37.1153 41.7861H29.2417V40.6729H37.1153V41.7861ZM33.1968 42.4746C33.812 42.4746 34.3565 42.5771 34.8301 42.7822C35.3037 42.9824 35.6748 43.2656 35.9434 43.6318C36.2168 43.998 36.3535 44.4277 36.3535 44.9209C36.3535 45.3994 36.2168 45.8218 35.9434 46.188C35.6748 46.5493 35.3037 46.8325 34.8301 47.0376C34.3565 47.2427 33.812 47.3452 33.1968 47.3452C32.5816 47.3452 32.0347 47.2427 31.5562 47.0376C31.0777 46.8325 30.7066 46.5493 30.4429 46.188C30.1841 45.8218 30.0547 45.3994 30.0547 44.9209C30.0547 44.4277 30.1841 43.998 30.4429 43.6318C30.7066 43.2656 31.0777 42.9824 31.5562 42.7822C32.0347 42.5771 32.5816 42.4746 33.1968 42.4746ZM33.1968 43.5366C32.8355 43.5366 32.5157 43.5952 32.2373 43.7124C31.9639 43.8247 31.7491 43.9858 31.5928 44.1958C31.4366 44.4009 31.3584 44.6426 31.3584 44.9209C31.3584 45.1895 31.4341 45.4287 31.5855 45.6387C31.7368 45.8438 31.9517 46 32.23 46.1074C32.5132 46.21 32.8355 46.2612 33.1968 46.2612C33.5581 46.2612 33.8755 46.21 34.149 46.1074C34.4273 46 34.6421 45.8438 34.7935 45.6387C34.9449 45.4287 35.0205 45.1895 35.0205 44.9209C35.0205 44.6426 34.9449 44.4009 34.7935 44.1958C34.6421 43.9858 34.4273 43.8247 34.149 43.7124C33.8755 43.5952 33.5581 43.5366 33.1968 43.5366ZM33.8853 41.4346H32.4864V39.1567H33.8853V41.4346Z" fill="#0C2557"/>
</g>
<defs>
<clipPath id="clip0_1188_7647">
<rect width="70" height="66" fill="white"/>
</clipPath>
</defs>
</svg>
