<svg width="193" height="150" viewBox="0 0 193 150" fill="none" xmlns="http://www.w3.org/2000/svg">
<path fill-rule="evenodd" clip-rule="evenodd" d="M172.49 102.797C179.31 101.952 185.679 98.073 189.457 91.706C195.942 80.781 192.342 66.668 181.416 60.183C175.976 56.954 169.746 56.226 164.06 57.657C155.721 44.9933 142.554 35.5085 126.531 32.2013C114.978 29.8167 103.516 30.9693 93.2704 34.9194C92.296 23.1998 85.8572 12.1114 74.9739 5.65181C57.1056 -4.95349 34.0231 0.934313 23.4178 18.8027C21.3807 22.2349 19.9521 25.8596 19.1 29.5512C3.70967 26.2121 -12.7476 32.8398 -21.2275 47.1272C-31.8329 64.996 -25.945 88.078 -8.07674 98.683C9.79158 109.289 32.8741 103.401 43.4794 85.532C45.5165 82.1 46.9451 78.476 47.7971 74.784C50.8801 75.453 54.0059 75.722 57.1018 75.609C56.878 76.489 56.6732 77.379 56.4877 78.277C49.8694 110.343 70.4983 141.702 102.564 148.32C134.445 154.9 165.627 134.546 172.49 102.797Z" fill="url(#paint0_linear_1025_7988)"/>
<defs>
<linearGradient id="paint0_linear_1025_7988" x1="100.876" y1="10.2028" x2="81.0624" y2="82.09" gradientUnits="userSpaceOnUse">
<stop stop-color="#BF9BF5" stop-opacity="0.33"/>
<stop offset="0.47624" stop-color="#43A5EF" stop-opacity="0.16"/>
<stop offset="0.904514" stop-color="#43A5EF" stop-opacity="0"/>
</linearGradient>
</defs>
</svg>
