<svg xmlns="http://www.w3.org/2000/svg" width="15" height="15" viewBox="0 0 15 15" fill="none">
  <path d="M7.29327 0C5.8508 0 4.44072 0.427743 3.24135 1.22914C2.04198 2.03053 1.10718 3.16958 0.55517 4.50226C0.00316006 5.83493 -0.141271 7.30136 0.140141 8.71611C0.421554 10.1309 1.11617 11.4304 2.13615 12.4504C3.15613 13.4704 4.45567 14.165 5.87043 14.4464C7.28518 14.7278 8.75161 14.5834 10.0843 14.0314C11.417 13.4794 12.556 12.5446 13.3574 11.3452C14.1588 10.1458 14.5865 8.73574 14.5865 7.29327C14.5845 5.3596 13.8154 3.50571 12.4481 2.1384C11.0808 0.771093 9.22694 0.00204199 7.29327 0ZM7.29327 13.4645C6.07272 13.4645 4.87957 13.1026 3.86472 12.4245C2.84987 11.7464 2.05889 10.7825 1.5918 9.6549C1.12472 8.52725 1.0025 7.28642 1.24062 6.08932C1.47874 4.89222 2.06649 3.79261 2.92956 2.92955C3.79262 2.06649 4.89222 1.47874 6.08933 1.24062C7.28643 1.0025 8.52725 1.12471 9.6549 1.5918C10.7825 2.05888 11.7464 2.84987 12.4245 3.86472C13.1026 4.87957 13.4645 6.07272 13.4645 7.29327C13.4626 8.92941 12.8119 10.498 11.6549 11.6549C10.498 12.8119 8.92941 13.4626 7.29327 13.4645ZM11.7814 7.29327C11.7814 7.44206 11.7223 7.58476 11.6171 7.68997C11.5119 7.79518 11.3692 7.85429 11.2204 7.85429H7.29327C7.14448 7.85429 7.00178 7.79518 6.89657 7.68997C6.79136 7.58476 6.73225 7.44206 6.73225 7.29327V3.36612C6.73225 3.21733 6.79136 3.07463 6.89657 2.96942C7.00178 2.86421 7.14448 2.8051 7.29327 2.8051C7.44206 2.8051 7.58476 2.86421 7.68997 2.96942C7.79519 3.07463 7.85429 3.21733 7.85429 3.36612V6.73225H11.2204C11.3692 6.73225 11.5119 6.79136 11.6171 6.89657C11.7223 7.00178 11.7814 7.14448 11.7814 7.29327Z" fill="#4E78B4"/>
</svg>