<svg width="172" height="166" viewBox="0 0 172 166" fill="none" xmlns="http://www.w3.org/2000/svg">
<g clip-path="url(#clip0_544_1515)">
<g filter="url(#filter0_f_544_1515)">
<path d="M86 116C105.882 116 122 101.225 122 83C122 64.7746 105.882 50 86 50C66.1177 50 50 64.7746 50 83C50 101.225 66.1177 116 86 116Z" fill="white"/>
</g>
<path fill-rule="evenodd" clip-rule="evenodd" d="M86 50C93.462 50 99.8635 54.5406 102.592 61.0096C112.259 61.322 120 69.257 120 79C120 84.4767 117.554 89.3821 113.695 92.6835C113.895 93.7584 114 94.867 114 96C114 105.941 105.941 114 96 114C92.2997 114 88.8602 112.883 86 110.969C83.1398 112.883 79.7003 114 76 114C66.0589 114 58 105.941 58 96C58 94.867 58.1047 93.7584 58.3049 92.6835C54.4459 89.3821 52 84.4767 52 79C52 69.257 59.7408 61.322 69.4078 61.0096C72.1365 54.5406 78.538 50 86 50Z" fill="#FFF4B9"/>
<path d="M102.592 61.0096L102.132 61.2039L102.256 61.499L102.576 61.5093L102.592 61.0096ZM113.695 92.6835L113.37 92.3035L113.151 92.4912L113.204 92.775L113.695 92.6835ZM86 110.969L86.2781 110.553L86 110.367L85.7219 110.553L86 110.969ZM58.3049 92.6835L58.7965 92.775L58.8493 92.4912L58.6299 92.3035L58.3049 92.6835ZM69.4078 61.0096L69.4239 61.5093L69.744 61.499L69.8685 61.2039L69.4078 61.0096ZM103.053 60.8152C100.249 54.1676 93.67 49.5 86 49.5V50.5C93.2539 50.5 99.4781 54.9136 102.132 61.2039L103.053 60.8152ZM120.5 79C120.5 68.9863 112.544 60.831 102.608 60.5098L102.576 61.5093C111.974 61.8131 119.5 69.5278 119.5 79H120.5ZM114.02 93.0634C117.985 89.6711 120.5 84.6289 120.5 79H119.5C119.5 84.3244 117.123 89.0931 113.37 92.3035L114.02 93.0634ZM113.204 92.775C113.398 93.8199 113.5 94.8978 113.5 96H114.5C114.5 94.8361 114.392 93.6969 114.187 92.5919L113.204 92.775ZM113.5 96C113.5 105.665 105.665 113.5 96 113.5V114.5C106.217 114.5 114.5 106.217 114.5 96H113.5ZM96 113.5C92.4018 113.5 89.0586 112.415 86.2781 110.553L85.7219 111.384C88.6618 113.352 92.1976 114.5 96 114.5V113.5ZM76 114.5C79.8024 114.5 83.3382 113.352 86.2781 111.384L85.7219 110.553C82.9414 112.415 79.5982 113.5 76 113.5V114.5ZM57.5 96C57.5 106.217 65.7827 114.5 76 114.5V113.5C66.335 113.5 58.5 105.665 58.5 96H57.5ZM57.8134 92.5919C57.6075 93.6969 57.5 94.8361 57.5 96H58.5C58.5 94.8978 58.6018 93.8199 58.7965 92.775L57.8134 92.5919ZM51.5 79C51.5 84.6289 54.0145 89.6711 57.9799 93.0634L58.6299 92.3035C54.8772 89.0931 52.5 84.3244 52.5 79H51.5ZM69.3916 60.5098C59.4558 60.831 51.5 68.9863 51.5 79H52.5C52.5 69.5278 60.0258 61.8131 69.4239 61.5093L69.3916 60.5098ZM86 49.5C78.33 49.5 71.7512 54.1676 68.9471 60.8152L69.8685 61.2039C72.5218 54.9136 78.7461 50.5 86 50.5V49.5Z" fill="#FFF4B9"/>
<path d="M75.3754 80H73.4584V72.624H73.4076L71.3066 73.957V72.2559L73.579 70.8086H75.3754V80ZM81.0819 80.127C80.316 80.127 79.6558 79.9429 79.1015 79.5747C78.5513 79.2065 78.1282 78.6691 77.8319 77.9624C77.54 77.2515 77.394 76.3988 77.394 75.4043C77.394 74.4098 77.54 73.5592 77.8319 72.8525C78.1282 72.1458 78.5535 71.6084 79.1078 71.2402C79.6622 70.8678 80.3202 70.6816 81.0819 70.6816C81.8437 70.6816 82.5017 70.8678 83.0561 71.2402C83.6104 71.6084 84.0357 72.1479 84.3319 72.8589C84.6282 73.5656 84.7763 74.4141 84.7763 75.4043C84.7763 76.403 84.6282 77.2557 84.3319 77.9624C84.04 78.6691 83.6168 79.2065 83.0624 79.5747C82.508 79.9429 81.8479 80.127 81.0819 80.127ZM81.0819 78.5527C81.4374 78.5527 81.7463 78.4364 82.0087 78.2036C82.2753 77.9709 82.4784 77.6196 82.6181 77.1499C82.7577 76.6759 82.8254 76.0941 82.8212 75.4043C82.8212 74.7188 82.7514 74.1411 82.6117 73.6714C82.4721 73.1974 82.2711 72.842 82.0087 72.605C81.7463 72.368 81.4374 72.2495 81.0819 72.2495C80.7265 72.2495 80.4176 72.368 80.1552 72.605C79.897 72.842 79.696 73.1974 79.5522 73.6714C79.4083 74.1411 79.3363 74.7188 79.3363 75.4043C79.3363 76.0941 79.4062 76.6759 79.5458 77.1499C79.6897 77.6196 79.8928 77.9709 80.1552 78.2036C80.4176 78.4364 80.7265 78.5527 81.0819 78.5527ZM87.1122 81.3838H85.4999L88.4579 70.377H90.0829L87.1122 81.3838ZM94.8881 80H92.9711V72.624H92.9203L90.8192 73.957V72.2559L93.0917 70.8086H94.8881V80Z" fill="#0C2557"/>
<path d="M83.2251 98.0591H81.8262V95.9131H83.2251V98.0591ZM88.7915 101.238H87.3926V88.1128H88.7915V101.238ZM90.7617 94.7852H88.3447V93.6279H90.7617V94.7852ZM78.3398 97.6709C79.9805 97.6709 81.4746 97.6489 82.8223 97.605C84.1699 97.5562 85.4443 97.4438 86.6455 97.2681L86.7334 98.3081C85.8594 98.4595 84.9487 98.5742 84.0015 98.6523C83.0542 98.7256 82.1582 98.7744 81.3135 98.7988C80.4687 98.8232 79.5483 98.8354 78.5522 98.8354L78.3398 97.6709ZM86.4551 90.7861H78.5815V89.6729H86.4551V90.7861ZM82.5366 91.4746C83.1518 91.4746 83.6963 91.5771 84.1699 91.7822C84.6435 91.9824 85.0146 92.2656 85.2832 92.6318C85.5566 92.998 85.6933 93.4277 85.6933 93.9209C85.6933 94.3994 85.5566 94.8218 85.2832 95.188C85.0146 95.5493 84.6435 95.8325 84.1699 96.0376C83.6963 96.2427 83.1518 96.3452 82.5366 96.3452C81.9214 96.3452 81.3745 96.2427 80.896 96.0376C80.4175 95.8325 80.0464 95.5493 79.7827 95.188C79.5239 94.8218 79.3945 94.3994 79.3945 93.9209C79.3945 93.4277 79.5239 92.998 79.7827 92.6318C80.0464 92.2656 80.4175 91.9824 80.896 91.7822C81.3745 91.5771 81.9214 91.4746 82.5366 91.4746ZM82.5366 92.5366C82.1753 92.5366 81.8555 92.5952 81.5771 92.7124C81.3037 92.8247 81.0889 92.9858 80.9326 93.1958C80.7764 93.4009 80.6982 93.6426 80.6982 93.9209C80.6982 94.1895 80.7739 94.4287 80.9253 94.6387C81.0766 94.8438 81.2915 95 81.5698 95.1074C81.853 95.21 82.1753 95.2612 82.5366 95.2612C82.8979 95.2612 83.2153 95.21 83.4888 95.1074C83.7671 95 83.9819 94.8438 84.1333 94.6387C84.2847 94.4287 84.3603 94.1895 84.3603 93.9209C84.3603 93.6426 84.2847 93.4009 84.1333 93.1958C83.9819 92.9858 83.7671 92.8247 83.4888 92.7124C83.2153 92.5952 82.8979 92.5366 82.5366 92.5366ZM83.2251 90.4346H81.8262V88.1567H83.2251V90.4346Z" fill="#0C2557"/>
</g>
<defs>
<filter id="filter0_f_544_1515" x="0" y="0" width="172" height="166" filterUnits="userSpaceOnUse" color-interpolation-filters="sRGB">
<feFlood flood-opacity="0" result="BackgroundImageFix"/>
<feBlend mode="normal" in="SourceGraphic" in2="BackgroundImageFix" result="shape"/>
<feGaussianBlur stdDeviation="25" result="effect1_foregroundBlur_544_1515"/>
</filter>
<clipPath id="clip0_544_1515">
<rect width="172" height="166" fill="white"/>
</clipPath>
</defs>
</svg>
