<svg width="491" height="909" viewBox="0 0 491 909" fill="none" xmlns="http://www.w3.org/2000/svg">
<path d="M49.8811 187.431L50.2788 216.681L65.2484 191.548L50.9677 217.079L76.4981 202.798L51.3655 217.768L80.6157 218.165L51.3655 218.563L76.4981 233.533L50.9677 219.252L65.2484 244.782L50.2788 219.65L49.8811 248.9L49.4834 219.65L34.5138 244.782L48.7945 219.252L23.2641 233.533L48.3967 218.563L19.1465 218.165L48.3967 217.768L23.2641 202.798L48.7945 217.079L34.5138 191.548L49.4834 216.681L49.8811 187.431Z" fill="url(#paint0_radial_645_7438)"/>
<g opacity="0.65">
<circle cx="420.384" cy="249.773" r="29.0809" transform="rotate(45 420.384 249.773)" fill="#F6D1B1" fill-opacity="0.45"/>
<circle cx="405.818" cy="275.477" r="22.4165" transform="rotate(45 405.818 275.477)" fill="#F6D1B1" fill-opacity="0.25"/>
<circle cx="412.673" cy="298.611" r="12.117" transform="rotate(45 412.673 298.611)" fill="#F6D1B1" fill-opacity="0.45"/>
<circle cx="368.119" cy="298.611" r="7.27022" transform="rotate(45 368.119 298.611)" fill="#F6D1B1" fill-opacity="0.45"/>
<circle cx="430.666" cy="285.758" r="3.63511" transform="rotate(45 430.666 285.758)" fill="#F6D1B1" fill-opacity="0.45"/>
<circle cx="463.225" cy="267.766" r="1.81756" transform="rotate(45 463.225 267.766)" fill="#F6D1B1" fill-opacity="0.75"/>
<circle cx="385.626" cy="256.864" r="1.81756" transform="rotate(11.8926 385.626 256.864)" fill="#F6D1B1" fill-opacity="0.75"/>
<circle cx="386.969" cy="227.496" r="1.81756" transform="rotate(45 386.969 227.496)" fill="#F6D1B1" fill-opacity="0.75"/>
<circle cx="422.955" cy="208.646" r="1.81756" transform="rotate(45 422.955 208.646)" fill="#F6D1B1" fill-opacity="0.75"/>
<circle cx="380.291" cy="243.977" r="3.63511" transform="rotate(11.8926 380.291 243.977)" fill="#F6D1B1" fill-opacity="0.45"/>
</g>
<path fill-rule="evenodd" clip-rule="evenodd" d="M392.759 591.677C406.523 591.594 420.352 586.994 431.862 577.634C458.703 555.806 462.767 516.351 440.939 489.51C419.11 462.669 379.656 458.605 352.814 480.433C350.531 482.29 348.412 484.275 346.461 486.368C329.085 476.066 309.775 471.702 290.936 472.715C288.545 468.117 285.655 463.692 282.257 459.514C261.189 433.608 226.849 424.854 197.001 435.081L196.887 434.94C175.059 408.099 135.604 404.035 108.763 425.864C81.9216 447.692 77.8579 487.147 99.6864 513.988C112.475 529.713 131.313 537.62 150.12 537.083C152.96 544.211 156.916 551.034 162.013 557.302C171.763 569.29 184.355 577.606 198.029 582.067C201.241 611.141 217.287 638.503 244.06 655.137C290.365 683.906 351.225 669.69 379.995 623.385C386.234 613.342 390.452 602.614 392.759 591.677Z" fill="url(#paint1_linear_645_7438)"/>
<g opacity="0.65">
<ellipse cx="59.6781" cy="21.6457" rx="13.4359" ry="12.9874" fill="#F6D1B1" fill-opacity="0.45"/>
<ellipse cx="70.8746" cy="34.2" rx="16.5709" ry="16.0178" fill="#F6D1B1" fill-opacity="0.25"/>
<ellipse cx="39.9723" cy="43.2913" rx="2.68718" ry="2.59748" fill="#F6D1B1" fill-opacity="0.45"/>
<ellipse cx="89.6854" cy="1.29874" rx="1.34359" ry="1.29874" fill="#F6D1B1" fill-opacity="0.75"/>
<ellipse cx="92.3719" cy="63.6382" rx="1.34359" ry="1.29874" fill="#F6D1B1" fill-opacity="0.75"/>
<ellipse cx="48.9294" cy="52.8154" rx="2.68718" ry="2.59748" fill="#F6D1B1" fill-opacity="0.45"/>
<ellipse cx="82.0719" cy="8.6583" rx="2.68718" ry="2.59748" fill="#F6D1B1" fill-opacity="0.45"/>
<ellipse cx="86.5505" cy="55.4129" rx="2.68718" ry="2.59748" fill="#F6D1B1" fill-opacity="0.45"/>
</g>
<g opacity="0.65">
<ellipse cx="375.543" cy="33.0116" rx="16.5451" ry="15.8581" transform="rotate(-108.047 375.543 33.0116)" fill="#F6D1B1" fill-opacity="0.25"/>
<ellipse cx="390.506" cy="38.3369" rx="11.4104" ry="10.9366" transform="rotate(-108.047 390.506 38.3369)" fill="#F6D1B1" fill-opacity="0.45"/>
<ellipse cx="399.002" cy="6.16627" rx="1.71156" ry="1.64049" transform="rotate(-108.047 399.002 6.16627)" fill="#F6D1B1" fill-opacity="0.75"/>
<ellipse cx="363.5" cy="52.5364" rx="1.71156" ry="1.64049" transform="rotate(-108.047 363.5 52.5364)" fill="#F6D1B1" fill-opacity="0.75"/>
<ellipse cx="346.135" cy="52.1943" rx="1.71156" ry="1.64049" transform="rotate(-108.047 346.135 52.1943)" fill="#F6D1B1" fill-opacity="0.75"/>
<ellipse cx="369.273" cy="29.6543" rx="3.42311" ry="3.28098" transform="rotate(-108.047 369.273 29.6543)" fill="#F6D1B1" fill-opacity="0.45"/>
<ellipse cx="391.068" cy="15.3521" rx="3.42311" ry="3.28098" transform="rotate(-108.047 391.068 15.3521)" fill="#F6D1B1" fill-opacity="0.45"/>
</g>
<g opacity="0.65">
<ellipse cx="320.865" cy="877.351" rx="16.2292" ry="16.263" transform="rotate(-108.047 320.865 877.351)" fill="#F6D1B1" fill-opacity="0.25"/>
<ellipse cx="336.076" cy="882.4" rx="11.1925" ry="11.2159" transform="rotate(-108.047 336.076 882.4)" fill="#F6D1B1" fill-opacity="0.45"/>
<ellipse cx="345.176" cy="850.594" rx="1.67888" ry="1.68238" transform="rotate(-108.047 345.176 850.594)" fill="#F6D1B1" fill-opacity="0.75"/>
<ellipse cx="308.31" cy="896.745" rx="1.67888" ry="1.68238" transform="rotate(-108.047 308.31 896.745)" fill="#F6D1B1" fill-opacity="0.75"/>
<ellipse cx="290.579" cy="896.636" rx="1.67888" ry="1.68238" transform="rotate(-108.047 290.579 896.636)" fill="#F6D1B1" fill-opacity="0.75"/>
<ellipse cx="314.506" cy="874.125" rx="3.35776" ry="3.36476" transform="rotate(-108.047 314.506 874.125)" fill="#F6D1B1" fill-opacity="0.45"/>
<ellipse cx="336.952" cy="859.748" rx="3.35776" ry="3.36476" transform="rotate(-108.047 336.952 859.748)" fill="#F6D1B1" fill-opacity="0.45"/>
</g>
<path d="M345.638 609.654L345.873 628.834L354.708 612.354L346.28 629.095L361.347 619.731L346.514 629.547L363.777 629.808L346.514 630.069L361.347 639.885L346.28 630.52L354.708 647.261L345.873 630.781L345.638 649.962L345.404 630.781L336.569 647.261L344.997 630.52L329.93 639.885L344.762 630.069L327.5 629.808L344.762 629.547L329.93 619.731L344.997 629.095L336.569 612.354L345.404 628.834L345.638 609.654Z" fill="url(#paint2_radial_645_7438)"/>
<path d="M43.8346 420.208L44.4019 461.925L65.7519 426.08L45.3844 462.493L81.7965 442.125L45.9517 463.475L87.6692 464.042L45.9517 464.61L81.7965 485.96L45.3844 465.592L65.7519 502.004L44.4019 466.159L43.8346 507.877L43.2674 466.159L21.9173 502.004L42.2848 465.592L5.87273 485.96L41.7176 464.61L0 464.042L41.7176 463.475L5.87273 442.125L42.2848 462.493L21.9173 426.08L43.2674 461.925L43.8346 420.208Z" fill="url(#paint3_radial_645_7438)"/>
<path d="M147.626 631.823L148.552 637.447L154.176 638.373L148.552 639.299L147.626 644.923L146.7 639.299L141.076 638.373L146.7 637.447L147.626 631.823Z" fill="#F6D1B1"/>
<g opacity="0.65">
<circle cx="55.6704" cy="557.31" r="22.4165" fill="#F6D1B1" fill-opacity="0.25"/>
<circle cx="82.9334" cy="591.843" r="12.117" fill="#F6D1B1" fill-opacity="0.45"/>
<circle cx="67.7873" cy="531.864" r="1.81756" fill="#F6D1B1" fill-opacity="0.75"/>
<circle cx="62.9406" cy="639.705" r="1.81756" fill="#F6D1B1" fill-opacity="0.75"/>
<circle cx="115.044" cy="604.566" r="1.81756" fill="#F6D1B1" fill-opacity="0.75"/>
<circle cx="102.927" cy="576.697" r="1.81756" fill="#F6D1B1" fill-opacity="0.75"/>
<circle cx="39.3128" cy="576.091" r="3.63511" fill="#F6D1B1" fill-opacity="0.45"/>
<circle cx="55.0648" cy="553.069" r="3.63511" fill="#F6D1B1" fill-opacity="0.45"/>
<circle cx="62.3353" cy="563.974" r="3.63511" fill="#F6D1B1" fill-opacity="0.45"/>
<circle cx="55.0648" cy="628.194" r="3.63511" fill="#F6D1B1" fill-opacity="0.45"/>
<circle cx="107.168" cy="593.055" r="3.63511" fill="#F6D1B1" fill-opacity="0.45"/>
</g>
<path d="M370.327 585.469L371.254 591.093L376.877 592.019L371.254 592.946L370.327 598.569L369.401 592.946L363.777 592.019L369.401 591.093L370.327 585.469Z" fill="#F6D1B1"/>
<g opacity="0.65">
<circle cx="201.054" cy="667.615" r="16.6454" fill="#F6D1B1" fill-opacity="0.25"/>
<circle cx="211.4" cy="678.861" r="5.3985" fill="#F6D1B1" fill-opacity="0.45"/>
<circle cx="224.447" cy="682.011" r="1.34962" fill="#F6D1B1" fill-opacity="0.75"/>
<circle cx="189.356" cy="655.918" r="1.34962" fill="#F6D1B1" fill-opacity="0.75"/>
<circle cx="192.056" cy="667.615" r="1.34962" fill="#F6D1B1" fill-opacity="0.75"/>
</g>
<path d="M69.0261 684.223L70.5224 694.173L79.6069 695.812L70.5224 697.45L69.0261 707.4L67.5297 697.45L58.4453 695.812L67.5297 694.173L69.0261 684.223Z" fill="#F6D1B1"/>
<path d="M353.7 723.523L354.169 758.048L371.838 728.383L354.982 758.517L385.117 741.662L355.452 759.331L389.977 759.8L355.452 760.269L385.117 777.938L354.982 761.083L371.838 791.217L354.169 761.552L353.7 796.077L353.23 761.552L335.561 791.217L352.417 761.083L322.283 777.938L351.948 760.269L317.423 759.8L351.948 759.331L322.283 741.662L352.417 758.517L335.561 728.383L353.23 758.048L353.7 723.523Z" fill="url(#paint4_radial_645_7438)"/>
<path d="M402.573 269.054L403.5 274.678L409.123 275.604L403.5 276.53L402.573 282.154L401.647 276.53L396.023 275.604L401.647 274.678L402.573 269.054Z" fill="#F6D1B1"/>
<g opacity="0.65">
<circle cx="425.423" cy="536.965" r="29.0809" transform="rotate(45 425.423 536.965)" fill="#F6D1B1" fill-opacity="0.45"/>
<circle cx="410.857" cy="562.669" r="22.4165" transform="rotate(45 410.857 562.669)" fill="#F6D1B1" fill-opacity="0.25"/>
<circle cx="417.712" cy="585.803" r="12.117" transform="rotate(45 417.712 585.803)" fill="#F6D1B1" fill-opacity="0.45"/>
<circle cx="373.158" cy="585.803" r="7.27022" transform="rotate(45 373.158 585.803)" fill="#F6D1B1" fill-opacity="0.45"/>
<circle cx="435.705" cy="572.951" r="3.63511" transform="rotate(45 435.705 572.951)" fill="#F6D1B1" fill-opacity="0.45"/>
<circle cx="468.264" cy="554.958" r="1.81756" transform="rotate(45 468.264 554.958)" fill="#F6D1B1" fill-opacity="0.75"/>
<circle cx="390.665" cy="544.057" r="1.81756" transform="rotate(11.8926 390.665 544.057)" fill="#F6D1B1" fill-opacity="0.75"/>
<circle cx="392.008" cy="514.688" r="1.81756" transform="rotate(45 392.008 514.688)" fill="#F6D1B1" fill-opacity="0.75"/>
<circle cx="427.994" cy="495.838" r="1.81756" transform="rotate(45 427.994 495.838)" fill="#F6D1B1" fill-opacity="0.75"/>
<circle cx="385.33" cy="531.17" r="3.63511" transform="rotate(11.8926 385.33 531.17)" fill="#F6D1B1" fill-opacity="0.45"/>
</g>
<path d="M179.37 803.131L180.937 812.215L190.454 813.712L180.937 815.208L179.37 824.292L177.802 815.208L168.285 813.712L177.802 812.215L179.37 803.131Z" fill="#F6D1B1"/>
<g opacity="0.65">
<ellipse cx="116.316" cy="863.31" rx="12.956" ry="12.5277" fill="#F6D1B1" fill-opacity="0.45"/>
<ellipse cx="127.113" cy="875.42" rx="15.9791" ry="15.4508" fill="#F6D1B1" fill-opacity="0.25"/>
<ellipse cx="97.3139" cy="884.19" rx="2.59121" ry="2.50553" fill="#F6D1B1" fill-opacity="0.45"/>
<ellipse cx="145.252" cy="843.684" rx="1.2956" ry="1.25277" fill="#F6D1B1" fill-opacity="0.75"/>
<ellipse cx="147.842" cy="903.816" rx="1.2956" ry="1.25277" fill="#F6D1B1" fill-opacity="0.75"/>
<ellipse cx="105.952" cy="893.377" rx="2.59121" ry="2.50553" fill="#F6D1B1" fill-opacity="0.45"/>
<ellipse cx="137.91" cy="850.783" rx="2.59121" ry="2.50553" fill="#F6D1B1" fill-opacity="0.45"/>
<ellipse cx="142.228" cy="895.882" rx="2.59121" ry="2.50553" fill="#F6D1B1" fill-opacity="0.45"/>
</g>
<defs>
<radialGradient id="paint0_radial_645_7438" cx="0" cy="0" r="1" gradientUnits="userSpaceOnUse" gradientTransform="translate(49.8811 218.165) rotate(90) scale(30.7346)">
<stop stop-color="#F6D1B1"/>
<stop offset="1" stop-color="#99926F" stop-opacity="0"/>
</radialGradient>
<linearGradient id="paint1_linear_645_7438" x1="382.412" y1="416.791" x2="315.024" y2="604.844" gradientUnits="userSpaceOnUse">
<stop stop-color="#BF9BF5" stop-opacity="0.33"/>
<stop offset="0.373264" stop-color="#43A5EF" stop-opacity="0.16"/>
<stop offset="0.904514" stop-color="#43A5EF" stop-opacity="0"/>
</linearGradient>
<radialGradient id="paint2_radial_645_7438" cx="0" cy="0" r="1" gradientUnits="userSpaceOnUse" gradientTransform="translate(345.638 629.808) rotate(90) scale(20.1538 18.1385)">
<stop stop-color="#F6D1B1"/>
<stop offset="1" stop-color="#99926F" stop-opacity="0"/>
</radialGradient>
<radialGradient id="paint3_radial_645_7438" cx="0" cy="0" r="1" gradientUnits="userSpaceOnUse" gradientTransform="translate(43.8346 464.042) rotate(90) scale(43.8346)">
<stop stop-color="#F6D1B1"/>
<stop offset="1" stop-color="#99926F" stop-opacity="0"/>
</radialGradient>
<radialGradient id="paint4_radial_645_7438" cx="0" cy="0" r="1" gradientUnits="userSpaceOnUse" gradientTransform="translate(353.7 759.8) rotate(90) scale(36.2769)">
<stop stop-color="#F6D1B1"/>
<stop offset="1" stop-color="#99926F" stop-opacity="0"/>
</radialGradient>
</defs>
</svg>
