<svg width="414" height="297" viewBox="0 0 414 297" fill="none" xmlns="http://www.w3.org/2000/svg">
<path d="M178.959 19.2881H158.647V16.8467H178.959V19.2881ZM170.28 26.2461H167.192V18.043H170.28V26.2461ZM164.091 7.43506H173.43V4.88379H176.555V14.6982H161.015V4.88379H164.091V7.43506ZM173.43 12.208V9.87646H164.091V12.208H173.43ZM191.374 6.94678C191.374 8.55811 190.996 10.0677 190.239 11.4756C189.482 12.8835 188.404 14.0879 187.004 15.0889C185.612 16.0817 183.981 16.7653 182.109 17.1396L180.778 14.5518C182.373 14.2507 183.765 13.7095 184.953 12.9282C186.149 12.147 187.061 11.2314 187.688 10.1816C188.322 9.13184 188.64 8.05355 188.64 6.94678V5.35986H191.374V6.94678ZM191.948 6.94678C191.948 8.06169 192.261 9.14811 192.888 10.2061C193.522 11.264 194.438 12.1836 195.634 12.9648C196.839 13.738 198.247 14.2669 199.858 14.5518L198.491 17.1396C196.635 16.7653 195.008 16.0858 193.608 15.1011C192.216 14.1164 191.146 12.9201 190.397 11.5122C189.649 10.1043 189.274 8.58252 189.274 6.94678V5.35986H191.948V6.94678ZM200.59 23.5239H180.278V20.9727H200.59V23.5239ZM205.437 11.0117H208.464V6.00684H211.345V20.9849H202.495V6.00684H205.437V11.0117ZM208.464 18.4824V13.4531H205.437V18.4824H208.464ZM221.135 26.2461H218.144V4.00488H221.135V26.2461ZM219.084 15.04H215.312V12.5132H219.084V15.04ZM216.142 25.2207H213.212V4.34668H216.142V25.2207ZM242.045 26.2461H238.92V4.00488H242.045V26.2461ZM231.535 10.9995C231.535 12.5946 231.295 14.1326 230.815 15.6138C230.335 17.0949 229.619 18.4051 228.667 19.5444C227.722 20.6838 226.583 21.5382 225.249 22.1079L223.601 19.7031C224.772 19.1904 225.769 18.4702 226.591 17.5425C227.413 16.6066 228.032 15.5731 228.447 14.4419C228.862 13.3107 229.069 12.1632 229.069 10.9995V9.72998H231.535V10.9995ZM232.158 10.9995C232.158 12.1144 232.365 13.2171 232.78 14.3076C233.203 15.3981 233.83 16.391 234.66 17.2861C235.498 18.1813 236.512 18.8771 237.7 19.3735L236.015 21.7417C234.689 21.1965 233.549 20.3745 232.597 19.2759C231.653 18.1691 230.937 16.8996 230.449 15.4673C229.96 14.0269 229.716 12.5376 229.716 10.9995V9.72998H232.158V10.9995ZM236.784 10.1328H224.333V7.65479H236.784V10.1328ZM232.146 8.94873H229.045V4.51758H232.146V8.94873ZM263.188 16.4438H247.49V13.9658H263.188V16.4438ZM265.41 23.7314H245.097V21.1802H265.41V23.7314ZM256.743 21.998H253.679V15.1011H256.743V21.998ZM263.029 8.06982H250.603V15.0889H247.49V5.604H263.029V8.06982Z" fill="white"/>
<path fill-rule="evenodd" clip-rule="evenodd" d="M55 158.829C56.1652 158.417 57 157.306 57 156C57 154.343 55.6569 153 54 153C52.3431 153 51 154.343 51 156C51 157.306 51.8348 158.417 53 158.829V178H55V158.829Z" fill="#FEEFC5"/>
<rect x="41" y="170" width="26" height="26" rx="13" fill="#FEEFC5"/>
<path d="M53.9277 185.559C53.6113 185.559 53.3262 185.507 53.0723 185.403C52.8203 185.3 52.623 185.156 52.4805 184.973C52.3379 184.789 52.2666 184.584 52.2666 184.357C52.2666 184.184 52.3076 184.021 52.3896 183.871C52.4717 183.719 52.583 183.594 52.7236 183.496C52.8662 183.398 53.0244 183.337 53.1982 183.312V183.279C53.0498 183.25 52.917 183.191 52.7998 183.104C52.6826 183.014 52.5908 182.902 52.5244 182.77C52.458 182.637 52.4248 182.494 52.4248 182.342C52.4248 182.125 52.4902 181.93 52.6211 181.756C52.752 181.58 52.9316 181.443 53.1602 181.346C53.3887 181.248 53.6445 181.199 53.9277 181.199C54.2129 181.199 54.4697 181.248 54.6982 181.346C54.9287 181.443 55.1084 181.58 55.2373 181.756C55.3682 181.93 55.4336 182.125 55.4336 182.342C55.4336 182.494 55.3994 182.637 55.3311 182.77C55.2646 182.902 55.1729 183.014 55.0557 183.104C54.9404 183.191 54.8076 183.25 54.6572 183.279V183.312C54.8311 183.337 54.9883 183.398 55.1289 183.496C55.2715 183.594 55.3848 183.719 55.4688 183.871C55.5527 184.021 55.5947 184.184 55.5947 184.357C55.5947 184.584 55.5225 184.789 55.3779 184.973C55.2354 185.156 55.0371 185.3 54.7832 185.403C54.5312 185.507 54.2461 185.559 53.9277 185.559ZM53.9277 184.888C54.0742 184.888 54.2041 184.861 54.3174 184.809C54.4307 184.756 54.5186 184.683 54.5811 184.589C54.6436 184.495 54.6748 184.39 54.6748 184.272C54.6748 184.149 54.6426 184.039 54.5781 183.941C54.5137 183.844 54.4248 183.768 54.3115 183.713C54.1982 183.658 54.0703 183.631 53.9277 183.631C53.7871 183.631 53.6602 183.658 53.5469 183.713C53.4336 183.768 53.3447 183.844 53.2803 183.941C53.2158 184.039 53.1846 184.149 53.1865 184.272C53.1846 184.39 53.2148 184.495 53.2773 184.589C53.3398 184.683 53.4277 184.756 53.541 184.809C53.6543 184.861 53.7832 184.888 53.9277 184.888ZM53.9277 183.007C54.0508 183.007 54.1611 182.982 54.2588 182.934C54.3584 182.883 54.4355 182.814 54.4902 182.729C54.5449 182.641 54.5723 182.542 54.5723 182.433C54.5723 182.321 54.5449 182.223 54.4902 182.137C54.4375 182.051 54.3613 181.984 54.2617 181.938C54.1641 181.889 54.0527 181.864 53.9277 181.864C53.8047 181.864 53.6934 181.889 53.5938 181.938C53.4961 181.984 53.4199 182.051 53.3652 182.137C53.3125 182.223 53.2861 182.321 53.2861 182.433C53.2861 182.542 53.3135 182.641 53.3682 182.729C53.4248 182.814 53.502 182.883 53.5996 182.934C53.6973 182.982 53.8066 183.007 53.9277 183.007Z" fill="black"/>
<path d="M34.0596 137.688H33.0714V133.602H34.0596V137.688ZM31.9893 138.68C31.9893 139.023 31.8787 139.339 31.6573 139.625C31.4386 139.909 31.1195 140.145 30.7003 140.332C30.281 140.522 29.7771 140.645 29.1886 140.699L28.8565 139.965C29.3461 139.921 29.7641 139.832 30.1104 139.699C30.4568 139.566 30.7159 139.409 30.8878 139.227C31.0596 139.044 31.1456 138.862 31.1456 138.68V138.578H31.9893V138.68ZM32.1807 138.68C32.1807 138.854 32.2667 139.031 32.4386 139.211C32.613 139.391 32.8721 139.548 33.2159 139.684C33.5622 139.819 33.9776 139.909 34.462 139.953L34.1221 140.699C33.5414 140.645 33.0401 140.518 32.6182 140.32C32.1964 140.125 31.8761 139.884 31.6573 139.598C31.4386 139.311 31.3292 139.005 31.3292 138.68V138.578H32.1807V138.68ZM34.1886 138.844H29.1456V138.09H34.1886V138.844ZM32.1612 138.461H31.1612V137.508H32.1612V138.461ZM29.4659 134.793H30.9581V133.891H31.9503V137.129H28.4815V133.891H29.4659V134.793ZM30.9581 136.348V135.547H29.4659V136.348H30.9581ZM37.137 134.082C37.5094 134.082 37.8453 134.158 38.1448 134.309C38.4443 134.457 38.6787 134.664 38.8479 134.93C39.0198 135.193 39.1057 135.492 39.1057 135.828C39.1057 136.164 39.0198 136.465 38.8479 136.73C38.6787 136.993 38.4443 137.201 38.1448 137.352C37.8479 137.5 37.512 137.574 37.137 137.574C36.7672 137.574 36.4313 137.5 36.1292 137.352C35.8271 137.201 35.5901 136.993 35.4182 136.73C35.2464 136.465 35.1604 136.164 35.1604 135.828C35.1604 135.492 35.2464 135.193 35.4182 134.93C35.5901 134.664 35.8271 134.457 36.1292 134.309C36.4313 134.158 36.7672 134.082 37.137 134.082ZM37.137 134.941C36.9469 134.941 36.7776 134.977 36.6292 135.047C36.4807 135.117 36.3636 135.22 36.2776 135.355C36.1917 135.488 36.1487 135.646 36.1487 135.828C36.1487 136.013 36.1917 136.172 36.2776 136.305C36.3636 136.435 36.4807 136.536 36.6292 136.609C36.7776 136.68 36.9469 136.715 37.137 136.715C37.3271 136.715 37.4977 136.68 37.6487 136.609C37.8024 136.536 37.9208 136.435 38.0042 136.305C38.0901 136.172 38.1331 136.013 38.1331 135.828C38.1331 135.646 38.0901 135.488 38.0042 135.355C37.9208 135.22 37.8024 135.117 37.6487 135.047C37.4977 134.977 37.3271 134.941 37.137 134.941ZM40.805 140.738H39.8167V133.602H40.805V140.738ZM34.8636 138.473C35.4365 138.47 35.9573 138.464 36.4261 138.453C36.8948 138.443 37.3922 138.422 37.9182 138.391C38.4469 138.357 38.9456 138.309 39.4143 138.246L39.4846 138.961C39.0029 139.055 38.5003 139.125 37.9768 139.172C37.4534 139.219 36.9612 139.249 36.5003 139.262C36.0419 139.275 35.5354 139.281 34.9807 139.281L34.8636 138.473ZM49.1862 140.719H48.1979V133.602H49.1862V140.719ZM48.6745 137.156H46.7839V136.344H48.6745V137.156ZM46.8229 134.352C46.8229 135.115 46.7266 135.803 46.5339 136.418C46.3438 137.03 46.0143 137.594 45.5456 138.109C45.0768 138.625 44.4414 139.082 43.6393 139.48L43.1315 138.699C43.7982 138.371 44.3294 138.005 44.7253 137.602C45.1237 137.198 45.4089 136.746 45.5807 136.246C45.7552 135.743 45.8425 135.171 45.8425 134.527V134.352H46.8229ZM46.362 135.137H43.4675V134.352H46.362V135.137ZM55.8729 140.738H54.8768V133.602H55.8729V140.738ZM50.9315 138.25C51.5982 138.253 52.1997 138.237 52.7362 138.203C53.2727 138.167 53.8169 138.104 54.369 138.016L54.4589 138.82C53.912 138.917 53.3664 138.983 52.8221 139.02C52.2805 139.053 51.6503 139.07 50.9315 139.07H50.2948V138.25H50.9315ZM53.6659 136.941H51.3221V138.562H50.2948V136.16H52.6503V135.008H50.287V134.203H53.6659V136.941ZM57.4503 141.648H56.6221L57.0089 139.426H58.1261L57.4503 141.648ZM67.7096 137.688H66.7214V133.602H67.7096V137.688ZM65.6393 138.68C65.6393 139.023 65.5287 139.339 65.3073 139.625C65.0886 139.909 64.7695 140.145 64.3503 140.332C63.931 140.522 63.4271 140.645 62.8386 140.699L62.5065 139.965C62.9961 139.921 63.4141 139.832 63.7604 139.699C64.1068 139.566 64.3659 139.409 64.5378 139.227C64.7096 139.044 64.7956 138.862 64.7956 138.68V138.578H65.6393V138.68ZM65.8307 138.68C65.8307 138.854 65.9167 139.031 66.0886 139.211C66.263 139.391 66.5221 139.548 66.8659 139.684C67.2123 139.819 67.6276 139.909 68.112 139.953L67.7721 140.699C67.1914 140.645 66.6901 140.518 66.2682 140.32C65.8464 140.125 65.5261 139.884 65.3073 139.598C65.0886 139.311 64.9792 139.005 64.9792 138.68V138.578H65.8307V138.68ZM67.8386 138.844H62.7956V138.09H67.8386V138.844ZM65.8112 138.461H64.8112V137.508H65.8112V138.461ZM63.1159 134.793H64.6081V133.891H65.6003V137.129H62.1315V133.891H63.1159V134.793ZM64.6081 136.348V135.547H63.1159V136.348H64.6081ZM70.787 134.082C71.1594 134.082 71.4953 134.158 71.7948 134.309C72.0943 134.457 72.3287 134.664 72.4979 134.93C72.6698 135.193 72.7557 135.492 72.7557 135.828C72.7557 136.164 72.6698 136.465 72.4979 136.73C72.3287 136.993 72.0943 137.201 71.7948 137.352C71.4979 137.5 71.162 137.574 70.787 137.574C70.4172 137.574 70.0813 137.5 69.7792 137.352C69.4771 137.201 69.2401 136.993 69.0682 136.73C68.8964 136.465 68.8104 136.164 68.8104 135.828C68.8104 135.492 68.8964 135.193 69.0682 134.93C69.2401 134.664 69.4771 134.457 69.7792 134.309C70.0813 134.158 70.4172 134.082 70.787 134.082ZM70.787 134.941C70.5969 134.941 70.4276 134.977 70.2792 135.047C70.1307 135.117 70.0135 135.22 69.9276 135.355C69.8417 135.488 69.7987 135.646 69.7987 135.828C69.7987 136.013 69.8417 136.172 69.9276 136.305C70.0135 136.435 70.1307 136.536 70.2792 136.609C70.4276 136.68 70.5969 136.715 70.787 136.715C70.9771 136.715 71.1477 136.68 71.2987 136.609C71.4524 136.536 71.5708 136.435 71.6542 136.305C71.7401 136.172 71.7831 136.013 71.7831 135.828C71.7831 135.646 71.7401 135.488 71.6542 135.355C71.5708 135.22 71.4524 135.117 71.2987 135.047C71.1477 134.977 70.9771 134.941 70.787 134.941ZM74.455 140.738H73.4667V133.602H74.455V140.738ZM68.5135 138.473C69.0865 138.47 69.6073 138.464 70.076 138.453C70.5448 138.443 71.0422 138.422 71.5682 138.391C72.0969 138.357 72.5956 138.309 73.0643 138.246L73.1346 138.961C72.6529 139.055 72.1503 139.125 71.6268 139.172C71.1034 139.219 70.6112 139.249 70.1503 139.262C69.6919 139.275 69.1854 139.281 68.6307 139.281L68.5135 138.473ZM80.4417 134.023C80.4417 134.464 80.3245 134.871 80.0901 135.246C79.8583 135.621 79.5237 135.936 79.0862 136.191C78.6487 136.447 78.1357 136.62 77.5471 136.711L77.18 135.934C77.6852 135.861 78.1175 135.727 78.4768 135.531C78.8388 135.336 79.1122 135.107 79.2971 134.844C79.4846 134.581 79.5784 134.307 79.5784 134.023V133.789H80.4417V134.023ZM80.6057 134.023C80.6057 134.297 80.6982 134.565 80.8831 134.828C81.0706 135.091 81.3466 135.32 81.7112 135.516C82.0784 135.711 82.5107 135.842 83.0081 135.91L82.6292 136.695C82.0406 136.604 81.5289 136.431 81.094 136.176C80.6617 135.921 80.3284 135.607 80.094 135.234C79.8622 134.862 79.7464 134.458 79.7464 134.023V133.789H80.6057V134.023ZM83.344 137.902H76.844V137.102H83.344V137.902ZM80.6721 139.125H79.6878V137.605H80.6721V139.125ZM82.6292 140.598H77.6018V139.793H82.6292V140.598ZM78.6018 140.047H77.6018V138.512H78.6018V140.047ZM89.2026 138.703H88.1909V133.602H89.2026V138.703ZM90.1636 136.422H88.9136V135.602H90.1636V136.422ZM87.2612 134.137C87.2612 134.775 87.1323 135.348 86.8745 135.855C86.6167 136.363 86.2391 136.799 85.7417 137.164C85.2469 137.526 84.6427 137.809 83.9292 138.012L83.5112 137.223C84.0945 137.061 84.5854 136.85 84.9839 136.59C85.3849 136.329 85.6857 136.033 85.8862 135.699C86.0893 135.366 86.1909 135.01 86.1909 134.633V134.137H87.2612ZM86.7456 134.953H83.8237V134.137H86.7456V134.953ZM89.4448 140.598H84.5776V139.793H89.4448V140.598ZM85.5854 140.152H84.5776V138.184H85.5854V140.152ZM55.63 150.93H49.13V150.094H55.63V150.93ZM52.8487 150.473H51.8604V148.469H52.8487V150.473ZM55.087 146.004H49.6339V145.207H55.087V146.004ZM55.0557 148.812H49.669V148.031H55.0557V148.812ZM51.6143 148.129H50.6182V145.848H51.6143V148.129ZM54.087 148.129H53.1065V145.848H54.087V148.129ZM61.637 148.926H56.6057V148.137H61.637V148.926ZM62.344 150.926H55.844V150.129H62.344V150.926ZM59.5862 150.473H58.5901V148.527H59.5862V150.473ZM61.5823 145.898H57.6214V148.445H56.6057V145.098H61.5823V145.898ZM61.4143 147.395H57.3245V146.613H61.4143V147.395ZM65.9917 145.531C65.9917 145.917 65.8836 146.271 65.6675 146.594C65.4539 146.917 65.1375 147.188 64.7182 147.406C64.3016 147.622 63.7977 147.767 63.2065 147.84L62.8471 147.043C63.3393 146.991 63.7547 146.888 64.0932 146.734C64.4344 146.578 64.6896 146.396 64.8589 146.188C65.0281 145.977 65.1128 145.758 65.1128 145.531V145.355H65.9917V145.531ZM66.4761 145.531C66.4761 145.758 66.5607 145.977 66.73 146.188C66.8992 146.396 67.1557 146.578 67.4995 146.734C67.8432 146.888 68.2599 146.991 68.7495 147.043L68.3784 147.84C67.7899 147.767 67.2859 147.622 66.8667 147.406C66.4474 147.188 66.1284 146.918 65.9096 146.598C65.6909 146.275 65.5815 145.919 65.5815 145.531V145.355H66.4761V145.531ZM68.4565 145.703H63.144V144.906H68.4565V145.703ZM68.3042 151.598H63.3393V150.793H68.3042V151.598ZM64.3354 151.102H63.3393V149.547H64.3354V151.102ZM69.0425 149.117H62.5581V148.312H69.0425V149.117ZM66.2807 148.652H65.2925V147.328H66.2807V148.652Z" fill="white"/>
<path d="M348.82 117.688H347.831V113.602H348.82V117.688ZM346.749 118.68C346.749 119.023 346.639 119.339 346.417 119.625C346.199 119.909 345.88 120.145 345.46 120.332C345.041 120.522 344.537 120.645 343.949 120.699L343.617 119.965C344.106 119.921 344.524 119.832 344.87 119.699C345.217 119.566 345.476 119.409 345.648 119.227C345.82 119.044 345.906 118.862 345.906 118.68V118.578H346.749V118.68ZM346.941 118.68C346.941 118.854 347.027 119.031 347.199 119.211C347.373 119.391 347.632 119.548 347.976 119.684C348.322 119.819 348.738 119.909 349.222 119.953L348.882 120.699C348.301 120.645 347.8 120.518 347.378 120.32C346.956 120.125 346.636 119.884 346.417 119.598C346.199 119.311 346.089 119.005 346.089 118.68V118.578H346.941V118.68ZM348.949 118.844H343.906V118.09H348.949V118.844ZM346.921 118.461H345.921V117.508H346.921V118.461ZM344.226 114.793H345.718V113.891H346.71V117.129H343.242V113.891H344.226V114.793ZM345.718 116.348V115.547H344.226V116.348H345.718ZM351.937 114.082C352.309 114.082 352.645 114.158 352.945 114.309C353.244 114.457 353.479 114.664 353.648 114.93C353.82 115.193 353.906 115.492 353.906 115.828C353.906 116.164 353.82 116.465 353.648 116.73C353.479 116.993 353.244 117.201 352.945 117.352C352.648 117.5 352.312 117.574 351.937 117.574C351.567 117.574 351.231 117.5 350.929 117.352C350.627 117.201 350.39 116.993 350.218 116.73C350.046 116.465 349.96 116.164 349.96 115.828C349.96 115.492 350.046 115.193 350.218 114.93C350.39 114.664 350.627 114.457 350.929 114.309C351.231 114.158 351.567 114.082 351.937 114.082ZM351.937 114.941C351.747 114.941 351.578 114.977 351.429 115.047C351.281 115.117 351.164 115.22 351.078 115.355C350.992 115.488 350.949 115.646 350.949 115.828C350.949 116.013 350.992 116.172 351.078 116.305C351.164 116.435 351.281 116.536 351.429 116.609C351.578 116.68 351.747 116.715 351.937 116.715C352.127 116.715 352.298 116.68 352.449 116.609C352.602 116.536 352.721 116.435 352.804 116.305C352.89 116.172 352.933 116.013 352.933 115.828C352.933 115.646 352.89 115.488 352.804 115.355C352.721 115.22 352.602 115.117 352.449 115.047C352.298 114.977 352.127 114.941 351.937 114.941ZM355.605 120.738H354.617V113.602H355.605V120.738ZM349.664 118.473C350.236 118.47 350.757 118.464 351.226 118.453C351.695 118.443 352.192 118.422 352.718 118.391C353.247 118.357 353.746 118.309 354.214 118.246L354.285 118.961C353.803 119.055 353.3 119.125 352.777 119.172C352.253 119.219 351.761 119.249 351.3 119.262C350.842 119.275 350.335 119.281 349.781 119.281L349.664 118.473ZM364.066 120.719H363.078V113.602H364.066V120.719ZM363.554 117.156H361.664V116.344H363.554V117.156ZM361.703 114.352C361.703 115.115 361.607 115.803 361.414 116.418C361.224 117.03 360.894 117.594 360.426 118.109C359.957 118.625 359.321 119.082 358.519 119.48L358.012 118.699C358.678 118.371 359.209 118.005 359.605 117.602C360.004 117.198 360.289 116.746 360.461 116.246C360.635 115.743 360.722 115.171 360.722 114.527V114.352H361.703ZM361.242 115.137H358.347V114.352H361.242V115.137ZM370.793 120.738H369.797V113.602H370.793V120.738ZM365.852 118.25C366.518 118.253 367.12 118.237 367.656 118.203C368.193 118.167 368.737 118.104 369.289 118.016L369.379 118.82C368.832 118.917 368.286 118.983 367.742 119.02C367.2 119.053 366.57 119.07 365.852 119.07H365.215V118.25H365.852ZM368.586 116.941H366.242V118.562H365.215V116.16H367.57V115.008H365.207V114.203H368.586V116.941ZM372.41 121.648H371.582L371.969 119.426H373.086L372.41 121.648ZM382.79 117.688H381.801V113.602H382.79V117.688ZM380.719 118.68C380.719 119.023 380.609 119.339 380.387 119.625C380.169 119.909 379.85 120.145 379.43 120.332C379.011 120.522 378.507 120.645 377.919 120.699L377.587 119.965C378.076 119.921 378.494 119.832 378.84 119.699C379.187 119.566 379.446 119.409 379.618 119.227C379.79 119.044 379.876 118.862 379.876 118.68V118.578H380.719V118.68ZM380.911 118.68C380.911 118.854 380.997 119.031 381.169 119.211C381.343 119.391 381.602 119.548 381.946 119.684C382.292 119.819 382.708 119.909 383.192 119.953L382.852 120.699C382.271 120.645 381.77 120.518 381.348 120.32C380.926 120.125 380.606 119.884 380.387 119.598C380.169 119.311 380.059 119.005 380.059 118.68V118.578H380.911V118.68ZM382.919 118.844H377.876V118.09H382.919V118.844ZM380.891 118.461H379.891V117.508H380.891V118.461ZM378.196 114.793H379.688V113.891H380.68V117.129H377.212V113.891H378.196V114.793ZM379.688 116.348V115.547H378.196V116.348H379.688ZM385.907 114.082C386.279 114.082 386.615 114.158 386.915 114.309C387.214 114.457 387.449 114.664 387.618 114.93C387.79 115.193 387.876 115.492 387.876 115.828C387.876 116.164 387.79 116.465 387.618 116.73C387.449 116.993 387.214 117.201 386.915 117.352C386.618 117.5 386.282 117.574 385.907 117.574C385.537 117.574 385.201 117.5 384.899 117.352C384.597 117.201 384.36 116.993 384.188 116.73C384.016 116.465 383.93 116.164 383.93 115.828C383.93 115.492 384.016 115.193 384.188 114.93C384.36 114.664 384.597 114.457 384.899 114.309C385.201 114.158 385.537 114.082 385.907 114.082ZM385.907 114.941C385.717 114.941 385.548 114.977 385.399 115.047C385.251 115.117 385.134 115.22 385.048 115.355C384.962 115.488 384.919 115.646 384.919 115.828C384.919 116.013 384.962 116.172 385.048 116.305C385.134 116.435 385.251 116.536 385.399 116.609C385.548 116.68 385.717 116.715 385.907 116.715C386.097 116.715 386.268 116.68 386.419 116.609C386.572 116.536 386.691 116.435 386.774 116.305C386.86 116.172 386.903 116.013 386.903 115.828C386.903 115.646 386.86 115.488 386.774 115.355C386.691 115.22 386.572 115.117 386.419 115.047C386.268 114.977 386.097 114.941 385.907 114.941ZM389.575 120.738H388.587V113.602H389.575V120.738ZM383.634 118.473C384.206 118.47 384.727 118.464 385.196 118.453C385.665 118.443 386.162 118.422 386.688 118.391C387.217 118.357 387.716 118.309 388.184 118.246L388.255 118.961C387.773 119.055 387.27 119.125 386.747 119.172C386.223 119.219 385.731 119.249 385.27 119.262C384.812 119.275 384.305 119.281 383.751 119.281L383.634 118.473ZM395.642 114.023C395.642 114.464 395.524 114.871 395.29 115.246C395.058 115.621 394.724 115.936 394.286 116.191C393.849 116.447 393.336 116.62 392.747 116.711L392.38 115.934C392.885 115.861 393.317 115.727 393.677 115.531C394.039 115.336 394.312 115.107 394.497 114.844C394.685 114.581 394.778 114.307 394.778 114.023V113.789H395.642V114.023ZM395.806 114.023C395.806 114.297 395.898 114.565 396.083 114.828C396.271 115.091 396.547 115.32 396.911 115.516C397.278 115.711 397.711 115.842 398.208 115.91L397.829 116.695C397.241 116.604 396.729 116.431 396.294 116.176C395.862 115.921 395.528 115.607 395.294 115.234C395.062 114.862 394.946 114.458 394.946 114.023V113.789H395.806V114.023ZM398.544 117.902H392.044V117.102H398.544V117.902ZM395.872 119.125H394.888V117.605H395.872V119.125ZM397.829 120.598H392.802V119.793H397.829V120.598ZM393.802 120.047H392.802V118.512H393.802V120.047ZM404.443 118.703H403.431V113.602H404.443V118.703ZM405.404 116.422H404.154V115.602H405.404V116.422ZM402.501 114.137C402.501 114.775 402.372 115.348 402.114 115.855C401.857 116.363 401.479 116.799 400.982 117.164C400.487 117.526 399.883 117.809 399.169 118.012L398.751 117.223C399.335 117.061 399.825 116.85 400.224 116.59C400.625 116.329 400.926 116.033 401.126 115.699C401.329 115.366 401.431 115.01 401.431 114.633V114.137H402.501ZM401.986 114.953H399.064V114.137H401.986V114.953ZM404.685 120.598H399.818V119.793H404.685V120.598ZM400.825 120.152H399.818V118.184H400.825V120.152ZM370.59 130.93H364.09V130.094H370.59V130.93ZM367.809 130.473H366.82V128.469H367.809V130.473ZM370.047 126.004H364.594V125.207H370.047V126.004ZM370.016 128.812H364.629V128.031H370.016V128.812ZM366.574 128.129H365.578V125.848H366.574V128.129ZM369.047 128.129H368.067V125.848H369.047V128.129ZM376.637 128.926H371.606V128.137H376.637V128.926ZM377.344 130.926H370.844V130.129H377.344V130.926ZM374.586 130.473H373.59V128.527H374.586V130.473ZM376.582 125.898H372.621V128.445H371.606V125.098H376.582V125.898ZM376.414 127.395H372.324V126.613H376.414V127.395ZM381.032 125.531C381.032 125.917 380.924 126.271 380.707 126.594C380.494 126.917 380.178 127.188 379.758 127.406C379.342 127.622 378.838 127.767 378.247 127.84L377.887 127.043C378.379 126.991 378.795 126.888 379.133 126.734C379.474 126.578 379.73 126.396 379.899 126.188C380.068 125.977 380.153 125.758 380.153 125.531V125.355H381.032V125.531ZM381.516 125.531C381.516 125.758 381.601 125.977 381.77 126.188C381.939 126.396 382.196 126.578 382.539 126.734C382.883 126.888 383.3 126.991 383.789 127.043L383.418 127.84C382.83 127.767 382.326 127.622 381.907 127.406C381.487 127.188 381.168 126.918 380.95 126.598C380.731 126.275 380.622 125.919 380.622 125.531V125.355H381.516V125.531ZM383.497 125.703H378.184V124.906H383.497V125.703ZM383.344 131.598H378.379V130.793H383.344V131.598ZM379.375 131.102H378.379V129.547H379.375V131.102ZM384.082 129.117H377.598V128.312H384.082V129.117ZM381.321 128.652H380.332V127.328H381.321V128.652Z" fill="white"/>
<rect x="8" y="237" width="90" height="60" rx="10" fill="#E3E6ED"/>
<path d="M48.2094 264.078H51.0609V263.363H52.0531V266.27H47.225V263.363H48.2094V264.078ZM51.0609 265.48V264.84H48.2094V265.48H51.0609ZM52.8852 267.672H46.4008V266.875H52.8852V267.672ZM50.1312 267.215H49.1273V265.84H50.1312V267.215ZM52.1469 270.098H47.182V269.293H52.1469V270.098ZM48.1781 269.594H47.182V268.078H48.1781V269.594ZM56.5094 264.438H53.4391V263.625H56.5094V264.438ZM55.3297 267.055H54.3375V265.266H55.3297V267.055ZM57.0992 264.066C57.094 264.478 57.0823 264.833 57.0641 265.133C57.0484 265.43 57.0068 265.77 56.9391 266.152L55.9547 266.066C56.0302 265.676 56.0771 265.336 56.0953 265.047C56.1135 264.755 56.124 264.428 56.1266 264.066V263.625H57.0992V264.066ZM58.8375 268.426H57.8141V263.102H58.8375V268.426ZM59.7008 266.109H58.4352V265.277H59.7008V266.109ZM59.0602 270.098H54.0641V269.293H59.0602V270.098ZM55.0641 269.547H54.0641V267.953H55.0641V269.547ZM53.0172 266.672C53.8948 266.669 54.6904 266.654 55.4039 266.625C56.1174 266.596 56.7945 266.536 57.4352 266.445L57.482 267.164C56.8284 267.284 56.1383 267.365 55.4117 267.406C54.6852 267.445 53.9156 267.465 53.1031 267.465L53.0172 266.672Z" fill="black"/>
<rect x="104" y="98" width="216" height="196" rx="10" fill="white" fill-opacity="0.3"/>
<path d="M198.597 196.007H194.261V191.72H198.597V196.007ZM195.482 195.025H197.367V192.716H195.482V195.025ZM201.244 197.345H199.999V191.021H201.244V197.345ZM201.488 199.703H195.292V198.702H201.488V199.703ZM196.551 199.156H195.292V196.754H196.551V199.156ZM210.369 192.267C210.369 192.791 210.226 193.271 209.939 193.707C209.656 194.143 209.247 194.509 208.714 194.806C208.18 195.099 207.545 195.296 206.809 195.396L206.345 194.425C206.967 194.347 207.499 194.197 207.942 193.976C208.388 193.754 208.723 193.494 208.948 193.194C209.173 192.895 209.285 192.586 209.285 192.267V191.998H210.369V192.267ZM210.725 192.267C210.725 192.586 210.836 192.895 211.057 193.194C211.282 193.494 211.617 193.754 212.063 193.976C212.509 194.197 213.046 194.347 213.675 194.425L213.225 195.396C212.486 195.296 211.847 195.099 211.306 194.806C210.769 194.513 210.357 194.148 210.071 193.712C209.785 193.272 209.641 192.791 209.641 192.267V191.998H210.725V192.267ZM210.598 199.903H209.363V196.627H210.598V199.903ZM214.06 196.91H205.955V195.919H214.06V196.91ZM213.328 192.452H206.682V191.48H213.328V192.452ZM222.341 192.501H218.503V191.495H222.341V192.501ZM220.866 195.685H219.626V193.482H220.866V195.685ZM223.088 192.071C223.084 192.511 223.071 192.905 223.049 193.253C223.026 193.601 222.967 193.987 222.873 194.41L221.657 194.317C221.742 193.891 221.794 193.512 221.813 193.18C221.836 192.848 221.847 192.478 221.847 192.071V191.495H223.088V192.071ZM225.251 196.432H223.971V191.002H225.251V196.432ZM226.34 194.234H224.733V193.204H226.34V194.234ZM217.975 195.074C219.085 195.071 220.085 195.053 220.973 195.021C221.862 194.988 222.703 194.923 223.498 194.825L223.556 195.699C222.726 195.842 221.851 195.94 220.929 195.992C220.011 196.044 219.063 196.07 218.083 196.07L217.975 195.074ZM222.223 196.534C222.858 196.534 223.407 196.601 223.869 196.734C224.331 196.868 224.686 197.06 224.933 197.311C225.184 197.558 225.309 197.851 225.309 198.189C225.309 198.544 225.186 198.847 224.938 199.098C224.691 199.352 224.336 199.545 223.874 199.679C223.411 199.812 222.861 199.879 222.223 199.879C221.589 199.879 221.038 199.812 220.573 199.679C220.111 199.545 219.754 199.352 219.504 199.098C219.256 198.847 219.133 198.544 219.133 198.189C219.133 197.851 219.256 197.558 219.504 197.311C219.754 197.06 220.112 196.868 220.578 196.734C221.047 196.601 221.595 196.534 222.223 196.534ZM222.223 197.496C221.839 197.493 221.509 197.517 221.232 197.569C220.959 197.621 220.75 197.701 220.607 197.809C220.467 197.913 220.397 198.04 220.397 198.189C220.397 198.355 220.467 198.492 220.607 198.6C220.747 198.704 220.952 198.782 221.222 198.834C221.493 198.886 221.826 198.912 222.223 198.912C222.624 198.912 222.956 198.886 223.219 198.834C223.486 198.782 223.688 198.704 223.825 198.6C223.962 198.492 224.03 198.355 224.03 198.189C224.03 198.04 223.96 197.913 223.82 197.809C223.683 197.701 223.48 197.621 223.21 197.569C222.943 197.517 222.614 197.493 222.223 197.496ZM233.277 192.579C233.277 193.155 233.183 193.694 232.994 194.195C232.808 194.693 232.525 195.128 232.144 195.499C231.763 195.87 231.293 196.147 230.733 196.329L230.108 195.348C230.58 195.191 230.977 194.97 231.3 194.684C231.622 194.397 231.861 194.073 232.017 193.712C232.177 193.351 232.257 192.973 232.257 192.579V191.998H233.277V192.579ZM233.516 192.574C233.516 192.932 233.59 193.274 233.736 193.6C233.883 193.925 234.109 194.215 234.415 194.469C234.721 194.723 235.103 194.92 235.562 195.06L234.976 196.031C234.429 195.865 233.972 195.611 233.604 195.27C233.236 194.928 232.96 194.526 232.774 194.063C232.592 193.601 232.501 193.105 232.501 192.574V191.998H233.516V192.574ZM235.289 192.599H230.445V191.603H235.289V192.599ZM237.286 196.28H236.041V191.002H237.286V196.28ZM238.487 194.088H236.934V193.072H238.487V194.088ZM234.371 196.456C234.986 196.456 235.518 196.524 235.967 196.661C236.42 196.795 236.767 196.99 237.008 197.247C237.248 197.504 237.369 197.812 237.369 198.17C237.369 198.528 237.248 198.836 237.008 199.093C236.767 199.353 236.42 199.552 235.967 199.688C235.518 199.828 234.986 199.898 234.371 199.898C233.749 199.898 233.209 199.828 232.75 199.688C232.294 199.552 231.942 199.353 231.695 199.093C231.448 198.836 231.324 198.528 231.324 198.17C231.324 197.812 231.446 197.504 231.69 197.247C231.938 196.99 232.291 196.795 232.75 196.661C233.209 196.524 233.749 196.456 234.371 196.456ZM234.371 197.423C233.987 197.423 233.66 197.451 233.389 197.506C233.122 197.558 232.921 197.639 232.784 197.75C232.647 197.861 232.579 198.001 232.579 198.17C232.579 198.336 232.647 198.476 232.784 198.59C232.921 198.704 233.122 198.79 233.389 198.849C233.656 198.904 233.983 198.932 234.371 198.932C234.761 198.932 235.087 198.904 235.347 198.849C235.611 198.79 235.81 198.704 235.943 198.59C236.077 198.476 236.143 198.336 236.143 198.17C236.143 198.001 236.077 197.861 235.943 197.75C235.81 197.639 235.611 197.558 235.347 197.506C235.084 197.451 234.758 197.423 234.371 197.423Z" fill="#0C2557"/>
<rect x="119" y="166" width="18" height="36" rx="3" fill="#A0A2D8"/>
<path d="M128.012 186.559C127.723 186.559 127.461 186.505 127.227 186.397C126.992 186.29 126.808 186.141 126.673 185.949C126.54 185.758 126.471 185.543 126.465 185.305H127.317C127.327 185.414 127.363 185.511 127.426 185.595C127.49 185.679 127.573 185.745 127.675 185.794C127.778 185.841 127.891 185.864 128.012 185.864C128.156 185.864 128.285 185.832 128.398 185.768C128.514 185.703 128.604 185.614 128.668 185.501C128.732 185.386 128.765 185.256 128.765 185.111C128.765 184.961 128.731 184.829 128.665 184.716C128.601 184.601 128.51 184.511 128.393 184.446C128.277 184.38 128.146 184.347 127.997 184.347C127.839 184.345 127.705 184.373 127.596 184.432C127.486 184.49 127.399 184.58 127.335 184.701H126.535L126.767 182.258H129.377V182.981H127.493L127.376 184.051H127.408C127.49 183.943 127.607 183.856 127.76 183.79C127.912 183.724 128.079 183.69 128.261 183.69C128.517 183.69 128.748 183.75 128.955 183.869C129.164 183.986 129.326 184.151 129.441 184.364C129.559 184.577 129.616 184.818 129.614 185.088C129.616 185.369 129.549 185.622 129.412 185.847C129.277 186.069 129.089 186.244 128.847 186.371C128.604 186.496 128.326 186.559 128.012 186.559Z" fill="black"/>
<rect x="119" y="207" width="18" height="36" rx="3" fill="#A0A2D8"/>
<path d="M128.047 227.559C127.732 227.557 127.447 227.487 127.191 227.351C126.936 227.214 126.729 226.99 126.57 226.68C126.412 226.369 126.333 225.968 126.333 225.476C126.333 225.005 126.404 224.599 126.547 224.257C126.691 223.913 126.895 223.651 127.156 223.472C127.42 223.29 127.728 223.199 128.079 223.199C128.358 223.199 128.607 223.253 128.826 223.36C129.047 223.468 129.225 223.615 129.359 223.803C129.494 223.99 129.576 224.201 129.605 224.436H128.735C128.712 224.336 128.67 224.25 128.609 224.178C128.551 224.104 128.477 224.048 128.387 224.011C128.297 223.974 128.194 223.955 128.079 223.955C127.89 223.955 127.729 224.01 127.599 224.119C127.47 224.227 127.371 224.381 127.303 224.582C127.234 224.783 127.199 225.024 127.197 225.306H127.232C127.299 225.181 127.387 225.074 127.496 224.986C127.607 224.896 127.733 224.828 127.874 224.781C128.017 224.732 128.165 224.708 128.319 224.708C128.571 224.708 128.799 224.767 129.002 224.884C129.205 225.001 129.363 225.164 129.477 225.373C129.592 225.58 129.649 225.815 129.649 226.079C129.649 226.364 129.582 226.619 129.447 226.844C129.314 227.068 129.126 227.244 128.882 227.371C128.64 227.496 128.361 227.559 128.047 227.559ZM128.041 226.864C128.184 226.864 128.312 226.831 128.425 226.765C128.54 226.696 128.63 226.604 128.694 226.489C128.761 226.372 128.794 226.244 128.794 226.105C128.794 225.963 128.762 225.834 128.697 225.719C128.633 225.604 128.544 225.514 128.431 225.449C128.317 225.385 128.189 225.353 128.047 225.353C127.906 225.353 127.778 225.386 127.663 225.452C127.548 225.519 127.457 225.609 127.391 225.725C127.324 225.84 127.289 225.968 127.285 226.108C127.287 226.243 127.32 226.368 127.385 226.483C127.451 226.599 127.541 226.691 127.654 226.762C127.77 226.83 127.898 226.864 128.041 226.864Z" fill="black"/>
<rect x="119" y="249" width="18" height="36" rx="3" fill="#A0A2D8"/>
<path d="M128.56 266.008V265.981H126.479V265.258H129.474V265.993L127.684 269.5H126.775L128.56 266.008Z" fill="black"/>
<rect x="320" y="38" width="94" height="56" rx="10" fill="#D4DAE4"/>
<path d="M362.173 46.9414C362.173 47.3555 362.056 47.7383 361.821 48.0898C361.587 48.4388 361.25 48.7318 360.81 48.9688C360.372 49.2057 359.857 49.3646 359.263 49.4453L358.9 48.6719C359.413 48.6068 359.85 48.4857 360.212 48.3086C360.577 48.1315 360.85 47.9245 361.032 47.6875C361.217 47.4479 361.31 47.1992 361.31 46.9414V46.7031H362.173V46.9414ZM362.337 46.9414C362.337 47.1966 362.43 47.4453 362.614 47.6875C362.799 47.9271 363.073 48.1367 363.435 48.3164C363.799 48.4935 364.236 48.612 364.743 48.6719L364.392 49.4453C363.795 49.3646 363.277 49.2057 362.837 48.9688C362.397 48.7318 362.06 48.4388 361.825 48.0898C361.594 47.7383 361.478 47.3555 361.478 46.9414V46.7031H362.337V46.9414ZM362.306 51.4062H361.302V50.3047H362.306V51.4062ZM365.068 50.5898H358.583V49.793H365.068V50.5898ZM361.814 51.1367C362.327 51.1367 362.768 51.1875 363.138 51.2891C363.51 51.388 363.795 51.5352 363.993 51.7305C364.191 51.9258 364.29 52.1602 364.29 52.4336C364.29 52.707 364.191 52.9401 363.993 53.1328C363.795 53.3255 363.512 53.4714 363.142 53.5703C362.772 53.6693 362.329 53.7188 361.814 53.7188C361.295 53.7188 360.85 53.6693 360.478 53.5703C360.105 53.4714 359.819 53.3255 359.618 53.1328C359.42 52.9401 359.321 52.707 359.321 52.4336C359.321 52.1602 359.42 51.9258 359.618 51.7305C359.819 51.5352 360.105 51.388 360.478 51.2891C360.85 51.1875 361.295 51.1367 361.814 51.1367ZM361.814 51.8984C361.486 51.8984 361.212 51.918 360.993 51.957C360.775 51.9961 360.611 52.056 360.501 52.1367C360.392 52.2174 360.337 52.3164 360.337 52.4336C360.337 52.5534 360.392 52.6536 360.501 52.7344C360.611 52.8151 360.775 52.8763 360.993 52.918C361.212 52.957 361.486 52.9766 361.814 52.9766C362.137 52.9766 362.407 52.957 362.626 52.918C362.847 52.8763 363.013 52.8151 363.122 52.7344C363.232 52.6536 363.286 52.5534 363.286 52.4336C363.286 52.3164 363.232 52.2174 363.122 52.1367C363.013 52.056 362.849 51.9961 362.63 51.957C362.411 51.918 362.139 51.8984 361.814 51.8984ZM372.243 51.7266H371.246V46.6172H372.243V51.7266ZM372.438 53.5977H367.481V52.793H372.438V53.5977ZM368.489 53.1211H367.481V51.2148H368.489V53.1211ZM368.348 47.0664C368.71 47.0664 369.039 47.1432 369.336 47.2969C369.636 47.4479 369.87 47.6615 370.039 47.9375C370.209 48.2109 370.293 48.5169 370.293 48.8555C370.293 49.2044 370.209 49.5156 370.039 49.7891C369.87 50.0625 369.636 50.2773 369.336 50.4336C369.039 50.5872 368.71 50.6641 368.348 50.6641C367.986 50.6641 367.657 50.5872 367.36 50.4336C367.065 50.2773 366.832 50.0625 366.661 49.7891C366.489 49.5156 366.403 49.2044 366.403 48.8555C366.403 48.5169 366.489 48.2109 366.661 47.9375C366.832 47.6615 367.065 47.4479 367.36 47.2969C367.657 47.1432 367.986 47.0664 368.348 47.0664ZM368.348 47.9336C368.163 47.931 367.996 47.9674 367.848 48.043C367.702 48.1159 367.586 48.2227 367.5 48.3633C367.417 48.5039 367.375 48.668 367.375 48.8555C367.375 49.0482 367.417 49.2161 367.5 49.3594C367.586 49.5 367.702 49.6081 367.848 49.6836C367.996 49.7565 368.163 49.793 368.348 49.793C368.53 49.793 368.693 49.7565 368.836 49.6836C368.982 49.6081 369.097 49.5 369.18 49.3594C369.263 49.2161 369.305 49.0482 369.305 48.8555C369.305 48.668 369.263 48.5039 369.18 48.3633C369.097 48.2227 368.982 48.1159 368.836 48.043C368.693 47.9674 368.53 47.931 368.348 47.9336ZM377.406 47.9375H374.336V47.125H377.406V47.9375ZM376.226 50.5547H375.234V48.7656H376.226V50.5547ZM377.996 47.5664C377.99 47.9779 377.979 48.3333 377.961 48.6328C377.945 48.9297 377.903 49.2695 377.836 49.6523L376.851 49.5664C376.927 49.1758 376.974 48.8359 376.992 48.5469C377.01 48.2552 377.02 47.9284 377.023 47.5664V47.125H377.996V47.5664ZM379.734 51.9258H378.711V46.6016H379.734V51.9258ZM380.597 49.6094H379.332V48.7773H380.597V49.6094ZM379.957 53.5977H374.961V52.793H379.957V53.5977ZM375.961 53.0469H374.961V51.4531H375.961V53.0469ZM373.914 50.1719C374.791 50.1693 375.587 50.1536 376.3 50.125C377.014 50.0964 377.691 50.0365 378.332 49.9453L378.378 50.6641C377.725 50.7839 377.035 50.8646 376.308 50.9062C375.582 50.9453 374.812 50.9648 374 50.9648L373.914 50.1719Z" fill="#0C2557"/>
<path fill-rule="evenodd" clip-rule="evenodd" d="M366.667 102.87C365.696 103.232 365 104.21 365 105.36C365 106.818 366.119 108 367.5 108C368.881 108 370 106.818 370 105.36C370 104.211 369.305 103.233 368.334 102.87V85.9999H366.667V102.87Z" fill="#FEEFC5"/>
<rect x="356" y="66" width="22" height="22" rx="11" fill="#FEEFC5"/>
<path d="M366.884 75.1992C367.198 75.1992 367.483 75.2676 367.739 75.4043C367.995 75.5391 368.201 75.7617 368.357 76.0723C368.516 76.3809 368.595 76.7793 368.595 77.2676C368.597 77.7422 368.526 78.1514 368.384 78.4951C368.241 78.8389 368.038 79.1025 367.774 79.2861C367.513 79.4678 367.204 79.5586 366.849 79.5586C366.571 79.5586 366.322 79.5039 366.102 79.3945C365.881 79.2852 365.703 79.1367 365.568 78.9492C365.434 78.7598 365.352 78.5459 365.322 78.3076H366.189C366.215 78.4111 366.257 78.5 366.315 78.5742C366.376 78.6484 366.451 78.7051 366.541 78.7441C366.633 78.7832 366.735 78.8027 366.849 78.8027C367.038 78.8027 367.199 78.748 367.332 78.6387C367.465 78.5293 367.564 78.373 367.631 78.1699C367.699 77.9648 367.733 77.7207 367.733 77.4375H367.695C367.629 77.5586 367.541 77.6641 367.432 77.7539C367.322 77.8438 367.196 77.9131 367.054 77.9619C366.913 78.0088 366.765 78.0322 366.608 78.0322C366.358 78.0322 366.132 77.9736 365.929 77.8564C365.728 77.7393 365.569 77.5771 365.454 77.3701C365.339 77.1611 365.28 76.9277 365.278 76.6699C365.278 76.3867 365.345 76.1338 365.478 75.9111C365.612 75.6865 365.802 75.5117 366.046 75.3867C366.29 75.2598 366.569 75.1973 366.884 75.1992ZM366.887 75.8906C366.746 75.8906 366.618 75.9248 366.503 75.9932C366.388 76.0596 366.298 76.1504 366.233 76.2656C366.169 76.3789 366.137 76.5049 366.137 76.6436C366.139 76.7822 366.172 76.9082 366.236 77.0215C366.301 77.1348 366.389 77.2246 366.5 77.291C366.613 77.3574 366.739 77.3906 366.878 77.3906C367.021 77.3906 367.149 77.3564 367.265 77.2881C367.382 77.2197 367.475 77.1279 367.543 77.0127C367.611 76.8955 367.645 76.7705 367.643 76.6377C367.643 76.5029 367.609 76.3789 367.543 76.2656C367.477 76.1504 367.387 76.0596 367.273 75.9932C367.16 75.9248 367.031 75.8906 366.887 75.8906Z" fill="black"/>
<rect y="43" width="17" height="6" rx="1" fill="#D5CFB7"/>
<path d="M21.9688 46.8613H21.4746V46.334H21.9688V46.8613ZM23.3496 46.4492H20.1074V46.0547H23.3496V46.4492ZM22.9531 47.8535H22.457V47.1543H20.4648V46.7578H22.9531V47.8535ZM21.9688 44.8301H21.4746V44.3066H21.9688V44.8301ZM21.8809 44.9355C21.8809 45.1191 21.8236 45.2812 21.709 45.4219C21.5944 45.5612 21.4258 45.6745 21.2031 45.7617C20.9805 45.8477 20.7109 45.903 20.3945 45.9277L20.2422 45.5566C20.5156 45.5358 20.7422 45.4954 20.9219 45.4355C21.1016 45.3743 21.2331 45.3008 21.3164 45.2148C21.401 45.1289 21.4434 45.0358 21.4434 44.9355V44.8594H21.8809V44.9355ZM22.002 44.9355C22.002 45.0358 22.043 45.1289 22.125 45.2148C22.2083 45.3008 22.3405 45.3743 22.5215 45.4355C22.7025 45.4954 22.9297 45.5358 23.2031 45.5566L23.0488 45.9277C22.7324 45.903 22.4629 45.8477 22.2402 45.7617C22.0189 45.6745 21.8509 45.5612 21.7363 45.4219C21.6217 45.2812 21.5645 45.1191 21.5645 44.9355V44.8594H22.002V44.9355ZM23.0352 45.0156H20.418V44.6309H23.0352V45.0156ZM26.6348 47.8594H26.166V44.3008H26.6348V47.8594ZM25.5723 45.9258H24.9727V45.5254H25.5723V45.9258ZM25.9082 47.6973H25.4414V44.3633H25.9082V47.6973ZM24.584 45.2559C24.584 45.5345 24.5553 45.7988 24.498 46.0488C24.4421 46.2975 24.3555 46.5221 24.2383 46.7227C24.1211 46.9219 23.9714 47.0775 23.7891 47.1895L23.4883 46.8223C23.6562 46.7181 23.7936 46.5833 23.9004 46.418C24.0085 46.2513 24.0866 46.0697 24.1348 45.873C24.1829 45.6764 24.207 45.4707 24.207 45.2559V44.8828H24.584V45.2559ZM24.6875 45.2559C24.6875 45.4655 24.7103 45.6647 24.7559 45.8535C24.8027 46.041 24.8789 46.2122 24.9844 46.3672C25.0898 46.5208 25.2253 46.6458 25.3906 46.7422L25.0996 47.1074C24.9186 47.0007 24.7702 46.8529 24.6543 46.6641C24.5384 46.4753 24.4538 46.2617 24.4004 46.0234C24.347 45.7852 24.3203 45.5293 24.3203 45.2559V44.8828H24.6875V45.2559ZM25.2266 45.0645H23.623V44.666H25.2266V45.0645ZM30.2676 46.4316H27.0176V46.0371H30.2676V46.4316ZM28.9238 47.0508H28.418V46.2969H28.9238V47.0508ZM29.9102 47.7988H27.4043V47.3926H29.9102V47.7988ZM27.9062 47.502H27.4043V46.7324H27.9062V47.502ZM28.6406 44.3711C28.8971 44.3711 29.1217 44.4017 29.3145 44.4629C29.5085 44.5241 29.6589 44.61 29.7656 44.7207C29.8724 44.8314 29.9258 44.9616 29.9258 45.1113C29.9258 45.2585 29.8724 45.3874 29.7656 45.498C29.6589 45.6074 29.5085 45.6921 29.3145 45.752C29.1217 45.8118 28.8971 45.8418 28.6406 45.8418C28.3854 45.8418 28.1602 45.8118 27.9648 45.752C27.7695 45.6921 27.6178 45.6074 27.5098 45.498C27.403 45.3874 27.3496 45.2585 27.3496 45.1113C27.3496 44.9616 27.403 44.8314 27.5098 44.7207C27.6178 44.61 27.7695 44.5241 27.9648 44.4629C28.1602 44.4017 28.3854 44.3711 28.6406 44.3711ZM28.6406 44.7656C28.487 44.7656 28.3535 44.7786 28.2402 44.8047C28.1283 44.8307 28.0417 44.8698 27.9805 44.9219C27.9206 44.9727 27.8906 45.0358 27.8906 45.1113C27.8906 45.1816 27.9206 45.2415 27.9805 45.291C28.0417 45.3405 28.1283 45.3783 28.2402 45.4043C28.3535 45.4303 28.487 45.4434 28.6406 45.4434C28.7956 45.4434 28.929 45.4303 29.041 45.4043C29.153 45.3783 29.2389 45.3405 29.2988 45.291C29.3587 45.2415 29.3887 45.1816 29.3887 45.1113C29.3887 45.0358 29.3587 44.9727 29.2988 44.9219C29.2389 44.8698 29.153 44.8307 29.041 44.8047C28.929 44.7786 28.7956 44.7656 28.6406 44.7656ZM33.127 45.168H32.0684V44.7734H33.127V45.168ZM33.127 45.9609H32.0684V45.5645H33.127V45.9609ZM31.4688 44.4941C31.6445 44.4941 31.804 44.5312 31.9473 44.6055C32.0905 44.6797 32.2031 44.7832 32.2852 44.916C32.3685 45.0488 32.4102 45.1986 32.4102 45.3652C32.4102 45.5306 32.3685 45.6797 32.2852 45.8125C32.2031 45.9453 32.0905 46.0488 31.9473 46.123C31.804 46.1973 31.6445 46.2344 31.4688 46.2344C31.2904 46.2344 31.1289 46.1973 30.9844 46.123C30.8411 46.0488 30.7279 45.9453 30.6445 45.8125C30.5625 45.6797 30.5215 45.5306 30.5215 45.3652C30.5215 45.1986 30.5625 45.0488 30.6445 44.916C30.7279 44.7832 30.8411 44.6797 30.9844 44.6055C31.1289 44.5312 31.2904 44.4941 31.4688 44.4941ZM31.4688 44.9219C31.3763 44.9206 31.2943 44.9375 31.2227 44.9727C31.151 45.0078 31.0951 45.0592 31.0547 45.127C31.0143 45.1934 30.9941 45.2728 30.9941 45.3652C30.9941 45.4564 31.0143 45.5358 31.0547 45.6035C31.0951 45.6699 31.151 45.722 31.2227 45.7598C31.2943 45.7962 31.3763 45.8145 31.4688 45.8145C31.5599 45.8145 31.64 45.7962 31.709 45.7598C31.7793 45.722 31.834 45.6699 31.873 45.6035C31.9134 45.5358 31.9336 45.4564 31.9336 45.3652C31.9336 45.2728 31.9134 45.1934 31.873 45.127C31.834 45.0592 31.7793 45.0078 31.709 44.9727C31.64 44.9375 31.5599 44.9206 31.4688 44.9219ZM33.4727 46.3867H32.9766V44.3008H33.4727V46.3867ZM32.2578 46.4609C32.5078 46.4609 32.7246 46.4883 32.9082 46.543C33.0931 46.5977 33.235 46.6777 33.334 46.7832C33.4342 46.8874 33.4844 47.013 33.4844 47.1602C33.4844 47.306 33.4342 47.4316 33.334 47.5371C33.235 47.6426 33.0931 47.7227 32.9082 47.7773C32.7246 47.832 32.5078 47.8594 32.2578 47.8594C32.0091 47.8594 31.793 47.832 31.6094 47.7773C31.4258 47.7227 31.2845 47.6426 31.1855 47.5371C31.0866 47.4316 31.0371 47.306 31.0371 47.1602C31.0371 47.013 31.0866 46.8874 31.1855 46.7832C31.2845 46.6777 31.4251 46.5977 31.6074 46.543C31.791 46.4883 32.0078 46.4609 32.2578 46.4609ZM32.2578 46.8398C32.1016 46.8398 31.9681 46.8516 31.8574 46.875C31.748 46.8984 31.6654 46.9342 31.6094 46.9824C31.5534 47.0293 31.5254 47.0885 31.5254 47.1602C31.5254 47.2279 31.5534 47.2852 31.6094 47.332C31.6654 47.3776 31.748 47.4128 31.8574 47.4375C31.9681 47.4609 32.1016 47.4727 32.2578 47.4727C32.4193 47.4727 32.5547 47.4609 32.6641 47.4375C32.7734 47.4128 32.8561 47.3776 32.9121 47.332C32.9681 47.2852 32.9961 47.2279 32.9961 47.1602C32.9961 47.0872 32.9681 47.0273 32.9121 46.9805C32.8561 46.9336 32.7734 46.8984 32.6641 46.875C32.5547 46.8516 32.4193 46.8398 32.2578 46.8398ZM35.0938 44.4512C35.2721 44.4499 35.4329 44.4811 35.5762 44.5449C35.7194 44.6087 35.8307 44.6979 35.9102 44.8125C35.9909 44.9271 36.0312 45.0586 36.0312 45.207C36.0312 45.3529 35.9909 45.4831 35.9102 45.5977C35.8307 45.7122 35.7194 45.8021 35.5762 45.8672C35.4329 45.931 35.2721 45.9629 35.0938 45.9629C34.9141 45.9629 34.7533 45.931 34.6113 45.8672C34.4707 45.8021 34.36 45.7122 34.2793 45.5977C34.1986 45.4831 34.1582 45.3529 34.1582 45.207C34.1582 45.0586 34.1986 44.9271 34.2793 44.8125C34.36 44.6979 34.4707 44.6087 34.6113 44.5449C34.7533 44.4811 34.9141 44.4499 35.0938 44.4512ZM35.0938 44.8516C35.0039 44.8503 34.9251 44.8639 34.8574 44.8926C34.7897 44.9199 34.7363 44.9603 34.6973 45.0137C34.6595 45.0671 34.6406 45.1315 34.6406 45.207C34.6406 45.2799 34.6595 45.3424 34.6973 45.3945C34.7363 45.4466 34.7897 45.487 34.8574 45.5156C34.9264 45.543 35.0052 45.5566 35.0938 45.5566C35.1862 45.5566 35.2669 45.543 35.3359 45.5156C35.4062 45.487 35.4609 45.4466 35.5 45.3945C35.5391 45.3424 35.5586 45.2799 35.5586 45.207C35.5586 45.1315 35.5391 45.0671 35.5 45.0137C35.4609 44.9603 35.4069 44.9199 35.3379 44.8926C35.2689 44.8639 35.1875 44.8503 35.0938 44.8516ZM35.3652 47.7559H34.8652V46.3203H35.3652V47.7559ZM36.9297 47.8574H36.4336V44.3086H36.9297V47.8574ZM33.9414 46.1777C34.3607 46.1777 34.7611 46.1693 35.1426 46.1523C35.5254 46.1354 35.8854 46.1016 36.2227 46.0508L36.2539 46.416C35.9388 46.4785 35.6146 46.5208 35.2812 46.543C34.9492 46.5638 34.5781 46.5768 34.168 46.582C34.1237 46.5846 34.069 46.5859 34.0039 46.5859L33.9414 46.1777ZM38.8301 46.9082H38.3281V46.123H38.8301V46.9082ZM40.4023 46.9941H39.9023V44.3086H40.4023V46.9941ZM40.4805 47.7988H37.8281V47.3965H40.4805V47.7988ZM38.3301 47.5039H37.8281V46.7363H38.3301V47.5039ZM37.377 45.8848C37.8639 45.8783 38.2839 45.8691 38.6367 45.8574C38.9909 45.8444 39.3327 45.8171 39.6621 45.7754L39.6875 46.1328C39.3424 46.1914 38.9811 46.2305 38.6035 46.25C38.2272 46.2695 37.8379 46.2786 37.4355 46.2773L37.377 45.8848ZM40.0156 46.7109H39.2227V46.3711H40.0156V46.7109ZM38.5332 44.4277C38.7038 44.4264 38.8561 44.4531 38.9902 44.5078C39.1257 44.5612 39.2311 44.6367 39.3066 44.7344C39.3835 44.8307 39.4219 44.9408 39.4219 45.0645C39.4219 45.1908 39.3835 45.3008 39.3066 45.3945C39.2311 45.4883 39.1263 45.5618 38.9922 45.6152C38.8581 45.6673 38.7051 45.6934 38.5332 45.6934C38.36 45.6934 38.2057 45.6673 38.0703 45.6152C37.9349 45.5618 37.8294 45.4883 37.7539 45.3945C37.6784 45.3008 37.6406 45.1908 37.6406 45.0645C37.6406 44.9408 37.6784 44.8301 37.7539 44.7324C37.8294 44.6348 37.9349 44.5592 38.0703 44.5059C38.2057 44.4525 38.36 44.4264 38.5332 44.4277ZM38.5332 44.793C38.4499 44.7917 38.3763 44.8021 38.3125 44.8242C38.2487 44.8451 38.1992 44.8763 38.1641 44.918C38.1302 44.9596 38.1133 45.0085 38.1133 45.0645C38.1133 45.1204 38.1302 45.1693 38.1641 45.2109C38.1992 45.2513 38.2487 45.2819 38.3125 45.3027C38.3763 45.3236 38.4499 45.334 38.5332 45.334C38.6152 45.334 38.6868 45.3236 38.748 45.3027C38.8105 45.2819 38.8594 45.2513 38.8945 45.2109C38.9297 45.1693 38.9473 45.1204 38.9473 45.0645C38.9473 45.0085 38.9297 44.9596 38.8945 44.918C38.8594 44.8763 38.8105 44.8451 38.748 44.8242C38.6868 44.8021 38.6152 44.7917 38.5332 44.793ZM42.2637 47.043H41.7676V46.4629H42.2637V47.043ZM43.834 47.8594H43.3398V44.3008H43.834V47.8594ZM41.0703 46.8555C41.4935 46.8529 41.8691 46.8451 42.1973 46.832C42.5267 46.8177 42.8424 46.791 43.1445 46.752L43.1758 47.1211C42.8346 47.181 42.4824 47.2201 42.1191 47.2383C41.7572 47.2552 41.3607 47.2637 40.9297 47.2637L40.8633 46.8555H41.0703ZM43.0938 45.0918H40.9336V44.7012H43.0938V45.0918ZM42.0117 45.2324C42.1862 45.2324 42.3411 45.2604 42.4766 45.3164C42.612 45.3724 42.7174 45.4512 42.793 45.5527C42.8685 45.653 42.9062 45.7689 42.9062 45.9004C42.9062 46.0306 42.8685 46.1458 42.793 46.2461C42.7174 46.3464 42.612 46.4251 42.4766 46.4824C42.3411 46.5384 42.1862 46.5664 42.0117 46.5664C41.8411 46.5664 41.6882 46.5384 41.5527 46.4824C41.4186 46.4264 41.3138 46.3483 41.2383 46.248C41.1641 46.1465 41.127 46.0306 41.127 45.9004C41.127 45.7689 41.1641 45.653 41.2383 45.5527C41.3138 45.4512 41.4186 45.3724 41.5527 45.3164C41.6882 45.2604 41.8411 45.2324 42.0117 45.2324ZM42.0117 45.6094C41.9323 45.6094 41.8613 45.6211 41.7988 45.6445C41.7363 45.6667 41.6875 45.6999 41.6523 45.7441C41.6172 45.7871 41.5996 45.8392 41.5996 45.9004C41.5996 45.9603 41.6172 46.0117 41.6523 46.0547C41.6875 46.0977 41.7363 46.1309 41.7988 46.1543C41.8613 46.1764 41.9323 46.1875 42.0117 46.1875C42.0951 46.1875 42.1686 46.1764 42.2324 46.1543C42.2962 46.1322 42.3451 46.0996 42.3789 46.0566C42.4128 46.0124 42.4297 45.9603 42.4297 45.9004C42.4297 45.8392 42.4128 45.7871 42.3789 45.7441C42.3451 45.6999 42.2962 45.6667 42.2324 45.6445C42.1686 45.6211 42.0951 45.6094 42.0117 45.6094ZM42.2676 44.9238H41.7676V44.3184H42.2676V44.9238Z" fill="white"/>
<rect y="59.0769" width="17" height="6" rx="1" fill="#CDA7BB"/>
<path d="M22.7305 61.0789H20.4766V60.6785H22.7305V61.0789ZM23.3496 63.5261H20.1074V63.1199H23.3496V63.5261ZM23.0254 60.9929C23.0228 61.2195 23.0195 61.4011 23.0156 61.5378C23.0117 61.6733 22.998 61.8406 22.9746 62.0398C22.9512 62.239 22.9134 62.4565 22.8613 62.6921L22.375 62.6453C22.4245 62.4213 22.4609 62.2117 22.4844 62.0164C22.5078 61.8197 22.5215 61.6479 22.5254 61.5007C22.5306 61.3523 22.5332 61.183 22.5332 60.9929V60.6785H23.0254V60.9929ZM20.4297 62.0339L20.3594 61.6082L22.6289 61.532V61.9089L20.4297 62.0339ZM21.7617 63.2664H21.2676V62.2625H21.7617V63.2664ZM26.8066 62.696H23.5566V62.3015H26.8066V62.696ZM26.4746 63.8757H23.9551V63.4734H26.4746V63.8757ZM24.4453 63.6296H23.9551V62.8718H24.4453V63.6296ZM26.4551 62.0808H23.9629V61.7039H26.4551V62.0808ZM26.4277 60.8796H24.4609V61.8699H23.9629V60.4988H26.4277V60.8796ZM26.3418 61.4714H24.3184V61.1062H26.3418V61.4714ZM28.8398 63.0671H27.1328V60.7175H28.8398V63.0671ZM27.623 62.6746H28.3457V61.1062H27.623V62.6746ZM29.8242 63.9363H29.3242V60.3777H29.8242V63.9363ZM30.3516 62.1375H29.7148V61.7214H30.3516V62.1375ZM32.4551 61.7644H31.7148V61.366H32.4551V61.7644ZM33.5508 62.7566H33.0762V60.3855H33.5508V62.7566ZM32.8145 62.4421H32.3418V60.4402H32.8145V62.4421ZM32.4883 62.6375C32.4883 62.8484 32.4329 63.0431 32.3223 63.2214C32.2129 63.3998 32.0534 63.5496 31.8438 63.6707C31.6341 63.7931 31.3848 63.8764 31.0957 63.9207L30.8984 63.5359C31.1471 63.5033 31.3587 63.4408 31.5332 63.3484C31.7077 63.2559 31.8392 63.1479 31.9277 63.0242C32.0176 62.9005 32.0625 62.7716 32.0625 62.6375V62.5593H32.4883V62.6375ZM32.5547 62.6375C32.5547 62.7703 32.5983 62.8992 32.6855 63.0242C32.7741 63.1479 32.9062 63.2559 33.082 63.3484C33.2578 63.4408 33.4681 63.5033 33.7129 63.5359L33.5215 63.9207C33.2337 63.8764 32.985 63.7931 32.7754 63.6707C32.5658 63.5496 32.4056 63.3998 32.2949 63.2214C32.1855 63.0431 32.1309 62.8484 32.1309 62.6375V62.5593H32.5547V62.6375ZM32.0469 60.6492C32.0469 60.9695 32.0026 61.2566 31.9141 61.5105C31.8268 61.7631 31.6829 61.9884 31.4824 62.1863C31.2819 62.3842 31.0176 62.5541 30.6895 62.696L30.4531 62.3464C30.7279 62.2279 30.9466 62.0938 31.1094 61.9441C31.2734 61.7931 31.3913 61.6251 31.4629 61.4402C31.5345 61.254 31.5703 61.0417 31.5703 60.8035V60.6492H32.0469ZM31.7227 61.0496H30.6445V60.6492H31.7227V61.0496ZM30.5566 61.7781L30.4941 61.3777L31.5898 61.3289V61.6687L30.5566 61.7781Z" fill="white"/>
<rect y="51.5112" width="17" height="6" rx="1" fill="#BFCFC2"/>
<path d="M22.9258 55.4741H22.4277V52.8198H22.9258V55.4741ZM23.4062 54.3159H22.7812V53.9077H23.4062V54.3159ZM22.2148 53.5835H20.1035V53.1909H22.2148V53.5835ZM21.1621 53.7085C21.3314 53.7085 21.4824 53.7378 21.6152 53.7964C21.748 53.8537 21.8516 53.9344 21.9258 54.0386C22 54.1427 22.0371 54.2625 22.0371 54.3979C22.0371 54.5321 22 54.6506 21.9258 54.7534C21.8516 54.855 21.748 54.9344 21.6152 54.9917C21.4824 55.049 21.3314 55.0776 21.1621 55.0776C20.9902 55.0776 20.8372 55.049 20.7031 54.9917C20.569 54.9344 20.4648 54.855 20.3906 54.7534C20.3164 54.6506 20.2793 54.5321 20.2793 54.3979C20.2793 54.2625 20.3164 54.1427 20.3906 54.0386C20.4648 53.9344 20.569 53.8537 20.7031 53.7964C20.8372 53.7378 20.9902 53.7085 21.1621 53.7085ZM21.1621 54.0913C21.0827 54.0913 21.0124 54.103 20.9512 54.1265C20.8913 54.1499 20.8451 54.1851 20.8125 54.2319C20.7799 54.2788 20.7637 54.3341 20.7637 54.3979C20.7637 54.4618 20.7799 54.5164 20.8125 54.562C20.8451 54.6063 20.8913 54.6401 20.9512 54.6636C21.0124 54.687 21.0827 54.6987 21.1621 54.6987C21.2415 54.6987 21.3112 54.687 21.3711 54.6636C21.4323 54.6401 21.4798 54.6063 21.5137 54.562C21.5475 54.5164 21.5645 54.4618 21.5645 54.3979C21.5645 54.3341 21.5475 54.2788 21.5137 54.2319C21.4798 54.1851 21.4323 54.1499 21.3711 54.1265C21.3112 54.103 21.2415 54.0913 21.1621 54.0913ZM21.4102 53.3843H20.9121V52.814H21.4102V53.3843ZM23.0527 56.3101H20.6191V55.9077H23.0527V56.3101ZM21.1172 56.0796H20.6191V55.269H21.1172V56.0796ZM24.7793 53.4937C24.7793 53.7228 24.7415 53.9377 24.666 54.1382C24.5918 54.3387 24.4785 54.5138 24.3262 54.6636C24.1751 54.8133 23.9896 54.9266 23.7695 55.0034L23.5078 54.6069C23.6992 54.5444 23.8594 54.4552 23.9883 54.3394C24.1172 54.2235 24.2129 54.0926 24.2754 53.9468C24.3392 53.7996 24.3711 53.6486 24.3711 53.4937V53.2632H24.7793V53.4937ZM24.875 53.4937C24.875 53.6395 24.9043 53.7808 24.9629 53.9175C25.0228 54.0529 25.1152 54.1753 25.2402 54.2847C25.3652 54.3927 25.5202 54.4767 25.7051 54.5366L25.4336 54.9097C25.2253 54.8394 25.0488 54.7339 24.9043 54.5933C24.7598 54.4526 24.651 54.2879 24.5781 54.0991C24.5052 53.909 24.4688 53.7072 24.4688 53.4937V53.2632H24.875V53.4937ZM25.584 53.478H23.6582V53.0815H25.584V53.478ZM26.3828 55.4214H25.8848V52.8179H26.3828V55.4214ZM26.8633 54.2612H26.2383V53.853H26.8633V54.2612ZM26.5098 56.3101H24.0762V55.9077H26.5098V56.3101ZM24.5742 56.1206H24.0762V55.1616H24.5742V56.1206ZM29.8242 56.3706H29.332V52.812H29.8242V56.3706ZM30.3516 54.6167H29.7148V54.2085H30.3516V54.6167ZM29.0898 53.7456H27.002V53.3452H29.0898V53.7456ZM28.0547 53.9429C28.2279 53.9429 28.3835 53.9793 28.5215 54.0522C28.6595 54.1239 28.7676 54.2241 28.8457 54.353C28.9251 54.4819 28.9648 54.6278 28.9648 54.7905C28.9648 54.9533 28.9251 55.0991 28.8457 55.228C28.7676 55.3569 28.6595 55.4578 28.5215 55.5308C28.3835 55.6024 28.2279 55.6382 28.0547 55.6382C27.8815 55.6382 27.7259 55.6024 27.5879 55.5308C27.4499 55.4578 27.3418 55.3569 27.2637 55.228C27.1855 55.0991 27.1465 54.9533 27.1465 54.7905C27.1465 54.6278 27.1855 54.4819 27.2637 54.353C27.3418 54.2241 27.4499 54.1239 27.5879 54.0522C27.7259 53.9793 27.8815 53.9429 28.0547 53.9429ZM28.0547 54.3491C27.9727 54.3491 27.8984 54.3674 27.832 54.4038C27.7669 54.439 27.7155 54.4904 27.6777 54.5581C27.6413 54.6245 27.623 54.702 27.623 54.7905C27.623 54.8804 27.6413 54.9585 27.6777 55.0249C27.7155 55.0913 27.7669 55.1427 27.832 55.1792C27.8984 55.2144 27.9727 55.2319 28.0547 55.2319C28.1393 55.2319 28.2142 55.2144 28.2793 55.1792C28.3444 55.1427 28.3945 55.0913 28.4297 55.0249C28.4661 54.9585 28.4844 54.8804 28.4844 54.7905C28.4844 54.702 28.4661 54.6245 28.4297 54.5581C28.3945 54.4904 28.3444 54.439 28.2793 54.4038C28.2142 54.3674 28.1393 54.3491 28.0547 54.3491ZM28.3027 53.4976H27.8066V52.8687H28.3027V53.4976ZM32.3398 54.6929H31.8457V54.0464H32.3398V54.6929ZM32.2617 52.9741C32.2617 53.1916 32.2038 53.3901 32.0879 53.5698C31.9733 53.7495 31.8073 53.8999 31.5898 54.021C31.3737 54.1408 31.1178 54.2228 30.8223 54.2671L30.6426 53.8765C30.8978 53.8452 31.1152 53.784 31.2949 53.6929C31.4759 53.6017 31.6113 53.4937 31.7012 53.3687C31.7923 53.2424 31.8379 53.1108 31.8379 52.9741V52.855H32.2617V52.9741ZM32.3457 52.9741C32.3457 53.116 32.3906 53.2495 32.4805 53.3745C32.5716 53.4982 32.7077 53.605 32.8887 53.6948C33.0697 53.7847 33.2891 53.8452 33.5469 53.8765L33.3535 54.2671C33.0566 54.2228 32.8001 54.1414 32.584 54.0229C32.3691 53.9032 32.2044 53.7541 32.0898 53.5757C31.9766 53.396 31.9199 53.1955 31.9199 52.9741V52.855H32.3457V52.9741ZM33.332 56.3315H30.8535V55.1362H33.332V56.3315ZM31.3438 55.9312H32.8438V55.5249H31.3438V55.9312ZM33.7207 54.8726H30.4785V54.4839H33.7207V54.8726Z" fill="white"/>
<rect y="67.5879" width="17" height="6" rx="1" fill="#969AD2"/>
<path d="M23.1777 72.4473H22.709V68.8887H23.1777V72.4473ZM22.1152 70.5137H21.5156V70.1133H22.1152V70.5137ZM22.4512 72.2852H21.9844V68.9512H22.4512V72.2852ZM21.127 69.8438C21.127 70.1224 21.0983 70.3867 21.041 70.6367C20.985 70.8854 20.8984 71.11 20.7812 71.3105C20.6641 71.5098 20.5143 71.6654 20.332 71.7773L20.0312 71.4102C20.1992 71.306 20.3366 71.1712 20.4434 71.0059C20.5514 70.8392 20.6296 70.6576 20.6777 70.4609C20.7259 70.2643 20.75 70.0586 20.75 69.8438V69.4707H21.127V69.8438ZM21.2305 69.8438C21.2305 70.0534 21.2533 70.2526 21.2988 70.4414C21.3457 70.6289 21.4219 70.8001 21.5273 70.9551C21.6328 71.1087 21.7682 71.2337 21.9336 71.3301L21.6426 71.6953C21.4616 71.5885 21.3132 71.4408 21.1973 71.252C21.0814 71.0632 20.9967 70.8496 20.9434 70.6113C20.89 70.373 20.8633 70.1172 20.8633 69.8438V69.4707H21.2305V69.8438ZM21.7695 69.6523H20.166V69.2539H21.7695V69.6523ZM24.8184 72.4512H24.3184V71.4668H24.8184V72.4512ZM26.0605 72.4512H25.5586V71.4668H26.0605V72.4512ZM26.6348 69.6406H23.7168V69.25H26.6348V69.6406ZM26.8145 71.5664H23.5645V71.166H26.8145V71.5664ZM25.1836 69.7812C25.4401 69.7812 25.6595 69.8047 25.8418 69.8516C26.0241 69.8971 26.1641 69.9655 26.2617 70.0566C26.3607 70.1478 26.4102 70.2585 26.4102 70.3887C26.4102 70.5176 26.3607 70.6276 26.2617 70.7188C26.1641 70.8086 26.0241 70.8776 25.8418 70.9258C25.6595 70.974 25.4401 70.998 25.1836 70.998C24.9271 70.998 24.707 70.974 24.5234 70.9258C24.3411 70.8776 24.2012 70.8086 24.1035 70.7188C24.0059 70.6276 23.957 70.5176 23.957 70.3887C23.957 70.2585 24.0059 70.1478 24.1035 70.0566C24.2012 69.9655 24.3411 69.8971 24.5234 69.8516C24.707 69.8047 24.9271 69.7812 25.1836 69.7812ZM25.1836 70.1523C25.0221 70.1523 24.8893 70.1608 24.7852 70.1777C24.681 70.1947 24.6029 70.2201 24.5508 70.2539C24.5 70.2878 24.4746 70.3327 24.4746 70.3887C24.4746 70.4408 24.5 70.4844 24.5508 70.5195C24.6029 70.5534 24.681 70.5788 24.7852 70.5957C24.8906 70.6126 25.0234 70.6211 25.1836 70.6211C25.3424 70.6211 25.474 70.6126 25.5781 70.5957C25.6823 70.5788 25.7604 70.5534 25.8125 70.5195C25.8659 70.4844 25.8926 70.4408 25.8926 70.3887C25.8926 70.3327 25.8659 70.2878 25.8125 70.2539C25.7604 70.2201 25.6823 70.1947 25.5781 70.1777C25.4753 70.1608 25.3438 70.1523 25.1836 70.1523ZM25.4277 69.5273H24.9375V68.8848H25.4277V69.5273Z" fill="white"/>
<rect x="10.3828" y="76.0991" width="7" height="7" rx="1" fill="#7FA7E1"/>
<path d="M21.498 78.0073C21.6777 78.0073 21.8398 78.0425 21.9844 78.1128C22.1302 78.1818 22.2441 78.2782 22.3262 78.4019C22.4082 78.5243 22.4492 78.6636 22.4492 78.8198C22.4492 78.9735 22.4082 79.1121 22.3262 79.2358C22.2441 79.3595 22.1302 79.4559 21.9844 79.5249C21.8398 79.5939 21.6777 79.6284 21.498 79.6284C21.3184 79.6284 21.1556 79.5939 21.0098 79.5249C20.8639 79.4559 20.7493 79.3595 20.666 79.2358C20.584 79.1121 20.543 78.9735 20.543 78.8198C20.543 78.6636 20.584 78.5243 20.666 78.4019C20.7493 78.2782 20.8639 78.1818 21.0098 78.1128C21.1556 78.0425 21.3184 78.0073 21.498 78.0073ZM21.498 78.4155C21.4082 78.4155 21.3275 78.4318 21.2559 78.4644C21.1842 78.4956 21.1283 78.5418 21.0879 78.603C21.0475 78.6642 21.0273 78.7365 21.0273 78.8198C21.0273 78.9019 21.0475 78.9741 21.0879 79.0366C21.1283 79.0978 21.1842 79.1447 21.2559 79.1772C21.3275 79.2098 21.4082 79.2267 21.498 79.228C21.5892 79.2267 21.6699 79.2098 21.7402 79.1772C21.8118 79.1447 21.8678 79.0978 21.9082 79.0366C21.9486 78.9741 21.9688 78.9019 21.9688 78.8198C21.9688 78.7365 21.9486 78.6642 21.9082 78.603C21.8678 78.5418 21.8118 78.4956 21.7402 78.4644C21.6699 78.4318 21.5892 78.4155 21.498 78.4155ZM23.4629 79.6851H22.9648V77.8999H23.4629V79.6851ZM23.4629 80.7983H21.5742V81.2319H21.0879V80.4351H22.9668V80.2163H21.0801V79.8315H23.4629V80.7983ZM23.5605 81.4194H21.0879V81.0269H23.5605V81.4194ZM26.7656 80.5269H26.2676V77.9077H26.7656V80.5269ZM27.2461 79.3179H26.6211V78.9097H27.2461V79.3179ZM26.8926 81.3979H24.459V80.9956H26.8926V81.3979ZM24.957 81.0815H24.459V80.2573H24.957V81.0815ZM24.5449 78.6753H25.2734V78.1597H25.7734V79.9585H24.0508V78.1597H24.5449V78.6753ZM25.2734 79.5659V79.0562H24.5449V79.5659H25.2734Z" fill="white"/>
</svg>
