<svg width="414" height="296" viewBox="0 0 414 296" fill="none" xmlns="http://www.w3.org/2000/svg">
<rect x="149.701" y="31.259" width="38.2117" height="11.3867" rx="2" fill="#9195CE"/>
<path d="M167.135 38.8167L168.661 37.4133C168.812 37.2688 168.929 37.1497 169.013 37.0559C169.097 36.9602 169.16 36.8645 169.203 36.7688C169.248 36.6711 169.271 36.5676 169.271 36.4583C169.271 36.3372 169.241 36.2307 169.183 36.1389C169.124 36.0452 169.044 35.9739 168.942 35.925C168.841 35.8762 168.726 35.8518 168.597 35.8518C168.466 35.8518 168.35 35.8782 168.248 35.9309C168.148 35.9836 168.071 36.0608 168.017 36.1624C167.964 36.262 167.938 36.3782 167.938 36.511H167.1C167.1 36.2395 167.162 36.0012 167.287 35.7961C167.414 35.5891 167.591 35.4299 167.817 35.3186C168.046 35.2073 168.309 35.1516 168.605 35.1516C168.904 35.1516 169.168 35.2043 169.396 35.3098C169.625 35.4153 169.802 35.5627 169.927 35.7522C170.054 35.9417 170.117 36.1584 170.117 36.4026C170.117 36.5686 170.085 36.7288 170.021 36.8831C169.958 37.0374 169.847 37.2083 169.687 37.3958C169.528 37.5833 169.303 37.8098 169.01 38.0754L168.362 38.6995V38.7288H170.179V39.4524H167.138L167.135 38.8167Z" fill="#0C2557"/>
<rect x="192.16" y="31.259" width="38.2117" height="11.3867" rx="2" fill="#9195CE"/>
<path d="M211.173 39.511C210.864 39.511 210.588 39.4583 210.344 39.3528C210.1 39.2473 209.908 39.0989 209.77 38.9075C209.633 38.7161 209.562 38.4993 209.556 38.2571H210.443C210.449 38.3567 210.484 38.4465 210.549 38.5266C210.613 38.6067 210.7 38.6692 210.81 38.7141C210.919 38.759 211.04 38.7815 211.173 38.7815C211.312 38.7815 211.437 38.7571 211.548 38.7083C211.661 38.6575 211.748 38.5891 211.809 38.5032C211.869 38.4153 211.898 38.3157 211.896 38.2043C211.898 38.0891 211.867 37.9866 211.803 37.8967C211.738 37.8069 211.645 37.7375 211.521 37.6887C211.4 37.6379 211.258 37.6125 211.094 37.6125H210.698V36.9622H211.094C211.232 36.9622 211.356 36.9387 211.466 36.8918C211.575 36.843 211.659 36.7756 211.718 36.6897C211.776 36.6038 211.805 36.5061 211.803 36.3967C211.805 36.2893 211.78 36.1946 211.729 36.1125C211.679 36.0286 211.605 35.9641 211.51 35.9192C211.414 35.8743 211.305 35.8518 211.182 35.8518C211.057 35.8518 210.942 35.8743 210.839 35.9192C210.735 35.9622 210.651 36.0247 210.587 36.1067C210.524 36.1868 210.49 36.2805 210.484 36.3879H209.641C209.648 36.1477 209.72 35.9338 209.854 35.7463C209.989 35.5588 210.172 35.4133 210.402 35.3098C210.635 35.2043 210.895 35.1516 211.182 35.1516C211.473 35.1516 211.729 35.2034 211.952 35.3069C212.175 35.4104 212.348 35.553 212.471 35.7346C212.594 35.9163 212.653 36.1194 212.649 36.344C212.653 36.4983 212.621 36.6389 212.553 36.7659C212.486 36.8928 212.392 36.9973 212.269 37.0793C212.147 37.1594 212.007 37.2141 211.847 37.2434V37.2756C212.054 37.301 212.229 37.3586 212.374 37.4485C212.521 37.5364 212.631 37.6497 212.705 37.7883C212.779 37.927 212.814 38.0852 212.811 38.2629C212.814 38.4993 212.746 38.7131 212.605 38.9045C212.465 39.094 212.27 39.2424 212.02 39.3499C211.77 39.4573 211.487 39.511 211.173 39.511Z" fill="#0C2557"/>
<rect x="234.617" y="31.259" width="38.2117" height="11.3867" rx="2" fill="#9195CE"/>
<path d="M251.986 38.0051L253.779 35.2102H254.377V36.177H254.02L252.877 37.9583V37.9934H255.423V38.7024H251.986V38.0051ZM254.046 38.4885L254.058 38.1809V35.2102H254.887V39.4524H254.046V38.4885Z" fill="#0C2557"/>
<rect x="88.1387" y="49.2878" width="31.8431" height="12.3356" rx="2" fill="#9195CE"/>
<path d="M104.72 57.9556H103.835V54.5513H103.812L102.842 55.1665V54.3813L103.891 53.7134H104.72V57.9556Z" fill="#0C2557"/>
<rect x="128.473" y="46.4414" width="163.461" height="17.0801" rx="2" fill="#D4DAE4"/>
<path d="M205.164 53.2578H200.656V52.4688H205.164V53.2578ZM206.402 56.2969H199.918V55.4922H206.402V56.2969ZM203.625 59.168H202.625V56.0508H203.625V59.168ZM205.641 53.1016C205.641 53.4609 205.635 53.7656 205.625 54.0156C205.617 54.2656 205.591 54.5573 205.547 54.8906C205.505 55.2214 205.441 55.582 205.355 55.9727L204.371 55.8633C204.457 55.4935 204.52 55.1484 204.559 54.8281C204.6 54.5052 204.625 54.2201 204.633 53.9727C204.641 53.7253 204.645 53.4362 204.645 53.1055V52.4688H205.641V53.1016ZM207.645 55.3438C208.348 55.3438 208.901 55.332 209.305 55.3086C209.708 55.2852 210.107 55.2409 210.5 55.1758L210.594 55.9727C210.195 56.043 209.785 56.0911 209.363 56.1172C208.944 56.1406 208.371 56.151 207.645 56.1484H207.105V55.3438H207.645ZM210.238 54.6289H208.094V55.9297H207.105V53.875H209.254V53.2266H207.094V52.4219H210.238V54.6289ZM212.82 56.3789H211.816V52.0586H212.82V56.3789ZM212.016 53.8047H210.656V53.0039H212.016V53.8047ZM212.016 55.2734H210.656V54.4688H212.016V55.2734ZM210.402 56.4922C210.91 56.4922 211.348 56.5469 211.715 56.6562C212.082 56.763 212.363 56.918 212.559 57.1211C212.754 57.3216 212.852 57.5625 212.852 57.8438C212.852 58.125 212.754 58.3659 212.559 58.5664C212.363 58.7695 212.082 58.9232 211.715 59.0273C211.348 59.1315 210.91 59.1836 210.402 59.1836C209.895 59.1836 209.457 59.1315 209.09 59.0273C208.723 58.9232 208.44 58.7695 208.242 58.5664C208.047 58.3659 207.949 58.125 207.949 57.8438C207.949 57.5625 208.048 57.3216 208.246 57.1211C208.444 56.918 208.727 56.763 209.094 56.6562C209.461 56.5469 209.897 56.4922 210.402 56.4922ZM210.402 57.25C210.085 57.25 209.818 57.2721 209.602 57.3164C209.388 57.3607 209.227 57.4271 209.117 57.5156C209.01 57.6042 208.957 57.7135 208.957 57.8438C208.957 57.974 209.01 58.082 209.117 58.168C209.227 58.2539 209.388 58.319 209.602 58.3633C209.818 58.4049 210.085 58.4258 210.402 58.4258C210.725 58.4258 210.993 58.4049 211.207 58.3633C211.423 58.319 211.587 58.2539 211.699 58.168C211.811 58.082 211.867 57.974 211.867 57.8438C211.867 57.7135 211.811 57.6042 211.699 57.5156C211.587 57.4271 211.423 57.3607 211.207 57.3164C210.991 57.2721 210.723 57.25 210.402 57.25ZM219.887 59.1602H218.949V52.043H219.887V59.1602ZM219.176 55.5938H217.969V54.7969H219.176V55.5938ZM218.262 58.8164H217.348V52.1719H218.262V58.8164ZM214.441 56.7188C214.96 56.7188 215.406 56.707 215.781 56.6836C216.156 56.6602 216.539 56.6133 216.93 56.543L217 57.3516C216.602 57.4271 216.21 57.4792 215.824 57.5078C215.439 57.5339 214.978 57.5482 214.441 57.5508H213.941V56.7188H214.441ZM216.598 53.6758H214.941V57.1211H213.941V52.875H216.598V53.6758Z" fill="#0C2557"/>
<rect x="62.1582" y="71.7036" width="14" height="14" rx="2" fill="#80A7E1"/>
<path d="M69.8174 80.7036H68.9326V77.2993H68.9092L67.9395 77.9146V77.1294L68.9883 76.4614H69.8174V80.7036Z" fill="#0C2557"/>
<rect x="78.6582" y="71.7036" width="14" height="14" rx="2" fill="#80A7E1"/>
<path d="M83.9863 80.0679L85.5127 78.6646C85.6631 78.52 85.7803 78.4009 85.8643 78.3071C85.9482 78.2114 86.0117 78.1157 86.0547 78.02C86.0996 77.9224 86.1221 77.8188 86.1221 77.7095C86.1221 77.5884 86.0928 77.4819 86.0342 77.3901C85.9756 77.2964 85.8955 77.2251 85.7939 77.1763C85.6924 77.1274 85.5771 77.103 85.4482 77.103C85.3174 77.103 85.2012 77.1294 85.0996 77.1821C85 77.2349 84.9229 77.312 84.8682 77.4136C84.8154 77.5132 84.7891 77.6294 84.7891 77.7622H83.9512C83.9512 77.4907 84.0137 77.2524 84.1387 77.0474C84.2656 76.8403 84.4424 76.6812 84.6689 76.5698C84.8975 76.4585 85.1602 76.4028 85.457 76.4028C85.7559 76.4028 86.0195 76.4556 86.248 76.561C86.4766 76.6665 86.6533 76.814 86.7783 77.0034C86.9053 77.1929 86.9688 77.4097 86.9688 77.6538C86.9688 77.8198 86.9365 77.98 86.8721 78.1343C86.8096 78.2886 86.6982 78.4595 86.5381 78.647C86.3799 78.8345 86.1543 79.061 85.8613 79.3267L85.2139 79.9507V79.98H87.0303V80.7036H83.9893L83.9863 80.0679Z" fill="#0C2557"/>
<rect x="95.1582" y="71.7036" width="14" height="14" rx="2" fill="#80A7E1"/>
<path d="M102.065 80.7622C101.757 80.7622 101.48 80.7095 101.236 80.604C100.992 80.4985 100.801 80.3501 100.662 80.1587C100.525 79.9673 100.454 79.7505 100.448 79.5083H101.336C101.342 79.6079 101.377 79.6978 101.441 79.7778C101.506 79.8579 101.593 79.9204 101.702 79.9653C101.812 80.0103 101.933 80.0327 102.065 80.0327C102.204 80.0327 102.329 80.0083 102.44 79.9595C102.554 79.9087 102.641 79.8403 102.701 79.7544C102.762 79.6665 102.791 79.5669 102.789 79.4556C102.791 79.3403 102.76 79.2378 102.695 79.1479C102.631 79.0581 102.537 78.9888 102.414 78.9399C102.293 78.8892 102.15 78.8638 101.986 78.8638H101.591V78.2134H101.986C102.125 78.2134 102.249 78.1899 102.358 78.1431C102.468 78.0942 102.552 78.0269 102.61 77.9409C102.669 77.855 102.697 77.7573 102.695 77.6479C102.697 77.5405 102.673 77.4458 102.622 77.3638C102.571 77.2798 102.498 77.2153 102.402 77.1704C102.307 77.1255 102.197 77.103 102.074 77.103C101.949 77.103 101.835 77.1255 101.731 77.1704C101.628 77.2134 101.544 77.2759 101.479 77.3579C101.417 77.438 101.383 77.5317 101.377 77.6392H100.533C100.541 77.3989 100.612 77.1851 100.747 76.9976C100.882 76.8101 101.064 76.6646 101.295 76.561C101.527 76.4556 101.787 76.4028 102.074 76.4028C102.365 76.4028 102.622 76.4546 102.845 76.5581C103.067 76.6616 103.24 76.8042 103.363 76.9858C103.486 77.1675 103.546 77.3706 103.542 77.5952C103.546 77.7495 103.514 77.8901 103.445 78.0171C103.379 78.144 103.284 78.2485 103.161 78.3306C103.04 78.4106 102.899 78.4653 102.739 78.4946V78.5269C102.946 78.5522 103.122 78.6099 103.267 78.6997C103.413 78.7876 103.523 78.9009 103.598 79.0396C103.672 79.1782 103.707 79.3364 103.703 79.5142C103.707 79.7505 103.639 79.9644 103.498 80.1558C103.357 80.3452 103.162 80.4937 102.912 80.6011C102.662 80.7085 102.38 80.7622 102.065 80.7622Z" fill="#0C2557"/>
<rect x="111.658" y="71.7036" width="14" height="14" rx="2" fill="#80A7E1"/>
<path d="M116.922 79.2563L118.715 76.4614H119.312V77.4282H118.955L117.812 79.2095V79.2446H120.358V79.9536H116.922V79.2563ZM118.981 79.7397L118.993 79.4321V76.4614H119.822V80.7036H118.981V79.7397Z" fill="#0C2557"/>
<rect x="128.158" y="71.7036" width="14" height="14" rx="2" fill="#80A7E1"/>
<path d="M135.051 80.7622C134.762 80.7622 134.5 80.7085 134.266 80.6011C134.031 80.4937 133.847 80.3442 133.712 80.1528C133.579 79.9614 133.51 79.7466 133.504 79.5083H134.356C134.366 79.6177 134.402 79.7144 134.465 79.7983C134.529 79.8823 134.612 79.9487 134.714 79.9976C134.817 80.0444 134.93 80.0679 135.051 80.0679C135.195 80.0679 135.324 80.0356 135.438 79.9712C135.553 79.9067 135.643 79.8179 135.707 79.7046C135.771 79.5894 135.804 79.4595 135.804 79.3149C135.804 79.1646 135.771 79.0327 135.704 78.9194C135.64 78.8042 135.549 78.7144 135.432 78.6499C135.316 78.5835 135.185 78.5503 135.036 78.5503C134.878 78.5483 134.744 78.5767 134.635 78.6353C134.525 78.6938 134.438 78.7837 134.374 78.9048H133.574L133.806 76.4614H136.416V77.1851H134.532L134.415 78.2544H134.447C134.529 78.147 134.646 78.0601 134.799 77.9937C134.951 77.9272 135.118 77.894 135.3 77.894C135.556 77.894 135.787 77.9536 135.994 78.0728C136.203 78.1899 136.365 78.355 136.48 78.5679C136.598 78.7808 136.655 79.022 136.653 79.2915C136.655 79.5728 136.588 79.8257 136.451 80.0503C136.316 80.2729 136.128 80.4478 135.886 80.5747C135.644 80.6997 135.365 80.7622 135.051 80.7622Z" fill="#0C2557"/>
<rect x="144.658" y="71.7036" width="14" height="14" rx="2" fill="#80A7E1"/>
<path d="M151.636 80.7622C151.321 80.7603 151.036 80.6909 150.78 80.5542C150.524 80.4175 150.317 80.1938 150.159 79.8833C150.001 79.5728 149.922 79.1714 149.922 78.6792C149.922 78.2085 149.993 77.8022 150.136 77.4604C150.28 77.1167 150.483 76.855 150.745 76.6753C151.009 76.4937 151.316 76.4028 151.668 76.4028C151.947 76.4028 152.196 76.4565 152.415 76.564C152.636 76.6714 152.813 76.8188 152.948 77.0063C153.083 77.1938 153.165 77.4048 153.194 77.6392H152.324C152.301 77.5396 152.259 77.4536 152.198 77.3813C152.14 77.3071 152.065 77.2515 151.976 77.2144C151.886 77.1772 151.783 77.1587 151.668 77.1587C151.479 77.1587 151.318 77.2134 151.188 77.3228C151.059 77.4302 150.96 77.5845 150.892 77.7856C150.823 77.9868 150.788 78.228 150.786 78.5093H150.821C150.888 78.3843 150.976 78.2778 151.085 78.1899C151.196 78.1001 151.322 78.0317 151.463 77.9849C151.605 77.936 151.754 77.9116 151.908 77.9116C152.16 77.9116 152.388 77.9702 152.591 78.0874C152.794 78.2046 152.952 78.3677 153.065 78.5767C153.181 78.7837 153.238 79.019 153.238 79.2827C153.238 79.5679 153.171 79.8228 153.036 80.0474C152.903 80.272 152.715 80.4478 152.471 80.5747C152.229 80.6997 151.95 80.7622 151.636 80.7622ZM151.63 80.0679C151.772 80.0679 151.9 80.0347 152.014 79.9683C152.129 79.8999 152.219 79.8081 152.283 79.6929C152.35 79.5757 152.383 79.4478 152.383 79.3091C152.383 79.1665 152.351 79.0376 152.286 78.9224C152.222 78.8071 152.133 78.7173 152.02 78.6528C151.906 78.5884 151.778 78.5562 151.636 78.5562C151.495 78.5562 151.367 78.5894 151.252 78.6558C151.137 78.7222 151.046 78.813 150.979 78.9282C150.913 79.0435 150.878 79.1714 150.874 79.312C150.876 79.4468 150.909 79.5718 150.974 79.687C151.04 79.8022 151.13 79.895 151.243 79.9653C151.358 80.0337 151.487 80.0679 151.63 80.0679Z" fill="#0C2557"/>
<rect x="161.158" y="71.7036" width="14" height="14" rx="2" fill="#80A7E1"/>
<path d="M168.443 77.2114V77.1851H166.363V76.4614H169.357V77.1968L167.567 80.7036H166.659L168.443 77.2114Z" fill="#0C2557"/>
<rect x="177.658" y="71.7036" width="14" height="14" rx="2" fill="#80A7E1"/>
<path d="M184.586 80.7622C184.27 80.7622 183.984 80.7104 183.73 80.6069C183.479 80.5034 183.281 80.3599 183.139 80.1763C182.996 79.9927 182.925 79.7876 182.925 79.561C182.925 79.3872 182.966 79.2251 183.048 79.0747C183.13 78.9224 183.241 78.7974 183.382 78.6997C183.524 78.6021 183.683 78.5405 183.856 78.5151V78.4829C183.708 78.4536 183.575 78.395 183.458 78.3071C183.341 78.2173 183.249 78.106 183.183 77.9731C183.116 77.8403 183.083 77.6978 183.083 77.5454C183.083 77.3286 183.148 77.1333 183.279 76.9595C183.41 76.7837 183.59 76.647 183.818 76.5493C184.047 76.4517 184.303 76.4028 184.586 76.4028C184.871 76.4028 185.128 76.4517 185.356 76.5493C185.587 76.647 185.767 76.7837 185.896 76.9595C186.026 77.1333 186.092 77.3286 186.092 77.5454C186.092 77.6978 186.058 77.8403 185.989 77.9731C185.923 78.106 185.831 78.2173 185.714 78.3071C185.599 78.395 185.466 78.4536 185.315 78.4829V78.5151C185.489 78.5405 185.646 78.6021 185.787 78.6997C185.93 78.7974 186.043 78.9224 186.127 79.0747C186.211 79.2251 186.253 79.3872 186.253 79.561C186.253 79.7876 186.181 79.9927 186.036 80.1763C185.894 80.3599 185.695 80.5034 185.441 80.6069C185.189 80.7104 184.904 80.7622 184.586 80.7622ZM184.586 80.0913C184.732 80.0913 184.862 80.0649 184.976 80.0122C185.089 79.9595 185.177 79.8862 185.239 79.7925C185.302 79.6987 185.333 79.5933 185.333 79.4761C185.333 79.353 185.301 79.2427 185.236 79.145C185.172 79.0474 185.083 78.9712 184.97 78.9165C184.856 78.8618 184.729 78.8345 184.586 78.8345C184.445 78.8345 184.318 78.8618 184.205 78.9165C184.092 78.9712 184.003 79.0474 183.938 79.145C183.874 79.2427 183.843 79.353 183.845 79.4761C183.843 79.5933 183.873 79.6987 183.936 79.7925C183.998 79.8862 184.086 79.9595 184.199 80.0122C184.312 80.0649 184.441 80.0913 184.586 80.0913ZM184.586 78.2104C184.709 78.2104 184.819 78.186 184.917 78.1372C185.017 78.0864 185.094 78.0181 185.148 77.9321C185.203 77.8442 185.23 77.7456 185.23 77.6362C185.23 77.5249 185.203 77.4263 185.148 77.3403C185.096 77.2544 185.02 77.188 184.92 77.1411C184.822 77.0923 184.711 77.0679 184.586 77.0679C184.463 77.0679 184.352 77.0923 184.252 77.1411C184.154 77.188 184.078 77.2544 184.023 77.3403C183.971 77.4263 183.944 77.5249 183.944 77.6362C183.944 77.7456 183.972 77.8442 184.026 77.9321C184.083 78.0181 184.16 78.0864 184.258 78.1372C184.355 78.186 184.465 78.2104 184.586 78.2104Z" fill="#0C2557"/>
<rect x="194.158" y="71.7036" width="14" height="14" rx="2" fill="#80A7E1"/>
<path d="M201.042 76.4028C201.356 76.4028 201.642 76.4712 201.897 76.6079C202.153 76.7427 202.359 76.9653 202.516 77.2759C202.674 77.5845 202.753 77.9829 202.753 78.4712C202.755 78.9458 202.685 79.355 202.542 79.6987C202.399 80.0425 202.196 80.3062 201.933 80.4897C201.671 80.6714 201.362 80.7622 201.007 80.7622C200.729 80.7622 200.48 80.7075 200.26 80.5981C200.039 80.4888 199.861 80.3403 199.727 80.1528C199.592 79.9634 199.51 79.7495 199.48 79.5112H200.348C200.373 79.6147 200.415 79.7036 200.474 79.7778C200.534 79.8521 200.609 79.9087 200.699 79.9478C200.791 79.9868 200.894 80.0063 201.007 80.0063C201.196 80.0063 201.357 79.9517 201.49 79.8423C201.623 79.7329 201.723 79.5767 201.789 79.3735C201.857 79.1685 201.892 78.9243 201.892 78.6411H201.854C201.787 78.7622 201.699 78.8677 201.59 78.9575C201.48 79.0474 201.354 79.1167 201.212 79.1655C201.071 79.2124 200.923 79.2358 200.767 79.2358C200.517 79.2358 200.29 79.1772 200.087 79.0601C199.886 78.9429 199.728 78.7808 199.612 78.5737C199.497 78.3647 199.438 78.1313 199.437 77.8735C199.437 77.5903 199.503 77.3374 199.636 77.1147C199.771 76.8901 199.96 76.7153 200.204 76.5903C200.448 76.4634 200.728 76.4009 201.042 76.4028ZM201.045 77.0942C200.904 77.0942 200.776 77.1284 200.661 77.1968C200.546 77.2632 200.456 77.354 200.392 77.4692C200.327 77.5825 200.295 77.7085 200.295 77.8472C200.297 77.9858 200.33 78.1118 200.395 78.2251C200.459 78.3384 200.547 78.4282 200.658 78.4946C200.771 78.561 200.897 78.5942 201.036 78.5942C201.179 78.5942 201.308 78.5601 201.423 78.4917C201.54 78.4233 201.633 78.3315 201.701 78.2163C201.77 78.0991 201.803 77.9741 201.801 77.8413C201.801 77.7065 201.768 77.5825 201.701 77.4692C201.635 77.354 201.545 77.2632 201.432 77.1968C201.318 77.1284 201.189 77.0942 201.045 77.0942Z" fill="#0C2557"/>
<rect x="210.658" y="71.7036" width="14" height="14" rx="2" fill="#80A7E1"/>
<path d="M216.317 80.7036H215.433V77.2993H215.409L214.439 77.9146V77.1294L215.488 76.4614H216.317V80.7036ZM218.951 80.7622C218.598 80.7622 218.293 80.6772 218.037 80.5073C217.783 80.3374 217.588 80.0894 217.451 79.7632C217.316 79.4351 217.249 79.0415 217.249 78.5825C217.249 78.1235 217.316 77.731 217.451 77.4048C217.588 77.0786 217.784 76.8306 218.04 76.6606C218.296 76.4888 218.6 76.4028 218.951 76.4028C219.303 76.4028 219.606 76.4888 219.862 76.6606C220.118 76.8306 220.314 77.0796 220.451 77.4077C220.588 77.7339 220.656 78.1255 220.656 78.5825C220.656 79.0435 220.588 79.437 220.451 79.7632C220.316 80.0894 220.121 80.3374 219.865 80.5073C219.609 80.6772 219.305 80.7622 218.951 80.7622ZM218.951 80.0356C219.115 80.0356 219.258 79.9819 219.379 79.8745C219.502 79.7671 219.596 79.605 219.66 79.3882C219.725 79.1694 219.756 78.9009 219.754 78.5825C219.754 78.2661 219.722 77.9995 219.657 77.7827C219.593 77.564 219.5 77.3999 219.379 77.2905C219.258 77.1812 219.115 77.1265 218.951 77.1265C218.787 77.1265 218.645 77.1812 218.523 77.2905C218.404 77.3999 218.312 77.564 218.245 77.7827C218.179 77.9995 218.146 78.2661 218.146 78.5825C218.146 78.9009 218.178 79.1694 218.242 79.3882C218.309 79.605 218.402 79.7671 218.523 79.8745C218.645 79.9819 218.787 80.0356 218.951 80.0356Z" fill="#0C2557"/>
<rect x="227.158" y="71.7036" width="14" height="14" rx="2" fill="#80A7E1"/>
<path d="M233.317 80.7036H232.433V77.2993H232.409L231.439 77.9146V77.1294L232.488 76.4614H233.317V80.7036ZM236.13 80.7036H235.245V77.2993H235.222L234.252 77.9146V77.1294L235.301 76.4614H236.13V80.7036Z" fill="#0C2557"/>
<rect x="243.658" y="71.7036" width="14" height="14" rx="2" fill="#80A7E1"/>
<path d="M249.317 80.7036H248.433V77.2993H248.409L247.439 77.9146V77.1294L248.488 76.4614H249.317V80.7036ZM250.299 80.0679L251.825 78.6646C251.976 78.52 252.093 78.4009 252.177 78.3071C252.261 78.2114 252.324 78.1157 252.367 78.02C252.412 77.9224 252.435 77.8188 252.435 77.7095C252.435 77.5884 252.405 77.4819 252.347 77.3901C252.288 77.2964 252.208 77.2251 252.106 77.1763C252.005 77.1274 251.89 77.103 251.761 77.103C251.63 77.103 251.514 77.1294 251.412 77.1821C251.312 77.2349 251.235 77.312 251.181 77.4136C251.128 77.5132 251.102 77.6294 251.102 77.7622H250.264C250.264 77.4907 250.326 77.2524 250.451 77.0474C250.578 76.8403 250.755 76.6812 250.981 76.5698C251.21 76.4585 251.473 76.4028 251.77 76.4028C252.068 76.4028 252.332 76.4556 252.561 76.561C252.789 76.6665 252.966 76.814 253.091 77.0034C253.218 77.1929 253.281 77.4097 253.281 77.6538C253.281 77.8198 253.249 77.98 253.185 78.1343C253.122 78.2886 253.011 78.4595 252.851 78.647C252.692 78.8345 252.467 79.061 252.174 79.3267L251.526 79.9507V79.98H253.343V80.7036H250.302L250.299 80.0679Z" fill="#0C2557"/>
<rect x="260.158" y="71.7036" width="14" height="14" rx="2" fill="#80A7E1"/>
<path d="M265.817 80.7036H264.933V77.2993H264.909L263.939 77.9146V77.1294L264.988 76.4614H265.817V80.7036ZM268.378 80.7622C268.069 80.7622 267.793 80.7095 267.549 80.604C267.305 80.4985 267.113 80.3501 266.975 80.1587C266.838 79.9673 266.767 79.7505 266.761 79.5083H267.648C267.654 79.6079 267.689 79.6978 267.754 79.7778C267.818 79.8579 267.905 79.9204 268.015 79.9653C268.124 80.0103 268.245 80.0327 268.378 80.0327C268.517 80.0327 268.642 80.0083 268.753 79.9595C268.866 79.9087 268.953 79.8403 269.014 79.7544C269.074 79.6665 269.104 79.5669 269.102 79.4556C269.104 79.3403 269.072 79.2378 269.008 79.1479C268.943 79.0581 268.85 78.9888 268.727 78.9399C268.605 78.8892 268.463 78.8638 268.299 78.8638H267.903V78.2134H268.299C268.438 78.2134 268.562 78.1899 268.671 78.1431C268.78 78.0942 268.864 78.0269 268.923 77.9409C268.981 77.855 269.01 77.7573 269.008 77.6479C269.01 77.5405 268.985 77.4458 268.935 77.3638C268.884 77.2798 268.811 77.2153 268.715 77.1704C268.619 77.1255 268.51 77.103 268.387 77.103C268.262 77.103 268.147 77.1255 268.044 77.1704C267.94 77.2134 267.856 77.2759 267.792 77.3579C267.729 77.438 267.695 77.5317 267.689 77.6392H266.846C266.854 77.3989 266.925 77.1851 267.06 76.9976C267.194 76.8101 267.377 76.6646 267.607 76.561C267.84 76.4556 268.1 76.4028 268.387 76.4028C268.678 76.4028 268.935 76.4546 269.157 76.5581C269.38 76.6616 269.553 76.8042 269.676 76.9858C269.799 77.1675 269.858 77.3706 269.854 77.5952C269.858 77.7495 269.826 77.8901 269.758 78.0171C269.691 78.144 269.597 78.2485 269.474 78.3306C269.353 78.4106 269.212 78.4653 269.052 78.4946V78.5269C269.259 78.5522 269.435 78.6099 269.579 78.6997C269.726 78.7876 269.836 78.9009 269.91 79.0396C269.984 79.1782 270.02 79.3364 270.016 79.5142C270.02 79.7505 269.951 79.9644 269.811 80.1558C269.67 80.3452 269.475 80.4937 269.225 80.6011C268.975 80.7085 268.692 80.7622 268.378 80.7622Z" fill="#0C2557"/>
<rect x="276.658" y="71.7036" width="14" height="14" rx="2" fill="#80A7E1"/>
<path d="M282.317 80.7036H281.433V77.2993H281.409L280.439 77.9146V77.1294L281.488 76.4614H282.317V80.7036ZM283.234 79.2563L285.027 76.4614H285.625V77.4282H285.268L284.125 79.2095V79.2446H286.671V79.9536H283.234V79.2563ZM285.294 79.7397L285.306 79.4321V76.4614H286.135V80.7036H285.294V79.7397Z" fill="#0C2557"/>
<rect x="293.158" y="71.7036" width="14" height="14" rx="2" fill="#80A7E1"/>
<path d="M298.817 80.7036H297.933V77.2993H297.909L296.939 77.9146V77.1294L297.988 76.4614H298.817V80.7036ZM301.363 80.7622C301.074 80.7622 300.812 80.7085 300.578 80.6011C300.344 80.4937 300.159 80.3442 300.024 80.1528C299.892 79.9614 299.822 79.7466 299.816 79.5083H300.669C300.679 79.6177 300.715 79.7144 300.777 79.7983C300.842 79.8823 300.925 79.9487 301.026 79.9976C301.13 80.0444 301.242 80.0679 301.363 80.0679C301.508 80.0679 301.637 80.0356 301.75 79.9712C301.865 79.9067 301.955 79.8179 302.02 79.7046C302.084 79.5894 302.116 79.4595 302.116 79.3149C302.116 79.1646 302.083 79.0327 302.017 78.9194C301.952 78.8042 301.861 78.7144 301.744 78.6499C301.629 78.5835 301.497 78.5503 301.349 78.5503C301.19 78.5483 301.057 78.5767 300.947 78.6353C300.838 78.6938 300.751 78.7837 300.687 78.9048H299.887L300.118 76.4614H302.729V77.1851H300.845L300.728 78.2544H300.76C300.842 78.147 300.959 78.0601 301.111 77.9937C301.264 77.9272 301.431 77.894 301.612 77.894C301.868 77.894 302.1 77.9536 302.307 78.0728C302.516 78.1899 302.678 78.355 302.793 78.5679C302.91 78.7808 302.968 79.022 302.966 79.2915C302.968 79.5728 302.9 79.8257 302.764 80.0503C302.629 80.2729 302.44 80.4478 302.198 80.5747C301.956 80.6997 301.678 80.7622 301.363 80.7622Z" fill="#0C2557"/>
<rect x="309.658" y="71.7036" width="14" height="14" rx="2" fill="#80A7E1"/>
<path d="M315.317 80.7036H314.433V77.2993H314.409L313.439 77.9146V77.1294L314.488 76.4614H315.317V80.7036ZM317.948 80.7622C317.634 80.7603 317.349 80.6909 317.093 80.5542C316.837 80.4175 316.63 80.1938 316.472 79.8833C316.313 79.5728 316.234 79.1714 316.234 78.6792C316.234 78.2085 316.306 77.8022 316.448 77.4604C316.593 77.1167 316.796 76.855 317.058 76.6753C317.321 76.4937 317.629 76.4028 317.98 76.4028C318.26 76.4028 318.509 76.4565 318.728 76.564C318.948 76.6714 319.126 76.8188 319.261 77.0063C319.396 77.1938 319.478 77.4048 319.507 77.6392H318.637C318.613 77.5396 318.571 77.4536 318.511 77.3813C318.452 77.3071 318.378 77.2515 318.288 77.2144C318.198 77.1772 318.096 77.1587 317.98 77.1587C317.791 77.1587 317.631 77.2134 317.5 77.3228C317.371 77.4302 317.272 77.5845 317.204 77.7856C317.136 77.9868 317.101 78.228 317.099 78.5093H317.134C317.2 78.3843 317.288 78.2778 317.397 78.1899C317.509 78.1001 317.635 78.0317 317.775 77.9849C317.918 77.936 318.066 77.9116 318.221 77.9116C318.473 77.9116 318.7 77.9702 318.903 78.0874C319.106 78.2046 319.265 78.3677 319.378 78.5767C319.493 78.7837 319.551 79.019 319.551 79.2827C319.551 79.5679 319.483 79.8228 319.349 80.0474C319.216 80.272 319.027 80.4478 318.783 80.5747C318.541 80.6997 318.263 80.7622 317.948 80.7622ZM317.942 80.0679C318.085 80.0679 318.213 80.0347 318.326 79.9683C318.441 79.8999 318.531 79.8081 318.596 79.6929C318.662 79.5757 318.695 79.4478 318.695 79.3091C318.695 79.1665 318.663 79.0376 318.599 78.9224C318.534 78.8071 318.445 78.7173 318.332 78.6528C318.219 78.5884 318.091 78.5562 317.948 78.5562C317.808 78.5562 317.68 78.5894 317.564 78.6558C317.449 78.7222 317.358 78.813 317.292 78.9282C317.226 79.0435 317.19 79.1714 317.187 79.312C317.188 79.4468 317.222 79.5718 317.286 79.687C317.353 79.8022 317.442 79.895 317.556 79.9653C317.671 80.0337 317.8 80.0679 317.942 80.0679Z" fill="#0C2557"/>
<rect x="326.158" y="71.7036" width="14" height="14" rx="2" fill="#80A7E1"/>
<path d="M331.817 80.7036H330.933V77.2993H330.909L329.939 77.9146V77.1294L330.988 76.4614H331.817V80.7036ZM334.756 77.2114V77.1851H332.676V76.4614H335.67V77.1968L333.88 80.7036H332.972L334.756 77.2114Z" fill="#0C2557"/>
<rect x="342.658" y="71.7036" width="14" height="14" rx="2" fill="#80A7E1"/>
<path d="M348.317 80.7036H347.433V77.2993H347.409L346.439 77.9146V77.1294L347.488 76.4614H348.317V80.7036ZM350.898 80.7622C350.582 80.7622 350.297 80.7104 350.043 80.6069C349.791 80.5034 349.594 80.3599 349.451 80.1763C349.309 79.9927 349.237 79.7876 349.237 79.561C349.237 79.3872 349.278 79.2251 349.36 79.0747C349.442 78.9224 349.554 78.7974 349.694 78.6997C349.837 78.6021 349.995 78.5405 350.169 78.5151V78.4829C350.021 78.4536 349.888 78.395 349.771 78.3071C349.653 78.2173 349.562 78.106 349.495 77.9731C349.429 77.8403 349.396 77.6978 349.396 77.5454C349.396 77.3286 349.461 77.1333 349.592 76.9595C349.723 76.7837 349.902 76.647 350.131 76.5493C350.359 76.4517 350.615 76.4028 350.898 76.4028C351.184 76.4028 351.44 76.4517 351.669 76.5493C351.899 76.647 352.079 76.7837 352.208 76.9595C352.339 77.1333 352.404 77.3286 352.404 77.5454C352.404 77.6978 352.37 77.8403 352.302 77.9731C352.235 78.106 352.144 78.2173 352.026 78.3071C351.911 78.395 351.778 78.4536 351.628 78.4829V78.5151C351.802 78.5405 351.959 78.6021 352.1 78.6997C352.242 78.7974 352.355 78.9224 352.439 79.0747C352.523 79.2251 352.565 79.3872 352.565 79.561C352.565 79.7876 352.493 79.9927 352.349 80.1763C352.206 80.3599 352.008 80.5034 351.754 80.6069C351.502 80.7104 351.217 80.7622 350.898 80.7622ZM350.898 80.0913C351.045 80.0913 351.175 80.0649 351.288 80.0122C351.401 79.9595 351.489 79.8862 351.552 79.7925C351.614 79.6987 351.646 79.5933 351.646 79.4761C351.646 79.353 351.613 79.2427 351.549 79.145C351.484 79.0474 351.396 78.9712 351.282 78.9165C351.169 78.8618 351.041 78.8345 350.898 78.8345C350.758 78.8345 350.631 78.8618 350.518 78.9165C350.404 78.9712 350.315 79.0474 350.251 79.145C350.187 79.2427 350.155 79.353 350.157 79.4761C350.155 79.5933 350.186 79.6987 350.248 79.7925C350.311 79.8862 350.398 79.9595 350.512 80.0122C350.625 80.0649 350.754 80.0913 350.898 80.0913ZM350.898 78.2104C351.021 78.2104 351.132 78.186 351.229 78.1372C351.329 78.0864 351.406 78.0181 351.461 77.9321C351.516 77.8442 351.543 77.7456 351.543 77.6362C351.543 77.5249 351.516 77.4263 351.461 77.3403C351.408 77.2544 351.332 77.188 351.232 77.1411C351.135 77.0923 351.023 77.0679 350.898 77.0679C350.775 77.0679 350.664 77.0923 350.564 77.1411C350.467 77.188 350.391 77.2544 350.336 77.3403C350.283 77.4263 350.257 77.5249 350.257 77.6362C350.257 77.7456 350.284 77.8442 350.339 77.9321C350.396 78.0181 350.473 78.0864 350.57 78.1372C350.668 78.186 350.777 78.2104 350.898 78.2104Z" fill="#0C2557"/>
<rect x="382.156" y="93.8857" width="31.8431" height="11.3867" rx="2" fill="#C2D1C4"/>
<path d="M398.737 102.079H397.853V98.6748H397.829L396.859 99.29V98.5049L397.908 97.8369H398.737V102.079Z" fill="#0C2557"/>
<rect x="382.156" y="126.148" width="31.8431" height="11.3867" rx="2" fill="#C2D1C4"/>
<path d="M396.342 132.895L398.135 130.1H398.732V131.066H398.375L397.232 132.848V132.883H399.778V133.592H396.342V132.895ZM398.401 133.378L398.413 133.07V130.1H399.242V134.342H398.401V133.378Z" fill="#0C2557"/>
<rect x="382.156" y="157.462" width="31.8431" height="11.3867" rx="2" fill="#C2D1C4"/>
<path d="M398.363 162.163V162.136H396.283V161.413H399.277V162.148L397.487 165.655H396.579L398.363 162.163Z" fill="#0C2557"/>
<rect x="382.156" y="188.775" width="31.8431" height="11.3867" rx="2" fill="#C2D1C4"/>
<path d="M396.737 196.969H395.853V193.564H395.829L394.859 194.179V193.394L395.908 192.726H396.737V196.969ZM399.371 197.027C399.018 197.027 398.713 196.942 398.457 196.772C398.203 196.602 398.008 196.354 397.871 196.028C397.736 195.7 397.669 195.306 397.669 194.847C397.669 194.388 397.736 193.996 397.871 193.67C398.008 193.344 398.204 193.095 398.46 192.926C398.716 192.754 399.02 192.668 399.371 192.668C399.723 192.668 400.026 192.754 400.282 192.926C400.538 193.095 400.734 193.344 400.871 193.673C401.008 193.999 401.076 194.39 401.076 194.847C401.076 195.308 401.008 195.702 400.871 196.028C400.736 196.354 400.541 196.602 400.285 196.772C400.029 196.942 399.725 197.027 399.371 197.027ZM399.371 196.301C399.535 196.301 399.678 196.247 399.799 196.139C399.922 196.032 400.016 195.87 400.08 195.653C400.145 195.434 400.176 195.166 400.174 194.847C400.174 194.531 400.142 194.264 400.077 194.048C400.013 193.829 399.92 193.665 399.799 193.555C399.678 193.446 399.535 193.391 399.371 193.391C399.207 193.391 399.064 193.446 398.943 193.555C398.824 193.665 398.731 193.829 398.665 194.048C398.599 194.264 398.565 194.531 398.565 194.847C398.565 195.166 398.598 195.434 398.662 195.653C398.729 195.87 398.822 196.032 398.943 196.139C399.064 196.247 399.207 196.301 399.371 196.301Z" fill="#0C2557"/>
<rect x="382.156" y="107.17" width="31.8431" height="11.3867" rx="2" fill="#C2D1C4"/>
<path d="M396.406 114.728L397.933 113.325C398.083 113.18 398.2 113.061 398.284 112.967C398.368 112.872 398.432 112.776 398.475 112.68C398.52 112.583 398.542 112.479 398.542 112.37C398.542 112.249 398.513 112.142 398.454 112.05C398.396 111.957 398.315 111.885 398.214 111.836C398.112 111.788 397.997 111.763 397.868 111.763C397.737 111.763 397.621 111.79 397.52 111.842C397.42 111.895 397.343 111.972 397.288 112.074C397.235 112.173 397.209 112.29 397.209 112.422H396.371C396.371 112.151 396.434 111.913 396.559 111.708C396.686 111.5 396.862 111.341 397.089 111.23C397.317 111.119 397.58 111.063 397.877 111.063C398.176 111.063 398.439 111.116 398.668 111.221C398.896 111.327 399.073 111.474 399.198 111.664C399.325 111.853 399.389 112.07 399.389 112.314C399.389 112.48 399.356 112.64 399.292 112.794C399.229 112.949 399.118 113.12 398.958 113.307C398.8 113.495 398.574 113.721 398.281 113.987L397.634 114.611V114.64H399.45V115.364H396.409L396.406 114.728Z" fill="#0C2557"/>
<rect x="382.156" y="139.433" width="31.8431" height="11.3867" rx="2" fill="#C2D1C4"/>
<path d="M397.971 147.685C397.682 147.685 397.42 147.631 397.186 147.523C396.951 147.416 396.767 147.267 396.632 147.075C396.499 146.884 396.43 146.669 396.424 146.431H397.276C397.286 146.54 397.322 146.637 397.385 146.721C397.449 146.805 397.532 146.871 397.634 146.92C397.737 146.967 397.85 146.99 397.971 146.99C398.115 146.99 398.244 146.958 398.357 146.894C398.473 146.829 398.562 146.74 398.627 146.627C398.691 146.512 398.724 146.382 398.724 146.237C398.724 146.087 398.69 145.955 398.624 145.842C398.56 145.727 398.469 145.637 398.352 145.572C398.236 145.506 398.104 145.473 397.956 145.473C397.798 145.471 397.664 145.499 397.555 145.558C397.445 145.616 397.358 145.706 397.294 145.827H396.494L396.726 143.384H399.336V144.107H397.452L397.335 145.177H397.367C397.449 145.069 397.566 144.982 397.719 144.916C397.871 144.85 398.038 144.816 398.22 144.816C398.476 144.816 398.707 144.876 398.914 144.995C399.123 145.112 399.285 145.277 399.4 145.49C399.518 145.703 399.575 145.944 399.573 146.214C399.575 146.495 399.508 146.748 399.371 146.973C399.236 147.195 399.048 147.37 398.806 147.497C398.563 147.622 398.285 147.685 397.971 147.685Z" fill="#0C2557"/>
<rect x="382.156" y="170.746" width="31.8431" height="11.3867" rx="2" fill="#C2D1C4"/>
<path d="M398.006 178.998C397.689 178.998 397.404 178.947 397.15 178.843C396.898 178.74 396.701 178.596 396.559 178.412C396.416 178.229 396.345 178.024 396.345 177.797C396.345 177.623 396.386 177.461 396.468 177.311C396.55 177.158 396.661 177.033 396.802 176.936C396.944 176.838 397.103 176.777 397.276 176.751V176.719C397.128 176.69 396.995 176.631 396.878 176.543C396.761 176.453 396.669 176.342 396.603 176.209C396.536 176.076 396.503 175.934 396.503 175.781C396.503 175.565 396.568 175.369 396.699 175.196C396.83 175.02 397.01 174.883 397.238 174.785C397.467 174.688 397.723 174.639 398.006 174.639C398.291 174.639 398.548 174.688 398.776 174.785C399.007 174.883 399.187 175.02 399.315 175.196C399.446 175.369 399.512 175.565 399.512 175.781C399.512 175.934 399.478 176.076 399.409 176.209C399.343 176.342 399.251 176.453 399.134 176.543C399.019 176.631 398.886 176.69 398.735 176.719V176.751C398.909 176.777 399.066 176.838 399.207 176.936C399.35 177.033 399.463 177.158 399.547 177.311C399.631 177.461 399.673 177.623 399.673 177.797C399.673 178.024 399.601 178.229 399.456 178.412C399.313 178.596 399.115 178.74 398.861 178.843C398.609 178.947 398.324 178.998 398.006 178.998ZM398.006 178.327C398.152 178.327 398.282 178.301 398.396 178.248C398.509 178.196 398.597 178.122 398.659 178.029C398.722 177.935 398.753 177.829 398.753 177.712C398.753 177.589 398.721 177.479 398.656 177.381C398.592 177.283 398.503 177.207 398.39 177.153C398.276 177.098 398.148 177.071 398.006 177.071C397.865 177.071 397.738 177.098 397.625 177.153C397.512 177.207 397.423 177.283 397.358 177.381C397.294 177.479 397.263 177.589 397.265 177.712C397.263 177.829 397.293 177.935 397.355 178.029C397.418 178.122 397.506 178.196 397.619 178.248C397.732 178.301 397.861 178.327 398.006 178.327ZM398.006 176.447C398.129 176.447 398.239 176.422 398.337 176.373C398.437 176.323 398.514 176.254 398.568 176.168C398.623 176.08 398.65 175.982 398.65 175.872C398.65 175.761 398.623 175.662 398.568 175.576C398.516 175.49 398.439 175.424 398.34 175.377C398.242 175.328 398.131 175.304 398.006 175.304C397.883 175.304 397.771 175.328 397.672 175.377C397.574 175.424 397.498 175.49 397.443 175.576C397.391 175.662 397.364 175.761 397.364 175.872C397.364 175.982 397.392 176.08 397.446 176.168C397.503 176.254 397.58 176.323 397.678 176.373C397.775 176.422 397.885 176.447 398.006 176.447Z" fill="#0C2557"/>
<rect x="382.156" y="202.06" width="31.8431" height="11.3867" rx="2" fill="#C2D1C4"/>
<path d="M397.237 210.253H396.353V206.849H396.329L395.359 207.464V206.679L396.408 206.011H397.237V210.253ZM400.05 210.253H399.165V206.849H399.142L398.172 207.464V206.679L399.221 206.011H400.05V210.253Z" fill="#0C2557"/>
<rect x="382.156" y="215.344" width="31.8431" height="11.3867" rx="2" fill="#C2D1C4"/>
<path d="M396.737 223.538H395.853V220.133H395.829L394.859 220.749V219.963L395.908 219.295H396.737V223.538ZM397.719 222.902L399.245 221.499C399.396 221.354 399.513 221.235 399.597 221.141C399.681 221.045 399.744 220.95 399.787 220.854C399.832 220.756 399.854 220.653 399.854 220.543C399.854 220.422 399.825 220.316 399.767 220.224C399.708 220.13 399.628 220.059 399.526 220.01C399.425 219.961 399.31 219.937 399.181 219.937C399.05 219.937 398.934 219.963 398.832 220.016C398.732 220.069 398.655 220.146 398.601 220.248C398.548 220.347 398.521 220.463 398.521 220.596H397.684C397.684 220.325 397.746 220.086 397.871 219.881C397.998 219.674 398.175 219.515 398.401 219.404C398.63 219.292 398.893 219.237 399.189 219.237C399.488 219.237 399.752 219.29 399.98 219.395C400.209 219.5 400.386 219.648 400.511 219.837C400.638 220.027 400.701 220.244 400.701 220.488C400.701 220.654 400.669 220.814 400.604 220.968C400.542 221.123 400.431 221.293 400.271 221.481C400.112 221.668 399.887 221.895 399.594 222.161L398.946 222.785V222.814H400.763V223.538H397.722L397.719 222.902Z" fill="#0C2557"/>
<rect x="348.189" y="107.17" width="31.8431" height="11.3867" rx="2" fill="#C2D1C4"/>
<path d="M364.019 115.422C363.71 115.422 363.434 115.37 363.189 115.264C362.945 115.159 362.754 115.01 362.615 114.819C362.479 114.627 362.407 114.411 362.401 114.168H363.289C363.295 114.268 363.33 114.358 363.395 114.438C363.459 114.518 363.546 114.581 363.655 114.625C363.765 114.67 363.886 114.693 364.019 114.693C364.157 114.693 364.282 114.668 364.394 114.62C364.507 114.569 364.594 114.5 364.654 114.415C364.715 114.327 364.744 114.227 364.742 114.116C364.744 114 364.713 113.898 364.648 113.808C364.584 113.718 364.49 113.649 364.367 113.6C364.246 113.549 364.104 113.524 363.939 113.524H363.544V112.874H363.939C364.078 112.874 364.202 112.85 364.312 112.803C364.421 112.754 364.505 112.687 364.563 112.601C364.622 112.515 364.65 112.417 364.648 112.308C364.65 112.201 364.626 112.106 364.575 112.024C364.524 111.94 364.451 111.875 364.355 111.831C364.26 111.786 364.15 111.763 364.027 111.763C363.902 111.763 363.788 111.786 363.685 111.831C363.581 111.874 363.497 111.936 363.433 112.018C363.37 112.098 363.336 112.192 363.33 112.299H362.486C362.494 112.059 362.565 111.845 362.7 111.658C362.835 111.47 363.018 111.325 363.248 111.221C363.48 111.116 363.74 111.063 364.027 111.063C364.318 111.063 364.575 111.115 364.798 111.218C365.021 111.322 365.193 111.464 365.316 111.646C365.439 111.828 365.499 112.031 365.495 112.255C365.499 112.41 365.467 112.55 365.398 112.677C365.332 112.804 365.237 112.909 365.114 112.991C364.993 113.071 364.853 113.125 364.692 113.155V113.187C364.899 113.212 365.075 113.27 365.22 113.36C365.366 113.448 365.477 113.561 365.551 113.7C365.625 113.838 365.66 113.997 365.656 114.174C365.66 114.411 365.592 114.625 365.451 114.816C365.311 115.005 365.115 115.154 364.865 115.261C364.615 115.369 364.333 115.422 364.019 115.422Z" fill="#0C2557"/>
<rect x="348.189" y="139.433" width="31.8431" height="11.3867" rx="2" fill="#C2D1C4"/>
<path d="M364.089 147.685C363.774 147.683 363.489 147.613 363.233 147.477C362.978 147.34 362.771 147.116 362.612 146.806C362.454 146.495 362.375 146.094 362.375 145.602C362.375 145.131 362.446 144.725 362.589 144.383C362.733 144.039 362.937 143.777 363.198 143.598C363.462 143.416 363.77 143.325 364.121 143.325C364.4 143.325 364.649 143.379 364.868 143.486C365.089 143.594 365.267 143.741 365.401 143.929C365.536 144.116 365.618 144.327 365.647 144.562H364.777C364.754 144.462 364.712 144.376 364.651 144.304C364.593 144.229 364.519 144.174 364.429 144.137C364.339 144.1 364.236 144.081 364.121 144.081C363.932 144.081 363.771 144.136 363.641 144.245C363.512 144.353 363.413 144.507 363.345 144.708C363.276 144.909 363.241 145.15 363.239 145.432H363.274C363.341 145.307 363.429 145.2 363.538 145.112C363.649 145.022 363.775 144.954 363.916 144.907C364.059 144.858 364.207 144.834 364.361 144.834C364.613 144.834 364.841 144.893 365.044 145.01C365.247 145.127 365.405 145.29 365.519 145.499C365.634 145.706 365.691 145.941 365.691 146.205C365.691 146.49 365.624 146.745 365.489 146.97C365.356 147.194 365.168 147.37 364.924 147.497C364.682 147.622 364.403 147.685 364.089 147.685ZM364.083 146.99C364.226 146.99 364.354 146.957 364.467 146.891C364.582 146.822 364.672 146.73 364.736 146.615C364.803 146.498 364.836 146.37 364.836 146.231C364.836 146.089 364.804 145.96 364.739 145.845C364.675 145.729 364.586 145.64 364.473 145.575C364.359 145.511 364.231 145.479 364.089 145.479C363.948 145.479 363.82 145.512 363.705 145.578C363.59 145.645 363.499 145.735 363.433 145.851C363.366 145.966 363.331 146.094 363.327 146.234C363.329 146.369 363.362 146.494 363.427 146.609C363.493 146.725 363.583 146.817 363.696 146.888C363.812 146.956 363.94 146.99 364.083 146.99Z" fill="#0C2557"/>
<rect x="348.189" y="170.746" width="31.8431" height="11.3867" rx="2" fill="#C2D1C4"/>
<path d="M363.995 174.639C364.31 174.639 364.595 174.707 364.851 174.844C365.106 174.979 365.312 175.201 365.469 175.512C365.627 175.821 365.706 176.219 365.706 176.707C365.708 177.182 365.638 177.591 365.495 177.935C365.353 178.279 365.149 178.542 364.886 178.726C364.624 178.907 364.315 178.998 363.96 178.998C363.683 178.998 363.434 178.944 363.213 178.834C362.992 178.725 362.814 178.576 362.68 178.389C362.545 178.199 362.463 177.986 362.434 177.747H363.301C363.326 177.851 363.368 177.94 363.427 178.014C363.487 178.088 363.562 178.145 363.652 178.184C363.744 178.223 363.847 178.242 363.96 178.242C364.149 178.242 364.311 178.188 364.443 178.078C364.576 177.969 364.676 177.813 364.742 177.61C364.811 177.405 364.845 177.16 364.845 176.877H364.807C364.74 176.998 364.652 177.104 364.543 177.194C364.434 177.283 364.308 177.353 364.165 177.402C364.024 177.448 363.876 177.472 363.72 177.472C363.47 177.472 363.243 177.413 363.04 177.296C362.839 177.179 362.681 177.017 362.565 176.81C362.45 176.601 362.392 176.367 362.39 176.11C362.39 175.826 362.456 175.573 362.589 175.351C362.724 175.126 362.913 174.951 363.157 174.826C363.401 174.699 363.681 174.637 363.995 174.639ZM363.998 175.33C363.857 175.33 363.729 175.365 363.614 175.433C363.499 175.499 363.409 175.59 363.345 175.705C363.28 175.819 363.248 175.945 363.248 176.083C363.25 176.222 363.283 176.348 363.348 176.461C363.412 176.574 363.5 176.664 363.611 176.731C363.725 176.797 363.851 176.83 363.989 176.83C364.132 176.83 364.261 176.796 364.376 176.728C364.493 176.659 364.586 176.568 364.654 176.452C364.723 176.335 364.756 176.21 364.754 176.077C364.754 175.943 364.721 175.819 364.654 175.705C364.588 175.59 364.498 175.499 364.385 175.433C364.271 175.365 364.143 175.33 363.998 175.33Z" fill="#0C2557"/>
<rect x="312.102" y="46.4414" width="19.1059" height="17.0801" rx="2" fill="#D3CDB6"/>
<path d="M321.632 57.54C321.317 57.5381 321.032 57.4688 320.776 57.332C320.521 57.1953 320.313 56.9717 320.155 56.6611C319.997 56.3506 319.918 55.9492 319.918 55.457C319.918 54.9863 319.989 54.5801 320.132 54.2383C320.276 53.8945 320.479 53.6328 320.741 53.4531C321.005 53.2715 321.312 53.1807 321.664 53.1807C321.943 53.1807 322.192 53.2344 322.411 53.3418C322.632 53.4492 322.81 53.5967 322.944 53.7842C323.079 53.9717 323.161 54.1826 323.19 54.417H322.32C322.297 54.3174 322.255 54.2314 322.194 54.1592C322.136 54.085 322.062 54.0293 321.972 53.9922C321.882 53.9551 321.779 53.9365 321.664 53.9365C321.475 53.9365 321.314 53.9912 321.184 54.1006C321.055 54.208 320.956 54.3623 320.888 54.5635C320.819 54.7646 320.784 55.0059 320.782 55.2871H320.817C320.884 55.1621 320.972 55.0557 321.081 54.9678C321.192 54.8779 321.318 54.8096 321.459 54.7627C321.602 54.7139 321.75 54.6895 321.904 54.6895C322.156 54.6895 322.384 54.748 322.587 54.8652C322.79 54.9824 322.948 55.1455 323.062 55.3545C323.177 55.5615 323.234 55.7969 323.234 56.0605C323.234 56.3457 323.167 56.6006 323.032 56.8252C322.899 57.0498 322.711 57.2256 322.467 57.3525C322.225 57.4775 321.946 57.54 321.632 57.54ZM321.626 56.8457C321.769 56.8457 321.896 56.8125 322.01 56.7461C322.125 56.6777 322.215 56.5859 322.279 56.4707C322.346 56.3535 322.379 56.2256 322.379 56.0869C322.379 55.9443 322.347 55.8154 322.282 55.7002C322.218 55.585 322.129 55.4951 322.016 55.4307C321.902 55.3662 321.774 55.334 321.632 55.334C321.491 55.334 321.363 55.3672 321.248 55.4336C321.133 55.5 321.042 55.5908 320.976 55.7061C320.909 55.8213 320.874 55.9492 320.87 56.0898C320.872 56.2246 320.905 56.3496 320.97 56.4648C321.036 56.5801 321.126 56.6729 321.239 56.7432C321.354 56.8115 321.483 56.8457 321.626 56.8457Z" fill="#0C2557"/>
<rect x="335.453" y="46.4414" width="19.1059" height="17.0801" rx="2" fill="#D3CDB6"/>
<path d="M345.291 53.9893V53.9629H343.211V53.2393H346.205V53.9746L344.415 57.4814H343.507L345.291 53.9893Z" fill="#0C2557"/>
<rect x="5.34766" y="96.7327" width="33.966" height="11.3867" rx="2" fill="#D7D0B8"/>
<path d="M22.9893 104.926H22.1045V101.522H22.0811L21.1113 102.137V101.352L22.1602 100.684H22.9893V104.926Z" fill="#0C2557"/>
<rect x="24.4512" y="113.813" width="12.7372" height="43.6491" rx="2" fill="#D7D0B8"/>
<path d="M29.1484 137.501L30.6748 136.098C30.8252 135.954 30.9424 135.834 31.0264 135.741C31.1104 135.645 31.1738 135.549 31.2168 135.454C31.2617 135.356 31.2842 135.252 31.2842 135.143C31.2842 135.022 31.2549 134.916 31.1963 134.824C31.1377 134.73 31.0576 134.659 30.9561 134.61C30.8545 134.561 30.7393 134.537 30.6104 134.537C30.4795 134.537 30.3633 134.563 30.2617 134.616C30.1621 134.668 30.085 134.746 30.0303 134.847C29.9775 134.947 29.9512 135.063 29.9512 135.196H29.1133C29.1133 134.924 29.1758 134.686 29.3008 134.481C29.4277 134.274 29.6045 134.115 29.8311 134.003C30.0596 133.892 30.3223 133.836 30.6191 133.836C30.918 133.836 31.1816 133.889 31.4102 133.995C31.6387 134.1 31.8154 134.248 31.9404 134.437C32.0674 134.626 32.1309 134.843 32.1309 135.087C32.1309 135.253 32.0986 135.414 32.0342 135.568C31.9717 135.722 31.8604 135.893 31.7002 136.081C31.542 136.268 31.3164 136.495 31.0234 136.76L30.376 137.384V137.414H32.1924V138.137H29.1514L29.1484 137.501Z" fill="#0C2557"/>
<rect x="8.53125" y="206.804" width="12.7372" height="28.4668" rx="2" fill="#D7B0C2"/>
<path d="M13.2285 222.902L14.7549 221.499C14.9053 221.354 15.0225 221.235 15.1064 221.141C15.1904 221.045 15.2539 220.95 15.2969 220.854C15.3418 220.756 15.3643 220.653 15.3643 220.543C15.3643 220.422 15.335 220.316 15.2764 220.224C15.2178 220.13 15.1377 220.059 15.0361 220.01C14.9346 219.961 14.8193 219.937 14.6904 219.937C14.5596 219.937 14.4434 219.963 14.3418 220.016C14.2422 220.069 14.165 220.146 14.1104 220.248C14.0576 220.347 14.0312 220.463 14.0312 220.596H13.1934C13.1934 220.325 13.2559 220.086 13.3809 219.881C13.5078 219.674 13.6846 219.515 13.9111 219.404C14.1396 219.292 14.4023 219.237 14.6992 219.237C14.998 219.237 15.2617 219.29 15.4902 219.395C15.7188 219.5 15.8955 219.648 16.0205 219.837C16.1475 220.027 16.2109 220.244 16.2109 220.488C16.2109 220.654 16.1787 220.814 16.1143 220.968C16.0518 221.123 15.9404 221.293 15.7803 221.481C15.6221 221.668 15.3965 221.895 15.1035 222.161L14.4561 222.785V222.814H16.2725V223.538H13.2314L13.2285 222.902Z" fill="#0C2557"/>
<rect x="8.53125" y="239.066" width="12.7372" height="28.4668" rx="2" fill="#D7B0C2"/>
<path d="M14.8076 255.858C14.499 255.858 14.2227 255.806 13.9785 255.7C13.7344 255.595 13.543 255.446 13.4043 255.255C13.2676 255.063 13.1963 254.847 13.1904 254.604H14.0781C14.084 254.704 14.1191 254.794 14.1836 254.874C14.248 254.954 14.335 255.017 14.4443 255.062C14.5537 255.106 14.6748 255.129 14.8076 255.129C14.9463 255.129 15.0713 255.104 15.1826 255.056C15.2959 255.005 15.3828 254.937 15.4434 254.851C15.5039 254.763 15.5332 254.663 15.5312 254.552C15.5332 254.437 15.502 254.334 15.4375 254.244C15.373 254.154 15.2793 254.085 15.1562 254.036C15.0352 253.985 14.8926 253.96 14.7285 253.96H14.333V253.31H14.7285C14.8672 253.31 14.9912 253.286 15.1006 253.239C15.21 253.19 15.2939 253.123 15.3525 253.037C15.4111 252.951 15.4395 252.854 15.4375 252.744C15.4395 252.637 15.415 252.542 15.3643 252.46C15.3135 252.376 15.2402 252.312 15.1445 252.267C15.0488 252.222 14.9395 252.199 14.8164 252.199C14.6914 252.199 14.5771 252.222 14.4736 252.267C14.3701 252.31 14.2861 252.372 14.2217 252.454C14.1592 252.534 14.125 252.628 14.1191 252.735H13.2754C13.2832 252.495 13.3545 252.281 13.4893 252.094C13.624 251.906 13.8066 251.761 14.0371 251.657C14.2695 251.552 14.5293 251.499 14.8164 251.499C15.1074 251.499 15.3643 251.551 15.5869 251.654C15.8096 251.758 15.9824 251.9 16.1055 252.082C16.2285 252.264 16.2881 252.467 16.2842 252.691C16.2881 252.846 16.2559 252.986 16.1875 253.113C16.1211 253.24 16.0264 253.345 15.9033 253.427C15.7822 253.507 15.6416 253.562 15.4814 253.591V253.623C15.6885 253.648 15.8643 253.706 16.0088 253.796C16.1553 253.884 16.2656 253.997 16.3398 254.136C16.4141 254.274 16.4492 254.433 16.4453 254.61C16.4492 254.847 16.3809 255.061 16.2402 255.252C16.0996 255.441 15.9043 255.59 15.6543 255.697C15.4043 255.805 15.1221 255.858 14.8076 255.858Z" fill="#0C2557"/>
<rect width="11.7627" height="30.977" rx="2" transform="matrix(0.559726 -0.828678 0.879978 0.475015 19.1445 279.178)" fill="#D7B0C2"/>
<path d="M36.0211 283.601L34.5652 280.787L34.8997 280.292L35.7505 280.751L35.5504 281.048L36.4783 282.841L36.5093 282.857L37.9343 280.748L38.5582 281.084L36.6347 283.932L36.0211 283.601ZM37.5993 282.124L37.3351 281.968L34.721 280.557L35.185 279.87L38.9181 281.885L38.4474 282.582L37.5993 282.124Z" fill="#0C2557"/>
<rect width="12.4495" height="29.2516" rx="2" transform="matrix(0.902162 0.431398 -0.513448 0.858121 24.6113 172.644)" fill="#D7B0C2"/>
<path d="M22.0293 190.31L21.2311 189.928L22.9791 187.007L22.9579 186.997L21.7672 187.106L22.1703 186.432L23.4595 186.312L24.2075 186.669L22.0293 190.31Z" fill="#0C2557"/>
<rect x="58.418" y="284.613" width="31.8431" height="11.3867" rx="2" fill="#DDB5C5"/>
<path d="M74.2324 292.865C73.9434 292.865 73.6816 292.812 73.4473 292.704C73.2129 292.597 73.0283 292.447 72.8936 292.256C72.7607 292.064 72.6914 291.85 72.6855 291.611H73.5381C73.5479 291.721 73.584 291.817 73.6465 291.901C73.7109 291.985 73.7939 292.052 73.8955 292.101C73.999 292.147 74.1113 292.171 74.2324 292.171C74.377 292.171 74.5059 292.139 74.6191 292.074C74.7344 292.01 74.8242 291.921 74.8887 291.808C74.9531 291.692 74.9854 291.562 74.9854 291.418C74.9854 291.268 74.9521 291.136 74.8857 291.022C74.8213 290.907 74.7305 290.817 74.6133 290.753C74.498 290.687 74.3662 290.653 74.2178 290.653C74.0596 290.651 73.9258 290.68 73.8164 290.738C73.707 290.797 73.6201 290.887 73.5557 291.008H72.7559L72.9873 288.564H75.5977V289.288H73.7139L73.5967 290.357H73.6289C73.7109 290.25 73.8281 290.163 73.9805 290.097C74.1328 290.03 74.2998 289.997 74.4814 289.997C74.7373 289.997 74.9688 290.057 75.1758 290.176C75.3848 290.293 75.5469 290.458 75.6621 290.671C75.7793 290.884 75.8369 291.125 75.835 291.395C75.8369 291.676 75.7695 291.929 75.6328 292.153C75.498 292.376 75.3096 292.551 75.0674 292.678C74.8252 292.803 74.5469 292.865 74.2324 292.865Z" fill="#0C2557"/>
<rect x="166.684" y="284.613" width="31.8431" height="11.3867" rx="2" fill="#DDB5C5"/>
<path d="M182.533 292.865C182.217 292.865 181.932 292.813 181.678 292.71C181.426 292.606 181.229 292.463 181.086 292.279C180.943 292.096 180.872 291.891 180.872 291.664C180.872 291.49 180.913 291.328 180.995 291.178C181.077 291.025 181.188 290.9 181.329 290.803C181.472 290.705 181.63 290.644 181.804 290.618V290.586C181.655 290.557 181.522 290.498 181.405 290.41C181.288 290.32 181.196 290.209 181.13 290.076C181.063 289.943 181.03 289.801 181.03 289.648C181.03 289.432 181.096 289.236 181.227 289.062C181.357 288.887 181.537 288.75 181.766 288.652C181.994 288.555 182.25 288.506 182.533 288.506C182.818 288.506 183.075 288.555 183.304 288.652C183.534 288.75 183.714 288.887 183.843 289.062C183.974 289.236 184.039 289.432 184.039 289.648C184.039 289.801 184.005 289.943 183.937 290.076C183.87 290.209 183.778 290.32 183.661 290.41C183.546 290.498 183.413 290.557 183.263 290.586V290.618C183.437 290.644 183.594 290.705 183.734 290.803C183.877 290.9 183.99 291.025 184.074 291.178C184.158 291.328 184.2 291.49 184.2 291.664C184.2 291.891 184.128 292.096 183.983 292.279C183.841 292.463 183.643 292.606 183.389 292.71C183.137 292.813 182.852 292.865 182.533 292.865ZM182.533 292.194C182.68 292.194 182.81 292.168 182.923 292.115C183.036 292.062 183.124 291.989 183.187 291.896C183.249 291.802 183.28 291.696 183.28 291.579C183.28 291.456 183.248 291.346 183.184 291.248C183.119 291.15 183.03 291.074 182.917 291.02C182.804 290.965 182.676 290.938 182.533 290.938C182.393 290.938 182.266 290.965 182.152 291.02C182.039 291.074 181.95 291.15 181.886 291.248C181.821 291.346 181.79 291.456 181.792 291.579C181.79 291.696 181.82 291.802 181.883 291.896C181.945 291.989 182.033 292.062 182.146 292.115C182.26 292.168 182.389 292.194 182.533 292.194ZM182.533 290.313C182.656 290.313 182.767 290.289 182.864 290.24C182.964 290.189 183.041 290.121 183.096 290.035C183.15 289.947 183.178 289.849 183.178 289.739C183.178 289.628 183.15 289.529 183.096 289.443C183.043 289.357 182.967 289.291 182.867 289.244C182.77 289.195 182.658 289.171 182.533 289.171C182.41 289.171 182.299 289.195 182.199 289.244C182.102 289.291 182.025 289.357 181.971 289.443C181.918 289.529 181.892 289.628 181.892 289.739C181.892 289.849 181.919 289.947 181.974 290.035C182.03 290.121 182.107 290.189 182.205 290.24C182.303 290.289 182.412 290.313 182.533 290.313Z" fill="#0C2557"/>
<rect x="94.5078" y="284.613" width="31.8431" height="11.3867" rx="2" fill="#DDB5C5"/>
<path d="M110.407 292.865C110.093 292.863 109.808 292.794 109.552 292.657C109.296 292.521 109.089 292.297 108.931 291.986C108.772 291.676 108.693 291.274 108.693 290.782C108.693 290.312 108.765 289.905 108.907 289.563C109.052 289.22 109.255 288.958 109.517 288.778C109.78 288.597 110.088 288.506 110.439 288.506C110.719 288.506 110.968 288.56 111.187 288.667C111.407 288.774 111.585 288.922 111.72 289.109C111.854 289.297 111.937 289.508 111.966 289.742H111.096C111.072 289.643 111.03 289.557 110.97 289.484C110.911 289.41 110.837 289.354 110.747 289.317C110.657 289.28 110.555 289.262 110.439 289.262C110.25 289.262 110.09 289.316 109.959 289.426C109.83 289.533 109.731 289.688 109.663 289.889C109.595 290.09 109.56 290.331 109.558 290.612H109.593C109.659 290.487 109.747 290.381 109.856 290.293C109.968 290.203 110.094 290.135 110.234 290.088C110.377 290.039 110.525 290.015 110.68 290.015C110.932 290.015 111.159 290.073 111.362 290.19C111.565 290.308 111.724 290.471 111.837 290.68C111.952 290.887 112.01 291.122 112.01 291.386C112.01 291.671 111.942 291.926 111.808 292.15C111.675 292.375 111.486 292.551 111.242 292.678C111 292.803 110.722 292.865 110.407 292.865ZM110.401 292.171C110.544 292.171 110.672 292.138 110.785 292.071C110.9 292.003 110.99 291.911 111.055 291.796C111.121 291.679 111.154 291.551 111.154 291.412C111.154 291.27 111.122 291.141 111.058 291.025C110.993 290.91 110.904 290.82 110.791 290.756C110.678 290.691 110.55 290.659 110.407 290.659C110.267 290.659 110.139 290.692 110.023 290.759C109.908 290.825 109.817 290.916 109.751 291.031C109.685 291.146 109.649 291.274 109.646 291.415C109.647 291.55 109.681 291.675 109.745 291.79C109.812 291.905 109.901 291.998 110.015 292.068C110.13 292.137 110.259 292.171 110.401 292.171Z" fill="#0C2557"/>
<rect x="203.836" y="284.613" width="36.0888" height="11.3867" rx="2" fill="#F2E7C9"/>
<path d="M221.788 292.865C221.479 292.865 221.203 292.812 220.959 292.707C220.715 292.602 220.523 292.453 220.385 292.262C220.248 292.07 220.177 291.854 220.171 291.611H221.059C221.064 291.711 221.1 291.801 221.164 291.881C221.229 291.961 221.315 292.023 221.425 292.068C221.534 292.113 221.655 292.136 221.788 292.136C221.927 292.136 222.052 292.111 222.163 292.062C222.276 292.012 222.363 291.943 222.424 291.857C222.484 291.77 222.514 291.67 222.512 291.559C222.514 291.443 222.482 291.341 222.418 291.251C222.354 291.161 222.26 291.092 222.137 291.043C222.016 290.992 221.873 290.967 221.709 290.967H221.313V290.316H221.709C221.848 290.316 221.972 290.293 222.081 290.246C222.19 290.197 222.274 290.13 222.333 290.044C222.392 289.958 222.42 289.86 222.418 289.751C222.42 289.644 222.396 289.549 222.345 289.467C222.294 289.383 222.221 289.318 222.125 289.273C222.029 289.229 221.92 289.206 221.797 289.206C221.672 289.206 221.558 289.229 221.454 289.273C221.351 289.316 221.267 289.379 221.202 289.461C221.14 289.541 221.105 289.635 221.1 289.742H220.256C220.264 289.502 220.335 289.288 220.47 289.101C220.604 288.913 220.787 288.768 221.018 288.664C221.25 288.559 221.51 288.506 221.797 288.506C222.088 288.506 222.345 288.558 222.567 288.661C222.79 288.765 222.963 288.907 223.086 289.089C223.209 289.271 223.269 289.474 223.265 289.698C223.269 289.853 223.236 289.993 223.168 290.12C223.102 290.247 223.007 290.352 222.884 290.434C222.763 290.514 222.622 290.568 222.462 290.598V290.63C222.669 290.655 222.845 290.713 222.989 290.803C223.136 290.891 223.246 291.004 223.32 291.143C223.395 291.281 223.43 291.439 223.426 291.617C223.43 291.854 223.361 292.067 223.221 292.259C223.08 292.448 222.885 292.597 222.635 292.704C222.385 292.812 222.103 292.865 221.788 292.865Z" fill="#0C2557"/>
<rect x="130.598" y="284.613" width="31.8431" height="11.3867" rx="2" fill="#DDB5C5"/>
<path d="M146.805 289.314V289.288H144.725V288.564H147.719V289.3L145.929 292.807H145.021L146.805 289.314Z" fill="#0C2557"/>
<rect x="244.17" y="284.613" width="33.966" height="11.3867" rx="2" fill="#F2E7C9"/>
<path d="M259.416 291.359L261.209 288.564H261.807V289.531H261.449L260.307 291.312V291.348H262.853V292.057H259.416V291.359ZM261.476 291.843L261.487 291.535V288.564H262.316V292.807H261.476V291.843Z" fill="#0C2557"/>
<rect x="282.381" y="284.613" width="33.966" height="11.3867" rx="2" fill="#F2E7C9"/>
<path d="M299.256 292.865C298.967 292.865 298.705 292.812 298.471 292.704C298.236 292.597 298.052 292.447 297.917 292.256C297.784 292.064 297.715 291.85 297.709 291.611H298.562C298.571 291.721 298.607 291.817 298.67 291.901C298.734 291.985 298.817 292.052 298.919 292.101C299.022 292.147 299.135 292.171 299.256 292.171C299.4 292.171 299.529 292.139 299.643 292.074C299.758 292.01 299.848 291.921 299.912 291.808C299.977 291.692 300.009 291.562 300.009 291.418C300.009 291.268 299.976 291.136 299.909 291.022C299.845 290.907 299.754 290.817 299.637 290.753C299.521 290.687 299.39 290.653 299.241 290.653C299.083 290.651 298.949 290.68 298.84 290.738C298.73 290.797 298.644 290.887 298.579 291.008H297.779L298.011 288.564H300.621V289.288H298.737L298.62 290.357H298.652C298.734 290.25 298.852 290.163 299.004 290.097C299.156 290.03 299.323 289.997 299.505 289.997C299.761 289.997 299.992 290.057 300.199 290.176C300.408 290.293 300.57 290.458 300.686 290.671C300.803 290.884 300.86 291.125 300.858 291.395C300.86 291.676 300.793 291.929 300.656 292.153C300.521 292.376 300.333 292.551 300.091 292.678C299.849 292.803 299.57 292.865 299.256 292.865Z" fill="#0C2557"/>
<rect x="159.254" y="149.871" width="104.021" height="22.7734" rx="5" fill="#DCD5BC"/>
<path d="M187.717 161.78H186.976V160.81H187.717V161.78ZM187.6 159.202C187.6 159.528 187.513 159.826 187.339 160.095C187.167 160.365 186.918 160.59 186.592 160.772C186.268 160.952 185.884 161.075 185.44 161.141L185.171 160.555C185.554 160.508 185.88 160.417 186.149 160.28C186.421 160.143 186.624 159.981 186.759 159.793C186.896 159.604 186.964 159.407 186.964 159.202V159.023H187.6V159.202ZM187.726 159.202C187.726 159.415 187.793 159.615 187.928 159.802C188.064 159.988 188.269 160.148 188.54 160.283C188.812 160.417 189.141 160.508 189.527 160.555L189.237 161.141C188.792 161.075 188.407 160.953 188.083 160.775C187.761 160.595 187.514 160.372 187.342 160.104C187.172 159.834 187.087 159.534 187.087 159.202V159.023H187.726V159.202ZM189.205 164.238H185.487V162.445H189.205V164.238ZM186.223 163.637H188.473V163.028H186.223V163.637ZM189.788 162.049H184.925V161.466H189.788V162.049ZM192.267 162.87H191.514V161.692H192.267V162.87ZM194.625 162.999H193.875V158.97H194.625V162.999ZM194.742 164.206H190.764V163.602H194.742V164.206ZM191.517 163.763H190.764V162.612H191.517V163.763ZM190.087 161.334C190.817 161.325 191.447 161.311 191.977 161.293C192.508 161.274 193.021 161.233 193.515 161.17L193.553 161.707C193.035 161.794 192.493 161.853 191.927 161.882C191.362 161.912 190.778 161.925 190.175 161.923L190.087 161.334ZM194.045 162.574H192.855V162.064H194.045V162.574ZM191.821 159.149C192.077 159.147 192.306 159.187 192.507 159.269C192.71 159.349 192.868 159.462 192.981 159.609C193.097 159.753 193.154 159.918 193.154 160.104C193.154 160.293 193.097 160.458 192.981 160.599C192.868 160.74 192.711 160.85 192.51 160.93C192.309 161.008 192.079 161.047 191.821 161.047C191.562 161.047 191.33 161.008 191.127 160.93C190.924 160.85 190.766 160.74 190.652 160.599C190.539 160.458 190.482 160.293 190.482 160.104C190.482 159.918 190.539 159.752 190.652 159.606C190.766 159.459 190.924 159.346 191.127 159.266C191.33 159.186 191.562 159.147 191.821 159.149ZM191.821 159.697C191.696 159.695 191.586 159.71 191.49 159.744C191.395 159.775 191.32 159.822 191.268 159.884C191.217 159.947 191.191 160.02 191.191 160.104C191.191 160.188 191.217 160.261 191.268 160.324C191.32 160.384 191.395 160.43 191.49 160.461C191.586 160.493 191.696 160.508 191.821 160.508C191.944 160.508 192.052 160.493 192.144 160.461C192.237 160.43 192.311 160.384 192.363 160.324C192.416 160.261 192.442 160.188 192.442 160.104C192.442 160.02 192.416 159.947 192.363 159.884C192.311 159.822 192.237 159.775 192.144 159.744C192.052 159.71 191.944 159.695 191.821 159.697ZM197.725 159.041C198.135 159.041 198.484 159.076 198.773 159.146C199.062 159.214 199.282 159.317 199.433 159.454C199.585 159.588 199.661 159.752 199.661 159.946C199.661 160.141 199.585 160.308 199.433 160.447C199.282 160.583 199.062 160.687 198.773 160.757C198.484 160.828 198.135 160.863 197.725 160.863C197.314 160.863 196.964 160.828 196.673 160.757C196.384 160.687 196.162 160.583 196.008 160.447C195.855 160.308 195.779 160.141 195.779 159.946C195.779 159.752 195.855 159.588 196.008 159.454C196.162 159.317 196.384 159.214 196.673 159.146C196.964 159.076 197.314 159.041 197.725 159.041ZM197.725 159.585C197.465 159.585 197.249 159.599 197.077 159.626C196.905 159.652 196.776 159.692 196.69 159.747C196.606 159.801 196.564 159.868 196.564 159.946C196.564 160.034 196.605 160.105 196.688 160.16C196.771 160.212 196.897 160.251 197.065 160.277C197.233 160.302 197.453 160.315 197.725 160.315C198 160.315 198.222 160.302 198.39 160.277C198.558 160.251 198.683 160.212 198.765 160.16C198.849 160.105 198.891 160.034 198.891 159.946C198.891 159.868 198.848 159.802 198.762 159.75C198.678 159.695 198.55 159.654 198.378 159.626C198.206 159.599 197.988 159.585 197.725 159.585ZM200.159 161.709H195.296V161.118H200.159V161.709ZM199.564 163.376H196.594V163.857H195.858V162.855H198.826V162.562H195.855V162.014H199.564V163.376ZM199.705 164.258H195.858V163.699H199.705V164.258ZM206.098 161.627H205.351V158.958H206.098V161.627ZM206.818 160.611H205.787V159.996H206.818V160.611ZM204.586 161.428H202.025V159.213H204.586V161.428ZM202.767 160.839H203.851V159.802H202.767V160.839ZM206.098 163.294H203.306V163.942H202.57V162.752H205.354V162.416H202.562V161.841H206.098V163.294ZM206.253 164.238H202.57V163.649H206.253V164.238ZM209.625 160.371H207.044V159.776H209.625V160.371ZM208.345 160.611C208.571 160.611 208.773 160.665 208.951 160.772C209.129 160.879 209.268 161.029 209.367 161.22C209.467 161.412 209.517 161.63 209.517 161.876C209.517 162.123 209.467 162.342 209.367 162.536C209.268 162.727 209.129 162.877 208.951 162.987C208.773 163.096 208.571 163.151 208.345 163.151C208.12 163.151 207.919 163.096 207.741 162.987C207.563 162.877 207.424 162.726 207.322 162.533C207.223 162.339 207.173 162.121 207.173 161.876C207.173 161.634 207.223 161.417 207.322 161.223C207.424 161.03 207.563 160.879 207.741 160.772C207.919 160.665 208.12 160.611 208.345 160.611ZM208.345 161.232C208.245 161.23 208.155 161.255 208.075 161.308C207.997 161.359 207.937 161.433 207.894 161.531C207.853 161.628 207.832 161.744 207.832 161.876C207.832 162.007 207.854 162.122 207.896 162.219C207.939 162.315 208 162.388 208.078 162.439C208.156 162.49 208.245 162.515 208.345 162.515C208.446 162.515 208.535 162.49 208.611 162.439C208.689 162.388 208.751 162.315 208.796 162.219C208.841 162.122 208.863 162.007 208.863 161.876C208.863 161.744 208.841 161.628 208.796 161.531C208.751 161.433 208.689 161.359 208.611 161.308C208.535 161.255 208.446 161.23 208.345 161.232ZM211.664 164.296H210.952V158.958H211.664V164.296ZM211.189 161.73H210.293V161.135H211.189V161.73ZM210.521 164.068H209.821V159.07H210.521V164.068ZM208.711 160.151H207.976V159.111H208.711V160.151ZM213.234 160.054H214.459V159.386H215.209V161.841H212.502V159.386H213.234V160.054ZM214.459 161.252V160.62H213.234V161.252H214.459ZM214.233 162.834H213.483V161.674H214.233V162.834ZM216.475 164.296H215.728V158.958H216.475V164.296ZM217.198 161.718H216.246V161.094H217.198V161.718ZM212.552 162.688C213.188 162.682 213.728 162.67 214.169 162.653C214.61 162.635 215.035 162.599 215.443 162.544L215.49 163.089C215.148 163.148 214.792 163.192 214.421 163.221C214.052 163.25 213.704 163.27 213.378 163.28C213.054 163.288 212.687 163.292 212.276 163.294L212.177 162.688H212.552ZM219.387 159.515H220.008L219.718 161.182H218.88L219.387 159.515ZM225.272 163.705H220.397V163.078H225.272V163.705ZM223.187 163.362H222.445V161.859H223.187V163.362ZM224.865 160.01H220.775V159.413H224.865V160.01ZM224.842 162.117H220.802V161.531H224.842V162.117ZM222.261 161.604H221.514V159.893H222.261V161.604ZM224.115 161.604H223.38V159.893H224.115V161.604ZM229.928 162.202H226.154V161.61H229.928V162.202ZM230.458 163.702H225.583V163.104H230.458V163.702ZM228.39 163.362H227.643V161.903H228.39V163.362ZM229.887 159.931H226.916V161.841H226.154V159.331H229.887V159.931ZM229.761 161.053H226.693V160.467H229.761V161.053ZM232.822 162.067H232.084V161.126H232.822V162.067ZM235.283 162.058H234.533V158.97H235.283V162.058ZM230.769 160.845C231.433 160.847 232.046 160.84 232.608 160.825C233.171 160.809 233.707 160.779 234.217 160.734L234.252 161.197C233.719 161.267 233.166 161.314 232.594 161.337C232.023 161.359 231.44 161.367 230.845 161.361L230.769 160.845ZM235.283 163.464H232.289V163.895H231.551V162.978H234.539V162.723H231.53V162.216H235.283V163.464ZM235.406 164.258H231.551V163.737H235.406V164.258ZM234.773 161.888H233.569V161.437H234.773V161.888ZM232.479 159.043C232.741 159.043 232.974 159.077 233.177 159.143C233.38 159.209 233.538 159.303 233.651 159.424C233.767 159.543 233.824 159.683 233.824 159.843C233.824 160.005 233.768 160.147 233.654 160.268C233.543 160.389 233.386 160.482 233.183 160.546C232.979 160.611 232.745 160.643 232.479 160.643C232.212 160.643 231.977 160.611 231.773 160.546C231.57 160.482 231.412 160.389 231.299 160.268C231.186 160.147 231.129 160.005 231.129 159.843C231.129 159.683 231.186 159.543 231.299 159.424C231.412 159.303 231.57 159.209 231.773 159.143C231.979 159.077 232.214 159.043 232.479 159.043ZM232.479 159.53C232.349 159.53 232.234 159.542 232.137 159.568C232.039 159.591 231.964 159.626 231.911 159.673C231.86 159.72 231.835 159.777 231.835 159.843C231.835 159.908 231.86 159.963 231.911 160.01C231.964 160.055 232.039 160.09 232.137 160.116C232.234 160.139 232.349 160.151 232.479 160.151C232.612 160.151 232.728 160.139 232.825 160.116C232.923 160.09 232.997 160.055 233.048 160.01C233.101 159.963 233.127 159.908 233.127 159.843C233.127 159.777 233.101 159.72 233.048 159.673C232.997 159.626 232.923 159.591 232.825 159.568C232.728 159.542 232.612 159.53 232.479 159.53ZM236.64 161.185H236.019L236.309 159.518H237.146L236.64 161.185Z" fill="#0C2557"/>
<rect x="324.838" y="246.657" width="48.8261" height="43.6491" rx="7" fill="#F1F3F6"/>
<rect y="42" width="17" height="6" rx="1" fill="#D5CFB7"/>
<path d="M21.9688 45.8613H21.4746V45.334H21.9688V45.8613ZM23.3496 45.4492H20.1074V45.0547H23.3496V45.4492ZM22.9531 46.8535H22.457V46.1543H20.4648V45.7578H22.9531V46.8535ZM21.9688 43.8301H21.4746V43.3066H21.9688V43.8301ZM21.8809 43.9355C21.8809 44.1191 21.8236 44.2812 21.709 44.4219C21.5944 44.5612 21.4258 44.6745 21.2031 44.7617C20.9805 44.8477 20.7109 44.903 20.3945 44.9277L20.2422 44.5566C20.5156 44.5358 20.7422 44.4954 20.9219 44.4355C21.1016 44.3743 21.2331 44.3008 21.3164 44.2148C21.401 44.1289 21.4434 44.0358 21.4434 43.9355V43.8594H21.8809V43.9355ZM22.002 43.9355C22.002 44.0358 22.043 44.1289 22.125 44.2148C22.2083 44.3008 22.3405 44.3743 22.5215 44.4355C22.7025 44.4954 22.9297 44.5358 23.2031 44.5566L23.0488 44.9277C22.7324 44.903 22.4629 44.8477 22.2402 44.7617C22.0189 44.6745 21.8509 44.5612 21.7363 44.4219C21.6217 44.2812 21.5645 44.1191 21.5645 43.9355V43.8594H22.002V43.9355ZM23.0352 44.0156H20.418V43.6309H23.0352V44.0156ZM26.6348 46.8594H26.166V43.3008H26.6348V46.8594ZM25.5723 44.9258H24.9727V44.5254H25.5723V44.9258ZM25.9082 46.6973H25.4414V43.3633H25.9082V46.6973ZM24.584 44.2559C24.584 44.5345 24.5553 44.7988 24.498 45.0488C24.4421 45.2975 24.3555 45.5221 24.2383 45.7227C24.1211 45.9219 23.9714 46.0775 23.7891 46.1895L23.4883 45.8223C23.6562 45.7181 23.7936 45.5833 23.9004 45.418C24.0085 45.2513 24.0866 45.0697 24.1348 44.873C24.1829 44.6764 24.207 44.4707 24.207 44.2559V43.8828H24.584V44.2559ZM24.6875 44.2559C24.6875 44.4655 24.7103 44.6647 24.7559 44.8535C24.8027 45.041 24.8789 45.2122 24.9844 45.3672C25.0898 45.5208 25.2253 45.6458 25.3906 45.7422L25.0996 46.1074C24.9186 46.0007 24.7702 45.8529 24.6543 45.6641C24.5384 45.4753 24.4538 45.2617 24.4004 45.0234C24.347 44.7852 24.3203 44.5293 24.3203 44.2559V43.8828H24.6875V44.2559ZM25.2266 44.0645H23.623V43.666H25.2266V44.0645ZM30.2676 45.4316H27.0176V45.0371H30.2676V45.4316ZM28.9238 46.0508H28.418V45.2969H28.9238V46.0508ZM29.9102 46.7988H27.4043V46.3926H29.9102V46.7988ZM27.9062 46.502H27.4043V45.7324H27.9062V46.502ZM28.6406 43.3711C28.8971 43.3711 29.1217 43.4017 29.3145 43.4629C29.5085 43.5241 29.6589 43.61 29.7656 43.7207C29.8724 43.8314 29.9258 43.9616 29.9258 44.1113C29.9258 44.2585 29.8724 44.3874 29.7656 44.498C29.6589 44.6074 29.5085 44.6921 29.3145 44.752C29.1217 44.8118 28.8971 44.8418 28.6406 44.8418C28.3854 44.8418 28.1602 44.8118 27.9648 44.752C27.7695 44.6921 27.6178 44.6074 27.5098 44.498C27.403 44.3874 27.3496 44.2585 27.3496 44.1113C27.3496 43.9616 27.403 43.8314 27.5098 43.7207C27.6178 43.61 27.7695 43.5241 27.9648 43.4629C28.1602 43.4017 28.3854 43.3711 28.6406 43.3711ZM28.6406 43.7656C28.487 43.7656 28.3535 43.7786 28.2402 43.8047C28.1283 43.8307 28.0417 43.8698 27.9805 43.9219C27.9206 43.9727 27.8906 44.0358 27.8906 44.1113C27.8906 44.1816 27.9206 44.2415 27.9805 44.291C28.0417 44.3405 28.1283 44.3783 28.2402 44.4043C28.3535 44.4303 28.487 44.4434 28.6406 44.4434C28.7956 44.4434 28.929 44.4303 29.041 44.4043C29.153 44.3783 29.2389 44.3405 29.2988 44.291C29.3587 44.2415 29.3887 44.1816 29.3887 44.1113C29.3887 44.0358 29.3587 43.9727 29.2988 43.9219C29.2389 43.8698 29.153 43.8307 29.041 43.8047C28.929 43.7786 28.7956 43.7656 28.6406 43.7656ZM33.127 44.168H32.0684V43.7734H33.127V44.168ZM33.127 44.9609H32.0684V44.5645H33.127V44.9609ZM31.4688 43.4941C31.6445 43.4941 31.804 43.5312 31.9473 43.6055C32.0905 43.6797 32.2031 43.7832 32.2852 43.916C32.3685 44.0488 32.4102 44.1986 32.4102 44.3652C32.4102 44.5306 32.3685 44.6797 32.2852 44.8125C32.2031 44.9453 32.0905 45.0488 31.9473 45.123C31.804 45.1973 31.6445 45.2344 31.4688 45.2344C31.2904 45.2344 31.1289 45.1973 30.9844 45.123C30.8411 45.0488 30.7279 44.9453 30.6445 44.8125C30.5625 44.6797 30.5215 44.5306 30.5215 44.3652C30.5215 44.1986 30.5625 44.0488 30.6445 43.916C30.7279 43.7832 30.8411 43.6797 30.9844 43.6055C31.1289 43.5312 31.2904 43.4941 31.4688 43.4941ZM31.4688 43.9219C31.3763 43.9206 31.2943 43.9375 31.2227 43.9727C31.151 44.0078 31.0951 44.0592 31.0547 44.127C31.0143 44.1934 30.9941 44.2728 30.9941 44.3652C30.9941 44.4564 31.0143 44.5358 31.0547 44.6035C31.0951 44.6699 31.151 44.722 31.2227 44.7598C31.2943 44.7962 31.3763 44.8145 31.4688 44.8145C31.5599 44.8145 31.64 44.7962 31.709 44.7598C31.7793 44.722 31.834 44.6699 31.873 44.6035C31.9134 44.5358 31.9336 44.4564 31.9336 44.3652C31.9336 44.2728 31.9134 44.1934 31.873 44.127C31.834 44.0592 31.7793 44.0078 31.709 43.9727C31.64 43.9375 31.5599 43.9206 31.4688 43.9219ZM33.4727 45.3867H32.9766V43.3008H33.4727V45.3867ZM32.2578 45.4609C32.5078 45.4609 32.7246 45.4883 32.9082 45.543C33.0931 45.5977 33.235 45.6777 33.334 45.7832C33.4342 45.8874 33.4844 46.013 33.4844 46.1602C33.4844 46.306 33.4342 46.4316 33.334 46.5371C33.235 46.6426 33.0931 46.7227 32.9082 46.7773C32.7246 46.832 32.5078 46.8594 32.2578 46.8594C32.0091 46.8594 31.793 46.832 31.6094 46.7773C31.4258 46.7227 31.2845 46.6426 31.1855 46.5371C31.0866 46.4316 31.0371 46.306 31.0371 46.1602C31.0371 46.013 31.0866 45.8874 31.1855 45.7832C31.2845 45.6777 31.4251 45.5977 31.6074 45.543C31.791 45.4883 32.0078 45.4609 32.2578 45.4609ZM32.2578 45.8398C32.1016 45.8398 31.9681 45.8516 31.8574 45.875C31.748 45.8984 31.6654 45.9342 31.6094 45.9824C31.5534 46.0293 31.5254 46.0885 31.5254 46.1602C31.5254 46.2279 31.5534 46.2852 31.6094 46.332C31.6654 46.3776 31.748 46.4128 31.8574 46.4375C31.9681 46.4609 32.1016 46.4727 32.2578 46.4727C32.4193 46.4727 32.5547 46.4609 32.6641 46.4375C32.7734 46.4128 32.8561 46.3776 32.9121 46.332C32.9681 46.2852 32.9961 46.2279 32.9961 46.1602C32.9961 46.0872 32.9681 46.0273 32.9121 45.9805C32.8561 45.9336 32.7734 45.8984 32.6641 45.875C32.5547 45.8516 32.4193 45.8398 32.2578 45.8398ZM35.0938 43.4512C35.2721 43.4499 35.4329 43.4811 35.5762 43.5449C35.7194 43.6087 35.8307 43.6979 35.9102 43.8125C35.9909 43.9271 36.0312 44.0586 36.0312 44.207C36.0312 44.3529 35.9909 44.4831 35.9102 44.5977C35.8307 44.7122 35.7194 44.8021 35.5762 44.8672C35.4329 44.931 35.2721 44.9629 35.0938 44.9629C34.9141 44.9629 34.7533 44.931 34.6113 44.8672C34.4707 44.8021 34.36 44.7122 34.2793 44.5977C34.1986 44.4831 34.1582 44.3529 34.1582 44.207C34.1582 44.0586 34.1986 43.9271 34.2793 43.8125C34.36 43.6979 34.4707 43.6087 34.6113 43.5449C34.7533 43.4811 34.9141 43.4499 35.0938 43.4512ZM35.0938 43.8516C35.0039 43.8503 34.9251 43.8639 34.8574 43.8926C34.7897 43.9199 34.7363 43.9603 34.6973 44.0137C34.6595 44.0671 34.6406 44.1315 34.6406 44.207C34.6406 44.2799 34.6595 44.3424 34.6973 44.3945C34.7363 44.4466 34.7897 44.487 34.8574 44.5156C34.9264 44.543 35.0052 44.5566 35.0938 44.5566C35.1862 44.5566 35.2669 44.543 35.3359 44.5156C35.4062 44.487 35.4609 44.4466 35.5 44.3945C35.5391 44.3424 35.5586 44.2799 35.5586 44.207C35.5586 44.1315 35.5391 44.0671 35.5 44.0137C35.4609 43.9603 35.4069 43.9199 35.3379 43.8926C35.2689 43.8639 35.1875 43.8503 35.0938 43.8516ZM35.3652 46.7559H34.8652V45.3203H35.3652V46.7559ZM36.9297 46.8574H36.4336V43.3086H36.9297V46.8574ZM33.9414 45.1777C34.3607 45.1777 34.7611 45.1693 35.1426 45.1523C35.5254 45.1354 35.8854 45.1016 36.2227 45.0508L36.2539 45.416C35.9388 45.4785 35.6146 45.5208 35.2812 45.543C34.9492 45.5638 34.5781 45.5768 34.168 45.582C34.1237 45.5846 34.069 45.5859 34.0039 45.5859L33.9414 45.1777ZM38.8301 45.9082H38.3281V45.123H38.8301V45.9082ZM40.4023 45.9941H39.9023V43.3086H40.4023V45.9941ZM40.4805 46.7988H37.8281V46.3965H40.4805V46.7988ZM38.3301 46.5039H37.8281V45.7363H38.3301V46.5039ZM37.377 44.8848C37.8639 44.8783 38.2839 44.8691 38.6367 44.8574C38.9909 44.8444 39.3327 44.8171 39.6621 44.7754L39.6875 45.1328C39.3424 45.1914 38.9811 45.2305 38.6035 45.25C38.2272 45.2695 37.8379 45.2786 37.4355 45.2773L37.377 44.8848ZM40.0156 45.7109H39.2227V45.3711H40.0156V45.7109ZM38.5332 43.4277C38.7038 43.4264 38.8561 43.4531 38.9902 43.5078C39.1257 43.5612 39.2311 43.6367 39.3066 43.7344C39.3835 43.8307 39.4219 43.9408 39.4219 44.0645C39.4219 44.1908 39.3835 44.3008 39.3066 44.3945C39.2311 44.4883 39.1263 44.5618 38.9922 44.6152C38.8581 44.6673 38.7051 44.6934 38.5332 44.6934C38.36 44.6934 38.2057 44.6673 38.0703 44.6152C37.9349 44.5618 37.8294 44.4883 37.7539 44.3945C37.6784 44.3008 37.6406 44.1908 37.6406 44.0645C37.6406 43.9408 37.6784 43.8301 37.7539 43.7324C37.8294 43.6348 37.9349 43.5592 38.0703 43.5059C38.2057 43.4525 38.36 43.4264 38.5332 43.4277ZM38.5332 43.793C38.4499 43.7917 38.3763 43.8021 38.3125 43.8242C38.2487 43.8451 38.1992 43.8763 38.1641 43.918C38.1302 43.9596 38.1133 44.0085 38.1133 44.0645C38.1133 44.1204 38.1302 44.1693 38.1641 44.2109C38.1992 44.2513 38.2487 44.2819 38.3125 44.3027C38.3763 44.3236 38.4499 44.334 38.5332 44.334C38.6152 44.334 38.6868 44.3236 38.748 44.3027C38.8105 44.2819 38.8594 44.2513 38.8945 44.2109C38.9297 44.1693 38.9473 44.1204 38.9473 44.0645C38.9473 44.0085 38.9297 43.9596 38.8945 43.918C38.8594 43.8763 38.8105 43.8451 38.748 43.8242C38.6868 43.8021 38.6152 43.7917 38.5332 43.793ZM42.2637 46.043H41.7676V45.4629H42.2637V46.043ZM43.834 46.8594H43.3398V43.3008H43.834V46.8594ZM41.0703 45.8555C41.4935 45.8529 41.8691 45.8451 42.1973 45.832C42.5267 45.8177 42.8424 45.791 43.1445 45.752L43.1758 46.1211C42.8346 46.181 42.4824 46.2201 42.1191 46.2383C41.7572 46.2552 41.3607 46.2637 40.9297 46.2637L40.8633 45.8555H41.0703ZM43.0938 44.0918H40.9336V43.7012H43.0938V44.0918ZM42.0117 44.2324C42.1862 44.2324 42.3411 44.2604 42.4766 44.3164C42.612 44.3724 42.7174 44.4512 42.793 44.5527C42.8685 44.653 42.9062 44.7689 42.9062 44.9004C42.9062 45.0306 42.8685 45.1458 42.793 45.2461C42.7174 45.3464 42.612 45.4251 42.4766 45.4824C42.3411 45.5384 42.1862 45.5664 42.0117 45.5664C41.8411 45.5664 41.6882 45.5384 41.5527 45.4824C41.4186 45.4264 41.3138 45.3483 41.2383 45.248C41.1641 45.1465 41.127 45.0306 41.127 44.9004C41.127 44.7689 41.1641 44.653 41.2383 44.5527C41.3138 44.4512 41.4186 44.3724 41.5527 44.3164C41.6882 44.2604 41.8411 44.2324 42.0117 44.2324ZM42.0117 44.6094C41.9323 44.6094 41.8613 44.6211 41.7988 44.6445C41.7363 44.6667 41.6875 44.6999 41.6523 44.7441C41.6172 44.7871 41.5996 44.8392 41.5996 44.9004C41.5996 44.9603 41.6172 45.0117 41.6523 45.0547C41.6875 45.0977 41.7363 45.1309 41.7988 45.1543C41.8613 45.1764 41.9323 45.1875 42.0117 45.1875C42.0951 45.1875 42.1686 45.1764 42.2324 45.1543C42.2962 45.1322 42.3451 45.0996 42.3789 45.0566C42.4128 45.0124 42.4297 44.9603 42.4297 44.9004C42.4297 44.8392 42.4128 44.7871 42.3789 44.7441C42.3451 44.6999 42.2962 44.6667 42.2324 44.6445C42.1686 44.6211 42.0951 44.6094 42.0117 44.6094ZM42.2676 43.9238H41.7676V43.3184H42.2676V43.9238Z" fill="white"/>
<rect y="58.1313" width="17" height="6" rx="1" fill="#CDA7BB"/>
<path d="M22.7305 60.1333H20.4766V59.7329H22.7305V60.1333ZM23.3496 62.5806H20.1074V62.1743H23.3496V62.5806ZM23.0254 60.0474C23.0228 60.2739 23.0195 60.4556 23.0156 60.5923C23.0117 60.7277 22.998 60.895 22.9746 61.0942C22.9512 61.2935 22.9134 61.5109 22.8613 61.7466L22.375 61.6997C22.4245 61.4757 22.4609 61.2661 22.4844 61.0708C22.5078 60.8742 22.5215 60.7023 22.5254 60.5552C22.5306 60.4067 22.5332 60.2375 22.5332 60.0474V59.7329H23.0254V60.0474ZM20.4297 61.0884L20.3594 60.6626L22.6289 60.5864V60.9634L20.4297 61.0884ZM21.7617 62.3208H21.2676V61.3169H21.7617V62.3208ZM26.8066 61.7505H23.5566V61.356H26.8066V61.7505ZM26.4746 62.9302H23.9551V62.5278H26.4746V62.9302ZM24.4453 62.6841H23.9551V61.9263H24.4453V62.6841ZM26.4551 61.1353H23.9629V60.7583H26.4551V61.1353ZM26.4277 59.9341H24.4609V60.9243H23.9629V59.5532H26.4277V59.9341ZM26.3418 60.5259H24.3184V60.1606H26.3418V60.5259ZM28.8398 62.1216H27.1328V59.772H28.8398V62.1216ZM27.623 61.729H28.3457V60.1606H27.623V61.729ZM29.8242 62.9907H29.3242V59.4321H29.8242V62.9907ZM30.3516 61.1919H29.7148V60.7759H30.3516V61.1919ZM32.4551 60.8188H31.7148V60.4204H32.4551V60.8188ZM33.5508 61.811H33.0762V59.4399H33.5508V61.811ZM32.8145 61.4966H32.3418V59.4946H32.8145V61.4966ZM32.4883 61.6919C32.4883 61.9028 32.4329 62.0975 32.3223 62.2759C32.2129 62.4543 32.0534 62.604 31.8438 62.7251C31.6341 62.8475 31.3848 62.9308 31.0957 62.9751L30.8984 62.5903C31.1471 62.5578 31.3587 62.4953 31.5332 62.4028C31.7077 62.3104 31.8392 62.2023 31.9277 62.0786C32.0176 61.9549 32.0625 61.826 32.0625 61.6919V61.6138H32.4883V61.6919ZM32.5547 61.6919C32.5547 61.8247 32.5983 61.9536 32.6855 62.0786C32.7741 62.2023 32.9062 62.3104 33.082 62.4028C33.2578 62.4953 33.4681 62.5578 33.7129 62.5903L33.5215 62.9751C33.2337 62.9308 32.985 62.8475 32.7754 62.7251C32.5658 62.604 32.4056 62.4543 32.2949 62.2759C32.1855 62.0975 32.1309 61.9028 32.1309 61.6919V61.6138H32.5547V61.6919ZM32.0469 59.7036C32.0469 60.0239 32.0026 60.311 31.9141 60.5649C31.8268 60.8175 31.6829 61.0428 31.4824 61.2407C31.2819 61.4386 31.0176 61.6086 30.6895 61.7505L30.4531 61.4009C30.7279 61.2824 30.9466 61.1483 31.1094 60.9985C31.2734 60.8475 31.3913 60.6795 31.4629 60.4946C31.5345 60.3084 31.5703 60.0962 31.5703 59.8579V59.7036H32.0469ZM31.7227 60.104H30.6445V59.7036H31.7227V60.104ZM30.5566 60.8325L30.4941 60.4321L31.5898 60.3833V60.7231L30.5566 60.8325Z" fill="white"/>
<rect y="50.54" width="17" height="6" rx="1" fill="#BFCFC2"/>
<path d="M22.9258 54.5029H22.4277V51.8486H22.9258V54.5029ZM23.4062 53.3447H22.7812V52.9365H23.4062V53.3447ZM22.2148 52.6123H20.1035V52.2197H22.2148V52.6123ZM21.1621 52.7373C21.3314 52.7373 21.4824 52.7666 21.6152 52.8252C21.748 52.8825 21.8516 52.9632 21.9258 53.0674C22 53.1715 22.0371 53.2913 22.0371 53.4268C22.0371 53.5609 22 53.6794 21.9258 53.7822C21.8516 53.8838 21.748 53.9632 21.6152 54.0205C21.4824 54.0778 21.3314 54.1064 21.1621 54.1064C20.9902 54.1064 20.8372 54.0778 20.7031 54.0205C20.569 53.9632 20.4648 53.8838 20.3906 53.7822C20.3164 53.6794 20.2793 53.5609 20.2793 53.4268C20.2793 53.2913 20.3164 53.1715 20.3906 53.0674C20.4648 52.9632 20.569 52.8825 20.7031 52.8252C20.8372 52.7666 20.9902 52.7373 21.1621 52.7373ZM21.1621 53.1201C21.0827 53.1201 21.0124 53.1318 20.9512 53.1553C20.8913 53.1787 20.8451 53.2139 20.8125 53.2607C20.7799 53.3076 20.7637 53.363 20.7637 53.4268C20.7637 53.4906 20.7799 53.5452 20.8125 53.5908C20.8451 53.6351 20.8913 53.6689 20.9512 53.6924C21.0124 53.7158 21.0827 53.7275 21.1621 53.7275C21.2415 53.7275 21.3112 53.7158 21.3711 53.6924C21.4323 53.6689 21.4798 53.6351 21.5137 53.5908C21.5475 53.5452 21.5645 53.4906 21.5645 53.4268C21.5645 53.363 21.5475 53.3076 21.5137 53.2607C21.4798 53.2139 21.4323 53.1787 21.3711 53.1553C21.3112 53.1318 21.2415 53.1201 21.1621 53.1201ZM21.4102 52.4131H20.9121V51.8428H21.4102V52.4131ZM23.0527 55.3389H20.6191V54.9365H23.0527V55.3389ZM21.1172 55.1084H20.6191V54.2979H21.1172V55.1084ZM24.7793 52.5225C24.7793 52.7516 24.7415 52.9665 24.666 53.167C24.5918 53.3675 24.4785 53.5426 24.3262 53.6924C24.1751 53.8421 23.9896 53.9554 23.7695 54.0322L23.5078 53.6357C23.6992 53.5732 23.8594 53.484 23.9883 53.3682C24.1172 53.2523 24.2129 53.1214 24.2754 52.9756C24.3392 52.8285 24.3711 52.6774 24.3711 52.5225V52.292H24.7793V52.5225ZM24.875 52.5225C24.875 52.6683 24.9043 52.8096 24.9629 52.9463C25.0228 53.0817 25.1152 53.2041 25.2402 53.3135C25.3652 53.4215 25.5202 53.5055 25.7051 53.5654L25.4336 53.9385C25.2253 53.8682 25.0488 53.7627 24.9043 53.6221C24.7598 53.4814 24.651 53.3167 24.5781 53.1279C24.5052 52.9378 24.4688 52.736 24.4688 52.5225V52.292H24.875V52.5225ZM25.584 52.5068H23.6582V52.1104H25.584V52.5068ZM26.3828 54.4502H25.8848V51.8467H26.3828V54.4502ZM26.8633 53.29H26.2383V52.8818H26.8633V53.29ZM26.5098 55.3389H24.0762V54.9365H26.5098V55.3389ZM24.5742 55.1494H24.0762V54.1904H24.5742V55.1494ZM29.8242 55.3994H29.332V51.8408H29.8242V55.3994ZM30.3516 53.6455H29.7148V53.2373H30.3516V53.6455ZM29.0898 52.7744H27.002V52.374H29.0898V52.7744ZM28.0547 52.9717C28.2279 52.9717 28.3835 53.0081 28.5215 53.0811C28.6595 53.1527 28.7676 53.2529 28.8457 53.3818C28.9251 53.5107 28.9648 53.6566 28.9648 53.8193C28.9648 53.9821 28.9251 54.1279 28.8457 54.2568C28.7676 54.3857 28.6595 54.4867 28.5215 54.5596C28.3835 54.6312 28.2279 54.667 28.0547 54.667C27.8815 54.667 27.7259 54.6312 27.5879 54.5596C27.4499 54.4867 27.3418 54.3857 27.2637 54.2568C27.1855 54.1279 27.1465 53.9821 27.1465 53.8193C27.1465 53.6566 27.1855 53.5107 27.2637 53.3818C27.3418 53.2529 27.4499 53.1527 27.5879 53.0811C27.7259 53.0081 27.8815 52.9717 28.0547 52.9717ZM28.0547 53.3779C27.9727 53.3779 27.8984 53.3962 27.832 53.4326C27.7669 53.4678 27.7155 53.5192 27.6777 53.5869C27.6413 53.6533 27.623 53.7308 27.623 53.8193C27.623 53.9092 27.6413 53.9873 27.6777 54.0537C27.7155 54.1201 27.7669 54.1715 27.832 54.208C27.8984 54.2432 27.9727 54.2607 28.0547 54.2607C28.1393 54.2607 28.2142 54.2432 28.2793 54.208C28.3444 54.1715 28.3945 54.1201 28.4297 54.0537C28.4661 53.9873 28.4844 53.9092 28.4844 53.8193C28.4844 53.7308 28.4661 53.6533 28.4297 53.5869C28.3945 53.5192 28.3444 53.4678 28.2793 53.4326C28.2142 53.3962 28.1393 53.3779 28.0547 53.3779ZM28.3027 52.5264H27.8066V51.8975H28.3027V52.5264ZM32.3398 53.7217H31.8457V53.0752H32.3398V53.7217ZM32.2617 52.0029C32.2617 52.2204 32.2038 52.4189 32.0879 52.5986C31.9733 52.7783 31.8073 52.9287 31.5898 53.0498C31.3737 53.1696 31.1178 53.2516 30.8223 53.2959L30.6426 52.9053C30.8978 52.874 31.1152 52.8128 31.2949 52.7217C31.4759 52.6305 31.6113 52.5225 31.7012 52.3975C31.7923 52.2712 31.8379 52.1396 31.8379 52.0029V51.8838H32.2617V52.0029ZM32.3457 52.0029C32.3457 52.1449 32.3906 52.2783 32.4805 52.4033C32.5716 52.527 32.7077 52.6338 32.8887 52.7236C33.0697 52.8135 33.2891 52.874 33.5469 52.9053L33.3535 53.2959C33.0566 53.2516 32.8001 53.1702 32.584 53.0518C32.3691 52.932 32.2044 52.7829 32.0898 52.6045C31.9766 52.4248 31.9199 52.2243 31.9199 52.0029V51.8838H32.3457V52.0029ZM33.332 55.3604H30.8535V54.165H33.332V55.3604ZM31.3438 54.96H32.8438V54.5537H31.3438V54.96ZM33.7207 53.9014H30.4785V53.5127H33.7207V53.9014Z" fill="white"/>
<rect y="66.6714" width="17" height="6" rx="1" fill="#969AD2"/>
<path d="M23.1777 71.5308H22.709V67.9722H23.1777V71.5308ZM22.1152 69.5972H21.5156V69.1968H22.1152V69.5972ZM22.4512 71.3687H21.9844V68.0347H22.4512V71.3687ZM21.127 68.9272C21.127 69.2059 21.0983 69.4702 21.041 69.7202C20.985 69.9689 20.8984 70.1935 20.7812 70.394C20.6641 70.5933 20.5143 70.7489 20.332 70.8608L20.0312 70.4937C20.1992 70.3895 20.3366 70.2547 20.4434 70.0894C20.5514 69.9227 20.6296 69.741 20.6777 69.5444C20.7259 69.3478 20.75 69.1421 20.75 68.9272V68.5542H21.127V68.9272ZM21.2305 68.9272C21.2305 69.1369 21.2533 69.3361 21.2988 69.5249C21.3457 69.7124 21.4219 69.8836 21.5273 70.0386C21.6328 70.1922 21.7682 70.3172 21.9336 70.4136L21.6426 70.7788C21.4616 70.672 21.3132 70.5243 21.1973 70.3354C21.0814 70.1466 20.9967 69.9331 20.9434 69.6948C20.89 69.4565 20.8633 69.2007 20.8633 68.9272V68.5542H21.2305V68.9272ZM21.7695 68.7358H20.166V68.3374H21.7695V68.7358ZM24.8184 71.5347H24.3184V70.5503H24.8184V71.5347ZM26.0605 71.5347H25.5586V70.5503H26.0605V71.5347ZM26.6348 68.7241H23.7168V68.3335H26.6348V68.7241ZM26.8145 70.6499H23.5645V70.2495H26.8145V70.6499ZM25.1836 68.8647C25.4401 68.8647 25.6595 68.8882 25.8418 68.9351C26.0241 68.9806 26.1641 69.049 26.2617 69.1401C26.3607 69.2313 26.4102 69.342 26.4102 69.4722C26.4102 69.6011 26.3607 69.7111 26.2617 69.8022C26.1641 69.8921 26.0241 69.9611 25.8418 70.0093C25.6595 70.0575 25.4401 70.0815 25.1836 70.0815C24.9271 70.0815 24.707 70.0575 24.5234 70.0093C24.3411 69.9611 24.2012 69.8921 24.1035 69.8022C24.0059 69.7111 23.957 69.6011 23.957 69.4722C23.957 69.342 24.0059 69.2313 24.1035 69.1401C24.2012 69.049 24.3411 68.9806 24.5234 68.9351C24.707 68.8882 24.9271 68.8647 25.1836 68.8647ZM25.1836 69.2358C25.0221 69.2358 24.8893 69.2443 24.7852 69.2612C24.681 69.2782 24.6029 69.3035 24.5508 69.3374C24.5 69.3713 24.4746 69.4162 24.4746 69.4722C24.4746 69.5243 24.5 69.5679 24.5508 69.603C24.6029 69.6369 24.681 69.6623 24.7852 69.6792C24.8906 69.6961 25.0234 69.7046 25.1836 69.7046C25.3424 69.7046 25.474 69.6961 25.5781 69.6792C25.6823 69.6623 25.7604 69.6369 25.8125 69.603C25.8659 69.5679 25.8926 69.5243 25.8926 69.4722C25.8926 69.4162 25.8659 69.3713 25.8125 69.3374C25.7604 69.3035 25.6823 69.2782 25.5781 69.2612C25.4753 69.2443 25.3438 69.2358 25.1836 69.2358ZM25.4277 68.6108H24.9375V67.9683H25.4277V68.6108Z" fill="white"/>
<rect x="10.6133" y="75.2114" width="7" height="7" rx="1" fill="#7FA7E1"/>
<path d="M21.7285 77.1196C21.9082 77.1196 22.0703 77.1548 22.2148 77.2251C22.3607 77.2941 22.4746 77.3905 22.5566 77.5142C22.6387 77.6366 22.6797 77.7759 22.6797 77.9321C22.6797 78.0858 22.6387 78.2244 22.5566 78.3481C22.4746 78.4718 22.3607 78.5682 22.2148 78.6372C22.0703 78.7062 21.9082 78.7407 21.7285 78.7407C21.5488 78.7407 21.3861 78.7062 21.2402 78.6372C21.0944 78.5682 20.9798 78.4718 20.8965 78.3481C20.8145 78.2244 20.7734 78.0858 20.7734 77.9321C20.7734 77.7759 20.8145 77.6366 20.8965 77.5142C20.9798 77.3905 21.0944 77.2941 21.2402 77.2251C21.3861 77.1548 21.5488 77.1196 21.7285 77.1196ZM21.7285 77.5278C21.6387 77.5278 21.5579 77.5441 21.4863 77.5767C21.4147 77.6079 21.3587 77.6541 21.3184 77.7153C21.278 77.7765 21.2578 77.8488 21.2578 77.9321C21.2578 78.0142 21.278 78.0864 21.3184 78.1489C21.3587 78.2101 21.4147 78.257 21.4863 78.2896C21.5579 78.3221 21.6387 78.339 21.7285 78.3403C21.8197 78.339 21.9004 78.3221 21.9707 78.2896C22.0423 78.257 22.0983 78.2101 22.1387 78.1489C22.179 78.0864 22.1992 78.0142 22.1992 77.9321C22.1992 77.8488 22.179 77.7765 22.1387 77.7153C22.0983 77.6541 22.0423 77.6079 21.9707 77.5767C21.9004 77.5441 21.8197 77.5278 21.7285 77.5278ZM23.6934 78.7974H23.1953V77.0122H23.6934V78.7974ZM23.6934 79.9106H21.8047V80.3442H21.3184V79.5474H23.1973V79.3286H21.3105V78.9438H23.6934V79.9106ZM23.791 80.5317H21.3184V80.1392H23.791V80.5317ZM26.9961 79.6392H26.498V77.02H26.9961V79.6392ZM27.4766 78.4302H26.8516V78.022H27.4766V78.4302ZM27.123 80.5103H24.6895V80.1079H27.123V80.5103ZM25.1875 80.1938H24.6895V79.3696H25.1875V80.1938ZM24.7754 77.7876H25.5039V77.272H26.0039V79.0708H24.2812V77.272H24.7754V77.7876ZM25.5039 78.6782V78.1685H24.7754V78.6782H25.5039Z" fill="white"/>
<path d="M178.959 19.2881H158.647V16.8467H178.959V19.2881ZM170.28 26.2461H167.192V18.043H170.28V26.2461ZM164.091 7.43506H173.43V4.88379H176.555V14.6982H161.015V4.88379H164.091V7.43506ZM173.43 12.208V9.87646H164.091V12.208H173.43ZM191.374 6.94678C191.374 8.55811 190.996 10.0677 190.239 11.4756C189.482 12.8835 188.404 14.0879 187.004 15.0889C185.612 16.0817 183.981 16.7653 182.109 17.1396L180.778 14.5518C182.373 14.2507 183.765 13.7095 184.953 12.9282C186.149 12.147 187.061 11.2314 187.688 10.1816C188.322 9.13184 188.64 8.05355 188.64 6.94678V5.35986H191.374V6.94678ZM191.948 6.94678C191.948 8.06169 192.261 9.14811 192.888 10.2061C193.522 11.264 194.438 12.1836 195.634 12.9648C196.839 13.738 198.247 14.2669 199.858 14.5518L198.491 17.1396C196.635 16.7653 195.008 16.0858 193.608 15.1011C192.216 14.1164 191.146 12.9201 190.397 11.5122C189.649 10.1043 189.274 8.58252 189.274 6.94678V5.35986H191.948V6.94678ZM200.59 23.5239H180.278V20.9727H200.59V23.5239ZM205.437 11.0117H208.464V6.00684H211.345V20.9849H202.495V6.00684H205.437V11.0117ZM208.464 18.4824V13.4531H205.437V18.4824H208.464ZM221.135 26.2461H218.144V4.00488H221.135V26.2461ZM219.084 15.04H215.312V12.5132H219.084V15.04ZM216.142 25.2207H213.212V4.34668H216.142V25.2207ZM242.045 26.2461H238.92V4.00488H242.045V26.2461ZM231.535 10.9995C231.535 12.5946 231.295 14.1326 230.815 15.6138C230.335 17.0949 229.619 18.4051 228.667 19.5444C227.722 20.6838 226.583 21.5382 225.249 22.1079L223.601 19.7031C224.772 19.1904 225.769 18.4702 226.591 17.5425C227.413 16.6066 228.032 15.5731 228.447 14.4419C228.862 13.3107 229.069 12.1632 229.069 10.9995V9.72998H231.535V10.9995ZM232.158 10.9995C232.158 12.1144 232.365 13.2171 232.78 14.3076C233.203 15.3981 233.83 16.391 234.66 17.2861C235.498 18.1813 236.512 18.8771 237.7 19.3735L236.015 21.7417C234.689 21.1965 233.549 20.3745 232.597 19.2759C231.653 18.1691 230.937 16.8996 230.449 15.4673C229.96 14.0269 229.716 12.5376 229.716 10.9995V9.72998H232.158V10.9995ZM236.784 10.1328H224.333V7.65479H236.784V10.1328ZM232.146 8.94873H229.045V4.51758H232.146V8.94873ZM263.188 16.4438H247.49V13.9658H263.188V16.4438ZM265.41 23.7314H245.097V21.1802H265.41V23.7314ZM256.743 21.998H253.679V15.1011H256.743V21.998ZM263.029 8.06982H250.603V15.0889H247.49V5.604H263.029V8.06982Z" fill="white"/>
</svg>
