<svg width="69" height="65" viewBox="0 0 69 65" fill="none" xmlns="http://www.w3.org/2000/svg">
<path fill-rule="evenodd" clip-rule="evenodd" d="M34.5 0.5C41.962 0.5 48.3635 5.0406 51.092 11.5096C60.759 11.822 68.5 19.757 68.5 29.5C68.5 34.9767 66.054 39.8821 62.195 43.1835C62.395 44.2584 62.5 45.367 62.5 46.5C62.5 56.441 54.441 64.5 44.5 64.5C40.7997 64.5 37.3602 63.383 34.5 61.469C31.6398 63.383 28.2003 64.5 24.5 64.5C14.5589 64.5 6.5 56.441 6.5 46.5C6.5 45.367 6.6047 44.2584 6.8049 43.1835C2.9459 39.8821 0.5 34.9767 0.5 29.5C0.5 19.757 8.2408 11.822 17.9078 11.5096C20.6365 5.0406 27.038 0.5 34.5 0.5Z" fill="#FBEFB5"/>
<path d="M51.092 11.5096L50.632 11.7039L50.756 11.999L51.076 12.0093L51.092 11.5096ZM62.195 43.1835L61.87 42.8035L61.651 42.9912L61.704 43.275L62.195 43.1835ZM34.5 61.469L34.7781 61.053L34.5 60.867L34.2219 61.053L34.5 61.469ZM6.8049 43.1835L7.2965 43.275L7.3493 42.9912L7.1299 42.8035L6.8049 43.1835ZM17.9078 11.5096L17.9239 12.0093L18.244 11.999L18.3685 11.7039L17.9078 11.5096ZM51.553 11.3152C48.7488 4.6676 42.17 0 34.5 0V1C41.7539 1 47.9782 5.4136 50.632 11.7039L51.553 11.3152ZM69 29.5C69 19.4863 61.044 11.331 51.108 11.0098L51.076 12.0093C60.474 12.3131 68 20.0278 68 29.5H69ZM62.52 43.5634C66.485 40.1711 69 35.1289 69 29.5H68C68 34.8244 65.623 39.5931 61.87 42.8035L62.52 43.5634ZM61.704 43.275C61.898 44.3199 62 45.3978 62 46.5H63C63 45.3361 62.892 44.1969 62.687 43.0919L61.704 43.275ZM62 46.5C62 56.165 54.165 64 44.5 64V65C54.717 65 63 56.717 63 46.5H62ZM44.5 64C40.9018 64 37.5586 62.915 34.7781 61.053L34.2219 61.884C37.1618 63.852 40.6976 65 44.5 65V64ZM24.5 65C28.3024 65 31.8382 63.852 34.7781 61.884L34.2219 61.053C31.4414 62.915 28.0982 64 24.5 64V65ZM6 46.5C6 56.717 14.2827 65 24.5 65V64C14.835 64 7 56.165 7 46.5H6ZM6.3134 43.0919C6.1075 44.1969 6 45.3361 6 46.5H7C7 45.3978 7.1018 44.3199 7.2965 43.275L6.3134 43.0919ZM0 29.5C0 35.1289 2.5145 40.1711 6.4799 43.5634L7.1299 42.8035C3.3772 39.5931 1 34.8244 1 29.5H0ZM17.8916 11.0098C7.9558 11.331 0 19.4863 0 29.5H1C1 20.0278 8.5258 12.3131 17.9239 12.0093L17.8916 11.0098ZM34.5 0C26.83 0 20.2512 4.6676 17.4471 11.3152L18.3685 11.7039C21.0218 5.4136 27.2461 1 34.5 1V0Z" fill="#FBEFB5"/>
<path d="M26.0688 30.5H24.1518V23.124H24.101L22 24.457V22.7559L24.2724 21.3086H26.0688V30.5ZM31.7753 30.627C31.0094 30.627 30.3492 30.4429 29.7949 30.0747C29.2447 29.7065 28.8216 29.1691 28.5253 28.4624C28.2334 27.7515 28.0874 26.8988 28.0874 25.9043C28.0874 24.9098 28.2334 24.0592 28.5253 23.3525C28.8216 22.6458 29.2469 22.1084 29.8012 21.7402C30.3556 21.3678 31.0136 21.1816 31.7753 21.1816C32.5371 21.1816 33.1951 21.3678 33.7495 21.7402C34.3038 22.1084 34.7291 22.6479 35.0253 23.3589C35.3216 24.0656 35.4697 24.9141 35.4697 25.9043C35.4697 26.903 35.3216 27.7557 35.0253 28.4624C34.7334 29.1691 34.3102 29.7065 33.7558 30.0747C33.2014 30.4429 32.5413 30.627 31.7753 30.627ZM31.7753 29.0527C32.1308 29.0527 32.4397 28.9364 32.7021 28.7036C32.9687 28.4709 33.1718 28.1196 33.3115 27.6499C33.4511 27.1759 33.5188 26.5941 33.5146 25.9043C33.5146 25.2188 33.4448 24.6411 33.3051 24.1714C33.1655 23.6974 32.9645 23.342 32.7021 23.105C32.4397 22.868 32.1308 22.7495 31.7753 22.7495C31.4199 22.7495 31.111 22.868 30.8486 23.105C30.5904 23.342 30.3894 23.6974 30.2456 24.1714C30.1017 24.6411 30.0297 25.2188 30.0297 25.9043C30.0297 26.5941 30.0996 27.1759 30.2392 27.6499C30.3831 28.1196 30.5862 28.4709 30.8486 28.7036C31.111 28.9364 31.4199 29.0527 31.7753 29.0527ZM37.8056 31.8838H36.1933L39.1513 20.877H40.7763L37.8056 31.8838ZM45.5815 30.5H43.6645V23.124H43.6137L41.5126 24.457V22.7559L43.7851 21.3086H45.5815V30.5Z" fill="#0C2557"/>
<path d="M33.8853 48.5591H32.4864V46.4131H33.8853V48.5591ZM39.4517 51.738H38.0528V38.6128H39.4517V51.738ZM41.4219 45.2852H39.0049V44.1279H41.4219V45.2852ZM29 48.1709C30.6407 48.1709 32.1348 48.1489 33.4825 48.105C34.8301 48.0562 36.1045 47.9438 37.3057 47.7681L37.3936 48.8081C36.5196 48.9595 35.6089 49.0742 34.6617 49.1523C33.7144 49.2256 32.8184 49.2744 31.9737 49.2988C31.1289 49.3232 30.2085 49.3354 29.2124 49.3354L29 48.1709ZM37.1153 41.2861H29.2417V40.1729H37.1153V41.2861ZM33.1968 41.9746C33.812 41.9746 34.3565 42.0771 34.8301 42.2822C35.3037 42.4824 35.6748 42.7656 35.9434 43.1318C36.2168 43.498 36.3535 43.9277 36.3535 44.4209C36.3535 44.8994 36.2168 45.3218 35.9434 45.688C35.6748 46.0493 35.3037 46.3325 34.8301 46.5376C34.3565 46.7427 33.812 46.8452 33.1968 46.8452C32.5816 46.8452 32.0347 46.7427 31.5562 46.5376C31.0777 46.3325 30.7066 46.0493 30.4429 45.688C30.1841 45.3218 30.0547 44.8994 30.0547 44.4209C30.0547 43.9277 30.1841 43.498 30.4429 43.1318C30.7066 42.7656 31.0777 42.4824 31.5562 42.2822C32.0347 42.0771 32.5816 41.9746 33.1968 41.9746ZM33.1968 43.0366C32.8355 43.0366 32.5157 43.0952 32.2373 43.2124C31.9639 43.3247 31.7491 43.4858 31.5928 43.6958C31.4366 43.9009 31.3584 44.1426 31.3584 44.4209C31.3584 44.6895 31.4341 44.9287 31.5855 45.1387C31.7368 45.3438 31.9517 45.5 32.23 45.6074C32.5132 45.71 32.8355 45.7612 33.1968 45.7612C33.5581 45.7612 33.8755 45.71 34.149 45.6074C34.4273 45.5 34.6421 45.3438 34.7935 45.1387C34.9449 44.9287 35.0205 44.6895 35.0205 44.4209C35.0205 44.1426 34.9449 43.9009 34.7935 43.6958C34.6421 43.4858 34.4273 43.3247 34.149 43.2124C33.8755 43.0952 33.5581 43.0366 33.1968 43.0366ZM33.8853 40.9346H32.4864V38.6567H33.8853V40.9346Z" fill="#0C2557"/>
</svg>
