<svg width="70" height="66" viewBox="0 0 70 66" fill="none" xmlns="http://www.w3.org/2000/svg">
<g clip-path="url(#clip0_1188_7663)">
<path fill-rule="evenodd" clip-rule="evenodd" d="M35 1C42.462 1 48.8635 5.54059 51.5922 12.0096C61.2592 12.322 69 20.257 69 30C69 35.4767 66.5541 40.3821 62.6951 43.6835C62.8953 44.7584 63 45.867 63 47C63 56.9411 54.9411 65 45 65C41.2997 65 37.8602 63.8835 35 61.9689C32.1398 63.8835 28.7003 65 25 65C15.0589 65 7 56.9411 7 47C7 45.867 7.10468 44.7584 7.3049 43.6835C3.44588 40.3821 1 35.4767 1 30C1 20.257 8.74078 12.322 18.4078 12.0096C21.1365 5.54059 27.538 1 35 1Z" fill="white"/>
<path d="M51.5922 12.0096L51.1315 12.2039L51.256 12.499L51.5761 12.5093L51.5922 12.0096ZM62.6951 43.6835L62.3701 43.3035L62.1507 43.4912L62.2035 43.775L62.6951 43.6835ZM35 61.9689L35.2781 61.5534L35 61.3672L34.7219 61.5534L35 61.9689ZM7.3049 43.6835L7.79645 43.775L7.84931 43.4912L7.62994 43.3035L7.3049 43.6835ZM18.4078 12.0096L18.4239 12.5093L18.744 12.499L18.8685 12.2039L18.4078 12.0096ZM52.0529 11.8152C49.2488 5.16756 42.67 0.5 35 0.5V1.5C42.2539 1.5 48.4782 5.91362 51.1315 12.2039L52.0529 11.8152ZM69.5 30C69.5 19.9863 61.5442 11.831 51.6084 11.5098L51.5761 12.5093C60.9742 12.8131 68.5 20.5278 68.5 30H69.5ZM63.0201 44.0634C66.9855 40.6711 69.5 35.6289 69.5 30H68.5C68.5 35.3244 66.1228 40.0931 62.3701 43.3035L63.0201 44.0634ZM62.2035 43.775C62.3982 44.8199 62.5 45.8978 62.5 47H63.5C63.5 45.8361 63.3925 44.6969 63.1866 43.5919L62.2035 43.775ZM62.5 47C62.5 56.665 54.665 64.5 45 64.5V65.5C55.2173 65.5 63.5 57.2173 63.5 47H62.5ZM45 64.5C41.4018 64.5 38.0586 63.4146 35.2781 61.5534L34.7219 62.3844C37.6618 64.3523 41.1976 65.5 45 65.5V64.5ZM25 65.5C28.8024 65.5 32.3382 64.3523 35.2781 62.3844L34.7219 61.5534C31.9414 63.4146 28.5982 64.5 25 64.5V65.5ZM6.5 47C6.5 57.2173 14.7827 65.5 25 65.5V64.5C15.335 64.5 7.5 56.665 7.5 47H6.5ZM6.81336 43.5919C6.60754 44.6969 6.5 45.8361 6.5 47H7.5C7.5 45.8978 7.60183 44.8199 7.79645 43.775L6.81336 43.5919ZM0.5 30C0.5 35.6289 3.01455 40.6711 6.97987 44.0634L7.62994 43.3035C3.87722 40.0931 1.5 35.3244 1.5 30H0.5ZM18.3916 11.5098C8.45579 11.831 0.5 19.9863 0.5 30H1.5C1.5 20.5278 9.02577 12.8131 18.4239 12.5093L18.3916 11.5098ZM35 0.5C27.33 0.5 20.7512 5.16756 17.9471 11.8152L18.8685 12.2039C21.5218 5.91362 27.7461 1.5 35 1.5V0.5Z" fill="white"/>
<path d="M24.4546 31H22.5376V23.624H22.4868L20.3857 24.957V23.2559L22.6582 21.8086H24.4546V31ZM30.1611 31.127C29.3952 31.127 28.735 30.9429 28.1807 30.5747C27.6305 30.2065 27.2074 29.6691 26.9111 28.9624C26.6191 28.2515 26.4731 27.3988 26.4731 26.4043C26.4731 25.4098 26.6191 24.5592 26.9111 23.8525C27.2074 23.1458 27.6326 22.6084 28.187 22.2402C28.7414 21.8678 29.3994 21.6816 30.1611 21.6816C30.9229 21.6816 31.5809 21.8678 32.1353 22.2402C32.6896 22.6084 33.1149 23.1479 33.4111 23.8589C33.7074 24.5656 33.8555 25.4141 33.8555 26.4043C33.8555 27.403 33.7074 28.2557 33.4111 28.9624C33.1191 29.6691 32.696 30.2065 32.1416 30.5747C31.5872 30.9429 30.9271 31.127 30.1611 31.127ZM30.1611 29.5527C30.5166 29.5527 30.8255 29.4364 31.0879 29.2036C31.3545 28.9709 31.5576 28.6196 31.6973 28.1499C31.8369 27.6759 31.9046 27.0941 31.9004 26.4043C31.9004 25.7188 31.8306 25.1411 31.6909 24.6714C31.5513 24.1974 31.3503 23.842 31.0879 23.605C30.8255 23.368 30.5166 23.2495 30.1611 23.2495C29.8057 23.2495 29.4967 23.368 29.2344 23.605C28.9762 23.842 28.7752 24.1974 28.6313 24.6714C28.4875 25.1411 28.4155 25.7188 28.4155 26.4043C28.4155 27.0941 28.4854 27.6759 28.625 28.1499C28.7689 28.6196 28.972 28.9709 29.2344 29.2036C29.4967 29.4364 29.8057 29.5527 30.1611 29.5527ZM36.1914 32.3838H34.5791L37.5371 21.377H39.1621L36.1914 32.3838ZM40 29.6226L43.3071 26.582C43.633 26.2689 43.8869 26.0107 44.0688 25.8076C44.2508 25.6003 44.3883 25.3929 44.4814 25.1855C44.5788 24.974 44.6274 24.7497 44.6274 24.5127C44.6274 24.2503 44.564 24.0197 44.437 23.8208C44.3101 23.6177 44.1366 23.4632 43.9165 23.3574C43.6965 23.2516 43.4468 23.1987 43.1675 23.1987C42.884 23.1987 42.6322 23.2559 42.4121 23.3701C42.1963 23.4844 42.0291 23.6515 41.9106 23.8716C41.7964 24.0874 41.7393 24.3392 41.7393 24.627H39.9238C39.9238 24.0387 40.0592 23.5225 40.3301 23.0781C40.6051 22.6296 40.9881 22.2847 41.479 22.0435C41.9741 21.8022 42.5433 21.6816 43.1865 21.6816C43.834 21.6816 44.4053 21.7959 44.9004 22.0244C45.3955 22.2529 45.7785 22.5724 46.0493 22.9829C46.3244 23.3934 46.4619 23.8631 46.4619 24.3921C46.4619 24.7518 46.3921 25.0988 46.2524 25.4331C46.117 25.7674 45.8758 26.1377 45.5288 26.5439C45.186 26.9502 44.6973 27.4411 44.0625 28.0166L42.6597 29.3687V29.4321H46.5952V31H40.0063L40 29.6226Z" fill="#0C2557"/>
<path d="M34.9912 40.27C34.9912 41.0806 34.752 41.8276 34.2734 42.5112C33.7949 43.1948 33.1455 43.7637 32.3252 44.2178C31.5098 44.667 30.6113 44.9697 29.6299 45.126L29.0733 44.0054C29.9229 43.8931 30.7066 43.6514 31.4243 43.2803C32.1421 42.9092 32.7109 42.46 33.1309 41.9326C33.5557 41.4053 33.7681 40.8511 33.7681 40.27V39.5596H34.9912V40.27ZM35.2109 40.27C35.2109 40.8462 35.4234 41.4004 35.8482 41.9326C36.2778 42.46 36.854 42.9092 37.5767 43.2803C38.3042 43.6514 39.0879 43.8931 39.9277 44.0054L39.3784 45.126C38.3921 44.9697 37.4912 44.6646 36.6758 44.2104C35.8604 43.7563 35.2109 43.1875 34.7276 42.5039C34.2442 41.8203 34.0025 41.0757 34.0025 40.27V39.5596H35.2109V40.27ZM35.145 52.2378H33.7754V47.2939H35.145V52.2378ZM40.4697 47.5796H28.502V46.4224H40.4697V47.5796Z" fill="#0C2557"/>
</g>
<defs>
<clipPath id="clip0_1188_7663">
<rect width="70" height="66" fill="white"/>
</clipPath>
</defs>
</svg>
