<svg width="393" height="1018" viewBox="0 0 393 1018" fill="none" xmlns="http://www.w3.org/2000/svg">
<g clip-path="url(#clip0_1244_8365)">
<path fill-rule="evenodd" clip-rule="evenodd" d="M384.423 93.1947C388.955 88.0299 391.135 80.8981 389.726 73.6301C387.308 61.1575 375.237 53.0067 362.764 55.4248C356.553 56.6288 351.414 60.2263 348.118 65.0749C333.47 61.1574 317.329 62.8243 303.16 71.0046C292.944 76.9029 285.147 85.3828 280.119 95.1446C271.6 87.0368 259.419 83.033 246.994 85.4418C226.596 89.3965 213.265 109.139 217.22 129.538C217.98 133.456 219.322 137.114 221.139 140.438C207.422 148.174 199.533 164.065 202.695 180.376C206.649 200.774 226.392 214.105 246.791 210.15C267.189 206.196 280.52 186.453 276.565 166.054C275.806 162.136 274.463 158.479 272.646 155.154C275.394 153.605 277.908 151.728 280.146 149.586C280.564 150.392 281.002 151.193 281.461 151.987C297.831 180.342 334.088 190.057 362.443 173.686C390.634 157.41 400.4 121.476 384.423 93.1947Z" fill="url(#paint0_linear_1244_8365)"/>
<path fill-rule="evenodd" clip-rule="evenodd" d="M397.423 500.195C401.955 495.03 404.135 487.898 402.726 480.63C400.308 468.158 388.237 460.007 375.764 462.425C369.553 463.629 364.414 467.226 361.118 472.075C346.47 468.157 330.329 469.824 316.16 478.005C305.944 483.903 298.147 492.383 293.119 502.145C284.6 494.037 272.419 490.033 259.994 492.442C239.596 496.396 226.265 516.139 230.22 536.538C230.98 540.456 232.322 544.114 234.139 547.438C220.422 555.174 212.533 571.065 215.695 587.376C219.649 607.774 239.392 621.105 259.791 617.15C280.189 613.196 293.52 593.453 289.565 573.054C288.806 569.136 287.463 565.479 285.646 562.154C288.394 560.605 290.908 558.728 293.146 556.586C293.564 557.392 294.002 558.193 294.461 558.987C310.831 587.342 347.088 597.057 375.443 580.686C403.634 564.41 413.4 528.476 397.423 500.195Z" fill="url(#paint1_linear_1244_8365)"/>
<path fill-rule="evenodd" clip-rule="evenodd" d="M158.02 405.798C164.82 406.787 171.989 404.731 177.317 399.591C186.461 390.771 186.723 376.208 177.902 367.064C173.51 362.511 167.694 360.16 161.833 360.036C157.141 345.617 146.952 332.987 132.375 325.559C121.865 320.202 110.507 318.282 99.5812 319.381C101.742 307.821 98.4662 295.424 89.6792 286.315C75.2537 271.361 51.436 270.932 36.4813 285.358C33.6087 288.129 31.2721 291.246 29.4738 294.581C15.5152 287.289 -2.10909 289.327 -14.0668 300.862C-29.0215 315.288 -29.4501 339.105 -15.0242 354.06C-0.598188 369.015 23.2194 369.443 38.1741 355.018C41.0467 352.247 43.3833 349.129 45.1816 345.794C47.9778 347.255 50.9211 348.341 53.9364 349.052C53.4878 349.841 53.0549 350.645 52.6384 351.462C37.7727 380.634 49.3702 416.334 78.5421 431.199C107.546 445.979 143.002 434.6 158.02 405.798Z" fill="url(#paint2_linear_1244_8365)"/>
<path d="M343.686 265.314L357.77 299.091L363.446 262.938L358.756 299.232L381.747 270.761L359.538 299.847L393.686 286.686L359.909 300.77L396.062 306.446L359.768 301.755L388.239 324.748L359.153 302.538L372.314 336.686L358.23 302.909L352.553 339.062L357.243 302.768L334.252 331.239L356.462 302.153L322.314 315.314L356.091 301.229L319.938 295.554L356.232 300.244L327.76 277.252L356.846 299.462L343.686 265.314Z" fill="url(#paint3_radial_1244_8365)"/>
<path d="M35.6861 594.314L49.7709 628.091L55.4468 591.938L50.756 628.232L73.748 599.761L51.5386 628.847L85.6861 615.686L51.9091 629.77L88.0624 635.446L51.7682 630.755L80.2398 653.748L51.1535 631.538L64.3147 665.686L50.2299 631.909L44.554 668.062L49.2448 631.768L26.2528 660.239L48.4622 631.153L14.3147 644.314L48.0917 630.229L11.9385 624.554L48.2326 629.244L19.761 606.252L48.8473 628.462L35.6861 594.314Z" fill="url(#paint4_radial_1244_8365)"/>
<path d="M24.5 66L25.4192 71.5808L31 72.5L25.4192 73.4192L24.5 79L23.5808 73.4192L18 72.5L23.5808 71.5808L24.5 66Z" fill="#FBEFB5"/>
<path d="M366.5 0L367.419 5.58076L373 6.5L367.419 7.41924L366.5 13L365.581 7.41924L360 6.5L365.581 5.58076L366.5 0Z" fill="#FBEFB5"/>
<path d="M220.5 198L221.419 203.581L227 204.5L221.419 205.419L220.5 211L219.581 205.419L214 204.5L219.581 203.581L220.5 198Z" fill="#FBEFB5"/>
<path d="M36.5 679L37.4192 686.298L43 687.5L37.4192 688.702L36.5 696L35.5808 688.702L30 687.5L35.5808 686.298L36.5 679Z" fill="#FBEFB5"/>
<path d="M61.4972 734.561C72.2654 734.875 81.2485 726.399 81.5617 715.631C81.8748 704.863 73.3994 695.88 62.6312 695.567C51.8631 695.253 42.8799 703.729 42.5668 714.497C42.2536 725.265 50.7291 734.248 61.4972 734.561Z" fill="#FFF4B9" fill-opacity="0.3"/>
<path d="M44 741C49.5228 741 54 736.523 54 731C54 725.477 49.5228 721 44 721C38.4772 721 34 725.477 34 731C34 736.523 38.4772 741 44 741Z" fill="#FFF4B9" fill-opacity="0.45"/>
<path d="M376.804 334.608C377.8 334.608 378.607 333.8 378.607 332.804C378.607 331.808 377.8 331 376.804 331C375.808 331 375 331.808 375 332.804C375 333.8 375.808 334.608 376.804 334.608Z" fill="#FFF4B9" fill-opacity="0.75"/>
<path d="M350 159L350.99 165.01L357 166L350.99 166.99L350 173L349.01 166.99L343 166L349.01 165.01L350 159Z" fill="#FBEFB5"/>
<path d="M357.5 521L358.419 526.581L364 527.5L358.419 528.419L357.5 534L356.581 528.419L351 527.5L356.581 526.581L357.5 521Z" fill="#FBEFB5"/>
<path d="M40.5 455L41.4192 461.439L47 462.5L41.4192 463.561L40.5 470L39.5808 463.561L34 462.5L39.5808 461.439L40.5 455Z" fill="#FBEFB5"/>
<path d="M48.5 464L49.5607 473.874L56 475.5L49.5607 477.126L48.5 487L47.4393 477.126L41 475.5L47.4393 473.874L48.5 464Z" fill="#FBEFB5"/>
<path d="M342.5 140L343.561 149.874L350 151.5L343.561 153.126L342.5 163L341.439 153.126L335 151.5L341.439 149.874L342.5 140Z" fill="#FBEFB5"/>
<path d="M356.5 710L357.419 717.298L363 718.5L357.419 719.702L356.5 727L355.581 719.702L350 718.5L355.581 717.298L356.5 710Z" fill="#FBEFB5"/>
<path d="M363 691L364.273 701.105L372 702.769L364.273 704.434L363 714.538L361.727 704.434L354 702.769L361.727 701.105L363 691Z" fill="#FBEFB5"/>
<path d="M225.5 517L226.419 524.298L232 525.5L226.419 526.702L225.5 534L224.581 526.702L219 525.5L224.581 524.298L225.5 517Z" fill="#FBEFB5"/>
<path d="M160 335L161.273 345.105L169 346.769L161.273 348.434L160 358.538L158.727 348.434L151 346.769L158.727 345.105L160 335Z" fill="#FBEFB5"/>
<path d="M23.2026 208.307L32.4257 230.263L38.6185 207.268L33.1749 230.452L51.7011 215.488L33.67 231.045L57.4532 229.829L33.7219 231.815L53.6778 244.811L33.3109 232.47L41.817 254.713L32.5939 232.757L26.4011 255.752L31.8448 232.568L13.3186 247.532L31.3497 231.975L7.56641 233.192L31.2977 231.205L11.3418 218.209L31.7087 230.55L23.2026 208.307Z" fill="url(#paint5_radial_1244_8365)"/>
<path d="M355.497 944.561C366.265 944.875 375.249 936.399 375.562 925.631C375.875 914.863 367.399 905.88 356.631 905.567C345.863 905.253 336.88 913.729 336.567 924.497C336.254 935.265 344.729 944.248 355.497 944.561Z" fill="#FFF4B9" fill-opacity="0.25"/>
<path d="M369.073 947.491C373.058 947.491 376.288 944.261 376.288 940.276C376.288 936.291 373.058 933.061 369.073 933.061C365.089 933.061 361.858 936.291 361.858 940.276C361.858 944.261 365.089 947.491 369.073 947.491Z" fill="#FFF4B9" fill-opacity="0.45"/>
<path d="M339.613 911.418C340.609 911.418 341.417 910.61 341.417 909.614C341.417 908.618 340.609 907.81 339.613 907.81C338.617 907.81 337.81 908.618 337.81 909.614C337.81 910.61 338.617 911.418 339.613 911.418Z" fill="#FFF4B9" fill-opacity="0.75"/>
<path d="M343.221 927.05C344.217 927.05 345.024 926.242 345.024 925.246C345.024 924.25 344.217 923.442 343.221 923.442C342.225 923.442 341.417 924.25 341.417 925.246C341.417 926.242 342.225 927.05 343.221 927.05Z" fill="#FFF4B9" fill-opacity="0.75"/>
<path fill-rule="evenodd" clip-rule="evenodd" d="M183.856 937.006C190.724 937.214 197.612 934.356 202.32 928.643C210.401 918.839 209.003 904.341 199.199 896.26C194.318 892.237 188.272 890.563 182.434 891.107C176.132 877.316 164.572 865.928 149.244 860.207C138.192 856.082 126.689 855.467 115.959 857.802C116.79 846.072 112.125 834.128 102.358 826.079C86.3233 812.864 62.6116 815.149 49.3963 831.184C46.8578 834.264 44.8913 837.627 43.4842 841.145C28.7863 835.489 11.5085 839.52 0.941587 852.341C-12.2737 868.375 -9.98835 892.087 6.04609 905.302C22.0806 918.518 45.7923 916.232 59.0076 900.198C61.5461 897.118 63.5127 893.755 64.9197 890.237C67.864 891.37 70.9117 892.114 73.9884 892.477C73.6325 893.312 73.294 894.16 72.9732 895.019C61.5249 925.694 77.1107 959.841 107.786 971.289C138.283 982.672 172.214 967.331 183.856 937.006Z" fill="url(#paint6_linear_1244_8365)"/>
</g>
<defs>
<linearGradient id="paint0_linear_1244_8365" x1="269.37" y1="71.6238" x2="302.355" y2="138.5" gradientUnits="userSpaceOnUse">
<stop stop-color="#BF9BF5" stop-opacity="0.33"/>
<stop offset="0.47624" stop-color="#43A5EF" stop-opacity="0.16"/>
<stop offset="0.904514" stop-color="#43A5EF" stop-opacity="0"/>
</linearGradient>
<linearGradient id="paint1_linear_1244_8365" x1="282.37" y1="478.624" x2="315.355" y2="545.5" gradientUnits="userSpaceOnUse">
<stop stop-color="#BF9BF5" stop-opacity="0.33"/>
<stop offset="0.47624" stop-color="#43A5EF" stop-opacity="0.16"/>
<stop offset="0.904514" stop-color="#43A5EF" stop-opacity="0"/>
</linearGradient>
<linearGradient id="paint2_linear_1244_8365" x1="113.454" y1="297.557" x2="75.3287" y2="361.641" gradientUnits="userSpaceOnUse">
<stop stop-color="#BF9BF5" stop-opacity="0.33"/>
<stop offset="0.47624" stop-color="#43A5EF" stop-opacity="0.16"/>
<stop offset="0.904514" stop-color="#43A5EF" stop-opacity="0"/>
</linearGradient>
<radialGradient id="paint3_radial_1244_8365" cx="0" cy="0" r="1" gradientUnits="userSpaceOnUse" gradientTransform="translate(358 301) rotate(68.1433) scale(38.4496)">
<stop stop-color="#FBEFB5"/>
<stop offset="1" stop-color="#FBEFB5" stop-opacity="0"/>
</radialGradient>
<radialGradient id="paint4_radial_1244_8365" cx="0" cy="0" r="1" gradientUnits="userSpaceOnUse" gradientTransform="translate(50.0004 630) rotate(68.1433) scale(38.4496 38.4496)">
<stop stop-color="#FBEFB5"/>
<stop offset="1" stop-color="#FBEFB5" stop-opacity="0"/>
</radialGradient>
<radialGradient id="paint5_radial_1244_8365" cx="0" cy="0" r="1" gradientUnits="userSpaceOnUse" gradientTransform="translate(32.5098 231.51) rotate(68.1433) scale(25 25)">
<stop stop-color="#FBEFB5"/>
<stop offset="1" stop-color="#FBEFB5" stop-opacity="0"/>
</radialGradient>
<linearGradient id="paint6_linear_1244_8365" x1="127.258" y1="834.541" x2="96.6746" y2="902.549" gradientUnits="userSpaceOnUse">
<stop stop-color="#BF9BF5" stop-opacity="0.33"/>
<stop offset="0.47624" stop-color="#43A5EF" stop-opacity="0.16"/>
<stop offset="0.904514" stop-color="#43A5EF" stop-opacity="0"/>
</linearGradient>
<clipPath id="clip0_1244_8365">
<rect width="393" height="1018" fill="white"/>
</clipPath>
</defs>
</svg>
