<svg width="393" height="672" viewBox="0 0 393 672" fill="none" xmlns="http://www.w3.org/2000/svg">
<g clip-path="url(#clip0_1244_8537)">
<path fill-rule="evenodd" clip-rule="evenodd" d="M383.423 93.1947C387.955 88.0299 390.135 80.8981 388.726 73.6301C386.308 61.1575 374.237 53.0067 361.764 55.4248C355.553 56.6288 350.414 60.2263 347.118 65.0749C332.47 61.1574 316.329 62.8243 302.16 71.0046C291.944 76.9029 284.147 85.3828 279.119 95.1446C270.6 87.0368 258.419 83.033 245.994 85.4418C225.596 89.3965 212.265 109.139 216.22 129.538C216.98 133.456 218.322 137.114 220.139 140.438C206.422 148.174 198.533 164.065 201.695 180.376C205.649 200.774 225.392 214.105 245.791 210.15C266.189 206.196 279.52 186.453 275.565 166.054C274.806 162.136 273.463 158.479 271.646 155.154C274.394 153.605 276.908 151.728 279.146 149.586C279.564 150.392 280.002 151.193 280.461 151.987C296.831 180.342 333.088 190.057 361.443 173.686C389.634 157.41 399.4 121.476 383.423 93.1947Z" fill="url(#paint0_linear_1244_8537)"/>
<path fill-rule="evenodd" clip-rule="evenodd" d="M157.02 405.798C163.82 406.787 170.989 404.731 176.317 399.591C185.461 390.771 185.723 376.207 176.902 367.064C172.51 362.511 166.694 360.16 160.833 360.036C156.141 345.617 145.952 332.987 131.375 325.559C120.865 320.203 109.507 318.282 98.5815 319.381C100.742 307.821 97.4665 295.424 88.6799 286.315C74.254 271.361 50.4363 270.932 35.4816 285.358C32.6089 288.129 30.2723 291.246 28.474 294.581C14.5153 287.289 -3.10905 289.327 -15.0667 300.862C-30.0214 315.288 -30.4501 339.106 -16.0241 354.06C-1.59824 369.015 22.2195 369.444 37.1742 355.018C40.0468 352.247 42.3834 349.129 44.1818 345.794C46.9779 347.255 49.9212 348.341 52.9365 349.052C52.4879 349.841 52.055 350.645 51.6385 351.462C36.7728 380.634 48.3703 416.334 77.5422 431.199C106.546 445.98 142.002 434.6 157.02 405.798Z" fill="url(#paint1_linear_1244_8537)"/>
<path d="M342.686 265.314L356.77 299.091L362.446 262.938L357.756 299.232L380.747 270.761L358.538 299.847L392.686 286.686L358.909 300.77L395.062 306.446L358.768 301.755L387.239 324.748L358.153 302.538L371.314 336.686L357.23 302.909L351.553 339.062L356.243 302.768L333.252 331.239L355.462 302.153L321.314 315.314L355.091 301.229L318.938 295.554L355.232 300.244L326.76 277.252L355.846 299.462L342.686 265.314Z" fill="url(#paint2_radial_1244_8537)"/>
<path d="M23.5 66L24.4192 71.5808L30 72.5L24.4192 73.4192L23.5 79L22.5808 73.4192L17 72.5L22.5808 71.5808L23.5 66Z" fill="#FBEFB5"/>
<path d="M365.5 0L366.419 5.58076L372 6.5L366.419 7.41924L365.5 13L364.581 7.41924L359 6.5L364.581 5.58076L365.5 0Z" fill="#FBEFB5"/>
<path d="M350.498 373.561C361.266 373.875 370.25 365.399 370.563 354.631C370.876 343.863 362.4 334.88 351.632 334.567C340.864 334.253 331.881 342.729 331.568 353.497C331.255 364.265 339.73 373.248 350.498 373.561Z" fill="#FFF4B9" fill-opacity="0.25"/>
<path d="M364.074 376.491C368.059 376.491 371.289 373.261 371.289 369.276C371.289 365.291 368.059 362.061 364.074 362.061C360.09 362.061 356.859 365.291 356.859 369.276C356.859 373.261 360.09 376.491 364.074 376.491Z" fill="#FFF4B9" fill-opacity="0.45"/>
<path d="M381.509 375.289C382.505 375.289 383.312 374.481 383.312 373.485C383.312 372.489 382.505 371.681 381.509 371.681C380.513 371.681 379.705 372.489 379.705 373.485C379.705 374.481 380.513 375.289 381.509 375.289Z" fill="#FFF4B9" fill-opacity="0.75"/>
<path d="M334.614 340.417C335.61 340.417 336.418 339.609 336.418 338.613C336.418 337.617 335.61 336.809 334.614 336.809C333.618 336.809 332.811 337.617 332.811 338.613C332.811 339.609 333.618 340.417 334.614 340.417Z" fill="#FFF4B9" fill-opacity="0.75"/>
<path d="M338.222 356.05C339.218 356.05 340.025 355.242 340.025 354.246C340.025 353.25 339.218 352.442 338.222 352.442C337.225 352.442 336.418 353.25 336.418 354.246C336.418 355.242 337.225 356.05 338.222 356.05Z" fill="#FFF4B9" fill-opacity="0.75"/>
<path d="M65.4982 668.561C76.2663 668.875 85.2495 660.399 85.5627 649.631C85.8758 638.863 77.4004 629.88 66.6322 629.567C55.8641 629.253 46.8809 637.729 46.5677 648.497C46.2546 659.265 54.73 668.248 65.4982 668.561Z" fill="#FFF4B9" fill-opacity="0.25"/>
<path d="M79.0741 671.491C83.0587 671.491 86.2888 668.261 86.2888 664.276C86.2888 660.291 83.0587 657.061 79.0741 657.061C75.0895 657.061 71.8594 660.291 71.8594 664.276C71.8594 668.261 75.0895 671.491 79.0741 671.491Z" fill="#FFF4B9" fill-opacity="0.45"/>
<path d="M96.5088 670.289C97.5049 670.289 98.3124 669.481 98.3124 668.485C98.3124 667.489 97.5049 666.681 96.5088 666.681C95.5126 666.681 94.7051 667.489 94.7051 668.485C94.7051 669.481 95.5126 670.289 96.5088 670.289Z" fill="#FFF4B9" fill-opacity="0.75"/>
<path d="M49.6142 635.417C50.6104 635.417 51.4179 634.609 51.4179 633.613C51.4179 632.617 50.6104 631.809 49.6142 631.809C48.6181 631.809 47.8105 632.617 47.8105 633.613C47.8105 634.609 48.6181 635.417 49.6142 635.417Z" fill="#FFF4B9" fill-opacity="0.75"/>
<path d="M53.2216 651.05C54.2178 651.05 55.0253 650.242 55.0253 649.246C55.0253 648.25 54.2178 647.442 53.2216 647.442C52.2255 647.442 51.418 648.25 51.418 649.246C51.418 650.242 52.2255 651.05 53.2216 651.05Z" fill="#FFF4B9" fill-opacity="0.75"/>
<path d="M348.5 159L349.419 164.581L355 165.5L349.419 166.419L348.5 172L347.581 166.419L342 165.5L347.581 164.581L348.5 159Z" fill="#FBEFB5"/>
<path d="M356.5 521L357.419 526.581L363 527.5L357.419 528.419L356.5 534L355.581 528.419L350 527.5L355.581 526.581L356.5 521Z" fill="#FBEFB5"/>
<path d="M39.5 455L40.4192 460.581L46 461.5L40.4192 462.419L39.5 468L38.5808 462.419L33 461.5L38.5808 460.581L39.5 455Z" fill="#FBEFB5"/>
<path d="M22.2026 208.307L31.4257 230.263L37.6185 207.268L32.1749 230.452L50.7011 215.488L32.67 231.045L56.4532 229.829L32.7219 231.815L52.6778 244.811L32.3109 232.47L40.817 254.713L31.5939 232.757L25.4011 255.752L30.8448 232.568L12.3186 247.532L30.3497 231.975L6.56641 233.192L30.2977 231.205L10.3418 218.209L30.7087 230.55L22.2026 208.307Z" fill="url(#paint3_radial_1244_8537)"/>
<path d="M349.5 378L350.419 383.581L356 384.5L350.419 385.419L349.5 391L348.581 385.419L343 384.5L348.581 383.581L349.5 378Z" fill="#FBEFB5"/>
<path d="M39.5 584L40.4192 590.439L46 591.5L40.4192 592.561L39.5 599L38.5808 592.561L33 591.5L38.5808 590.439L39.5 584Z" fill="#FBEFB5"/>
<path d="M47.5 593L48.5607 602.874L55 604.5L48.5607 606.126L47.5 616L46.4393 606.126L40 604.5L46.4393 602.874L47.5 593Z" fill="#FBEFB5"/>
</g>
<defs>
<linearGradient id="paint0_linear_1244_8537" x1="268.37" y1="71.6238" x2="301.355" y2="138.5" gradientUnits="userSpaceOnUse">
<stop stop-color="#BF9BF5" stop-opacity="0.33"/>
<stop offset="0.47624" stop-color="#43A5EF" stop-opacity="0.16"/>
<stop offset="0.904514" stop-color="#43A5EF" stop-opacity="0"/>
</linearGradient>
<linearGradient id="paint1_linear_1244_8537" x1="112.454" y1="297.557" x2="74.3288" y2="361.641" gradientUnits="userSpaceOnUse">
<stop stop-color="#BF9BF5" stop-opacity="0.33"/>
<stop offset="0.47624" stop-color="#43A5EF" stop-opacity="0.16"/>
<stop offset="0.904514" stop-color="#43A5EF" stop-opacity="0"/>
</linearGradient>
<radialGradient id="paint2_radial_1244_8537" cx="0" cy="0" r="1" gradientUnits="userSpaceOnUse" gradientTransform="translate(357 301) rotate(68.1433) scale(38.4496)">
<stop stop-color="#FBEFB5"/>
<stop offset="1" stop-color="#FBEFB5" stop-opacity="0"/>
</radialGradient>
<radialGradient id="paint3_radial_1244_8537" cx="0" cy="0" r="1" gradientUnits="userSpaceOnUse" gradientTransform="translate(31.5098 231.51) rotate(68.1433) scale(25 25)">
<stop stop-color="#FBEFB5"/>
<stop offset="1" stop-color="#FBEFB5" stop-opacity="0"/>
</radialGradient>
<clipPath id="clip0_1244_8537">
<rect width="393" height="672" fill="white"/>
</clipPath>
</defs>
</svg>
