<svg width="10" height="10" viewBox="0 0 10 10" fill="none" xmlns="http://www.w3.org/2000/svg">
<rect width="10" height="10" fill="#AAAAAA"/>
<g id="&#236;&#153;&#132;&#236;&#132;&#177; &#237;&#142;&#152;&#236;&#157;&#180;&#236;&#167;&#128;">
<path d="M-3685 -6573H10713V-6673H-3685V-6573ZM10665 -6621V11351H10765V-6621H10665ZM10713 11303H-3685V11403H10713V11303ZM-3637 11351V-6621H-3737V11351H-3637ZM-3685 11303C-3658.49 11303 -3637 11324.5 -3637 11351H-3737C-3737 11379.7 -3713.71 11403 -3685 11403V11303ZM10665 11351C10665 11324.5 10686.5 11303 10713 11303V11403C10741.7 11403 10765 11379.7 10765 11351H10665ZM10713 -6573C10686.5 -6573 10665 -6594.49 10665 -6621H10765C10765 -6649.72 10741.7 -6673 10713 -6673V-6573ZM-3685 -6673C-3713.73 -6673 -3737 -6649.71 -3737 -6621H-3637C-3637 -6594.5 -3658.48 -6573 -3685 -6573V-6673Z" fill="#FFF4B9"/>
<g id="&#235;&#182;&#128;&#236;&#138;&#164;&#235;&#176;&#176;&#236;&#185;&#152;&#235;&#143;&#132; &#236;&#156;&#132;&#236;&#185;&#152; &#236;&#167;&#128;&#236;&#160;&#149;&#227;&#132;&#180;" clip-path="url(#clip0_82_6)">
<rect width="393" height="1113" transform="translate(-57 -573)" fill="url(#paint0_linear_82_6)"/>
<g id="&#235;&#176;&#176;&#234;&#178;&#189;">
<path id="Union" fill-rule="evenodd" clip-rule="evenodd" d="M104.849 157.095C111.765 157.346 118.67 154.502 123.353 148.762C131.39 138.913 129.841 124.268 119.894 116.052C114.94 111.961 108.839 110.236 102.968 110.75C96.4891 96.7905 84.7416 85.2246 69.2576 79.3582C58.0933 75.1284 46.5097 74.4386 35.7334 76.7322C36.4544 64.8946 31.641 52.8098 21.732 44.6257C5.46316 31.189 -18.3807 33.355 -31.5247 49.4638C-34.0494 52.558 -35.9958 55.9416 -37.3774 59.4845C-52.2268 53.6875 -69.5778 57.6536 -80.0878 70.5342C-93.2318 86.6429 -90.6986 110.594 -74.4298 124.031C-58.161 137.468 -34.3172 135.302 -21.1732 119.193C-18.6484 116.099 -16.7021 112.715 -15.3204 109.172C-12.346 110.333 -9.27113 111.103 -6.17102 111.487C-6.52098 112.329 -6.85345 113.183 -7.16788 114.048C-18.3896 144.947 -2.3667 179.513 28.6202 191.253C59.4286 202.925 93.4299 187.64 104.849 157.095Z" fill="url(#paint1_linear_82_6)"/>
</g>
<g id="Group 419">
<rect id="&#235;&#182;&#128;&#236;&#138;&#164; &#236;&#160;&#149;&#235;&#179;&#180; &#235;&#176;&#176;&#234;&#178;&#189;" x="-28" y="-48" width="334" height="298" rx="20" fill="white" fill-opacity="0.7"/>
<g id="Frame 471">
<circle id="Ellipse 109" cx="5" cy="5" r="5" fill="#0C2557"/>
</g>
</g>
</g>
<path id="Vector 127" d="M-2310.07 718C-2319.07 240.947 -2331.68 -724.927 -2310.07 -772H4142V718H-2310.07Z" stroke="#EC07E8" stroke-width="30"/>
</g>
<defs>
<linearGradient id="paint0_linear_82_6" x1="196.5" y1="0" x2="196.5" y2="1113" gradientUnits="userSpaceOnUse">
<stop stop-color="#0C2F60"/>
<stop offset="1" stop-color="#0C6490"/>
</linearGradient>
<linearGradient id="paint1_linear_82_6" x1="46.8771" y1="53.3163" x2="15.9019" y2="121.399" gradientUnits="userSpaceOnUse">
<stop stop-color="#BF9BF5" stop-opacity="0.33"/>
<stop offset="0.47624" stop-color="#43A5EF" stop-opacity="0.16"/>
<stop offset="0.904514" stop-color="#43A5EF" stop-opacity="0"/>
</linearGradient>
<clipPath id="clip0_82_6">
<rect width="393" height="1113" fill="white" transform="translate(-57 -573)"/>
</clipPath>
</defs>
</svg>
