<svg width="472" height="1732" viewBox="0 0 472 1732" fill="none" xmlns="http://www.w3.org/2000/svg">
<g opacity="0.65">
<circle cx="45.8833" cy="361.466" r="28.8589" fill="#FFF4B9" fill-opacity="0.45"/>
<circle cx="53.6995" cy="389.724" r="22.2454" fill="#FFF4B9" fill-opacity="0.25"/>
<circle cx="74.7423" cy="401.147" r="12.0245" fill="#FFF4B9" fill-opacity="0.45"/>
<circle cx="43.4784" cy="432.411" r="7.21472" fill="#FFF4B9" fill-opacity="0.45"/>
<circle cx="78.3495" cy="379.503" r="3.60736" fill="#FFF4B9" fill-opacity="0.45"/>
<circle cx="88.5703" cy="344.031" r="1.80368" fill="#FFF4B9" fill-opacity="0.75"/>
<circle cx="26.4697" cy="390.833" r="1.80368" transform="rotate(-33.1074 26.4697 390.833)" fill="#FFF4B9" fill-opacity="0.75"/>
<circle cx="6.80368" cy="369.282" r="1.80368" fill="#FFF4B9" fill-opacity="0.75"/>
<circle cx="18.8281" cy="330.804" r="1.80368" fill="#FFF4B9" fill-opacity="0.75"/>
<circle cx="13.6825" cy="385.533" r="3.60736" transform="rotate(-33.1074 13.6825 385.533)" fill="#FFF4B9" fill-opacity="0.45"/>
<circle cx="95.0612" cy="460.061" r="18.0368" fill="#FFF4B9" fill-opacity="0.45"/>
<circle cx="110.092" cy="477.497" r="22.2454" fill="#FFF4B9" fill-opacity="0.25"/>
<circle cx="68.6074" cy="490.123" r="3.60736" fill="#FFF4B9" fill-opacity="0.45"/>
<circle cx="135.344" cy="431.804" r="1.80368" fill="#FFF4B9" fill-opacity="0.75"/>
<circle cx="138.951" cy="518.38" r="1.80368" fill="#FFF4B9" fill-opacity="0.75"/>
<circle cx="80.6318" cy="503.35" r="3.60736" fill="#FFF4B9" fill-opacity="0.45"/>
<circle cx="125.123" cy="442.025" r="3.60736" fill="#FFF4B9" fill-opacity="0.45"/>
<circle cx="131.135" cy="506.957" r="3.60736" fill="#FFF4B9" fill-opacity="0.45"/>
<circle cx="309.284" cy="300.481" r="22.2454" transform="rotate(165 309.284 300.481)" fill="#FFF4B9" fill-opacity="0.25"/>
<circle cx="274.282" cy="274.381" r="12.0245" transform="rotate(165 274.282 274.381)" fill="#FFF4B9" fill-opacity="0.45"/>
<circle cx="304.205" cy="327.984" r="1.80368" transform="rotate(165 304.205 327.984)" fill="#FFF4B9" fill-opacity="0.75"/>
<circle cx="281.153" cy="223.367" r="1.80368" transform="rotate(165 281.153 223.367)" fill="#FFF4B9" fill-opacity="0.75"/>
<circle cx="240.234" cy="270.432" r="1.80368" transform="rotate(165 240.234 270.432)" fill="#FFF4B9" fill-opacity="0.75"/>
<circle cx="259.008" cy="294.034" r="1.80368" transform="rotate(165 259.008 294.034)" fill="#FFF4B9" fill-opacity="0.75"/>
<circle cx="320.141" cy="278.276" r="3.60736" transform="rotate(165 320.141 278.276)" fill="#FFF4B9" fill-opacity="0.45"/>
<circle cx="310.955" cy="304.39" r="3.60736" transform="rotate(165 310.955 304.39)" fill="#FFF4B9" fill-opacity="0.45"/>
<circle cx="301.184" cy="295.804" r="3.60736" transform="rotate(165 301.184 295.804)" fill="#FFF4B9" fill-opacity="0.45"/>
<circle cx="291.659" cy="232.378" r="3.60736" transform="rotate(165 291.659 232.378)" fill="#FFF4B9" fill-opacity="0.45"/>
<circle cx="250.741" cy="279.444" r="3.60736" transform="rotate(165 250.741 279.444)" fill="#FFF4B9" fill-opacity="0.45"/>
<circle cx="184.342" cy="399.346" r="12.3416" transform="rotate(-90 184.342 399.346)" fill="#FFF4B9" fill-opacity="0.25"/>
<circle cx="192.68" cy="391.674" r="4.00267" transform="rotate(-90 192.68 391.674)" fill="#FFF4B9" fill-opacity="0.45"/>
<circle cx="195.015" cy="382.001" r="1.00067" transform="rotate(-90 195.015 382.001)" fill="#FFF4B9" fill-opacity="0.75"/>
<circle cx="175.669" cy="408.018" r="1.00067" transform="rotate(-90 175.669 408.018)" fill="#FFF4B9" fill-opacity="0.75"/>
<circle cx="184.341" cy="406.017" r="1.00067" transform="rotate(-90 184.341 406.017)" fill="#FFF4B9" fill-opacity="0.75"/>
<circle cx="70.1676" cy="328.519" r="17.1677" transform="rotate(-90 70.1676 328.519)" fill="#FFF4B9" fill-opacity="0.25"/>
<circle cx="81.7671" cy="317.848" r="5.56789" transform="rotate(-90 81.7671 317.848)" fill="#FFF4B9" fill-opacity="0.45"/>
<circle cx="85.015" cy="304.392" r="1.39197" transform="rotate(-90 85.015 304.392)" fill="#FFF4B9" fill-opacity="0.75"/>
<circle cx="58.1039" cy="340.583" r="1.39197" transform="rotate(-90 58.1039 340.583)" fill="#FFF4B9" fill-opacity="0.75"/>
<circle cx="70.1674" cy="337.799" r="1.39197" transform="rotate(-90 70.1674 337.799)" fill="#FFF4B9" fill-opacity="0.75"/>
<circle cx="248.245" cy="80.0798" r="17.4356" fill="#FFF4B9" fill-opacity="0.25"/>
<circle cx="238.025" cy="93.908" r="12.0245" fill="#FFF4B9" fill-opacity="0.45"/>
<circle cx="267.484" cy="113.749" r="1.80368" fill="#FFF4B9" fill-opacity="0.75"/>
<circle cx="232.613" cy="60.8405" r="1.80368" fill="#FFF4B9" fill-opacity="0.75"/>
<circle cx="238.626" cy="42.8037" r="1.80368" fill="#FFF4B9" fill-opacity="0.75"/>
<circle cx="253.656" cy="74.6686" r="3.60736" fill="#FFF4B9" fill-opacity="0.45"/>
<circle cx="260.871" cy="102.325" r="3.60736" fill="#FFF4B9" fill-opacity="0.45"/>
<g opacity="0.75">
<circle cx="92.213" cy="30.5545" r="22.2454" transform="rotate(84.9179 92.213 30.5545)" fill="#FFF4B9" fill-opacity="0.25"/>
<circle cx="60.4746" cy="60.5393" r="12.0245" transform="rotate(84.9179 60.4746 60.5393)" fill="#FFF4B9" fill-opacity="0.45"/>
<circle cx="118.431" cy="40.295" r="1.80368" transform="rotate(84.9179 118.431 40.295)" fill="#FFF4B9" fill-opacity="0.75"/>
<circle cx="11.4071" cy="44.9842" r="1.80368" transform="rotate(84.9179 11.4071 44.9842)" fill="#FFF4B9" fill-opacity="0.75"/>
<circle cx="50.7216" cy="93.3974" r="1.80368" transform="rotate(84.9179 50.7216 93.3974)" fill="#FFF4B9" fill-opacity="0.75"/>
<circle cx="77.204" cy="78.9703" r="1.80368" transform="rotate(84.9179 77.204 78.9703)" fill="#FFF4B9" fill-opacity="0.75"/>
<circle cx="72.2107" cy="16.0363" r="3.60736" transform="rotate(84.9179 72.2107 16.0363)" fill="#FFF4B9" fill-opacity="0.45"/>
<circle cx="96.3523" cy="29.583" r="3.60736" transform="rotate(84.9179 96.3523 29.583)" fill="#FFF4B9" fill-opacity="0.45"/>
<circle cx="86.2117" cy="37.728" r="3.60736" transform="rotate(84.9179 86.2117 37.728)" fill="#FFF4B9" fill-opacity="0.45"/>
<circle cx="22.0926" cy="36.187" r="3.60736" transform="rotate(84.9179 22.0926 36.187)" fill="#FFF4B9" fill-opacity="0.45"/>
<circle cx="61.407" cy="84.6002" r="3.60736" transform="rotate(84.9179 61.407 84.6002)" fill="#FFF4B9" fill-opacity="0.45"/>
</g>
</g>
<g opacity="0.65">
<circle cx="405.061" cy="331.061" r="18.0368" fill="#D0D9C1" fill-opacity="0.45"/>
<circle cx="420.092" cy="348.497" r="22.2454" fill="#D0D9C1" fill-opacity="0.25"/>
<circle cx="378.607" cy="361.123" r="3.60736" fill="#D0D9C1" fill-opacity="0.45"/>
<circle cx="445.344" cy="302.804" r="1.80368" fill="#D0D9C1" fill-opacity="0.75"/>
<circle cx="448.951" cy="389.38" r="1.80368" fill="#D0D9C1" fill-opacity="0.75"/>
<circle cx="390.632" cy="374.35" r="3.60736" fill="#D0D9C1" fill-opacity="0.45"/>
<circle cx="435.123" cy="313.025" r="3.60736" fill="#D0D9C1" fill-opacity="0.45"/>
<circle cx="441.135" cy="377.957" r="3.60736" fill="#D0D9C1" fill-opacity="0.45"/>
</g>
<g opacity="0.65">
<circle cx="199.245" cy="611.08" r="17.4356" fill="#D0D9C1" fill-opacity="0.25"/>
<circle cx="189.025" cy="624.908" r="12.0245" fill="#D0D9C1" fill-opacity="0.45"/>
<circle cx="218.484" cy="644.748" r="1.80368" fill="#D0D9C1" fill-opacity="0.75"/>
<circle cx="183.613" cy="591.841" r="1.80368" fill="#D0D9C1" fill-opacity="0.75"/>
<circle cx="189.626" cy="573.804" r="1.80368" fill="#D0D9C1" fill-opacity="0.75"/>
<circle cx="204.656" cy="605.669" r="3.60736" fill="#D0D9C1" fill-opacity="0.45"/>
<circle cx="211.871" cy="633.325" r="3.60736" fill="#D0D9C1" fill-opacity="0.45"/>
</g>
<g opacity="0.65">
<circle cx="401.245" cy="603.055" r="22.2454" fill="#D0D9C1" fill-opacity="0.25"/>
<circle cx="428.301" cy="637.325" r="12.0245" fill="#D0D9C1" fill-opacity="0.45"/>
<circle cx="413.27" cy="577.804" r="1.80368" fill="#D0D9C1" fill-opacity="0.75"/>
<circle cx="408.46" cy="684.822" r="1.80368" fill="#D0D9C1" fill-opacity="0.75"/>
<circle cx="460.166" cy="649.951" r="1.80368" fill="#D0D9C1" fill-opacity="0.75"/>
<circle cx="448.142" cy="622.294" r="1.80368" fill="#D0D9C1" fill-opacity="0.75"/>
<circle cx="385.013" cy="621.693" r="3.60736" fill="#D0D9C1" fill-opacity="0.45"/>
<circle cx="400.644" cy="598.847" r="3.60736" fill="#D0D9C1" fill-opacity="0.45"/>
<circle cx="407.859" cy="609.669" r="3.60736" fill="#D0D9C1" fill-opacity="0.45"/>
<circle cx="400.644" cy="673.399" r="3.60736" fill="#D0D9C1" fill-opacity="0.45"/>
<circle cx="452.35" cy="638.528" r="3.60736" fill="#D0D9C1" fill-opacity="0.45"/>
</g>
<g opacity="0.65">
<circle cx="142.006" cy="587.006" r="15.0063" fill="#D0D9C1" fill-opacity="0.25"/>
<circle cx="151.335" cy="597.146" r="4.8669" fill="#D0D9C1" fill-opacity="0.45"/>
<circle cx="163.097" cy="599.985" r="1.21672" fill="#D0D9C1" fill-opacity="0.75"/>
<circle cx="131.461" cy="576.461" r="1.21672" fill="#D0D9C1" fill-opacity="0.75"/>
<circle cx="133.894" cy="587.006" r="1.21672" fill="#D0D9C1" fill-opacity="0.75"/>
</g>
<g opacity="0.65">
<circle cx="76.0612" cy="986.061" r="18.0368" fill="#E3FFFC" fill-opacity="0.45"/>
<circle cx="91.0921" cy="1003.5" r="22.2454" fill="#E3FFFC" fill-opacity="0.25"/>
<circle cx="49.6074" cy="1016.12" r="3.60736" fill="#E3FFFC" fill-opacity="0.45"/>
<circle cx="116.344" cy="957.804" r="1.80368" fill="#E3FFFC" fill-opacity="0.75"/>
<circle cx="119.951" cy="1044.38" r="1.80368" fill="#E3FFFC" fill-opacity="0.75"/>
<circle cx="61.6318" cy="1029.35" r="3.60736" fill="#E3FFFC" fill-opacity="0.45"/>
<circle cx="106.123" cy="968.025" r="3.60736" fill="#E3FFFC" fill-opacity="0.45"/>
<circle cx="112.135" cy="1032.96" r="3.60736" fill="#E3FFFC" fill-opacity="0.45"/>
</g>
<g opacity="0.65">
<circle cx="352.437" cy="870.788" r="28.8589" transform="rotate(38.1588 352.437 870.788)" fill="#E3FFFC" fill-opacity="0.45"/>
<circle cx="341.124" cy="897.836" r="22.2454" transform="rotate(38.1588 341.124 897.836)" fill="#E3FFFC" fill-opacity="0.25"/>
<circle cx="350.613" cy="919.819" r="12.0245" transform="rotate(38.1588 350.613 919.819)" fill="#E3FFFC" fill-opacity="0.45"/>
<circle cx="306.713" cy="925.086" r="7.21472" transform="rotate(38.1588 306.713 925.086)" fill="#E3FFFC" fill-opacity="0.45"/>
<circle cx="366.822" cy="905.029" r="3.60736" transform="rotate(38.1588 366.822 905.029)" fill="#E3FFFC" fill-opacity="0.45"/>
<circle cx="396.775" cy="883.452" r="1.80368" transform="rotate(38.1588 396.775 883.452)" fill="#E3FFFC" fill-opacity="0.75"/>
<circle cx="319.029" cy="881.884" r="1.80368" transform="rotate(5.05137 319.029 881.884)" fill="#E3FFFC" fill-opacity="0.75"/>
<circle cx="316.88" cy="852.788" r="1.80368" transform="rotate(38.1588 316.88 852.788)" fill="#E3FFFC" fill-opacity="0.75"/>
<circle cx="350.109" cy="829.962" r="1.80368" transform="rotate(38.1588 350.109 829.962)" fill="#E3FFFC" fill-opacity="0.75"/>
<circle cx="312.248" cy="869.817" r="3.60736" transform="rotate(5.05137 312.248 869.817)" fill="#E3FFFC" fill-opacity="0.45"/>
</g>
<g opacity="0.65">
<circle cx="214.019" cy="962.436" r="22.2454" transform="rotate(-51.7445 214.019 962.436)" fill="#E3FFFC" fill-opacity="0.25"/>
<circle cx="257.682" cy="962.409" r="12.0245" transform="rotate(-51.7445 257.682 962.409)" fill="#E3FFFC" fill-opacity="0.45"/>
<circle cx="201.636" cy="937.358" r="1.80368" transform="rotate(-51.7445 201.636 937.358)" fill="#E3FFFC" fill-opacity="0.75"/>
<circle cx="282.694" cy="1007.4" r="1.80368" transform="rotate(-51.7445 282.694 1007.4)" fill="#E3FFFC" fill-opacity="0.75"/>
<circle cx="287.326" cy="945.205" r="1.80368" transform="rotate(-51.7445 287.326 945.205)" fill="#E3FFFC" fill-opacity="0.75"/>
<circle cx="258.163" cy="937.523" r="1.80368" transform="rotate(-51.7445 258.163 937.523)" fill="#E3FFFC" fill-opacity="0.75"/>
<circle cx="218.603" cy="986.723" r="3.60736" transform="rotate(-51.7445 218.603 986.723)" fill="#E3FFFC" fill-opacity="0.45"/>
<circle cx="210.342" cy="960.302" r="3.60736" transform="rotate(-51.7445 210.342 960.302)" fill="#E3FFFC" fill-opacity="0.45"/>
<circle cx="223.307" cy="961.337" r="3.60736" transform="rotate(-51.7445 223.307 961.337)" fill="#E3FFFC" fill-opacity="0.45"/>
<circle cx="268.885" cy="1006.46" r="3.60736" transform="rotate(-51.7445 268.885 1006.46)" fill="#E3FFFC" fill-opacity="0.45"/>
<circle cx="273.516" cy="944.269" r="3.60736" transform="rotate(-51.7445 273.516 944.269)" fill="#E3FFFC" fill-opacity="0.45"/>
</g>
<g opacity="0.65">
<circle cx="20.5807" cy="20.5807" r="20.5807" transform="matrix(-1 0 0 1 420.419 777.548)" fill="#E3FFFC" fill-opacity="0.25"/>
<circle cx="14.1936" cy="14.1936" r="14.1936" transform="matrix(-1 0 0 1 426.097 800.258)" fill="#E3FFFC" fill-opacity="0.45"/>
<circle cx="2.12903" cy="2.12903" r="2.12903" transform="matrix(-1 0 0 1 379.258 835.742)" fill="#E3FFFC" fill-opacity="0.75"/>
<circle cx="2.12903" cy="2.12903" r="2.12903" transform="matrix(-1 0 0 1 420.419 773.29)" fill="#E3FFFC" fill-opacity="0.75"/>
<circle cx="2.12903" cy="2.12903" r="2.12903" transform="matrix(-1 0 0 1 413.322 752)" fill="#E3FFFC" fill-opacity="0.75"/>
<circle cx="4.25807" cy="4.25807" r="4.25807" transform="matrix(-1 0 0 1 397.71 787.484)" fill="#E3FFFC" fill-opacity="0.45"/>
<circle cx="4.25807" cy="4.25807" r="4.25807" transform="matrix(-1 0 0 1 389.193 820.129)" fill="#E3FFFC" fill-opacity="0.45"/>
</g>
<g opacity="0.65">
<circle cx="16.7782" cy="16.7782" r="16.7782" transform="matrix(0.985447 0.169985 0.169985 -0.985447 50.1016 695.959)" fill="#E3FFFC" fill-opacity="0.25"/>
<circle cx="11.5712" cy="11.5712" r="11.5712" transform="matrix(0.985447 0.169985 0.169985 -0.985447 48.6875 676.928)" fill="#E3FFFC" fill-opacity="0.45"/>
<circle cx="1.73568" cy="1.73568" r="1.73568" transform="matrix(0.985447 0.169985 0.169985 -0.985447 91.2344 654.912)" fill="#E3FFFC" fill-opacity="0.75"/>
<circle cx="1.73568" cy="1.73568" r="1.73568" transform="matrix(0.985447 0.169985 0.169985 -0.985447 49.5117 699.38)" fill="#E3FFFC" fill-opacity="0.75"/>
<circle cx="1.73568" cy="1.73568" r="1.73568" transform="matrix(0.985447 0.169985 0.169985 -0.985447 52.2627 717.468)" fill="#E3FFFC" fill-opacity="0.75"/>
<circle cx="3.47136" cy="3.47136" r="3.47136" transform="matrix(0.985447 0.169985 0.169985 -0.985447 69.7227 691.124)" fill="#E3FFFC" fill-opacity="0.45"/>
<circle cx="3.47136" cy="3.47136" r="3.47136" transform="matrix(0.985447 0.169985 0.169985 -0.985447 81.0889 666.078)" fill="#E3FFFC" fill-opacity="0.45"/>
</g>
<g opacity="0.65">
<circle cx="40.8833" cy="1201.47" r="28.8589" fill="#D9C1D3" fill-opacity="0.45"/>
<circle cx="48.6995" cy="1229.72" r="22.2454" fill="#D9C1D3" fill-opacity="0.25"/>
<circle cx="69.7423" cy="1241.15" r="12.0245" fill="#D9C1D3" fill-opacity="0.45"/>
<circle cx="38.4784" cy="1272.41" r="7.21472" fill="#D9C1D3" fill-opacity="0.45"/>
<circle cx="73.3495" cy="1219.5" r="3.60736" fill="#D9C1D3" fill-opacity="0.45"/>
<circle cx="83.5703" cy="1184.03" r="1.80368" fill="#D9C1D3" fill-opacity="0.75"/>
<circle cx="21.4697" cy="1230.83" r="1.80368" transform="rotate(-33.1074 21.4697 1230.83)" fill="#D9C1D3" fill-opacity="0.75"/>
<circle cx="1.80368" cy="1209.28" r="1.80368" fill="#D9C1D3" fill-opacity="0.75"/>
<circle cx="13.8281" cy="1170.8" r="1.80368" fill="#D9C1D3" fill-opacity="0.75"/>
<circle cx="8.68251" cy="1225.53" r="3.60736" transform="rotate(-33.1074 8.68251 1225.53)" fill="#D9C1D3" fill-opacity="0.45"/>
</g>
<g opacity="0.65">
<circle cx="96.9529" cy="1277.07" r="18.0368" transform="rotate(-35.6871 96.9529 1277.07)" fill="#D9C1D3" fill-opacity="0.45"/>
<circle cx="119.332" cy="1282.46" r="22.2454" transform="rotate(-35.6871 119.332 1282.46)" fill="#D9C1D3" fill-opacity="0.25"/>
<circle cx="93.0031" cy="1316.92" r="3.60736" transform="rotate(-35.6871 93.0031 1316.92)" fill="#D9C1D3" fill-opacity="0.45"/>
<circle cx="113.186" cy="1230.62" r="1.80368" transform="rotate(-35.6871 113.186 1230.62)" fill="#D9C1D3" fill-opacity="0.75"/>
<circle cx="166.622" cy="1298.84" r="1.80368" transform="rotate(-35.6871 166.622 1298.84)" fill="#D9C1D3" fill-opacity="0.75"/>
<circle cx="110.486" cy="1320.65" r="3.60736" transform="rotate(-35.6871 110.486 1320.65)" fill="#D9C1D3" fill-opacity="0.45"/>
<circle cx="110.847" cy="1244.89" r="3.60736" transform="rotate(-35.6871 110.847 1244.89)" fill="#D9C1D3" fill-opacity="0.45"/>
<circle cx="153.61" cy="1294.12" r="3.60736" transform="rotate(-35.6871 153.61 1294.12)" fill="#D9C1D3" fill-opacity="0.45"/>
</g>
<g opacity="0.65">
<circle cx="398.953" cy="1008.07" r="18.0368" transform="rotate(-35.6871 398.953 1008.07)" fill="#D9C1D3" fill-opacity="0.45"/>
<circle cx="421.332" cy="1013.46" r="22.2454" transform="rotate(-35.6871 421.332 1013.46)" fill="#D9C1D3" fill-opacity="0.25"/>
<circle cx="395.003" cy="1047.92" r="3.60736" transform="rotate(-35.6871 395.003 1047.92)" fill="#D9C1D3" fill-opacity="0.45"/>
<circle cx="415.186" cy="961.622" r="1.80368" transform="rotate(-35.6871 415.186 961.622)" fill="#D9C1D3" fill-opacity="0.75"/>
<circle cx="468.622" cy="1029.84" r="1.80368" transform="rotate(-35.6871 468.622 1029.84)" fill="#D9C1D3" fill-opacity="0.75"/>
<circle cx="412.486" cy="1051.65" r="3.60736" transform="rotate(-35.6871 412.486 1051.65)" fill="#D9C1D3" fill-opacity="0.45"/>
<circle cx="412.847" cy="975.886" r="3.60736" transform="rotate(-35.6871 412.847 975.886)" fill="#D9C1D3" fill-opacity="0.45"/>
<circle cx="455.61" cy="1025.12" r="3.60736" transform="rotate(-35.6871 455.61 1025.12)" fill="#D9C1D3" fill-opacity="0.45"/>
</g>
<g opacity="0.65">
<circle cx="410.33" cy="1251.24" r="17.4356" transform="rotate(-115.441 410.33 1251.24)" fill="#D9C1D3" fill-opacity="0.25"/>
<circle cx="427.208" cy="1254.53" r="12.0245" transform="rotate(-115.441 427.208 1254.53)" fill="#D9C1D3" fill-opacity="0.45"/>
<circle cx="432.469" cy="1219.4" r="1.80368" transform="rotate(-115.441 432.469 1219.4)" fill="#D9C1D3" fill-opacity="0.75"/>
<circle cx="399.671" cy="1273.62" r="1.80368" transform="rotate(-115.441 399.671 1273.62)" fill="#D9C1D3" fill-opacity="0.75"/>
<circle cx="380.801" cy="1275.94" r="1.80368" transform="rotate(-115.441 380.801 1275.94)" fill="#D9C1D3" fill-opacity="0.75"/>
<circle cx="403.119" cy="1248.68" r="3.60736" transform="rotate(-115.441 403.119 1248.68)" fill="#D9C1D3" fill-opacity="0.45"/>
<circle cx="424.994" cy="1230.28" r="3.60736" transform="rotate(-115.441 424.994 1230.28)" fill="#D9C1D3" fill-opacity="0.45"/>
</g>
<g opacity="0.65">
<circle cx="257.857" cy="1286.51" r="22.2454" transform="rotate(-56.1925 257.857 1286.51)" fill="#D9C1D3" fill-opacity="0.25"/>
<circle cx="301.387" cy="1283.1" r="12.0245" transform="rotate(-56.1925 301.387 1283.1)" fill="#D9C1D3" fill-opacity="0.45"/>
<circle cx="243.567" cy="1262.47" r="1.80368" transform="rotate(-56.1925 243.567 1262.47)" fill="#D9C1D3" fill-opacity="0.75"/>
<circle cx="329.813" cy="1326.01" r="1.80368" transform="rotate(-56.1925 329.813 1326.01)" fill="#D9C1D3" fill-opacity="0.75"/>
<circle cx="329.608" cy="1263.65" r="1.80368" transform="rotate(-56.1925 329.608 1263.65)" fill="#D9C1D3" fill-opacity="0.75"/>
<circle cx="299.937" cy="1258.25" r="1.80368" transform="rotate(-56.1925 299.937 1258.25)" fill="#D9C1D3" fill-opacity="0.75"/>
<circle cx="264.312" cy="1310.37" r="3.60736" transform="rotate(-56.1925 264.312 1310.37)" fill="#D9C1D3" fill-opacity="0.45"/>
<circle cx="254.026" cy="1284.67" r="3.60736" transform="rotate(-56.1925 254.026 1284.67)" fill="#D9C1D3" fill-opacity="0.45"/>
<circle cx="267.033" cy="1284.69" r="3.60736" transform="rotate(-56.1925 267.033 1284.69)" fill="#D9C1D3" fill-opacity="0.45"/>
<circle cx="315.972" cy="1326.15" r="3.60736" transform="rotate(-56.1925 315.972 1326.15)" fill="#D9C1D3" fill-opacity="0.45"/>
<circle cx="315.767" cy="1263.78" r="3.60736" transform="rotate(-56.1925 315.767 1263.78)" fill="#D9C1D3" fill-opacity="0.45"/>
</g>
<g opacity="0.65">
<circle cx="71.6924" cy="1133.69" r="16.2033" transform="rotate(37.0091 71.6924 1133.69)" fill="#D9C1D3" fill-opacity="0.25"/>
<circle cx="73.1454" cy="1148.5" r="5.25514" transform="rotate(37.0091 73.1454 1148.5)" fill="#D9C1D3" fill-opacity="0.45"/>
<circle cx="81.4419" cy="1158.59" r="1.31378" transform="rotate(37.0091 81.4419 1158.59)" fill="#D9C1D3" fill-opacity="0.75"/>
<circle cx="69.4536" cy="1117.75" r="1.31378" transform="rotate(37.0091 69.4536 1117.75)" fill="#D9C1D3" fill-opacity="0.75"/>
<circle cx="64.6987" cy="1128.42" r="1.31378" transform="rotate(37.0091 64.6987 1128.42)" fill="#D9C1D3" fill-opacity="0.75"/>
</g>
<g opacity="0.65">
<circle cx="358.22" cy="1005.45" r="5.25514" transform="rotate(100.757 358.22 1005.45)" fill="#D9C1D3" fill-opacity="0.45"/>
<circle cx="352.838" cy="1017.36" r="1.31378" transform="rotate(100.757 352.838 1017.36)" fill="#D9C1D3" fill-opacity="0.75"/>
<circle cx="384.167" cy="988.542" r="1.31378" transform="rotate(100.757 384.167 988.542)" fill="#D9C1D3" fill-opacity="0.75"/>
<circle cx="372.49" cy="988.998" r="1.31378" transform="rotate(100.757 372.49 988.998)" fill="#D9C1D3" fill-opacity="0.75"/>
</g>
<g opacity="0.65">
<circle cx="65.0612" cy="1671.06" r="18.0368" fill="#F6D1B1" fill-opacity="0.45"/>
<circle cx="80.0921" cy="1688.5" r="22.2454" fill="#F6D1B1" fill-opacity="0.25"/>
<circle cx="38.6074" cy="1701.12" r="3.60736" fill="#F6D1B1" fill-opacity="0.45"/>
<circle cx="105.344" cy="1642.8" r="1.80368" fill="#F6D1B1" fill-opacity="0.75"/>
<circle cx="108.951" cy="1729.38" r="1.80368" fill="#F6D1B1" fill-opacity="0.75"/>
<circle cx="50.6318" cy="1714.35" r="3.60736" fill="#F6D1B1" fill-opacity="0.45"/>
<circle cx="95.123" cy="1653.02" r="3.60736" fill="#F6D1B1" fill-opacity="0.45"/>
<circle cx="101.135" cy="1717.96" r="3.60736" fill="#F6D1B1" fill-opacity="0.45"/>
</g>
<g opacity="0.65">
<circle cx="46.2454" cy="1378.06" r="22.2454" fill="#F6D1B1" fill-opacity="0.25"/>
<circle cx="73.3009" cy="1412.33" r="12.0245" fill="#F6D1B1" fill-opacity="0.45"/>
<circle cx="58.2705" cy="1352.8" r="1.80368" fill="#F6D1B1" fill-opacity="0.75"/>
<circle cx="53.4599" cy="1459.82" r="1.80368" fill="#F6D1B1" fill-opacity="0.75"/>
<circle cx="105.166" cy="1424.95" r="1.80368" fill="#F6D1B1" fill-opacity="0.75"/>
<circle cx="93.1416" cy="1397.29" r="1.80368" fill="#F6D1B1" fill-opacity="0.75"/>
<circle cx="30.0126" cy="1396.69" r="3.60736" fill="#F6D1B1" fill-opacity="0.45"/>
<circle cx="45.6445" cy="1373.85" r="3.60736" fill="#F6D1B1" fill-opacity="0.45"/>
<circle cx="52.8593" cy="1384.67" r="3.60736" fill="#F6D1B1" fill-opacity="0.45"/>
<circle cx="45.6445" cy="1448.4" r="3.60736" fill="#F6D1B1" fill-opacity="0.45"/>
<circle cx="97.3495" cy="1413.53" r="3.60736" fill="#F6D1B1" fill-opacity="0.45"/>
</g>
<g opacity="0.65">
<circle cx="317.881" cy="1661.21" r="21.9084" transform="rotate(-108.047 317.881 1661.21)" fill="#F6D1B1" fill-opacity="0.25"/>
<circle cx="338.38" cy="1668.04" r="15.1092" transform="rotate(-108.047 338.38 1668.04)" fill="#F6D1B1" fill-opacity="0.45"/>
<circle cx="350.616" cy="1625.12" r="2.26639" transform="rotate(-108.047 350.616 1625.12)" fill="#F6D1B1" fill-opacity="0.75"/>
<circle cx="300.981" cy="1687.38" r="2.26639" transform="rotate(-108.047 300.981 1687.38)" fill="#F6D1B1" fill-opacity="0.75"/>
<circle cx="277.091" cy="1687.21" r="2.26639" transform="rotate(-108.047 277.091 1687.21)" fill="#F6D1B1" fill-opacity="0.75"/>
<circle cx="309.31" cy="1656.85" r="4.53277" transform="rotate(-108.047 309.31 1656.85)" fill="#F6D1B1" fill-opacity="0.45"/>
<circle cx="339.543" cy="1637.47" r="4.53277" transform="rotate(-108.047 339.543 1637.47)" fill="#F6D1B1" fill-opacity="0.45"/>
</g>
<g opacity="0.65">
<circle cx="87.626" cy="1602.83" r="12.6112" transform="rotate(-128.201 87.626 1602.83)" fill="#F6D1B1" fill-opacity="0.25"/>
<circle cx="100.058" cy="1602.45" r="8.69735" transform="rotate(-128.201 100.058 1602.45)" fill="#F6D1B1" fill-opacity="0.45"/>
<circle cx="98.1569" cy="1576.83" r="1.3046" transform="rotate(-128.201 98.1569 1576.83)" fill="#F6D1B1" fill-opacity="0.75"/>
<circle cx="83.6823" cy="1620.32" r="1.3046" transform="rotate(-128.201 83.6823 1620.32)" fill="#F6D1B1" fill-opacity="0.75"/>
<circle cx="70.7409" cy="1624.97" r="1.3046" transform="rotate(-128.201 70.7409 1624.97)" fill="#F6D1B1" fill-opacity="0.75"/>
<circle cx="82.1292" cy="1602.17" r="2.6092" transform="rotate(-128.201 82.1292 1602.17)" fill="#F6D1B1" fill-opacity="0.45"/>
<circle cx="94.6224" cy="1585.7" r="2.6092" transform="rotate(-128.201 94.6224 1585.7)" fill="#F6D1B1" fill-opacity="0.45"/>
</g>
<g opacity="0.65">
<circle cx="371.638" cy="1589.9" r="16.5183" fill="#F6D1B1" fill-opacity="0.25"/>
<circle cx="381.906" cy="1601.06" r="5.35729" fill="#F6D1B1" fill-opacity="0.45"/>
<circle cx="394.853" cy="1604.19" r="1.33932" fill="#F6D1B1" fill-opacity="0.75"/>
<circle cx="360.031" cy="1578.29" r="1.33932" fill="#F6D1B1" fill-opacity="0.75"/>
<circle cx="362.709" cy="1589.9" r="1.33932" fill="#F6D1B1" fill-opacity="0.75"/>
</g>
<g opacity="0.65">
<circle cx="367.177" cy="1377.87" r="28.8589" transform="rotate(45 367.177 1377.87)" fill="#F6D1B1" fill-opacity="0.45"/>
<circle cx="352.722" cy="1403.37" r="22.2454" transform="rotate(45 352.722 1403.37)" fill="#F6D1B1" fill-opacity="0.25"/>
<circle cx="359.524" cy="1426.33" r="12.0245" transform="rotate(45 359.524 1426.33)" fill="#F6D1B1" fill-opacity="0.45"/>
<circle cx="315.311" cy="1426.33" r="7.21472" transform="rotate(45 315.311 1426.33)" fill="#F6D1B1" fill-opacity="0.45"/>
<circle cx="377.38" cy="1413.58" r="3.60736" transform="rotate(45 377.38 1413.58)" fill="#F6D1B1" fill-opacity="0.45"/>
<circle cx="409.689" cy="1395.72" r="1.80368" transform="rotate(45 409.689 1395.72)" fill="#F6D1B1" fill-opacity="0.75"/>
<circle cx="332.683" cy="1384.9" r="1.80368" transform="rotate(11.8926 332.683 1384.9)" fill="#F6D1B1" fill-opacity="0.75"/>
<circle cx="334.017" cy="1355.76" r="1.80368" transform="rotate(45 334.017 1355.76)" fill="#F6D1B1" fill-opacity="0.75"/>
<circle cx="369.728" cy="1337.05" r="1.80368" transform="rotate(45 369.728 1337.05)" fill="#F6D1B1" fill-opacity="0.75"/>
<circle cx="327.389" cy="1372.11" r="3.60736" transform="rotate(11.8926 327.389 1372.11)" fill="#F6D1B1" fill-opacity="0.45"/>
</g>
<circle cx="386.245" cy="27.0552" r="22.2454" fill="#FFF4B9" fill-opacity="0.25"/>
<circle cx="413.301" cy="61.3251" r="12.0245" fill="#FFF4B9" fill-opacity="0.45"/>
<circle cx="398.27" cy="1.80368" r="1.80368" fill="#FFF4B9" fill-opacity="0.75"/>
<circle cx="393.46" cy="108.822" r="1.80368" fill="#FFF4B9" fill-opacity="0.75"/>
<circle cx="445.166" cy="73.9509" r="1.80368" fill="#FFF4B9" fill-opacity="0.75"/>
<circle cx="433.142" cy="46.2944" r="1.80368" fill="#FFF4B9" fill-opacity="0.75"/>
<circle cx="370.013" cy="45.6933" r="3.60736" fill="#FFF4B9" fill-opacity="0.45"/>
<circle cx="385.644" cy="22.8466" r="3.60736" fill="#FFF4B9" fill-opacity="0.45"/>
<circle cx="392.859" cy="33.6686" r="3.60736" fill="#FFF4B9" fill-opacity="0.45"/>
<circle cx="385.644" cy="97.3987" r="3.60736" fill="#FFF4B9" fill-opacity="0.45"/>
<circle cx="437.35" cy="62.5275" r="3.60736" fill="#FFF4B9" fill-opacity="0.45"/>
</svg>
