<svg width="425" height="1798" viewBox="0 0 425 1798" fill="none" xmlns="http://www.w3.org/2000/svg">
<path d="M332.5 650L332.882 678.075L347.25 653.952L333.543 678.457L358.048 664.75L333.925 679.118L362 679.5L333.925 679.882L358.048 694.25L333.543 680.543L347.25 705.048L332.882 680.925L332.5 709L332.118 680.925L317.75 705.048L331.457 680.543L306.952 694.25L331.075 679.882L303 679.5L331.075 679.118L306.952 664.75L331.457 678.457L317.75 653.952L332.118 678.075L332.5 650Z" fill="url(#paint0_radial_902_6741)"/>
<path d="M129.5 555L130.024 593.544L149.75 560.426L130.932 594.068L164.574 575.25L131.456 594.976L170 595.5L131.456 596.024L164.574 615.75L130.932 596.932L149.75 630.574L130.024 597.456L129.5 636L128.976 597.456L109.25 630.574L128.068 596.932L94.426 615.75L127.544 596.024L89 595.5L127.544 594.976L94.426 575.25L128.068 594.068L109.25 560.426L128.976 593.544L129.5 555Z" fill="url(#paint1_radial_902_6741)"/>
<path d="M385.5 642L386.419 647.581L392 648.5L386.419 649.419L385.5 655L384.581 649.419L379 648.5L384.581 647.581L385.5 642Z" fill="#D0D9C1"/>
<path d="M27.5 548L29.5506 560.449L42 562.5L29.5506 564.551L27.5 577L25.4494 564.551L13 562.5L25.4494 560.449L27.5 548Z" fill="#D0D9C1"/>
<path d="M376.5 306L377.063 347.399L398.25 311.828L378.038 347.962L414.172 327.75L378.601 348.937L420 349.5L378.601 350.063L414.172 371.25L378.038 351.038L398.25 387.172L377.063 351.601L376.5 393L375.937 351.601L354.75 387.172L374.962 351.038L338.828 371.25L374.399 350.063L333 349.5L374.399 348.937L338.828 327.75L374.962 347.962L354.75 311.828L375.937 347.399L376.5 306Z" fill="url(#paint2_radial_902_6741)"/>
<path d="M338.5 384L339.419 389.581L345 390.5L339.419 391.419L338.5 397L337.581 391.419L332 390.5L337.581 389.581L338.5 384Z" fill="#D0D9C1"/>
<path d="M287.5 265L288.419 270.581L294 271.5L288.419 272.419L287.5 278L286.581 272.419L281 271.5L286.581 270.581L287.5 265Z" fill="#FFF4B9"/>
<path d="M190.5 661L191.419 666.581L197 667.5L191.419 668.419L190.5 674L189.581 668.419L184 667.5L189.581 666.581L190.5 661Z" fill="#D0D9C1"/>
<path d="M370.5 923L371.063 964.399L392.25 928.828L372.038 964.962L408.172 944.75L372.601 965.937L414 966.5L372.601 967.063L408.172 988.25L372.038 968.038L392.25 1004.17L371.063 968.601L370.5 1010L369.937 968.601L348.75 1004.17L368.962 968.038L332.828 988.25L368.399 967.063L327 966.5L368.399 965.937L332.828 944.75L368.962 964.962L348.75 928.828L369.937 964.399L370.5 923Z" fill="url(#paint3_radial_902_6741)"/>
<path d="M141.5 991L142.063 1032.4L163.25 996.828L143.038 1032.96L179.172 1012.75L143.601 1033.94L185 1034.5L143.601 1035.06L179.172 1056.25L143.038 1036.04L163.25 1072.17L142.063 1036.6L141.5 1078L140.937 1036.6L119.75 1072.17L139.962 1036.04L103.828 1056.25L139.399 1035.06L98 1034.5L139.399 1033.94L103.828 1012.75L139.962 1032.96L119.75 996.828L140.937 1032.4L141.5 991Z" fill="url(#paint4_radial_902_6741)"/>
<path d="M29.5 753L29.7265 769.655L38.25 755.345L30.1187 769.881L44.6554 761.75L30.3452 770.274L47 770.5L30.3452 770.726L44.6554 779.25L30.1187 771.119L38.25 785.655L29.7265 771.345L29.5 788L29.2735 771.345L20.75 785.655L28.8813 771.119L14.3446 779.25L28.6548 770.726L12 770.5L28.6548 770.274L14.3446 761.75L28.8813 769.881L20.75 755.345L29.2735 769.655L29.5 753Z" fill="url(#paint5_radial_902_6741)"/>
<path d="M376.5 770L377.419 775.581L383 776.5L377.419 777.419L376.5 783L375.581 777.419L370 776.5L375.581 775.581L376.5 770Z" fill="#E3FFFC"/>
<path d="M212.5 712L213.419 717.581L219 718.5L213.419 719.419L212.5 725L211.581 719.419L206 718.5L211.581 717.581L212.5 712Z" fill="#E3FFFC"/>
<path d="M270.5 945L271.419 950.581L277 951.5L271.419 952.419L270.5 958L269.581 952.419L264 951.5L269.581 950.581L270.5 945Z" fill="#E3FFFC"/>
<path d="M195.5 1028L196.419 1033.58L202 1034.5L196.419 1035.42L195.5 1041L194.581 1035.42L189 1034.5L194.581 1033.58L195.5 1028Z" fill="#E3FFFC"/>
<path d="M57.5 1050L59.692 1063.31L73 1065.5L59.692 1067.69L57.5 1081L55.308 1067.69L42 1065.5L55.308 1063.31L57.5 1050Z" fill="#E3FFFC"/>
<path d="M324.5 914L326.692 927.308L340 929.5L326.692 931.692L324.5 945L322.308 931.692L309 929.5L322.308 927.308L324.5 914Z" fill="#E3FFFC"/>
<path d="M55.5 1214L56.0629 1255.4L77.25 1219.83L57.038 1255.96L93.1721 1235.75L57.6009 1256.94L99 1257.5L57.6009 1258.06L93.1721 1279.25L57.038 1259.04L77.25 1295.17L56.0629 1259.6L55.5 1301L54.9371 1259.6L33.75 1295.17L53.962 1259.04L17.8279 1279.25L53.3991 1258.06L12 1257.5L53.3991 1256.94L17.8279 1235.75L53.962 1255.96L33.75 1219.83L54.9371 1255.4L55.5 1214Z" fill="url(#paint6_radial_902_6741)"/>
<path d="M339.5 1240L340.063 1281.4L361.25 1245.83L341.038 1281.96L377.172 1261.75L341.601 1282.94L383 1283.5L341.601 1284.06L377.172 1305.25L341.038 1285.04L361.25 1321.17L340.063 1285.6L339.5 1327L338.937 1285.6L317.75 1321.17L337.962 1285.04L301.828 1305.25L337.399 1284.06L296 1283.5L337.399 1282.94L301.828 1261.75L337.962 1281.96L317.75 1245.83L338.937 1281.4L339.5 1240Z" fill="url(#paint7_radial_902_6741)"/>
<path d="M46.5 1126L46.7523 1144.56L56.25 1128.61L47.1894 1144.81L63.3875 1135.75L47.4418 1145.25L66 1145.5L47.4418 1145.75L63.3875 1155.25L47.1894 1146.19L56.25 1162.39L46.7523 1146.44L46.5 1165L46.2477 1146.44L36.75 1162.39L45.8106 1146.19L29.6125 1155.25L45.5582 1145.75L27 1145.5L45.5582 1145.25L29.6125 1135.75L45.8106 1144.81L36.75 1128.61L46.2477 1144.56L46.5 1126Z" fill="url(#paint8_radial_902_6741)"/>
<path d="M357.5 996L357.752 1014.56L367.25 998.613L358.189 1014.81L374.387 1005.75L358.442 1015.25L377 1015.5L358.442 1015.75L374.387 1025.25L358.189 1016.19L367.25 1032.39L357.752 1016.44L357.5 1035L357.248 1016.44L347.75 1032.39L356.811 1016.19L340.613 1025.25L356.558 1015.75L338 1015.5L356.558 1015.25L340.613 1005.75L356.811 1014.81L347.75 998.613L357.248 1014.56L357.5 996Z" fill="url(#paint9_radial_902_6741)"/>
<path d="M62.5 1163L65.2577 1179.74L82 1182.5L65.2577 1185.26L62.5 1202L59.7423 1185.26L43 1182.5L59.7423 1179.74L62.5 1163Z" fill="#D9C1D3"/>
<path d="M316.5 1315L317.419 1320.58L323 1321.5L317.419 1322.42L316.5 1328L315.581 1322.42L310 1321.5L315.581 1320.58L316.5 1315Z" fill="#D9C1D3"/>
<path d="M46.5 1328L48.2678 1338.73L59 1340.5L48.2678 1342.27L46.5 1353L44.7322 1342.27L34 1340.5L44.7322 1338.73L46.5 1328Z" fill="#D9C1D3"/>
<path d="M373.5 1060L375.268 1070.73L386 1072.5L375.268 1074.27L373.5 1085L371.732 1074.27L361 1072.5L371.732 1070.73L373.5 1060Z" fill="#D9C1D3"/>
<path d="M344.158 1634L344.863 1685.87L371.408 1641.3L346.085 1686.57L391.357 1661.25L346.79 1687.79L398.658 1688.5L346.79 1689.21L391.357 1715.75L346.085 1690.43L371.408 1735.7L344.863 1691.13L344.158 1743L343.453 1691.13L316.908 1735.7L342.231 1690.43L296.96 1715.75L341.526 1689.21L289.658 1688.5L341.526 1687.79L296.96 1661.25L342.231 1686.57L316.908 1641.3L343.453 1685.87L344.158 1634Z" fill="url(#paint10_radial_902_6741)"/>
<path d="M36.5 1607L36.7653 1626.51L46.75 1609.75L37.2248 1626.78L54.2535 1617.25L37.4901 1627.23L57 1627.5L37.4901 1627.77L54.2535 1637.75L37.2248 1628.22L46.75 1645.25L36.7653 1628.49L36.5 1648L36.2347 1628.49L26.25 1645.25L35.7752 1628.22L18.7465 1637.75L35.5099 1627.77L16 1627.5L35.5099 1627.23L18.7465 1617.25L35.7752 1626.78L26.25 1609.75L36.2347 1626.51L36.5 1607Z" fill="url(#paint11_radial_902_6741)"/>
<path d="M20.5 1439L20.7653 1458.51L30.75 1441.75L21.2248 1458.78L38.2535 1449.25L21.4901 1459.23L41 1459.5L21.4901 1459.77L38.2535 1469.75L21.2248 1460.22L30.75 1477.25L20.7653 1460.49L20.5 1480L20.2347 1460.49L10.25 1477.25L19.7752 1460.22L2.74648 1469.75L19.5099 1459.77L0 1459.5L19.5099 1459.23L2.74648 1449.25L19.7752 1458.78L10.25 1441.75L20.2347 1458.51L20.5 1439Z" fill="url(#paint12_radial_902_6741)"/>
<path d="M79.5 1651L80.4512 1720.95L116.25 1660.85L82.0986 1721.9L143.153 1687.75L83.0498 1723.55L153 1724.5L83.0498 1725.45L143.153 1761.25L82.0986 1727.1L116.25 1788.15L80.4512 1728.05L79.5 1798L78.5488 1728.05L42.75 1788.15L76.9014 1727.1L15.8471 1761.25L75.9502 1725.45L6 1724.5L75.9502 1723.55L15.8471 1687.75L76.9014 1721.9L42.75 1660.85L78.5488 1720.95L79.5 1651Z" fill="url(#paint13_radial_902_6741)"/>
<path d="M362.5 1365L363.063 1406.4L384.25 1370.83L364.038 1406.96L400.172 1386.75L364.601 1407.94L406 1408.5L364.601 1409.06L400.172 1430.25L364.038 1410.04L384.25 1446.17L363.063 1410.6L362.5 1452L361.937 1410.6L340.75 1446.17L360.962 1410.04L324.828 1430.25L360.399 1409.06L319 1408.5L360.399 1407.94L324.828 1386.75L360.962 1406.96L340.75 1370.83L361.937 1406.4L362.5 1365Z" fill="url(#paint14_radial_902_6741)"/>
<path d="M38.5 1409L39.4192 1414.58L45 1415.5L39.4192 1416.42L38.5 1422L37.5808 1416.42L32 1415.5L37.5808 1414.58L38.5 1409Z" fill="#F6D1B1"/>
<path d="M20.5 1637L22.5506 1649.45L35 1651.5L22.5506 1653.55L20.5 1666L18.4494 1653.55L6 1651.5L18.4494 1649.45L20.5 1637Z" fill="#F6D1B1"/>
<path d="M308.5 1431L310.551 1443.45L323 1445.5L310.551 1447.55L308.5 1460L306.449 1447.55L294 1445.5L306.449 1443.45L308.5 1431Z" fill="#F6D1B1"/>
<path d="M254 1660L255.131 1666.87L262 1668L255.131 1669.13L254 1676L252.869 1669.13L246 1668L252.869 1666.87L254 1660Z" fill="#F6D1B1"/>
<path d="M339.5 1472L340.419 1477.58L346 1478.5L340.419 1479.42L339.5 1485L338.581 1479.42L333 1478.5L338.581 1477.58L339.5 1472Z" fill="#F6D1B1"/>
<path d="M146.5 1702L147.419 1707.58L153 1708.5L147.419 1709.42L146.5 1715L145.581 1709.42L140 1708.5L145.581 1707.58L146.5 1702Z" fill="#F6D1B1"/>
<path d="M381.5 0L382.063 41.3991L403.25 5.8279L383.038 41.962L419.172 21.75L383.601 42.9371L425 43.5L383.601 44.0629L419.172 65.25L383.038 45.038L403.25 81.1721L382.063 45.6009L381.5 87L380.937 45.6009L359.75 81.1721L379.962 45.038L343.828 65.25L379.399 44.0629L338 43.5L379.399 42.9371L343.828 21.75L379.962 41.962L359.75 5.8279L380.937 41.3991L381.5 0Z" fill="url(#paint15_radial_902_6741)"/>
<path d="M268.5 214L268.856 240.172L282.25 217.684L269.472 240.528L292.316 227.75L269.828 241.144L296 241.5L269.828 241.856L292.316 255.25L269.472 242.472L282.25 265.316L268.856 242.828L268.5 269L268.144 242.828L254.75 265.316L267.528 242.472L244.684 255.25L267.172 241.856L241 241.5L267.172 241.144L244.684 227.75L267.528 240.528L254.75 217.684L268.144 240.172L268.5 214Z" fill="url(#paint16_radial_902_6741)"/>
<defs>
<radialGradient id="paint0_radial_902_6741" cx="0" cy="0" r="1" gradientUnits="userSpaceOnUse" gradientTransform="translate(332.5 679.5) rotate(90) scale(29.5)">
<stop stop-color="#D0D9C1"/>
<stop offset="1" stop-color="#D0D9C1" stop-opacity="0"/>
</radialGradient>
<radialGradient id="paint1_radial_902_6741" cx="0" cy="0" r="1" gradientUnits="userSpaceOnUse" gradientTransform="translate(129.5 595.5) rotate(90) scale(40.5)">
<stop stop-color="#D0D9C1"/>
<stop offset="1" stop-color="#D0D9C1" stop-opacity="0"/>
</radialGradient>
<radialGradient id="paint2_radial_902_6741" cx="0" cy="0" r="1" gradientUnits="userSpaceOnUse" gradientTransform="translate(376.5 349.5) rotate(90) scale(43.5)">
<stop stop-color="#D0D9C1"/>
<stop offset="1" stop-color="#D0D9C1" stop-opacity="0"/>
</radialGradient>
<radialGradient id="paint3_radial_902_6741" cx="0" cy="0" r="1" gradientUnits="userSpaceOnUse" gradientTransform="translate(370.5 966.5) rotate(90) scale(43.5)">
<stop stop-color="#E3FFFC"/>
<stop offset="1" stop-color="#E3FFFC" stop-opacity="0"/>
</radialGradient>
<radialGradient id="paint4_radial_902_6741" cx="0" cy="0" r="1" gradientUnits="userSpaceOnUse" gradientTransform="translate(141.5 1034.5) rotate(90) scale(43.5)">
<stop stop-color="#E3FFFC"/>
<stop offset="1" stop-color="#E3FFFC" stop-opacity="0"/>
</radialGradient>
<radialGradient id="paint5_radial_902_6741" cx="0" cy="0" r="1" gradientUnits="userSpaceOnUse" gradientTransform="translate(29.5 770.5) rotate(90) scale(17.5)">
<stop stop-color="#E3FFFC"/>
<stop offset="1" stop-color="#E3FFFC" stop-opacity="0"/>
</radialGradient>
<radialGradient id="paint6_radial_902_6741" cx="0" cy="0" r="1" gradientUnits="userSpaceOnUse" gradientTransform="translate(55.5 1257.5) rotate(90) scale(43.5)">
<stop stop-color="#D9C1D3"/>
<stop offset="1" stop-color="#D9C1D3" stop-opacity="0"/>
</radialGradient>
<radialGradient id="paint7_radial_902_6741" cx="0" cy="0" r="1" gradientUnits="userSpaceOnUse" gradientTransform="translate(339.5 1283.5) rotate(90) scale(43.5)">
<stop stop-color="#D9C1D3"/>
<stop offset="1" stop-color="#D9C1D3" stop-opacity="0"/>
</radialGradient>
<radialGradient id="paint8_radial_902_6741" cx="0" cy="0" r="1" gradientUnits="userSpaceOnUse" gradientTransform="translate(46.5 1145.5) rotate(90) scale(19.5)">
<stop stop-color="#D9C1D3"/>
<stop offset="1" stop-color="#D9C1D3" stop-opacity="0"/>
</radialGradient>
<radialGradient id="paint9_radial_902_6741" cx="0" cy="0" r="1" gradientUnits="userSpaceOnUse" gradientTransform="translate(357.5 1015.5) rotate(90) scale(19.5)">
<stop stop-color="#D9C1D3"/>
<stop offset="1" stop-color="#D9C1D3" stop-opacity="0"/>
</radialGradient>
<radialGradient id="paint10_radial_902_6741" cx="0" cy="0" r="1" gradientUnits="userSpaceOnUse" gradientTransform="translate(344.158 1688.5) rotate(90) scale(54.5)">
<stop stop-color="#F6D1B1"/>
<stop offset="1" stop-color="#99926F" stop-opacity="0"/>
</radialGradient>
<radialGradient id="paint11_radial_902_6741" cx="0" cy="0" r="1" gradientUnits="userSpaceOnUse" gradientTransform="translate(36.5 1627.5) rotate(90) scale(20.5)">
<stop stop-color="#F6D1B1"/>
<stop offset="1" stop-color="#99926F" stop-opacity="0"/>
</radialGradient>
<radialGradient id="paint12_radial_902_6741" cx="0" cy="0" r="1" gradientUnits="userSpaceOnUse" gradientTransform="translate(20.5 1459.5) rotate(90) scale(20.5)">
<stop stop-color="#F6D1B1"/>
<stop offset="1" stop-color="#99926F" stop-opacity="0"/>
</radialGradient>
<radialGradient id="paint13_radial_902_6741" cx="0" cy="0" r="1" gradientUnits="userSpaceOnUse" gradientTransform="translate(79.5 1724.5) rotate(90) scale(73.5)">
<stop stop-color="#F6D1B1"/>
<stop offset="1" stop-color="#99926F" stop-opacity="0"/>
</radialGradient>
<radialGradient id="paint14_radial_902_6741" cx="0" cy="0" r="1" gradientUnits="userSpaceOnUse" gradientTransform="translate(362.5 1408.5) rotate(90) scale(43.5)">
<stop stop-color="#F6D1B1"/>
<stop offset="1" stop-color="#99926F" stop-opacity="0"/>
</radialGradient>
<radialGradient id="paint15_radial_902_6741" cx="0" cy="0" r="1" gradientUnits="userSpaceOnUse" gradientTransform="translate(381.5 43.5) rotate(90) scale(43.5)">
<stop stop-color="#FFF4B9"/>
<stop offset="1" stop-color="#99926F" stop-opacity="0"/>
</radialGradient>
<radialGradient id="paint16_radial_902_6741" cx="0" cy="0" r="1" gradientUnits="userSpaceOnUse" gradientTransform="translate(268.5 241.5) rotate(90) scale(27.5)">
<stop stop-color="#FFF4B9"/>
<stop offset="1" stop-color="#99926F" stop-opacity="0"/>
</radialGradient>
</defs>
</svg>
